<?xml version="1.0" encoding="utf-8"?>
<!-- Generator: Adobe Illustrator 16.0.3, SVG Export Plug-In . SVG Version: 6.00 Build 0)  -->
<!DOCTYPE svg PUBLIC "-//W3C//DTD SVG 1.1//EN" "http://www.w3.org/Graphics/SVG/1.1/DTD/svg11.dtd">
<svg version="1.1" id="Capa_1" xmlns="http://www.w3.org/2000/svg" xmlns:xlink="http://www.w3.org/1999/xlink" x="0px" y="0px"
	 width="595.28px" height="595.28px" viewBox="0 0 595.28 595.28" enable-background="new 0 0 595.28 595.28" xml:space="preserve">
<g>
	<path d="M251.604,463.373c-4.741,9.176-13.424,14.197-28.311,14.197c-15.744,0-29.271-7.439-29.271-28.016
		c0-20.766,11.757-32.841,28.304-32.841c16.813,0,25.31,6.758,28.694,17.677l-15.839,8.11c-1.068-6.754-5.469-10.714-10.339-10.714
		c-5.712,0-12.174,4.923-12.174,14.679c0,10.335,5.265,15.065,11.878,15.065c5.378,0,9.668-3.274,11.396-8.017L251.604,463.373z"/>
	<path d="M251.604,463.373c-4.741,9.176-13.424,14.197-28.311,14.197c-15.744,0-29.271-7.439-29.271-28.016
		c0-20.766,11.757-32.841,28.304-32.841c16.813,0,25.31,6.758,28.694,17.677l-15.839,8.11c-1.068-6.754-5.469-10.714-10.339-10.714
		c-5.712,0-12.174,4.923-12.174,14.679c0,10.335,5.265,15.065,11.878,15.065c5.378,0,9.668-3.274,11.396-8.017L251.604,463.373z"/>
	<path d="M252.987,427.054l17.464-4.48c0,0,3.214,20.413,5.7,35.281c0.762,4.582,3.844,6.705,9.392,5.776
		c5.822-0.971,8.6-3.582,7.842-8.16c-2.49-14.876-6.105-35.319-6.105-35.319l18.768-4.995c0,0,2.676,26.038,5.17,40.955
		c2.047,12.227-8.134,19.678-21.888,21.975c-15.823,2.642-27.307-2.176-29.289-14.062
		C257.471,448.638,252.987,427.054,252.987,427.054"/>
	<path d="M252.987,427.054l17.464-4.48c0,0,3.214,20.413,5.7,35.281c0.762,4.582,3.844,6.705,9.392,5.776
		c5.822-0.971,8.6-3.582,7.842-8.16c-2.49-14.876-6.105-35.319-6.105-35.319l18.768-4.995c0,0,2.676,26.038,5.17,40.955
		c2.047,12.227-8.134,19.678-21.888,21.975c-15.823,2.642-27.307-2.176-29.289-14.062
		C257.471,448.638,252.987,427.054,252.987,427.054z"/>
	<polygon points="362.396,415.259 360.361,430.044 335.359,430.139 335.257,437.479 357.572,438.348 357.47,451.685 
		335.359,450.813 335.17,458.737 362.977,460.576 360.854,477.278 319.99,474.671 316.606,417.294 	"/>
	<polygon points="362.396,415.259 360.361,430.044 335.359,430.139 335.257,437.479 357.572,438.348 357.47,451.685 
		335.359,450.813 335.17,458.737 362.977,460.576 360.854,477.278 319.99,474.671 316.606,417.294 	"/>
	<polygon points="385.773,476.698 367.612,477.953 372.44,415.357 388.461,418.063 407.502,449.085 407.801,416.903 
		425.183,415.547 421.806,476.502 405.315,479.215 385.868,443.619 	"/>
	<polygon points="385.773,476.698 367.612,477.953 372.44,415.357 388.461,418.063 407.502,449.085 407.801,416.903 
		425.183,415.547 421.806,476.502 405.315,479.215 385.868,443.619 	"/>
	<polygon points="428.661,417.775 480.531,413.433 480.243,429.756 465.371,430.62 467.206,475.156 448.653,473.515 
		446.914,431.007 431.076,432.943 	"/>
	<polygon points="428.661,417.775 480.531,413.433 480.243,429.756 465.371,430.62 467.206,475.156 448.653,473.515 
		446.914,431.007 431.076,432.943 	"/>
	<path d="M479.273,450.877c0-19.037,11.415-30.627,30.357-30.627c19.011,0,26.272,11.014,26.272,33.231
		c0,19.302-10.581,27.534-29.271,27.534C488.851,481.016,479.273,471.643,479.273,450.877 M497.647,450.968
		c0,9.961,4.635,14.781,11.499,14.781c5.896,0,8.792-3.824,8.792-14.974c0-8.305-0.97-15.062-7.728-15.062
		C502.286,435.714,497.647,441.118,497.647,450.968"/>
	<path d="M479.273,450.877c0-19.037,11.415-30.627,30.357-30.627c19.011,0,26.272,11.014,26.272,33.231
		c0,19.302-10.581,27.534-29.271,27.534C488.851,481.016,479.273,471.643,479.273,450.877z M497.647,450.968
		c0,9.961,4.635,14.781,11.499,14.781c5.896,0,8.792-3.824,8.792-14.974c0-8.305-0.97-15.062-7.728-15.062
		C502.286,435.714,497.647,441.118,497.647,450.968z"/>
	<g>
		<path d="M271.521,390.306c6.022,0.72,12.128,2.437,18.056,1.985c50.357-3.835,95.189-20.583,131.039-57.547
			c26.53-27.36,42.982-59.924,50.236-97.259c4.09-21.05,4.7-42.089,0.284-63.161c-0.508-2.402-0.955-4.87-1.856-7.137
			c-3.483-8.663-9.278-12.646-16.726-11.764c-6.966,0.837-12.329,6.894-14.398,14.921c-3.673,14.258-6.549,28.94-12.227,42.402
			c-4.066,9.631-10.911,18.912-18.681,25.988c-21.312,19.47-55.479,14.854-79.727-5.95c-7.11-6.105-14.054-12.431-21.475-18.128
			c-9.676-7.409-19.632-7.637-27.238-1.36c-7.641,6.318-9.782,20.167-3.316,29.782c6.572,9.793,14.398,18.761,21.717,28.05
			c11.771,14.921,22.194,30.581,22.104,50.49c-0.129,26.329-11.279,46.522-34.997,59.056c-4.294,2.274-8.63,4.453-12.939,6.675
			C271.414,388.339,271.475,389.32,271.521,390.306"/>
		<path d="M275.92,369.18c31.116-13.204,39.367-44.494,21.903-75.558c-5.515-9.801-13.368-18.268-19.925-27.5
			c-6.571-9.236-13.613-18.229-19.136-28.072c-20.317-36.16-12.848-76.551,23.677-101.189c5.723-3.862,11.628-7.474,17.226-11.495
			c9.646-6.909,12.647-15.084,9.21-24.078c-4.086-10.714-12.72-16.119-24.598-14.106c-15.489,2.627-28.554,10.498-40.265,20.713
			c-16.146,14.083-29.301,30.502-39.738,49.27c-7.85,14.137-16.032,18.424-28.517,15.434c-4.18-1.001-8.626-2.938-11.79-5.746
			c-9.927-8.771-19.728-17.76-28.743-27.443c-8.498-9.111-16.101-12.754-22.706-8.854c-6.947,4.104-8.073,12.2-3.961,23.983
			c10.714,30.646,32.515,52.737,57.146,72.01c22.104,17.29,46.003,32.291,68.342,49.323c12.821,9.774,25.336,20.52,35.781,32.723
			C285.119,326.475,290.034,346.914,275.92,369.18"/>
		<path d="M180.329,315.608c-9.498-2.172-14.948-9.68-19.784-16.839c-6.859-10.153-11.896-21.517-18.298-32.003
			c-3.222-5.279-6.853-11.146-11.84-14.322c-8.361-5.299-17.51-0.349-18.257,9.494c-0.421,5.666,0.326,12.112,2.68,17.218
			c23.161,49.926,60.174,84.865,112.949,102.05c5.432,1.758,11.682,2.38,17.348,1.758c7.409-0.799,12.321-5.866,14.391-13.215
			c1.929-6.834,0.621-13.27-5.188-17.26c-5.939-4.074-12.504-7.804-19.341-9.896c-17.051-5.223-33.928-10.585-48.641-21.057
			c-2.323-1.652-4.146-4.037-6.216-6.083L180.329,315.608z"/>
		<path d="M414.635,191.895c-0.103-23.263-19.321-43.285-42.08-42.308c-24.791,1.076-42.319,16.396-42.331,43.377
			c-0.012,24.548,19.829,42.092,42.823,41.693C399.944,234.203,416.313,211.709,414.635,191.895"/>
		<path d="M179.12,149.689c20.822-0.129,37.226-17.01,36.805-37.889c-0.387-19.492-18.082-36.611-37.536-36.323
			c-19.75,0.295-36.414,17.423-36.896,37.066C141.004,132.448,160.901,152.24,179.12,149.689"/>
		<path d="M180.14,315.453c10.263,2.827,20.038,7.796,31.302,2.297c12.424-6.091,18.279-16.248,16.259-31.442
			c-1.558-11.741-11.415-22.065-22.934-24.01c-12.821-2.176-27.925,4.677-31.987,16.157c-4.745,13.432-1.933,26.181,7.55,37.153
			L180.14,315.453z"/>
	</g>
	<polygon points="31.408,395.414 62.611,389.635 76.729,421.914 92.086,389.172 123.494,392.538 91.241,444.733 90.828,479.787 
		64.525,477.184 64.207,444.787 	"/>
	<path d="M113.121,440.474c6.89-23.96,25.453-34.405,49.304-27.546c23.923,6.895,29.081,23.385,21.027,51.354
		c-6.997,24.294-23.305,30.82-46.814,24.044C114.246,481.88,105.59,466.621,113.121,440.474 M136.213,447.258
		c-3.607,12.526,0.471,20.284,9.115,22.771c7.425,2.134,12.442-1.626,16.49-15.66c3.01-10.461,4.253-19.321-4.268-21.773
		C147.579,429.722,139.783,434.854,136.213,447.258"/>
</g>
</svg>
