<?xml version="1.0" encoding="utf-8"?>
<!-- Generator: Adobe Illustrator 16.0.3, SVG Export Plug-In . SVG Version: 6.00 Build 0)  -->
<!DOCTYPE svg PUBLIC "-//W3C//DTD SVG 1.1//EN" "http://www.w3.org/Graphics/SVG/1.1/DTD/svg11.dtd">
<svg version="1.1" id="Capa_1" xmlns="http://www.w3.org/2000/svg" xmlns:xlink="http://www.w3.org/1999/xlink" x="0px" y="0px"
	 width="595.28px" height="595.28px" viewBox="0 0 595.28 595.28" enable-background="new 0 0 595.28 595.28" xml:space="preserve">
<g>
	<path fill="#2F977E" d="M240.059,448.057c-4.685,9.078-13.273,14.049-27.994,14.049c-15.572,0-28.947-7.358-28.947-27.709
		c0-20.539,11.628-32.479,27.994-32.479c16.622,0,25.027,6.683,28.376,17.481l-15.669,8.022c-1.053-6.683-5.405-10.6-10.225-10.6
		c-5.648,0-12.04,4.868-12.04,14.52c0,10.22,5.21,14.901,11.752,14.901c5.314,0,9.56-3.244,11.272-7.932L240.059,448.057z"/>
	<path fill="none" stroke="#2F977E" stroke-width="2.7568" stroke-miterlimit="10" d="M240.059,448.057
		c-4.685,9.078-13.273,14.049-27.994,14.049c-15.572,0-28.947-7.358-28.947-27.709c0-20.539,11.628-32.479,27.994-32.479
		c16.622,0,25.027,6.683,28.376,17.481l-15.669,8.022c-1.053-6.683-5.405-10.6-10.225-10.6c-5.648,0-12.04,4.868-12.04,14.52
		c0,10.22,5.21,14.901,11.752,14.901c5.314,0,9.56-3.244,11.272-7.932L240.059,448.057z"/>
	<path fill="#2F977E" d="M241.432,412.146l17.271-4.435c0,0,3.18,20.187,5.64,34.895c0.752,4.53,3.802,6.631,9.283,5.713
		c5.762-0.964,8.508-3.546,7.754-8.071c-2.461-14.711-6.031-34.93-6.031-34.93l18.556-4.942c0,0,2.649,25.751,5.115,40.504
		c2.019,12.092-8.045,19.46-21.648,21.732c-15.645,2.611-27.003-2.151-28.966-13.905
		C245.863,433.489,241.432,412.146,241.432,412.146"/>
	<path fill="none" stroke="#2F977E" stroke-width="2.7568" stroke-miterlimit="10" d="M241.432,412.146l17.271-4.435
		c0,0,3.18,20.187,5.64,34.895c0.752,4.53,3.802,6.631,9.283,5.713c5.762-0.964,8.508-3.546,7.754-8.071
		c-2.461-14.711-6.031-34.93-6.031-34.93l18.556-4.942c0,0,2.649,25.751,5.115,40.504c2.019,12.092-8.045,19.46-21.648,21.732
		c-15.645,2.611-27.003-2.151-28.966-13.905C245.863,433.489,241.432,412.146,241.432,412.146z"/>
	<polygon fill="#2F977E" points="349.633,400.479 347.624,415.099 322.893,415.195 322.793,422.454 344.856,423.31 344.76,436.496 
		322.893,435.638 322.702,443.475 350.209,445.295 348.104,461.814 307.692,459.232 304.349,402.491 	"/>
	<polygon fill="none" stroke="#2F977E" stroke-width="2.7568" stroke-miterlimit="10" points="349.633,400.479 347.624,415.099 
		322.893,415.195 322.793,422.454 344.856,423.31 344.76,436.496 322.893,435.638 322.702,443.475 350.209,445.295 348.104,461.814 
		307.692,459.232 304.349,402.491 	"/>
	<polygon fill="#2F977E" points="372.75,461.238 354.788,462.481 359.566,400.576 375.408,403.25 394.242,433.931 394.53,402.105 
		411.726,400.766 408.382,461.05 392.078,463.729 372.845,428.527 	"/>
	<polygon fill="none" stroke="#2F977E" stroke-width="2.7568" stroke-miterlimit="10" points="372.75,461.238 354.788,462.481 
		359.566,400.576 375.408,403.25 394.242,433.931 394.53,402.105 411.726,400.766 408.382,461.05 392.078,463.729 372.845,428.527 	
		"/>
	<polygon fill="#2F977E" points="415.164,402.962 466.465,398.671 466.176,414.813 451.472,415.669 453.283,459.714 
		434.938,458.088 433.218,416.052 417.552,417.966 	"/>
	<polygon fill="none" stroke="#2F977E" stroke-width="2.7568" stroke-miterlimit="10" points="415.164,402.962 466.465,398.671 
		466.176,414.813 451.472,415.669 453.283,459.714 434.938,458.088 433.218,416.052 417.552,417.966 	"/>
	<path fill="#2F977E" d="M465.221,435.705c0-18.827,11.285-30.293,30.019-30.293c18.802,0,25.982,10.893,25.982,32.866
		c0,19.088-10.468,27.229-28.941,27.229C474.687,465.508,465.221,456.241,465.221,435.705 M483.394,435.794
		c0,9.851,4.579,14.618,11.369,14.618c5.834,0,8.693-3.782,8.693-14.81c0-8.211-0.956-14.898-7.641-14.898
		C487.979,420.704,483.394,426.051,483.394,435.794"/>
	<path fill="none" stroke="#2F977E" stroke-width="2.7568" stroke-miterlimit="10" d="M465.221,435.705
		c0-18.827,11.285-30.293,30.019-30.293c18.802,0,25.982,10.893,25.982,32.866c0,19.088-10.468,27.229-28.941,27.229
		C474.687,465.508,465.221,456.241,465.221,435.705z M483.394,435.794c0,9.851,4.579,14.618,11.369,14.618
		c5.834,0,8.693-3.782,8.693-14.81c0-8.211-0.956-14.898-7.641-14.898C487.979,420.704,483.394,426.051,483.394,435.794z"/>
	<g>
		<path fill="#F7310F" d="M259.76,375.797c5.955,0.714,11.991,2.415,17.855,1.966c49.801-3.791,94.137-20.354,129.593-56.914
			c26.236-27.057,42.508-59.256,49.686-96.183c4.041-20.816,4.644-41.622,0.28-62.46c-0.504-2.38-0.948-4.819-1.839-7.059
			c-3.443-8.569-9.178-12.514-16.541-11.636c-6.887,0.829-12.19,6.822-14.237,14.756c-3.634,14.102-6.482,28.621-12.096,41.937
			c-4.014,9.525-10.793,18.7-18.472,25.7c-21.08,19.252-54.862,14.689-78.85-5.891c-7.032-6.033-13.893-12.287-21.236-17.919
			c-9.568-7.334-19.411-7.561-26.937-1.347c-7.557,6.246-9.673,19.938-3.281,29.453c6.504,9.682,14.242,18.55,21.479,27.735
			c11.641,14.757,21.952,30.245,21.858,49.936c-0.127,26.039-11.154,46.011-34.608,58.405c-4.249,2.246-8.54,4.404-12.799,6.599
			C259.658,373.854,259.712,374.822,259.76,375.797"/>
		<path fill="#F7310F" d="M264.116,354.908c30.767-13.06,38.927-44.005,21.659-74.723c-5.457-9.692-13.222-18.065-19.71-27.202
			c-6.497-9.127-13.467-18.024-18.927-27.757c-20.084-35.762-12.696-75.706,23.417-100.076c5.659-3.82,11.501-7.391,17.039-11.367
			c9.536-6.832,12.509-14.914,9.108-23.81c-4.039-10.597-12.584-15.94-24.327-13.951c-15.319,2.593-28.239,10.384-39.818,20.482
			c-15.968,13.93-28.979,30.167-39.301,48.724c-7.765,13.984-15.854,18.219-28.204,15.266c-4.136-0.991-8.526-2.908-11.657-5.681
			c-9.816-8.68-19.514-17.564-28.428-27.138c-8.402-9.011-15.927-12.619-22.453-8.758c-6.868,4.06-7.987,12.061-3.917,23.713
			c10.594,30.313,32.153,52.156,56.516,71.218c21.857,17.101,45.493,31.936,67.583,48.778c12.683,9.67,25.062,20.294,35.387,32.365
			C273.205,312.675,278.072,332.889,264.116,354.908"/>
		<path fill="#F88011" d="M169.57,301.928c-9.391-2.148-14.777-9.573-19.56-16.654c-6.787-10.036-11.768-21.273-18.1-31.649
			c-3.185-5.218-6.773-11.022-11.703-14.161c-8.271-5.239-17.319-0.345-18.057,9.385c-0.426,5.61,0.315,11.983,2.649,17.025
			c22.905,49.379,59.506,83.934,111.7,100.927c5.371,1.739,11.55,2.353,17.161,1.739c7.322-0.791,12.18-5.799,14.226-13.068
			c1.908-6.76,0.613-13.124-5.129-17.068c-5.874-4.027-12.365-7.722-19.128-9.789c-16.859-5.158-33.557-10.471-48.1-20.827
			c-2.305-1.632-4.104-3.99-6.149-6.015L169.57,301.928z"/>
		<path fill="#F7310F" d="M401.293,179.582c-0.1-23.008-19.106-42.81-41.613-41.843c-24.516,1.063-41.854,16.213-41.867,42.898
			c-0.008,24.278,19.613,41.627,42.352,41.233C386.761,221.419,402.955,199.176,401.293,179.582"/>
		<path fill="#F7310F" d="M168.378,137.836c20.593-0.124,36.815-16.818,36.401-37.465c-0.383-19.276-17.885-36.211-37.123-35.923
			c-19.538,0.291-36.014,17.233-36.488,36.655C130.684,120.789,150.364,140.367,168.378,137.836"/>
		<path fill="#F88011" d="M169.39,301.771c10.142,2.795,19.817,7.711,30.947,2.272c12.293-6.022,18.084-16.064,16.083-31.096
			c-1.534-11.608-11.285-21.817-22.679-23.745c-12.681-2.148-27.611,4.631-31.631,15.981c-4.698,13.283-1.914,25.894,7.46,36.743
			L169.39,301.771z"/>
	</g>
	<polygon fill="#490D7A" points="22.297,380.851 53.155,375.135 67.12,407.064 82.307,374.68 113.367,378.011 81.47,429.631 
		81.061,464.294 55.054,461.723 54.741,429.68 	"/>
	<path fill="#490D7A" d="M103.104,425.415c6.822-23.697,25.178-34.027,48.762-27.24c23.665,6.817,28.759,23.127,20.798,50.786
		c-6.92,24.026-23.043,30.477-46.299,23.778C104.219,466.364,95.66,451.271,103.104,425.415 M125.945,432.124
		c-3.567,12.39,0.469,20.058,9.014,22.519c7.345,2.11,12.309-1.61,16.31-15.491c2.978-10.341,4.205-19.104-4.219-21.527
		C137.188,414.783,129.478,419.854,125.945,432.124"/>
</g>
</svg>
