<?xml version="1.0" encoding="utf-8"?>
<!-- Generator: Adobe Illustrator 16.0.3, SVG Export Plug-In . SVG Version: 6.00 Build 0)  -->
<!DOCTYPE svg PUBLIC "-//W3C//DTD SVG 1.1//EN" "http://www.w3.org/Graphics/SVG/1.1/DTD/svg11.dtd">
<svg version="1.1" id="Capa_1" xmlns="http://www.w3.org/2000/svg" xmlns:xlink="http://www.w3.org/1999/xlink" x="0px" y="0px"
	 width="595.28px" height="595.28px" viewBox="0 0 595.28 595.28" enable-background="new 0 0 595.28 595.28" xml:space="preserve">
<g>
	<g>
		<path fill-rule="evenodd" clip-rule="evenodd" d="M103.913,297.021c-1.584,5.113-3.351,10.178-4.703,15.353
			c-2.021,7.698-5.847,14.222-11.443,19.867c-6.414,6.467-12.511,13.25-18.944,19.699c-1.866,1.873-4.223,3.601-6.683,4.46
			c-4.978,1.738-10.55-0.424-13.29-4.512c-2.99-4.459-2.66-10.769,1.275-15.181c5.455-6.118,10.922-12.276,16.908-17.854
			c4.837-4.507,6.948-9.721,7.687-16.11c0.993-8.585,2.655-17.091,4.012-25.632c1.981-12.495,8.259-22.996,15.326-33.136
			c1.347-1.931,2.625-3.91,4.098-6.104c-10.922-2.299-17.493,3.363-24.035,9.588c-3.407,3.239-7.225,6.306-11.378,8.45
			c-5.044,2.606-9.945,0.987-12.701-3.051c-2.844-4.168-2.319-9.835,1.972-13.592c7.183-6.298,14.256-12.899,22.238-18.039
			c4.728-3.043,11.028-3.902,16.756-5.071c7.556-1.538,15.287-2.229,22.872-3.641c5.501-1.026,10.424,0.003,14.827,3.186
			c6.816,4.933,13.869,9.657,20.019,15.336c2.947,2.723,4.608,7.267,5.847,11.294c1.312,4.271,1.697,8.89,2.016,13.386
			c0.563,7.92,3.248,14.996,7.465,21.624c3.048,4.794,5.928,9.69,9.357,15.318c6.034,0.724,12.77,1.577,19.523,2.327
			c15.612,1.732,31.215,3.583,46.854,4.996c4.128,0.373,8.377-0.669,13.255-1.125c-1.05-4.117-1.881-7.129-2.583-10.169
			c-1.629-7.065,0.847-12.126,7.414-14.871c3.771-1.579,7.575-3.146,11.498-4.269c6.282-1.804,12.696,0.655,14.891,6.404
			c4.63,12.115,8.713,24.44,12.883,36.724c0.566,1.665,0.361,3.591,0.586,6.219c3.283,0.146,6.588,0.29,9.889,0.437
			c8.137,0.355,11.54,3.681,11.664,11.855c0.143,9.067,0.036,18.134,0.036,27.796c-4.632,0.338-8.608,0.627-12.344,0.899
			c-0.478,0.653-0.896,0.981-0.971,1.378c-2.082,10.97-7.636,16.271-18.859,16.931c-12.705,0.752-23.772-2.91-32.178-13.161
			c-3.236-3.952-7.066-7.416-10.11-10.571c-6.592,1.023-9.584,4.765-12.565,8.532c-6.523,8.242-11.558,9.065-20.418,3.158
			c-2.833-1.89-5.425-4.14-8.75-6.704c-17.337,0-35.297,0-53.773,0c-0.334-2.108-0.81-3.818-0.833-5.529
			c-0.085-6.832-0.081-13.668-0.012-20.501c0.107-10.918,3.306-13.99,14.463-14.105c2.729-0.026,5.455-0.132,8.179-0.269
			c0.38-0.021,0.739-0.439,1.807-1.113c-2.815-4.978-5.665-10.019-8.646-15.287c-5.497-0.989-9.041-4.654-11.944-9.2
			c-2.82-4.411-6.513-8.435-8.482-13.183c-2.482-5.99-3.645-12.542-5.307-18.866c-0.508-1.926-0.79-3.91-1.38-6.901
			c-6.15,6.261-8.082,13.896-12.602,20.17c2.634,7.616,5.573,15.025,7.731,22.661c1.904,6.741,3.74,13.681,4.173,20.616
			c0.703,11.348,0.446,22.773,0.129,34.154c-0.082,2.974-1.274,6.361-3.049,8.746c-2.782,3.743-7.114,4.751-11.695,3.433
			c-4.948-1.422-7.861-5.024-7.996-10.644c-0.233-10.019-0.534-20.069-0.03-30.063c0.515-10.212-5.389-17.829-8.373-26.619
			C104.964,296.972,104.437,296.997,103.913,297.021z M103.185,237.228c-4.352,7.163-8.795,14.803-13.572,22.234
			c-4.02,6.255-6.373,12.959-7.426,20.297c-1.387,9.683-3.409,19.278-4.675,28.975c-0.54,4.147-2.311,7.143-5.105,10.004
			c-6.364,6.51-12.648,13.107-18.764,19.853c-4.661,5.147-3.496,11.714,2.228,14.085c4.03,1.671,7.025-0.115,9.713-2.928
			c6.61-6.911,13.176-13.861,19.862-20.695c4.724-4.828,8.018-10.39,9.872-16.898c2.925-10.286,5.989-20.535,9.1-30.764
			c0.522-1.71,1.564-3.262,2.368-4.887c0.649,0.21,1.303,0.417,1.954,0.629c-0.743,4.041-1.486,8.078-2.478,13.449
			c12.237,16.514,11.678,36.61,10.967,56.736c-0.056,1.591-0.028,3.191,0.084,4.778c0.083,1.122,0.227,2.284,0.596,3.343
			c1.164,3.319,3.484,5.328,7.082,5.411c3.619,0.082,6.051-1.873,7.296-5.129c0.549-1.444,0.646-3.103,0.716-4.681
			c1.07-24.033,0.517-47.834-10.417-70.09c-0.4-0.812-0.577-1.727-0.916-2.571c-1.482-3.68-0.926-6.998,1.26-10.321
			c3.992-6.076,7.77-12.295,11.598-18.475c0.815-1.318,1.462-2.738,2.185-4.113c0.719,0.333,1.443,0.66,2.161,0.987
			c0.651,1.771,1.497,3.497,1.914,5.321c1.116,4.879,2.049,9.797,3.062,14.696c0.684,3.306,0.629,7.031,2.216,9.829
			c3.578,6.317,7.72,12.362,12.101,18.165c4.041,5.357,7.292,4.571,10.296-2.682c-3.526-5.502-7.506-11.299-11.015-17.367
			c-1.636-2.832-2.829-6.109-3.404-9.328c-1.243-6.91-1.806-13.939-2.965-20.867c-0.357-2.13-1.525-4.231-2.708-6.1
			c-5.151-8.122-13.473-12.73-20.763-18.487c-3.63-2.869-7.575-3.895-12.098-3.119c-11.406,1.953-22.832,3.795-34.219,5.852
			c-1.937,0.347-4.008,1.164-5.533,2.375c-6.934,5.504-13.771,11.14-20.493,16.904c-3.529,3.029-3.973,6.796-1.583,9.546
			c2.379,2.733,6.368,2.733,9.782-0.073c4.73-3.882,9.95-7.341,13.995-11.847c4.948-5.505,10.975-6.684,17.684-6.88
			c4.776-0.143,9.554-0.447,14.332-0.437c1.508,0,3.009,0.775,4.517,1.198c-0.02,0.659-0.042,1.316-0.062,1.976
			C110.565,235.787,107.204,236.445,103.185,237.228z M168.46,301.077c10.99,19.165,21.864,37.603,36.629,53.316
			c3.535,3.763,7.697,7.145,12.108,9.818c4.582,2.783,7.082,1.767,10.63-2.401c2.211-2.602,4.292-5.343,6.762-7.669
			c6.373-5.993,11.605-5.704,17.596,0.806c2.924,3.185,5.56,6.64,8.544,9.76c8.333,8.712,18.714,10.825,30.077,8.382
			c9.133-1.963,12.369-7.743,9.586-16.781c-1.257-4.091-3.009-8.145-5.219-11.803c-8.175-13.533-19.937-23.462-33.122-32.317
			c-7.53,1.899-14.986,3.894-22.497,5.637c-7.68,1.785-12.559-3.35-10.504-10.908c0.274-1.017,0.893-1.939,1.662-3.549
			c-19.875-2.138-39.255-4.219-58.688-6.306C170.854,298.378,169.824,299.539,168.46,301.077z M256.921,301.344
			c-6.967,1.606-13.165,3.031-19.365,4.464c-2.918,0.678-5.48,1.934-4.402,5.489c0.946,3.109,3.552,2.882,6.208,2.178
			c6.155-1.625,12.338-3.148,18.523-4.673c4.017-0.994,6.78-3.486,8.823-6.988c2.397-4.128,4.815-8.253,7.395-12.271
			c0.694-1.08,2.011-1.756,3.045-2.62c0.423,0.332,0.846,0.661,1.269,0.991c-2.351,7.944-8.137,14.189-11.762,21.451
			c11.88,10.592,15.862,11.908,26.499,8.396c0-1.689,0.497-3.777-0.079-5.507c-3.756-11.211-7.599-22.396-11.725-33.475
			c-1.852-4.959-4.559-6.135-9.631-5.029c-3.104,0.676-6.149,1.607-9.216,2.448c-8.301,2.272-11.52,8.076-5.95,16.617
			c4.275-2.251,3.575-9.145,10.838-10.918C264.288,289.632,260.341,295.254,256.921,301.344z M189.576,343.444
			c-4.92-7.261-9.085-13.411-13.396-19.777c-5.886,0-11.534-0.09-17.175,0.031c-3.406,0.074-5.754,2.075-6.021,5.364
			c-0.377,4.624-0.095,9.298-0.095,14.382C165.262,343.444,176.701,343.444,189.576,343.444z M315.005,343.415
			c0-5.242,0.115-9.524-0.041-13.796c-0.107-3.034-1.756-5.562-4.82-5.678c-7.979-0.298-15.977-0.099-24.889-0.099
			c5.685,7.101,10.586,13.228,15.666,19.572C305.251,343.415,309.685,343.415,315.005,343.415z M194.103,348.908
			c-14.174,0-27.463,0-41.216,0c0.099,2.261,0.174,3.943,0.267,6.021c15.069,0,29.675,0,45.176,0
			C196.602,352.473,195.351,350.689,194.103,348.908z M302.802,348.739c1.434,2.947,2.343,4.807,3.255,6.689
			c3.317-0.22,5.898-0.394,8.938-0.596c-0.26-2.444-0.434-4.106-0.644-6.094C310.639,348.739,307.37,348.739,302.802,348.739z"/>
		<path fill-rule="evenodd" clip-rule="evenodd" d="M294.041,248.319c-7.188,7.711-10.805,7.538-22.982-0.834
			c1.063,9.056,0.34,17.692-8.703,21.746c-9.662,4.335-17.352-0.617-24.788-9.025c0.59,12.34-6.203,16.429-15.146,18.236
			c-1.547-5.879-3.191-11.366-4.427-16.948c-2.245-10.146,4.28-16.497,14.383-14.101c1.956,0.465,3.806,1.388,6.175,2.274
			c4.614-10.303,12.693-14.044,22.5-11.817c3.295-3.422,5.567-7.145,8.878-8.934c7.445-4.021,15.01,0.195,17.585,9.292
			C288.681,242.31,289.127,246.657,294.041,248.319z M267.551,254.037c-0.07-7.543-5.769-12.532-14.035-12.282
			c-5.65,0.169-11.125,5.949-11.027,11.641c0.12,7.18,5.512,13.267,11.787,13.309C261.226,266.751,267.611,260.657,267.551,254.037z
			 M276.279,230.94c-8.429,4.013-9.296,5.23-8.554,9.892c3.851,2.472,6.947,4.369,9.941,6.418c2.443,1.663,4.828,3.174,8.745,1.299
			C282.051,243.112,284.539,234.392,276.279,230.94z M236.229,255.73c-5.488-5.704-8.477-5.717-14.683-0.321
			c-1.679,6.696,3.854,11.016,5.368,16.816C235.214,269.034,230.867,259.789,236.229,255.73z"/>
		<path fill-rule="evenodd" clip-rule="evenodd" d="M167.039,199.575c-0.099,9.723-8.131,17.596-18.008,17.652
			c-9.839,0.052-17.609-7.772-17.64-17.771c-0.032-10.5,7.627-18.062,18.11-17.877C159.399,181.753,167.142,189.697,167.039,199.575
			z M149.379,185.465c-7.651-0.106-14.098,5.905-14.389,13.415c-0.294,7.671,6.314,14.415,14.118,14.412
			c7.486-0.002,13.976-6.396,14.023-13.813C163.182,191.919,156.948,185.568,149.379,185.465z"/>
	</g>
	<g>
		<path d="M298.424,448.508c43.741-88.602,87.484-177.202,131.229-265.803c2.888-5.848-5.867-10.994-8.766-5.123
			c-43.745,88.6-87.489,177.2-131.229,265.803C286.771,449.232,295.526,454.379,298.424,448.508L298.424,448.508z"/>
	</g>
</g>
<g>
	<g>
		<path fill-rule="evenodd" clip-rule="evenodd" d="M397.496,429.162c28.644,0,57.072,0,85.697,0
			c-0.162-0.606-0.28-1.152-0.455-1.679c-2.725-8.202-5.459-16.404-8.187-24.604c-0.704-2.122-0.108-3.815,1.723-4.156
			c1.789-0.332,2.217,1.197,2.661,2.527c2.919,8.759,5.846,17.516,8.771,26.272c0.185,0.552,0.391,1.095,0.607,1.703
			c4.237,0,8.432,0.068,12.618-0.048c1.056-0.03,2.156-0.535,3.127-1.034c1.595-0.823,2.101-2.068,1.507-3.929
			c-3.8-11.915-7.447-23.881-11.324-35.772c-0.685-2.102-0.696-3.714,0.736-5.365c0.532-0.617,0.918-1.361,1.636-2.454
			c1.712,5.229,3.314,9.982,4.825,14.767c2.763,8.739,5.464,17.499,8.197,26.246c2.127,6.808-1.262,11.716-8.498,12.283
			c-0.586,0.046-1.18,0.036-1.768,0.036c-39.146,0-78.29,0.001-117.435-0.018c-1.104,0-2.232-0.105-3.312-0.343
			c-5.58-1.222-8.32-5.689-6.843-11.197c3.409-12.714,6.815-25.427,10.303-38.117c2.3-8.372,5.418-16.419,10.071-23.802
			c6.099-9.681,14.224-16.87,25.2-20.603c1.542-0.523,2.8-0.639,4.098,0.593c0.879,0.834,2.037,1.373,3.233,2.15
			c-0.45,0.178-0.729,0.338-1.03,0.4c-12.223,2.568-21.119,9.689-27.624,20.117c-4.765,7.642-7.741,16.01-10.068,24.644
			c-3.102,11.507-6.19,23.018-9.313,34.52c-1.314,4.852,0.202,6.915,5.25,6.957c3.471,0.03,6.941,0.006,10.537,0.006
			c2.417-7.245,4.815-14.435,7.214-21.626c0.768-2.299,1.545-4.594,2.301-6.896c0.486-1.48,1.34-2.454,3.035-2.039
			c1.444,0.352,1.988,1.712,1.396,3.493c-2.737,8.269-5.503,16.525-8.253,24.789C397.912,427.654,397.736,428.336,397.496,429.162z"
			/>
		<path fill-rule="evenodd" clip-rule="evenodd" d="M475.681,391.044c-1.754,2.4-2.823,5.621-6.479,5.979
			c-2.026,0.199-3.185-0.197-5.188-1.826c-4.049,2.641-6.542,2.804-9.006,0.588c-2.446-2.196-2.493-4.665-0.203-9.416
			c-0.953-0.775-2.033-1.428-2.811-2.338c-1.758-2.054-1.752-4.875-0.11-7.492c2.992-4.774,6.012-9.529,9.016-14.295
			c0.191-0.305,0.34-0.638,0.733-1.389c-2.025,0.842-3.631,1.517-5.24,2.178c-3.433,1.411-6.858,0.272-8.636-2.861
			c-1.704-3.01-1.021-6.263,1.969-8.507c1.24-0.933,2.644-1.748,4.096-2.28c3.735-1.375,6.774-3.626,9.354-6.616
			c3.124-3.621,6.696-6.678,11.408-8.035c1.626-0.47,3.317-0.842,4.997-0.956c1.24-0.084,1.821-0.59,2.364-1.612
			c2.338-4.395,4.748-8.751,7.15-13.11c1.007-1.823,2.337-2.416,3.617-1.563c1.549,1.034,1.285,2.379,0.513,3.789
			c-2.768,5.057-5.41,10.186-8.359,15.131c-0.597,1-2.319,1.845-3.535,1.863c-5.119,0.076-9.259,2.091-12.772,5.635
			c-1.662,1.676-3.113,3.611-4.969,5.026c-2.213,1.691-4.738,2.979-7.16,4.388c-1.185,0.688-2.482,1.181-3.647,1.895
			c-0.943,0.578-1.627,1.422-0.921,2.628c0.671,1.151,1.605,1.361,2.84,0.823c2.823-1.228,5.676-2.38,8.519-3.558
			c0.605-0.251,1.233-0.703,1.825-0.667c1.153,0.071,2.711,0.062,3.313,0.762c0.61,0.708,0.649,2.392,0.254,3.37
			c-0.702,1.733-1.913,3.264-2.927,4.871c-3.179,5.042-6.363,10.082-9.551,15.12c-0.606,0.961-1.411,2.04-0.081,2.884
			c1.313,0.831,2.126-0.119,2.817-1.222c3.613-5.775,7.26-11.529,10.896-17.289c0.315-0.499,0.62-1.005,0.974-1.478
			c0.82-1.102,1.892-1.433,3.092-0.715c1.304,0.776,1.494,2.002,0.77,3.227c-1.5,2.535-3.112,5.008-4.685,7.502
			c-3.771,5.984-7.547,11.966-11.316,17.952c-0.278,0.441-0.711,0.906-0.717,1.365c-0.009,0.564,0.211,1.313,0.611,1.64
			c0.274,0.223,1.105-0.007,1.54-0.275c0.407-0.251,0.637-0.809,0.917-1.251c5.076-8.028,10.148-16.062,15.222-24.091
			c0.28-0.443,0.545-0.897,0.856-1.316c0.813-1.104,1.884-1.468,3.084-0.748c1.273,0.762,1.519,1.959,0.823,3.228
			c-0.723,1.319-1.577,2.566-2.382,3.841c-3.637,5.761-7.274,11.521-10.913,17.279c-0.14,0.222-0.411,0.465-0.385,0.668
			c0.105,0.805,0.306,1.599,0.472,2.398c0.711-0.254,1.724-0.292,2.082-0.796c1.52-2.128,2.858-4.389,4.24-6.613
			c3.008-4.841,6.012-9.683,8.994-14.537c0.868-1.414,1.968-2.154,3.577-1.298c1.307,0.696,1.449,2.106,0.423,3.75
			c-2.431,3.889-4.89,7.76-7.336,11.637c-0.141,0.222-0.288,0.438-0.43,0.66c-0.553,0.863-1.103,1.81-0.002,2.582
			c1.179,0.828,1.775-0.168,2.313-1.005c1.666-2.588,3.31-5.193,4.965-7.788c2.784-4.361,5.64-8.681,8.343-13.092
			c3.202-5.222,4.022-10.835,2.524-16.814c-0.188-0.755,0.096-1.865,0.569-2.512c4.228-5.757,8.543-11.448,12.844-17.151
			c0.974-1.291,2.248-1.716,3.567-0.679c1.369,1.073,1.026,2.374,0.079,3.626c-3.763,4.96-7.534,9.914-11.231,14.92
			c-0.496,0.669-0.959,1.691-0.826,2.442c1.445,8.143-1.016,15.236-5.482,21.906c-3.718,5.551-7.267,11.215-10.87,16.841
			C483.079,392.918,480.692,393.592,475.681,391.044z"/>
		<path fill-rule="evenodd" clip-rule="evenodd" d="M440.961,282.901c16.183-0.033,29.436,13.16,29.482,29.352
			c0.048,16.324-13.142,29.616-29.397,29.627c-16.339,0.011-29.547-13.138-29.586-29.447
			C411.422,296.159,424.632,282.935,440.961,282.901z M440.84,337.184c13.676,0.065,24.853-10.986,24.905-24.624
			c0.053-13.726-10.921-24.871-24.571-24.96c-13.707-0.089-24.958,10.944-25.009,24.525
			C416.114,325.987,427.074,337.117,440.84,337.184z"/>
	</g>
	<g>
		<path d="M430.62,326.218c2.496-3.563,5.941-6.879,10.527-7.063c4.864-0.197,7.112,5.068,8.081,8.958
			c0.537,2.166,3.878,1.248,3.339-0.921c-1.3-5.233-4.508-11.143-10.61-11.46c-6.193-0.32-10.982,3.962-14.329,8.738
			C426.343,326.306,429.348,328.033,430.62,326.218L430.62,326.218z"/>
	</g>
</g>
<g>
	<g>
		<polygon points="23.5,282.145 18.174,281.881 17.821,295.866 23.153,295.866 		"/>
		<path d="M25.344,261.795l-5.292-0.659c0,0-0.11,0.868-0.275,2.169c-0.149,1.303-0.42,3.033-0.571,4.774
			c-0.266,3.487-0.531,6.976-0.531,6.976l5.318,0.393c0,0,0.26-3.421,0.52-6.842c0.147-1.709,0.414-3.406,0.561-4.684
			C25.235,262.645,25.344,261.795,25.344,261.795z"/>
		<path d="M28.557,241.618l-5.227-1.053c0,0-0.615,3.443-1.23,6.888c-0.308,1.721-0.615,3.443-0.846,4.734
			c-0.249,1.288-0.338,2.159-0.339,2.159l5.274,0.788c0,0,0.086-0.854,0.332-2.117c0.227-1.268,0.528-2.955,0.83-4.645
			C27.955,244.996,28.557,241.618,28.557,241.618z"/>
		<path d="M33.405,221.771l-5.133-1.443c0,0-0.238,0.841-0.598,2.103c-0.34,1.267-0.875,2.934-1.271,4.637
			c-0.787,3.408-1.574,6.815-1.574,6.815l5.199,1.183c0,0,0.771-3.343,1.543-6.686c0.389-1.67,0.915-3.305,1.248-4.547
			C33.17,222.596,33.405,221.771,33.405,221.771z"/>
		<path d="M39.602,202.303l-5.01-1.826c0,0-1.121,3.313-2.242,6.627c-0.561,1.656-1.121,3.313-1.542,4.557
			c-0.437,1.236-0.665,2.082-0.665,2.082l5.096,1.569c0,0,0.223-0.828,0.652-2.042c0.412-1.219,0.963-2.844,1.513-4.468
			C38.502,205.552,39.602,202.303,39.602,202.303z"/>
		<path d="M47.383,183.408l-4.857-2.197c0,0-1.438,3.188-2.873,6.377c-1.284,3.254-2.567,6.508-2.567,6.508l4.963,1.949
			c0,0,1.258-3.191,2.517-6.383C45.974,186.535,47.383,183.408,47.383,183.408z"/>
		<path d="M56.435,165.096l-4.68-2.555c0,0-0.108,0.189-0.3,0.521c-0.174,0.341-0.424,0.827-0.724,1.41
			c-0.598,1.167-1.396,2.724-2.192,4.28c-1.594,3.112-3.188,6.225-3.188,6.225l4.803,2.317c0,0,1.563-3.053,3.127-6.105
			c0.782-1.526,1.563-3.054,2.15-4.198c0.293-0.572,0.537-1.049,0.709-1.383C56.329,165.282,56.435,165.096,56.435,165.096z"/>
	</g>
	<g>
		<path d="M66.95,147.572l-4.476-2.899c0,0-1.888,2.944-3.775,5.89c-0.955,1.466-1.767,3.018-2.439,4.145
			c-0.653,1.137-1.09,1.895-1.09,1.895l4.615,2.67c0,0,0.427-0.743,1.069-1.858c0.659-1.104,1.454-2.628,2.392-4.065
			C65.098,150.46,66.95,147.572,66.95,147.572z"/>
		<path d="M78.659,130.828l-4.247-3.224c0,0-0.538,0.689-1.345,1.724c-0.76,1.069-1.773,2.494-2.787,3.92
			c-2.027,2.85-4.055,5.701-4.055,5.701l4.404,3.008c0,0,1.988-2.797,3.977-5.593c0.994-1.397,1.988-2.796,2.733-3.845
			C78.131,131.505,78.659,130.828,78.659,130.828z"/>
		<path d="M91.629,115.042l-3.996-3.531c0,0-2.289,2.644-4.58,5.288c-0.57,0.662-1.143,1.324-1.678,1.944
			c-0.506,0.645-0.979,1.246-1.385,1.762c-0.811,1.031-1.351,1.719-1.351,1.719l4.167,3.327c0,0,0.529-0.675,1.324-1.687
			c0.397-0.506,0.861-1.097,1.357-1.729c0.525-0.608,1.087-1.258,1.647-1.907C89.383,117.635,91.629,115.042,91.629,115.042z"/>
		<path d="M105.717,100.242l-3.722-3.817c0,0-0.633,0.603-1.582,1.509c-0.974,0.88-2.151,2.174-3.364,3.433
			c-2.414,2.531-4.826,5.062-4.826,5.062l3.908,3.628c0,0,2.366-2.482,4.733-4.966c1.189-1.235,2.345-2.505,3.301-3.367
			C105.096,100.834,105.717,100.242,105.717,100.242z"/>
		<path d="M120.858,86.521l-3.428-4.084c0,0-2.644,2.289-5.287,4.58c-1.312,1.156-2.668,2.264-3.611,3.176
			c-0.949,0.904-1.582,1.508-1.582,1.508l3.627,3.908c0,0,0.621-0.592,1.553-1.48c0.924-0.896,2.256-1.98,3.542-3.115
			C118.264,88.768,120.858,86.521,120.858,86.521z"/>
		<path d="M137.006,73.999l-3.115-4.328c0,0-0.712,0.507-1.781,1.267c-1.066,0.764-2.511,1.751-3.865,2.859
			c-2.75,2.16-5.5,4.322-5.5,4.322l3.327,4.166c0,0,2.698-2.12,5.396-4.24c1.327-1.088,2.745-2.055,3.791-2.804
			C136.307,74.496,137.006,73.999,137.006,73.999z"/>
		<path d="M153.99,62.646l-2.782-4.548c0,0-2.945,1.888-5.889,3.774c-1.473,0.943-2.944,1.888-4.048,2.596
			c-0.558,0.346-1.001,0.665-1.312,0.889c-0.313,0.221-0.49,0.348-0.49,0.348l3.008,4.402c0,0,0.174-0.123,0.48-0.342
			c0.305-0.219,0.738-0.532,1.286-0.871c1.083-0.693,2.526-1.619,3.972-2.545C151.102,64.498,153.99,62.646,153.99,62.646z"/>
	</g>
	<g>
		<path d="M171.838,52.695l-2.435-4.744c0,0-0.778,0.398-1.946,0.996c-1.162,0.607-2.734,1.376-4.27,2.214
			c-3.032,1.743-6.064,3.487-6.064,3.487l2.67,4.615c0,0,2.975-1.711,5.948-3.422c1.505-0.822,3.048-1.574,4.188-2.17
			C171.075,53.086,171.838,52.695,171.838,52.695z"/>
		<path d="M190.322,43.988l-2.071-4.913c0,0-0.207,0.07-0.555,0.233c-0.348,0.158-0.846,0.383-1.443,0.652
			c-1.195,0.541-2.789,1.262-4.383,1.981c-3.187,1.444-6.373,2.889-6.373,2.889l2.317,4.802c0,0,3.125-1.415,6.25-2.831
			c1.563-0.707,3.126-1.413,4.298-1.944c0.586-0.265,1.075-0.485,1.417-0.641C190.118,44.057,190.322,43.988,190.322,43.988z"/>
		<path d="M209.458,36.836l-1.696-5.055c0,0-3.313,1.121-6.627,2.243c-1.646,0.59-3.26,1.269-4.484,1.737
			c-1.22,0.481-2.033,0.803-2.033,0.803l1.949,4.963c0,0,0.798-0.314,1.994-0.787c1.201-0.461,2.783-1.127,4.398-1.705
			C206.209,37.936,209.458,36.836,209.458,36.836z"/>
		<path d="M229.043,31.016l-1.311-5.168c0,0-0.858,0.172-2.115,0.549c-1.262,0.358-2.943,0.836-4.626,1.313
			c-3.364,0.956-6.729,1.911-6.729,1.911l1.569,5.096c0,0,3.301-0.937,6.6-1.873c1.65-0.469,3.299-0.938,4.537-1.289
			C228.202,31.184,229.043,31.016,229.043,31.016z"/>
		<path d="M249.036,26.805l-0.918-5.252c0,0-3.443,0.615-6.887,1.23c-1.725,0.296-3.414,0.76-4.697,1.032
			c-1.278,0.295-2.131,0.491-2.131,0.491l1.183,5.199c0,0,0.835-0.192,2.089-0.481c1.258-0.269,2.915-0.724,4.606-1.014
			C245.659,27.408,249.036,26.805,249.036,26.805z"/>
		<path d="M269.274,23.979l-0.523-5.306c0,0-0.873,0.049-2.173,0.232c-1.301,0.165-3.036,0.385-4.771,0.605
			c-3.47,0.441-6.939,0.883-6.939,0.883l0.789,5.273c0,0,3.402-0.432,6.807-0.864c1.701-0.217,3.402-0.433,4.679-0.595
			C268.417,24.027,269.274,23.98,269.274,23.979z"/>
		<path d="M289.669,22.803l-0.129-5.331c0,0-3.495,0.089-6.991,0.177c-1.746,0.083-3.487,0.252-4.795,0.34
			c-1.309,0.1-2.18,0.166-2.18,0.166l0.393,5.316c0,0,0.855-0.064,2.139-0.162c1.283-0.087,2.991-0.253,4.704-0.334
			C286.24,22.889,289.669,22.803,289.669,22.803z"/>
	</g>
	<g>
		<polygon points="310.109,22.979 310.372,17.652 296.387,17.299 296.387,22.631 		"/>
		<path d="M330.458,24.822l0.659-5.291c0,0-0.868-0.11-2.17-0.275c-1.303-0.15-3.032-0.42-4.773-0.571
			c-3.488-0.266-6.976-0.531-6.976-0.531l-0.394,5.317c0,0,3.422,0.26,6.843,0.52c1.709,0.148,3.405,0.414,4.684,0.562
			C329.608,24.714,330.458,24.822,330.458,24.822z"/>
		<path d="M350.635,28.036l1.053-5.228c0,0-3.443-0.615-6.888-1.23c-1.722-0.307-3.443-0.614-4.735-0.845
			c-1.287-0.249-2.158-0.339-2.158-0.339l-0.789,5.273c0,0,0.854,0.087,2.118,0.332c1.267,0.227,2.955,0.529,4.644,0.83
			C347.257,27.434,350.635,28.036,350.635,28.036z"/>
		<path d="M370.483,32.883l1.443-5.133c0,0-0.842-0.238-2.104-0.597c-1.266-0.341-2.934-0.876-4.637-1.272
			c-3.407-0.787-6.814-1.574-6.814-1.574l-1.183,5.199c0,0,3.343,0.771,6.685,1.543c1.67,0.389,3.305,0.916,4.547,1.249
			C369.658,32.648,370.483,32.883,370.483,32.883z"/>
		<path d="M389.951,39.08l1.826-5.01c0,0-3.313-1.121-6.627-2.242c-1.657-0.561-3.313-1.121-4.557-1.541
			c-1.237-0.438-2.082-0.666-2.082-0.666l-1.569,5.096c0,0,0.828,0.224,2.041,0.652c1.219,0.413,2.844,0.963,4.469,1.514
			C386.702,37.981,389.951,39.08,389.951,39.08z"/>
		<path d="M408.844,46.862l2.198-4.858c0,0-3.188-1.437-6.378-2.873c-3.254-1.283-6.508-2.566-6.508-2.566l-1.949,4.963
			c0,0,3.191,1.258,6.383,2.516C405.717,45.453,408.844,46.862,408.844,46.862z"/>
		<path d="M427.157,55.914l2.556-4.68c0,0-0.189-0.109-0.521-0.3c-0.341-0.175-0.827-0.425-1.41-0.724
			c-1.168-0.598-2.724-1.396-4.28-2.193c-3.112-1.594-6.226-3.188-6.226-3.188l-2.316,4.803c0,0,3.053,1.564,6.105,3.128
			c1.526,0.782,3.053,1.563,4.197,2.149c0.572,0.293,1.05,0.538,1.383,0.709C426.971,55.807,427.157,55.914,427.157,55.914z"/>
	</g>
	<g>
		<path d="M444.681,66.428l2.899-4.475c0,0-2.945-1.889-5.891-3.775c-1.465-0.955-3.018-1.768-4.144-2.439
			c-1.138-0.654-1.896-1.09-1.896-1.09l-2.67,4.615c0,0,0.744,0.427,1.859,1.068c1.104,0.66,2.627,1.455,4.064,2.393
			C441.793,64.576,444.681,66.428,444.681,66.428z"/>
		<path d="M461.424,78.137l3.225-4.246c0,0-0.689-0.538-1.725-1.345c-1.068-0.761-2.494-1.774-3.919-2.788
			c-2.851-2.026-5.701-4.054-5.701-4.054l-3.008,4.403c0,0,2.796,1.988,5.593,3.977c1.397,0.994,2.796,1.988,3.845,2.734
			C460.749,77.609,461.424,78.137,461.424,78.137z"/>
		<path d="M477.211,91.107l3.531-3.995c0,0-2.645-2.29-5.288-4.58c-0.662-0.571-1.324-1.143-1.944-1.679
			c-0.645-0.506-1.246-0.979-1.762-1.385c-1.031-0.811-1.719-1.35-1.719-1.35l-3.327,4.166c0,0,0.675,0.529,1.687,1.324
			c0.506,0.398,1.096,0.861,1.729,1.358c0.608,0.525,1.258,1.087,1.906,1.647C474.618,88.861,477.211,91.107,477.211,91.107z"/>
		<path d="M492.01,105.195l3.818-3.721c0,0-0.604-0.633-1.509-1.582c-0.88-0.974-2.174-2.152-3.433-3.365
			c-2.531-2.413-5.063-4.826-5.063-4.826l-3.627,3.908c0,0,2.482,2.367,4.965,4.734c1.235,1.189,2.506,2.344,3.368,3.301
			C491.418,104.575,492.01,105.195,492.01,105.195z"/>
		<path d="M505.732,120.337l4.084-3.429c0,0-2.29-2.643-4.58-5.287c-1.157-1.311-2.264-2.668-3.176-3.61
			c-0.905-0.95-1.509-1.583-1.509-1.583l-3.908,3.628c0,0,0.593,0.621,1.48,1.552c0.896,0.924,1.98,2.256,3.115,3.543
			C503.485,117.743,505.732,120.337,505.732,120.337z"/>
		<path d="M518.254,136.484l4.328-3.114c0,0-0.508-0.712-1.268-1.781c-0.764-1.067-1.75-2.511-2.859-3.865
			c-2.16-2.75-4.321-5.5-4.321-5.5l-4.167,3.327c0,0,2.121,2.697,4.24,5.395c1.088,1.328,2.056,2.746,2.805,3.791
			C517.756,135.785,518.254,136.484,518.254,136.484z"/>
		<path d="M529.606,153.469l4.549-2.783c0,0-1.888-2.944-3.775-5.889c-0.943-1.472-1.887-2.943-2.596-4.047
			c-0.345-0.559-0.664-1.002-0.888-1.313c-0.222-0.312-0.349-0.49-0.349-0.49l-4.402,3.008c0,0,0.124,0.175,0.342,0.48
			c0.219,0.305,0.533,0.739,0.871,1.287c0.694,1.082,1.619,2.526,2.545,3.971C527.754,150.581,529.606,153.469,529.606,153.469z"/>
	</g>
	<g>
		<path d="M539.558,171.316l4.743-2.434c0,0-0.398-0.779-0.996-1.946c-0.607-1.163-1.375-2.735-2.213-4.27
			c-1.744-3.032-3.487-6.065-3.487-6.065l-4.615,2.67c0,0,1.71,2.975,3.421,5.949c0.822,1.505,1.574,3.047,2.17,4.188
			C539.167,170.554,539.558,171.316,539.558,171.316z"/>
		<path d="M548.264,189.801l4.914-2.072c0,0-0.07-0.207-0.234-0.554c-0.157-0.349-0.383-0.847-0.652-1.444
			c-0.54-1.195-1.261-2.789-1.98-4.383c-1.445-3.186-2.889-6.372-2.889-6.372l-4.803,2.317c0,0,1.416,3.125,2.832,6.25
			c0.707,1.563,1.413,3.125,1.943,4.298c0.266,0.586,0.486,1.075,0.641,1.417C548.196,189.597,548.264,189.801,548.264,189.801z"/>
		<path d="M555.417,208.938l5.055-1.696c0,0-1.121-3.313-2.242-6.627c-0.59-1.646-1.269-3.26-1.738-4.484
			c-0.48-1.22-0.802-2.034-0.802-2.034l-4.963,1.949c0,0,0.314,0.799,0.786,1.995c0.461,1.201,1.127,2.783,1.706,4.397
			C554.317,205.688,555.417,208.938,555.417,208.938z"/>
		<path d="M561.237,228.521l5.169-1.311c0,0-0.172-0.857-0.55-2.115c-0.357-1.262-0.836-2.943-1.313-4.625
			c-0.956-3.365-1.912-6.729-1.912-6.729l-5.096,1.569c0,0,0.938,3.3,1.873,6.599c0.469,1.65,0.938,3.3,1.289,4.537
			C561.069,227.68,561.237,228.521,561.237,228.521z"/>
		<path d="M565.448,248.514l5.252-0.918c0,0-0.615-3.443-1.23-6.887c-0.295-1.725-0.759-3.414-1.031-4.697
			c-0.295-1.277-0.492-2.13-0.492-2.13l-5.199,1.183c0,0,0.193,0.835,0.482,2.088c0.268,1.259,0.724,2.916,1.014,4.607
			C564.844,245.137,565.448,248.514,565.448,248.514z"/>
		<path d="M568.274,268.752l5.306-0.523c0,0-0.049-0.873-0.233-2.172c-0.164-1.301-0.385-3.036-0.605-4.771
			c-0.441-3.469-0.882-6.938-0.882-6.938l-5.273,0.788c0,0,0.432,3.403,0.864,6.807c0.217,1.701,0.433,3.402,0.595,4.68
			C568.226,267.895,568.273,268.752,568.274,268.752z"/>
		<path d="M569.451,289.148l5.331-0.129c0,0-0.09-3.496-0.178-6.992c-0.083-1.745-0.251-3.486-0.339-4.795
			c-0.1-1.308-0.166-2.18-0.166-2.18l-5.317,0.394c0,0,0.064,0.854,0.162,2.138c0.088,1.283,0.254,2.992,0.334,4.705
			C569.365,285.719,569.451,289.148,569.451,289.148z"/>
	</g>
	<g>
		<polygon points="569.274,309.587 574.6,309.851 574.954,295.866 569.622,295.866 		"/>
		<path d="M567.43,329.937l5.292,0.66c0,0,0.11-0.869,0.275-2.17c0.149-1.303,0.42-3.033,0.571-4.773
			c0.266-3.488,0.53-6.977,0.53-6.977l-5.317-0.393c0,0-0.26,3.422-0.52,6.842c-0.147,1.709-0.414,3.406-0.561,4.684
			C567.54,329.087,567.43,329.937,567.43,329.937z"/>
		<path d="M564.217,350.114l5.227,1.053c0,0,0.615-3.443,1.23-6.889c0.308-1.721,0.615-3.443,0.846-4.734
			c0.249-1.287,0.338-2.158,0.339-2.158l-5.273-0.789c-0.001,0-0.087,0.854-0.333,2.117c-0.227,1.268-0.528,2.955-0.83,4.645
			C564.82,346.735,564.217,350.114,564.217,350.114z"/>
		<path d="M559.37,369.962l5.133,1.443c0,0,0.238-0.842,0.598-2.104c0.34-1.266,0.875-2.934,1.271-4.637
			c0.787-3.408,1.574-6.814,1.574-6.814l-5.199-1.184c0,0-0.771,3.344-1.543,6.686c-0.389,1.67-0.915,3.305-1.248,4.547
			C559.604,369.136,559.37,369.962,559.37,369.962z"/>
		<path d="M553.172,389.429l5.01,1.826c0,0,1.121-3.313,2.242-6.627c0.561-1.656,1.121-3.313,1.542-4.557
			c0.437-1.236,0.665-2.082,0.665-2.082l-5.096-1.568c0,0-0.223,0.828-0.652,2.041c-0.412,1.219-0.963,2.844-1.513,4.469
			C554.272,386.181,553.172,389.429,553.172,389.429z"/>
		<path d="M545.391,408.323l4.857,2.197c0,0,1.438-3.188,2.873-6.377c1.284-3.254,2.567-6.508,2.567-6.508l-4.963-1.949
			c0,0-1.258,3.191-2.517,6.383C546.8,405.196,545.391,408.323,545.391,408.323z"/>
		<path d="M536.339,426.636l4.68,2.555c0,0,0.108-0.189,0.3-0.52c0.174-0.342,0.424-0.828,0.724-1.41
			c0.598-1.168,1.396-2.725,2.192-4.281c1.594-3.111,3.188-6.225,3.188-6.225l-4.803-2.316c0,0-1.563,3.053-3.127,6.105
			c-0.782,1.525-1.563,3.053-2.15,4.197c-0.293,0.572-0.537,1.049-0.709,1.383C536.446,426.45,536.339,426.636,536.339,426.636z"/>
	</g>
	<g>
		<path d="M525.825,444.159l4.476,2.9c0,0,1.888-2.945,3.775-5.891c0.955-1.465,1.767-3.018,2.439-4.145
			c0.653-1.137,1.09-1.895,1.09-1.895l-4.615-2.67c0,0-0.427,0.744-1.069,1.859c-0.659,1.104-1.454,2.627-2.392,4.064
			C527.677,441.272,525.825,444.159,525.825,444.159z"/>
		<path d="M514.116,460.903l4.247,3.225c0,0,0.538-0.689,1.345-1.725c0.76-1.068,1.773-2.494,2.787-3.92
			c2.027-2.85,4.054-5.701,4.054-5.701l-4.403-3.008c0,0-1.988,2.797-3.977,5.594c-0.994,1.396-1.988,2.795-2.733,3.844
			C514.643,460.228,514.116,460.903,514.116,460.903z"/>
		<path d="M501.145,476.69l3.996,3.531c0,0,2.289-2.645,4.58-5.289c0.57-0.662,1.143-1.324,1.678-1.943
			c0.506-0.645,0.979-1.246,1.385-1.762c0.811-1.031,1.351-1.719,1.351-1.719l-4.167-3.328c0,0-0.529,0.676-1.324,1.688
			c-0.397,0.506-0.861,1.096-1.357,1.729c-0.525,0.607-1.087,1.258-1.647,1.906C503.391,474.097,501.145,476.69,501.145,476.69z"/>
		<path d="M487.057,491.489l3.722,3.818c0,0,0.633-0.604,1.582-1.51c0.974-0.879,2.151-2.174,3.364-3.432
			c2.414-2.531,4.826-5.063,4.826-5.063l-3.908-3.627c0,0-2.366,2.482-4.733,4.965c-1.189,1.234-2.345,2.506-3.301,3.367
			C487.678,490.897,487.057,491.489,487.057,491.489z"/>
		<path d="M471.917,505.21l3.428,4.084c0,0,2.644-2.289,5.287-4.58c1.312-1.156,2.668-2.264,3.611-3.176
			c0.949-0.904,1.582-1.508,1.582-1.508l-3.627-3.908c0,0-0.621,0.592-1.553,1.48c-0.924,0.896-2.256,1.98-3.542,3.115
			C474.51,502.964,471.917,505.21,471.917,505.21z"/>
		<path d="M455.768,517.733l3.115,4.328c0,0,0.712-0.508,1.781-1.268c1.066-0.764,2.511-1.75,3.865-2.859
			c2.75-2.16,5.5-4.322,5.5-4.322l-3.327-4.166c0,0-2.698,2.121-5.396,4.24c-1.327,1.088-2.745,2.055-3.791,2.805
			C456.467,517.235,455.768,517.733,455.768,517.733z"/>
		<path d="M438.785,529.085l2.782,4.549c0,0,2.945-1.889,5.889-3.775c1.473-0.943,2.944-1.887,4.048-2.596
			c0.558-0.346,1.001-0.664,1.312-0.889c0.313-0.221,0.49-0.348,0.49-0.348l-3.008-4.402c0,0-0.174,0.123-0.48,0.342
			c-0.305,0.219-0.738,0.533-1.286,0.871c-1.083,0.693-2.526,1.619-3.972,2.545C441.672,527.233,438.785,529.085,438.785,529.085z"
			/>
	</g>
	<g>
		<path d="M420.936,539.036l2.435,4.744c0,0,0.778-0.398,1.946-0.996c1.162-0.607,2.734-1.375,4.27-2.213
			c3.032-1.744,6.064-3.488,6.064-3.488l-2.67-4.615c0,0-2.975,1.711-5.948,3.422c-1.505,0.822-3.048,1.574-4.188,2.17
			C421.7,538.646,420.936,539.036,420.936,539.036z"/>
		<path d="M402.453,547.743l2.071,4.914c0,0,0.207-0.07,0.555-0.234c0.348-0.158,0.846-0.383,1.443-0.652
			c1.195-0.541,2.789-1.262,4.383-1.98c3.187-1.445,6.373-2.889,6.373-2.889l-2.317-4.803c0,0-3.125,1.416-6.25,2.832
			c-1.563,0.707-3.126,1.412-4.298,1.943c-0.586,0.266-1.075,0.486-1.417,0.641C402.657,547.675,402.453,547.743,402.453,547.743z"
			/>
		<path d="M383.316,554.896l1.696,5.055c0,0,3.313-1.121,6.627-2.242c1.646-0.59,3.26-1.27,4.484-1.738
			c1.22-0.48,2.033-0.803,2.033-0.803l-1.949-4.963c0,0-0.798,0.314-1.994,0.787c-1.201,0.461-2.783,1.127-4.398,1.705
			C386.565,553.796,383.316,554.896,383.316,554.896z"/>
		<path d="M363.731,560.716l1.311,5.168c0,0,0.858-0.172,2.115-0.549c1.262-0.357,2.943-0.836,4.626-1.313
			c3.364-0.957,6.729-1.912,6.729-1.912l-1.569-5.096c0,0-3.301,0.938-6.6,1.873c-1.65,0.469-3.299,0.938-4.537,1.289
			C364.573,560.548,363.731,560.716,363.731,560.716z"/>
		<path d="M343.739,564.927l0.918,5.252c0,0,3.443-0.615,6.887-1.23c1.725-0.295,3.414-0.76,4.697-1.031
			c1.278-0.295,2.131-0.492,2.131-0.492l-1.183-5.199c0,0-0.835,0.193-2.089,0.482c-1.258,0.268-2.915,0.723-4.606,1.014
			C347.116,564.323,343.739,564.927,343.739,564.927z"/>
		<path d="M323.5,567.753l0.523,5.305c0,0,0.873-0.049,2.173-0.232c1.301-0.164,3.036-0.385,4.771-0.605
			c3.47-0.441,6.939-0.883,6.939-0.883l-0.789-5.273c0,0-3.402,0.432-6.807,0.865c-1.701,0.217-3.402,0.432-4.679,0.594
			C324.358,567.704,323.5,567.751,323.5,567.753z"/>
		<path d="M303.105,568.929l0.129,5.332c0,0,3.495-0.09,6.991-0.178c1.746-0.084,3.487-0.252,4.795-0.34
			c1.309-0.1,2.18-0.166,2.18-0.166l-0.393-5.316c0,0-0.855,0.064-2.139,0.162c-1.283,0.088-2.991,0.254-4.704,0.334
			C306.535,568.843,303.105,568.929,303.105,568.929z"/>
	</g>
	<g>
		<polygon points="282.666,568.753 282.403,574.079 296.387,574.433 296.387,569.101 		"/>
		<path d="M262.316,566.909l-0.659,5.291c0,0,0.868,0.111,2.17,0.275c1.303,0.15,3.032,0.42,4.773,0.572
			c3.488,0.266,6.976,0.529,6.976,0.529l0.394-5.316c0,0-3.422-0.26-6.843-0.52c-1.709-0.148-3.405-0.414-4.684-0.561
			C263.167,567.019,262.316,566.909,262.316,566.909z"/>
		<path d="M242.139,563.696l-1.053,5.227c0,0,3.443,0.615,6.888,1.23c1.722,0.307,3.443,0.615,4.735,0.846
			c1.287,0.248,2.158,0.338,2.158,0.338l0.789-5.273c0,0-0.854-0.086-2.118-0.332c-1.267-0.227-2.955-0.529-4.644-0.83
			C245.517,564.298,242.139,563.696,242.139,563.696z"/>
		<path d="M222.292,558.849l-1.443,5.133c0,0,0.842,0.238,2.104,0.598c1.266,0.34,2.934,0.875,4.637,1.271
			c3.407,0.787,6.814,1.574,6.814,1.574l1.183-5.199c0,0-3.343-0.771-6.685-1.543c-1.67-0.389-3.305-0.916-4.547-1.248
			C223.117,559.083,222.292,558.849,222.292,558.849z"/>
		<path d="M202.824,552.651l-1.826,5.01c0,0,3.313,1.121,6.627,2.242c1.657,0.561,3.313,1.121,4.557,1.541
			c1.237,0.438,2.082,0.666,2.082,0.666l1.569-5.096c0,0-0.828-0.223-2.041-0.652c-1.219-0.412-2.844-0.963-4.469-1.514
			C206.073,553.751,202.824,552.651,202.824,552.651z"/>
		<path d="M183.93,544.87l-2.198,4.857c0,0,3.188,1.438,6.378,2.873c3.254,1.283,6.508,2.566,6.508,2.566l1.949-4.963
			c0,0-3.191-1.258-6.383-2.516C187.057,546.278,183.93,544.87,183.93,544.87z"/>
		<path d="M165.618,535.817l-2.556,4.68c0,0,0.189,0.109,0.521,0.301c0.341,0.174,0.827,0.424,1.41,0.723
			c1.168,0.598,2.724,1.396,4.28,2.193c3.112,1.594,6.226,3.188,6.226,3.188l2.316-4.803c0,0-3.053-1.564-6.105-3.127
			c-1.526-0.783-3.053-1.564-4.197-2.15c-0.572-0.293-1.049-0.537-1.383-0.709C165.803,535.925,165.618,535.817,165.618,535.817z"/>
	</g>
	<g>
		<path d="M148.093,525.304l-2.899,4.475c0,0,2.945,1.889,5.891,3.775c1.465,0.955,3.018,1.768,4.144,2.439
			c1.138,0.654,1.896,1.09,1.896,1.09l2.67-4.615c0,0-0.744-0.426-1.859-1.068c-1.104-0.66-2.627-1.455-4.064-2.393
			C150.981,527.155,148.093,525.304,148.093,525.304z"/>
		<path d="M131.35,513.595l-3.225,4.246c0,0,0.689,0.539,1.725,1.346c1.068,0.76,2.494,1.773,3.919,2.787
			c2.851,2.027,5.701,4.053,5.701,4.053l3.008-4.402c0,0-2.796-1.988-5.593-3.977c-1.397-0.994-2.796-1.988-3.845-2.734
			C132.026,514.122,131.35,513.595,131.35,513.595z"/>
		<path d="M115.563,500.624l-3.531,3.996c0,0,2.645,2.289,5.288,4.58c0.662,0.57,1.324,1.143,1.944,1.678
			c0.645,0.506,1.246,0.979,1.762,1.385c1.031,0.811,1.719,1.35,1.719,1.35l3.327-4.166c0,0-0.675-0.529-1.687-1.324
			c-0.506-0.398-1.096-0.861-1.729-1.357c-0.608-0.525-1.258-1.088-1.906-1.648C118.157,502.87,115.563,500.624,115.563,500.624z"/>
		<path d="M100.764,486.536l-3.818,3.721c0,0,0.604,0.633,1.509,1.582c0.88,0.975,2.174,2.152,3.433,3.365
			c2.531,2.414,5.063,4.826,5.063,4.826l3.627-3.908c0,0-2.482-2.367-4.965-4.734c-1.236-1.189-2.506-2.344-3.368-3.301
			C101.356,487.157,100.764,486.536,100.764,486.536z"/>
		<path d="M87.042,471.396l-4.084,3.428c0,0,2.29,2.643,4.58,5.287c1.157,1.311,2.264,2.668,3.176,3.611
			c0.905,0.949,1.509,1.582,1.509,1.582l3.908-3.627c0,0-0.593-0.621-1.48-1.553c-0.896-0.924-1.98-2.256-3.115-3.543
			C89.29,473.989,87.042,471.396,87.042,471.396z"/>
		<path d="M74.52,455.247l-4.328,3.115c0,0,0.508,0.711,1.268,1.781c0.764,1.066,1.75,2.51,2.859,3.865
			c2.16,2.75,4.321,5.5,4.321,5.5l4.167-3.328c0,0-2.121-2.697-4.24-5.395c-1.088-1.328-2.056-2.746-2.805-3.791
			C75.018,455.946,74.52,455.247,74.52,455.247z"/>
		<path d="M63.168,438.263l-4.549,2.783c0,0,1.888,2.945,3.775,5.889c0.943,1.473,1.887,2.943,2.596,4.047
			c0.345,0.559,0.664,1.002,0.888,1.313c0.222,0.313,0.349,0.49,0.349,0.49l4.402-3.008c0,0-0.124-0.174-0.342-0.48
			c-0.219-0.305-0.533-0.738-0.871-1.287c-0.694-1.082-1.619-2.525-2.545-3.971C65.02,441.151,63.168,438.263,63.168,438.263z"/>
	</g>
	<g>
		<path d="M53.216,420.415l-4.743,2.434c0,0,0.398,0.779,0.996,1.947c0.607,1.162,1.375,2.734,2.213,4.27
			c1.744,3.031,3.487,6.064,3.487,6.064l4.615-2.67c0,0-1.71-2.975-3.421-5.949c-0.822-1.504-1.574-3.047-2.17-4.188
			C53.608,421.179,53.216,420.415,53.216,420.415z"/>
		<path d="M44.51,401.931l-4.914,2.072c0,0,0.07,0.207,0.234,0.555c0.157,0.348,0.383,0.846,0.652,1.443
			c0.54,1.195,1.261,2.789,1.98,4.383c1.445,3.186,2.889,6.373,2.889,6.373l4.803-2.318c0,0-1.416-3.125-2.832-6.25
			c-0.707-1.563-1.413-3.125-1.943-4.297c-0.266-0.586-0.486-1.076-0.641-1.418C44.579,402.136,44.51,401.931,44.51,401.931z"/>
		<path d="M37.358,382.794l-5.055,1.697c0,0,1.121,3.313,2.242,6.627c0.59,1.645,1.269,3.26,1.738,4.484
			c0.48,1.219,0.802,2.033,0.802,2.033l4.963-1.949c0,0-0.314-0.799-0.786-1.994c-0.461-1.201-1.127-2.783-1.706-4.398
			C38.458,386.044,37.358,382.794,37.358,382.794z"/>
		<path d="M31.538,363.21l-5.169,1.311c0,0,0.172,0.857,0.55,2.115c0.357,1.262,0.836,2.943,1.313,4.625
			c0.956,3.365,1.912,6.729,1.912,6.729l5.096-1.568c0,0-0.938-3.301-1.873-6.6c-0.469-1.65-0.938-3.299-1.289-4.537
			C31.706,364.052,31.538,363.21,31.538,363.21z"/>
		<path d="M27.327,343.218l-5.252,0.918c0,0,0.615,3.443,1.23,6.887c0.295,1.725,0.759,3.414,1.031,4.697
			c0.295,1.277,0.492,2.131,0.492,2.131l5.199-1.184c0,0-0.193-0.834-0.482-2.088c-0.268-1.258-0.724-2.916-1.014-4.607
			C27.93,346.595,27.327,343.218,27.327,343.218z"/>
		<path d="M24.5,322.979l-5.306,0.523c0,0,0.049,0.873,0.233,2.172c0.164,1.301,0.385,3.037,0.605,4.771
			c0.441,3.469,0.882,6.939,0.882,6.939l5.274-0.789c0,0-0.433-3.402-0.865-6.807c-0.217-1.701-0.433-3.402-0.595-4.68
			C24.548,323.837,24.501,322.979,24.5,322.979z"/>
		<path d="M23.324,302.583l-5.331,0.129c0,0,0.09,3.496,0.178,6.992c0.082,1.746,0.251,3.486,0.34,4.795
			c0.099,1.309,0.165,2.18,0.165,2.18l5.317-0.393c0,0-0.064-0.855-0.162-2.139c-0.088-1.283-0.254-2.992-0.334-4.705
			C23.41,306.013,23.324,302.583,23.324,302.583z"/>
	</g>
</g>
</svg>
