<?xml version="1.0" encoding="utf-8"?>
<!-- Generator: Adobe Illustrator 16.0.3, SVG Export Plug-In . SVG Version: 6.00 Build 0)  -->
<!DOCTYPE svg PUBLIC "-//W3C//DTD SVG 1.1//EN" "http://www.w3.org/Graphics/SVG/1.1/DTD/svg11.dtd">
<svg version="1.1" id="Capa_1" xmlns="http://www.w3.org/2000/svg" xmlns:xlink="http://www.w3.org/1999/xlink" x="0px" y="0px"
	 width="595.28px" height="595.28px" viewBox="0 0 595.28 595.28" enable-background="new 0 0 595.28 595.28" xml:space="preserve">
<rect x="324.608" y="115.858" fill-rule="evenodd" clip-rule="evenodd" width="9.801" height="370.434"/>
<path fill-rule="evenodd" clip-rule="evenodd" d="M148.785,280.101c-0.825,0.428-1.509,1.338-1.979,2.184
	c-3.009,5.465-5.937,10.973-8.917,16.453c-1.726,3.18-3.379,6.41-5.289,9.479c-2.34,3.764-6.119,5.279-10.322,5.131
	c-9.524-0.338-14.918-9.848-10.4-18.283c4.747-8.868,9.782-17.585,14.573-26.429c1.753-3.237,4.278-5.494,7.41-7.285
	c12.221-6.992,24.392-14.058,36.626-21.037c3.372-1.922,7.108-3.111,10.969-2.765c8.193,0.739,16.357,1.84,24.534,2.837
	c0.883,0.107,1.759,0.425,2.595,0.758c10.556,4.212,21.133,8.362,31.629,12.719c2.936,1.218,5.626,1.429,8.678,0.52
	c6.455-1.927,12.995-3.557,19.491-5.334c3.061-0.838,6.008-0.622,8.707,1.085c4.332,2.738,5.748,6.928,5.045,11.741
	c-0.687,4.686-3.615,7.913-8.089,9.274c-9.62,2.924-19.313,5.586-28.978,8.353c-2.374,0.677-4.806,0.909-7.124,0.036
	c-5.928-2.225-11.798-4.607-17.707-6.885c-2.192-0.844-4.437-1.557-6.788-2.377c-0.302,1.488-0.591,2.555-0.731,3.643
	c-1.109,8.258-2.173,16.525-3.279,24.785c-0.906,6.771-1.805,13.539-2.807,20.297c-0.267,1.775,0.052,3.326,0.688,4.965
	c5.815,14.9,11.594,29.811,17.316,44.742c0.488,1.285,0.762,2.738,0.766,4.111c0.047,19.529,0.041,39.059,0.025,58.586
	c0,2.891-0.827,5.586-2.388,7.988c-3.542,5.449-8.67,8.215-15.095,7.543c-6.621-0.699-11.427-4.352-13.643-10.789
	c-0.698-2.043-0.935-4.336-0.949-6.514c-0.078-15.299-0.008-30.602-0.093-45.902c-0.011-1.752-0.452-3.572-1.054-5.227
	c-1.131-3.117-2.514-6.141-3.815-9.197c-1.997-4.699-4.012-9.396-6.16-14.434c-0.354,0.908-0.605,1.434-0.761,1.99
	c-2.647,9.695-5.328,19.385-7.89,29.104c-0.713,2.721-2,5.043-3.904,7.033c-6.748,7.053-13.531,14.07-20.297,21.107
	c-2.159,2.25-4.288,4.529-6.462,6.77c-3.712,3.828-7.34,7.746-11.198,11.428c-5.503,5.248-13.898,5.926-20.058,1.852
	c-9.22-6.1-10.544-17.988-2.876-26.123c4.414-4.686,8.889-9.316,13.31-13.994c5.323-5.627,10.636-11.262,15.897-16.941
	c0.651-0.695,1.175-1.641,1.397-2.561c0.522-2.146,0.85-4.336,1.202-6.521c2.31-14.48,4.462-28.99,6.958-43.443
	c1.83-10.59,4.101-21.105,6.181-31.65c1.065-5.396,2.152-10.785,3.328-16.688C153.99,277.646,151.332,278.763,148.785,280.101z
	 M219.173,374.56c-0.014-1.764-0.347-3.615-0.972-5.258c-5.741-15.033-11.517-30.057-17.455-45.014
	c-1.147-2.893-0.355-5.568-0.011-8.281c1.224-9.664,2.643-19.301,4.019-28.945c0.709-4.971,1.509-9.932,2.229-14.9
	c0.3-2.086,0.471-4.193,0.765-6.281c0.544-3.812,2.685-4.719,5.82-2.552c0.732,0.508,1.568,0.884,2.404,1.203
	c7.504,2.885,15.032,5.714,22.521,8.639c1.886,0.734,3.734,0.787,5.599,0.247c9.271-2.691,18.544-5.388,27.784-8.172
	c3.238-0.978,4.455-2.927,4.181-6.076c-0.215-2.444-2.119-4.25-4.603-4.244c-0.891,0-1.807,0.153-2.669,0.387
	c-7.179,1.948-14.355,3.897-21.514,5.921c-2.033,0.573-3.892,0.508-5.866-0.303c-10.231-4.195-20.502-8.284-30.742-12.458
	c-3.563-1.452-7.153-2.435-11.065-2.658c-5.505-0.312-11-1.037-16.456-1.84c-3.258-0.48-6.238,0.07-9.01,1.599
	c-6.518,3.593-12.965,7.31-19.429,11c-6.199,3.545-12.374,7.138-18.581,10.672c-1.704,0.972-3.062,2.191-4.022,3.949
	c-4.577,8.387-9.209,16.75-13.821,25.119c-0.338,0.617-0.68,1.238-0.975,1.875c-1.523,3.264-0.607,6.467,2.296,8.061
	c3.183,1.748,6.336,0.963,8.292-2.244c1.412-2.316,2.614-4.762,3.919-7.145c3.479-6.35,7.01-12.678,10.412-19.066
	c0.864-1.625,2.066-2.633,3.674-3.374c7.771-3.569,15.521-7.187,23.28-10.771c0.818-0.379,1.656-0.774,2.525-0.941
	c1.62-0.304,2.958,0.441,3.476,1.748c0.569,1.458,0.081,3.071-1.419,3.842c-2.503,1.285-5.066,2.469-7.646,3.594
	c-1.405,0.613-2.107,1.447-2.43,3.061c-2.85,14.393-5.984,28.734-8.72,43.145c-1.93,10.164-3.365,20.418-5.028,30.635
	c-1.28,7.828-2.918,15.625-3.721,23.504c-0.539,5.34-3.149,8.953-6.706,12.574c-8.88,9.043-17.509,18.334-26.171,27.582
	c-2.77,2.959-4.053,6.416-2.807,10.525c1.272,4.184,4.159,6.574,8.318,7.406c3.509,0.703,6.588-0.416,9.066-2.951
	c4.85-4.963,9.642-9.988,14.452-14.992c7.183-7.473,14.301-15.004,21.572-22.385c2.377-2.41,3.62-5.238,4.474-8.381
	c4.614-16.979,9.249-33.947,13.875-50.92c0.078-0.289,0.115-0.598,0.227-0.875c0.658-1.637,2.1-2.566,3.482-2.266
	c1.545,0.334,2.761,1.891,2.506,3.627c-0.332,2.279-0.916,4.523-1.398,6.781c-0.103,0.492-0.231,0.979-0.347,1.469
	c-1.579,6.783-1.49,6.742,1.353,13.24c3.624,8.291,7.12,16.641,10.582,25.004c0.525,1.26,0.779,2.717,0.783,4.088
	c0.033,13.889-0.022,27.775-0.034,41.664c-0.002,2.414,0.009,4.828,0.089,7.244c0.178,5.229,3.59,9.164,8.696,10.098
	c5.25,0.963,10.733-3.707,10.955-9.438c0.119-3.113,0.037-6.24,0.037-9.357c0-6.646,0-13.291,0-19.934
	C219.218,392.88,219.27,383.718,219.173,374.56z"/>
<path fill-rule="evenodd" clip-rule="evenodd" d="M168.617,203.465c-0.04-13.978,12.585-24.666,24.661-24.488
	c13.353,0.197,24.437,11.836,24.201,24.878c-0.238,12.941-11.211,24.32-24.438,23.892
	C180.24,228.352,168.654,216.662,168.617,203.465z M174.836,203.443c0.022,9.815,8.532,18.146,18.26,18.214
	c9.379,0.066,18.23-8.679,18.244-18.253c0.02-8.997-8.518-18.739-18.289-18.104C183.427,184.86,174.813,193.567,174.836,203.443z"/>
<g>
	<path fill-rule="evenodd" clip-rule="evenodd" d="M285.319,264.689c0,0.751,0.028,1.44-0.003,2.124
		c-0.091,2.071-0.814,3.859-2.333,5.318c-1.006,0.97-2.172,1.613-3.515,1.943c-1.096,0.27-2.21,0.258-3.315,0.023
		c-2.364-0.506-4.094-1.865-5.207-3.992c-0.513-0.981-0.786-2.048-0.789-3.166c-0.004-3.385-0.022-6.771,0.008-10.156
		c0.016-1.642,0.574-3.111,1.597-4.414c0.658-0.841,1.452-1.511,2.38-2.007c0.712-0.382,1.473-0.647,2.281-0.772
		c0.926-0.142,1.848-0.161,2.764,0.017c1.021,0.197,1.978,0.585,2.824,1.193c1.281,0.921,2.272,2.083,2.815,3.587
		c0.287,0.794,0.462,1.614,0.49,2.459c0.018,0.549,0.003,1.099,0.003,1.649c0,0.168,0,0.337,0,0.567
		c0.261,0.007,0.478,0.022,0.694,0.022c3.47,0.002,6.942,0.002,10.413,0.002c4.675,0,9.349,0,14.023,0c0.088,0,0.172-0.004,0.258,0
		c0.46,0.033,0.693,0.256,0.706,0.716c0.015,0.534,0.007,1.066,0.007,1.598c0,0.841,0.004,1.684-0.005,2.525
		c-0.002,0.465-0.219,0.688-0.683,0.724c-0.188,0.014-0.375,0.002-0.622,0.002c-0.015,0.196-0.036,0.358-0.037,0.523
		c-0.003,0.84,0,1.682,0,2.525c0,0.12,0.006,0.243-0.008,0.359c-0.048,0.408-0.294,0.695-0.694,0.706
		c-1.066,0.021-2.131,0.008-3.197,0.011c-0.248,0-0.32-0.15-0.32-0.37c0.002-0.689,0.001-1.374,0-2.063
		c0-0.36,0.01-0.721-0.004-1.083c-0.011-0.279-0.196-0.524-0.426-0.583c-0.276-0.069-0.535,0.01-0.688,0.236
		c-0.098,0.142-0.13,0.35-0.131,0.527c-0.013,0.878-0.007,1.754-0.007,2.629c0,0.122-0.002,0.242-0.002,0.361
		c0.002,0.233-0.107,0.349-0.344,0.347c-0.585-0.001-1.169,0.011-1.753-0.007c-0.41-0.012-0.608-0.201-0.699-0.612
		c-0.033-0.15-0.065-0.304-0.066-0.458c-0.005-0.992-0.002-1.984-0.002-3.015C296.298,264.689,290.844,264.689,285.319,264.689z
		 M274.294,261.882c0,1.497-0.004,2.99,0.006,4.487c0.001,0.321,0.047,0.646,0.089,0.968c0.169,1.269,1.474,2.743,3.268,2.765
		c1.188,0.015,2.167-0.494,2.86-1.459c0.307-0.429,0.566-0.914,0.574-1.47c0.022-1.534,0.037-3.07,0.043-4.605
		c0.003-0.616-0.026-1.229-0.029-1.847c-0.006-1.236,0.001-2.473-0.004-3.71c-0.002-0.239-0.01-0.484-0.065-0.714
		c-0.333-1.383-1.226-2.222-2.588-2.562c-1.142-0.287-2.146,0.044-3.001,0.806c-0.8,0.712-1.16,1.631-1.153,2.704
		C274.302,258.789,274.294,260.337,274.294,261.882z"/>
</g>
<g>
	<path d="M446.505,396.983c-6.529-5.168-13.057-10.336-19.586-15.502c-0.65-0.516-1.567-0.828-2.336-0.303
		c-4.136,2.832-8.16,5.879-12.374,8.586c-4.998,3.211-10.407,4.709-16.274,5.227c-5.459,0.479-10.836,1.758-16.196,2.84
		c-4.895,0.99-12.647,3.15-16.263-1.637c-3.296-4.365-1.472-10.5,3.638-12.137c6.296-2.016,12.86-2.697,19.403-3.234
		c9.525-0.783,18.305-4.723,25.864-10.439c1.802-1.363,3.504-2.846,5.171-4.369c1.05-0.961,0.793-3.74,1.015-4.943
		c0.876-4.773,3.378-9.063,7.531-11.631c12.027-7.434,21.9,3.855,30.257,11.115c4.478,3.893,8.978,7.758,13.497,11.6
		c4.596,3.91,9.439,7.518,11.57,13.395c3.931,10.844-7.246,19.195-13.995,25.848c-1.619,1.596-3.235,3.191-4.846,4.797
		c-1.195,1.189-0.315,3.289,1.363,3.291c6.195,0.006,12.392,0.111,18.585-0.018c6.992-0.146,13.651,2.814,14.173,10.568
		c0.18,2.684-0.866,5.262-2.593,7.266c-2.264,2.623-7.783,0.988-10.845,0.965c-7.653-0.061-15.277,1.271-22.877,1.996
		c-7.14,0.68-14.518,1.592-21.36-1.051c-3.042-1.176-6.297-1.221-9.516-1.195c-3.974,0.029-5.724-0.936-7.008-4.834
		c-2.592-7.871,5.559-13.869,10.335-18.74c4.824-4.918,9.785-9.645,13.97-15.123c1.51-1.977-1.842-3.893-3.329-1.945
		c-5.774,7.557-13.096,14.029-19.718,20.846c-4.887,5.029-7.362,11.965-3.994,18.607c3.549,7.002,10.721,4.117,17.058,5.682
		c4.377,1.08,7.891,2.336,12.502,2.338c5.098,0.002,10.283-0.617,15.345-1.168c4.762-0.52,9.507-1.121,14.289-1.424
		c4.222-0.268,8.791,0.787,12.908,0.227c6.241-0.85,9.008-7.732,8.628-13.379c-0.447-6.637-5.537-11.389-11.691-13.035
		c-3.436-0.92-7.234-0.42-10.745-0.396c-4.705,0.031-9.41-0.037-14.115-0.041c0.454,1.096,0.909,2.193,1.363,3.291
		c3.566-3.551,7.175-7.055,10.709-10.635c3.179-3.223,6.987-6.695,8.605-11.037c3.262-8.758,0.011-16.906-6.523-23.117
		c-8.876-8.439-18.741-16.025-27.955-24.105c-6.896-6.049-15.315-8.912-24.117-4.848c-7.476,3.451-10.966,10.742-11.686,18.658
		c-0.097,1.068-5.062,4.086-5.864,4.668c-1.928,1.398-3.981,2.605-6.076,3.732c-4.904,2.633-10.368,4.135-15.882,4.73
		c-5.473,0.59-10.728,1.033-16.119,2.283c-4.421,1.023-8.289,2.004-10.909,5.947c-3.691,5.557-0.536,14.891,5.787,16.951
		c4.552,1.482,9.479,0.541,14.064-0.32c6.442-1.211,12.756-2.615,19.297-3.229c10.922-1.023,19.201-8.141,27.893-14.092
		c-0.778-0.102-1.557-0.201-2.335-0.303c6.528,5.168,13.056,10.338,19.585,15.504C445.706,401.235,448.454,398.524,446.505,396.983z
		"/>
</g>
<g>
	<path d="M407.338,347.06c-13.514-0.152-25.018-9.893-25.677-23.725c-0.611-12.822,7.94-23.18,20.226-25.906
		c14.239-3.158,26.978,7.1,29.775,20.863C434.633,332.907,421.626,346.757,407.338,347.06c-2.483,0.053-2.488,3.908,0,3.855
		c16.202-0.344,29.637-14.707,28.413-30.963c-1.227-16.289-16.377-28.666-32.402-26.65c-15.152,1.904-25.151,14.082-25.553,29.066
		c-0.438,16.334,13.999,28.371,29.542,28.547C409.825,350.942,409.823,347.089,407.338,347.06z"/>
</g>
<g>
	<path d="M394.729,282.891c-0.956,1.047-1.734,2.863-3.205,1.519c-1.658-1.514-1.645-5.109-1.678-7.152
		c-0.01-0.605,0.387-3.27,1.824-2.535c1.212,0.621,1.435,1.854,1.691,3.049c0.453,2.115,0.521,4.338,0.803,6.483
		c0.319,2.429,4.179,2.458,3.855,0c-0.522-3.97-0.121-9.218-3.361-12.108c-3.072-2.741-6.726-1.374-8.169,2.283
		c-1.462,3.701-0.318,9.752,2.308,12.707c0.968,1.089,2.951,2.384,4.493,1.9c1.91-0.598,2.868-2,4.164-3.42
		C399.126,283.784,396.408,281.05,394.729,282.891z"/>
</g>
<g>
	<path d="M351.906,310.517c2.261,0.461,4.542,0.811,6.79,1.334c2.415,0.563,2.886,1.957,4.036,3.908
		c0.23-0.879,0.461-1.76,0.692-2.639c-0.95,0.672-1.841,1.418-2.808,2.066c-1.115,0.748-3.785-0.104-4.922-0.363
		c-1.457-0.332-2.916-0.783-3.831-2.033c-0.767-1.049,1.368-2.271,1.918-2.77c1.846-1.672-0.889-4.391-2.726-2.727
		c-1.204,1.092-3.683,2.6-3.447,4.576c0.24,2.006,1.318,4.172,3.166,5.205c2.269,1.268,4.86,1.742,7.409,2.066
		c3.185,0.402,4.725-0.949,7.187-2.691c0.854-0.605,1.26-1.674,0.692-2.639c-1.071-1.816-1.793-4.066-3.926-4.893
		c-2.952-1.141-6.12-1.49-9.205-2.121C350.504,306.304,349.471,310.021,351.906,310.517z"/>
</g>
<g>
	<path d="M366.543,286.591c1.302,0.199,2.438,1.588,3.311,2.475c1.425,1.449,2.684,3.088,3.618,4.895
		c0.393,0.758,0.292,1.764-0.904,1.865c-1.53,0.129-2.612-1.486-3.556-2.484c-1.051-1.109-6.229-6.57-1.957-6.682
		c2.481-0.065,2.488-3.922,0-3.856c-4.953,0.13-6.917,5.034-4.276,8.925c2.282,3.361,7.14,10.311,12.122,7.498
		c3.975-2.246,2.629-6.418,0.578-9.376c-1.706-2.462-4.693-6.483-7.91-6.978C365.136,282.499,364.092,286.212,366.543,286.591z"/>
</g>
<g>
	<g>
		<polygon points="36.266,287.354 30.94,287.09 30.587,301.075 35.919,301.075 		"/>
		<path d="M38.11,267.004l-5.292-0.659c0,0-0.11,0.868-0.275,2.169c-0.15,1.303-0.42,3.033-0.571,4.774
			c-0.266,3.488-0.531,6.975-0.531,6.975l5.318,0.394c0,0,0.26-3.421,0.52-6.843c0.147-1.709,0.414-3.406,0.561-4.684
			C38.001,267.854,38.11,267.004,38.11,267.004z"/>
		<path d="M41.324,246.828l-5.227-1.053c0,0-0.615,3.443-1.23,6.887c-0.308,1.722-0.615,3.443-0.845,4.735
			c-0.25,1.288-0.339,2.159-0.339,2.159l5.274,0.788c0,0,0.087-0.854,0.333-2.118c0.227-1.267,0.528-2.955,0.83-4.644
			C40.721,250.205,41.324,246.828,41.324,246.828z"/>
		<path d="M46.171,226.98l-5.133-1.443c0,0-0.239,0.841-0.597,2.103c-0.34,1.267-0.875,2.934-1.272,4.637
			c-0.787,3.408-1.574,6.815-1.574,6.815l5.199,1.182c0,0,0.771-3.342,1.542-6.685c0.389-1.67,0.916-3.305,1.249-4.547
			C45.937,227.805,46.171,226.98,46.171,226.98z"/>
		<path d="M52.368,207.512l-5.01-1.826c0,0-1.121,3.313-2.243,6.627c-0.561,1.657-1.121,3.314-1.542,4.557
			c-0.437,1.237-0.665,2.082-0.666,2.082l5.096,1.57c0,0,0.224-0.828,0.653-2.042c0.413-1.219,0.963-2.844,1.513-4.468
			C51.269,210.761,52.368,207.512,52.368,207.512z"/>
		<path d="M60.15,188.618l-4.858-2.198c0,0-1.437,3.189-2.874,6.378c-1.284,3.254-2.567,6.508-2.567,6.508l4.963,1.949
			c0,0,1.258-3.191,2.516-6.383C58.74,191.745,60.15,188.618,60.15,188.618z"/>
		<path d="M69.201,170.306l-4.68-2.556c0,0-0.109,0.189-0.299,0.521c-0.175,0.34-0.424,0.827-0.724,1.41
			c-0.598,1.167-1.395,2.723-2.192,4.28c-1.594,3.113-3.188,6.226-3.188,6.226l4.803,2.317c0,0,1.564-3.053,3.128-6.105
			c0.782-1.527,1.563-3.053,2.149-4.198c0.293-0.572,0.538-1.049,0.709-1.383C69.094,170.492,69.201,170.306,69.201,170.306z"/>
	</g>
	<g>
		<path d="M79.715,152.781l-4.475-2.899c0,0-1.888,2.945-3.775,5.89c-0.955,1.465-1.767,3.018-2.439,4.144
			c-0.654,1.137-1.09,1.896-1.09,1.896l4.615,2.67c0,0,0.427-0.744,1.069-1.859c0.66-1.104,1.455-2.628,2.392-4.065
			C77.864,155.669,79.715,152.781,79.715,152.781z"/>
		<path d="M91.424,136.038l-4.247-3.224c0,0-0.538,0.689-1.344,1.724c-0.76,1.069-1.774,2.494-2.788,3.919
			c-2.027,2.851-4.054,5.701-4.054,5.701l4.403,3.008c0,0,1.988-2.796,3.977-5.592c0.994-1.398,1.988-2.796,2.733-3.845
			C90.897,136.714,91.424,136.038,91.424,136.038z"/>
		<path d="M104.396,120.251l-3.996-3.531c0,0-2.29,2.644-4.58,5.288c-0.571,0.662-1.143,1.324-1.678,1.945
			c-0.506,0.645-0.979,1.246-1.385,1.762c-0.811,1.031-1.351,1.719-1.351,1.719l4.167,3.327c0,0,0.53-0.674,1.325-1.686
			c0.397-0.506,0.861-1.096,1.358-1.729c0.525-0.609,1.086-1.258,1.647-1.907C102.149,122.845,104.396,120.251,104.396,120.251z"/>
		<path d="M118.483,105.452l-3.722-3.818c0,0-0.633,0.603-1.582,1.508c-0.973,0.88-2.152,2.174-3.365,3.433
			c-2.413,2.531-4.826,5.062-4.826,5.062l3.908,3.627c0,0,2.367-2.482,4.734-4.965c1.189-1.236,2.345-2.505,3.301-3.368
			C117.863,106.044,118.483,105.452,118.483,105.452z"/>
		<path d="M133.625,91.73l-3.428-4.084c0,0-2.644,2.29-5.288,4.58c-1.311,1.157-2.667,2.264-3.61,3.176
			c-0.95,0.905-1.583,1.508-1.583,1.508l3.627,3.908c0,0,0.621-0.592,1.552-1.48c0.924-0.896,2.256-1.98,3.542-3.115
			C131.031,93.977,133.625,91.73,133.625,91.73z"/>
		<path d="M149.772,79.208l-3.114-4.328c0,0-0.712,0.507-1.781,1.267c-1.067,0.763-2.511,1.75-3.865,2.859
			c-2.75,2.161-5.5,4.322-5.5,4.322l3.327,4.167c0,0,2.698-2.12,5.395-4.24c1.328-1.088,2.746-2.056,3.792-2.804
			C149.073,79.706,149.772,79.208,149.772,79.208z"/>
		<path d="M166.756,67.856l-2.783-4.548c0,0-2.944,1.887-5.889,3.774c-1.472,0.944-2.944,1.888-4.047,2.596
			c-0.558,0.345-1.001,0.665-1.312,0.888c-0.312,0.222-0.49,0.348-0.49,0.348l3.007,4.403c0,0,0.175-0.124,0.48-0.342
			c0.305-0.219,0.739-0.533,1.287-0.871c1.083-0.694,2.527-1.62,3.971-2.545C163.869,69.708,166.756,67.856,166.756,67.856z"/>
	</g>
	<g>
		<path d="M184.604,57.904l-2.435-4.744c0,0-0.778,0.398-1.946,0.997c-1.163,0.607-2.735,1.375-4.27,2.213
			c-3.033,1.743-6.065,3.487-6.065,3.487l2.67,4.615c0,0,2.974-1.71,5.948-3.421c1.505-0.822,3.048-1.575,4.188-2.17
			C183.841,58.295,184.604,57.904,184.604,57.904z"/>
		<path d="M203.088,49.198l-2.071-4.913c0,0-0.208,0.07-0.554,0.233c-0.349,0.158-0.847,0.383-1.444,0.653
			c-1.195,0.54-2.789,1.261-4.383,1.981c-3.186,1.444-6.372,2.889-6.372,2.889l2.317,4.802c0,0,3.125-1.416,6.25-2.832
			c1.563-0.707,3.126-1.414,4.298-1.944c0.586-0.265,1.075-0.486,1.417-0.641C202.884,49.267,203.088,49.198,203.088,49.198z"/>
		<path d="M222.225,42.046l-1.696-5.055c0,0-3.313,1.122-6.627,2.243c-1.646,0.59-3.26,1.268-4.484,1.738
			c-1.22,0.481-2.034,0.802-2.034,0.802l1.949,4.963c0,0,0.798-0.314,1.995-0.787c1.201-0.46,2.783-1.127,4.397-1.706
			C218.975,43.145,222.225,42.046,222.225,42.046z"/>
		<path d="M241.809,36.225l-1.31-5.168c0,0-0.858,0.172-2.115,0.549c-1.262,0.358-2.944,0.836-4.626,1.313
			c-3.364,0.956-6.729,1.911-6.729,1.911l1.57,5.096c0,0,3.3-0.937,6.599-1.873c1.65-0.469,3.299-0.938,4.537-1.289
			C240.967,36.393,241.809,36.225,241.809,36.225z"/>
		<path d="M261.802,32.015l-0.918-5.252c0,0-3.444,0.615-6.887,1.23c-1.724,0.296-3.414,0.759-4.697,1.032
			c-1.278,0.295-2.13,0.492-2.13,0.492l1.182,5.199c0,0,0.835-0.193,2.089-0.482c1.258-0.268,2.915-0.724,4.606-1.014
			C258.424,32.618,261.802,32.015,261.802,32.015z"/>
		<path d="M282.04,29.189l-0.523-5.306c0,0-0.874,0.049-2.173,0.233c-1.301,0.165-3.036,0.385-4.771,0.605
			c-3.47,0.441-6.939,0.882-6.939,0.882l0.788,5.274c0,0,3.403-0.432,6.807-0.864c1.702-0.217,3.403-0.433,4.679-0.595
			C281.183,29.236,282.04,29.189,282.04,29.189z"/>
		<path d="M302.436,28.012l-0.129-5.331c0,0-3.496,0.089-6.991,0.177c-1.746,0.083-3.487,0.251-4.795,0.339
			c-1.308,0.099-2.18,0.166-2.18,0.166l0.394,5.317c0,0,0.855-0.065,2.138-0.163c1.283-0.087,2.992-0.253,4.705-0.334
			C299.006,28.098,302.436,28.012,302.436,28.012z"/>
	</g>
	<g>
		<polygon points="322.875,28.188 323.138,22.862 309.153,22.509 309.153,27.841 		"/>
		<path d="M343.225,30.032l0.659-5.292c0,0-0.868-0.11-2.17-0.275c-1.303-0.15-3.032-0.42-4.773-0.571
			c-3.488-0.266-6.976-0.531-6.976-0.531l-0.394,5.318c0,0,3.422,0.26,6.843,0.52c1.709,0.147,3.405,0.414,4.684,0.561
			C342.374,29.923,343.225,30.032,343.225,30.032z"/>
		<path d="M363.401,33.246l1.053-5.227c0,0-3.443-0.615-6.888-1.23c-1.722-0.308-3.443-0.615-4.735-0.845
			c-1.287-0.25-2.158-0.339-2.158-0.339l-0.789,5.274c0,0,0.854,0.087,2.118,0.333c1.267,0.227,2.955,0.528,4.644,0.83
			C360.023,32.643,363.401,33.246,363.401,33.246z"/>
		<path d="M383.249,38.093l1.443-5.133c0,0-0.842-0.239-2.104-0.597c-1.266-0.34-2.934-0.875-4.637-1.272
			c-3.407-0.787-6.814-1.574-6.814-1.574l-1.183,5.199c0,0,3.343,0.771,6.685,1.542c1.67,0.389,3.305,0.916,4.547,1.249
			C382.424,37.858,383.249,38.093,383.249,38.093z"/>
		<path d="M402.717,44.29l1.826-5.01c0,0-3.313-1.121-6.627-2.243c-1.657-0.561-3.313-1.121-4.557-1.542
			c-1.237-0.437-2.082-0.665-2.082-0.666l-1.569,5.096c0,0,0.828,0.224,2.041,0.653c1.219,0.413,2.844,0.963,4.469,1.513
			C399.468,43.191,402.717,44.29,402.717,44.29z"/>
		<path d="M421.61,52.072l2.198-4.858c0,0-3.188-1.437-6.378-2.874c-3.254-1.284-6.508-2.567-6.508-2.567l-1.949,4.963
			c0,0,3.191,1.258,6.383,2.516C418.483,50.662,421.61,52.072,421.61,52.072z"/>
		<path d="M439.923,61.123l2.556-4.68c0,0-0.189-0.109-0.521-0.299c-0.341-0.175-0.827-0.424-1.41-0.724
			c-1.168-0.598-2.724-1.395-4.28-2.192c-3.112-1.594-6.226-3.188-6.226-3.188l-2.316,4.803c0,0,3.053,1.564,6.105,3.128
			c1.526,0.782,3.053,1.563,4.197,2.149c0.572,0.293,1.05,0.538,1.383,0.709C439.737,61.016,439.923,61.123,439.923,61.123z"/>
	</g>
	<g>
		<path d="M457.447,71.637l2.899-4.475c0,0-2.945-1.888-5.891-3.775c-1.465-0.955-3.018-1.767-4.144-2.439
			c-1.138-0.654-1.896-1.09-1.896-1.09l-2.67,4.615c0,0,0.744,0.427,1.859,1.069c1.104,0.66,2.627,1.455,4.064,2.392
			C454.56,69.786,457.447,71.637,457.447,71.637z"/>
		<path d="M474.19,83.346l3.225-4.247c0,0-0.689-0.538-1.725-1.344c-1.068-0.76-2.494-1.774-3.919-2.788
			c-2.851-2.027-5.701-4.054-5.701-4.054l-3.008,4.403c0,0,2.796,1.988,5.593,3.977c1.397,0.994,2.796,1.988,3.845,2.733
			C473.515,82.819,474.19,83.346,474.19,83.346z"/>
		<path d="M489.978,96.317l3.531-3.996c0,0-2.645-2.29-5.288-4.58c-0.662-0.571-1.324-1.143-1.944-1.678
			c-0.645-0.506-1.246-0.979-1.762-1.385c-1.031-0.811-1.719-1.351-1.719-1.351l-3.327,4.167c0,0,0.675,0.53,1.687,1.325
			c0.506,0.397,1.096,0.861,1.729,1.358c0.608,0.525,1.258,1.086,1.906,1.647C487.384,94.071,489.978,96.317,489.978,96.317z"/>
		<path d="M504.776,110.405l3.818-3.722c0,0-0.604-0.633-1.509-1.582c-0.88-0.973-2.174-2.152-3.433-3.365
			c-2.531-2.413-5.063-4.826-5.063-4.826l-3.627,3.908c0,0,2.482,2.367,4.965,4.734c1.235,1.189,2.506,2.345,3.368,3.301
			C504.185,109.785,504.776,110.405,504.776,110.405z"/>
		<path d="M518.498,125.546l4.084-3.428c0,0-2.29-2.644-4.58-5.288c-1.157-1.311-2.264-2.667-3.176-3.61
			c-0.905-0.95-1.509-1.583-1.509-1.583l-3.908,3.627c0,0,0.593,0.621,1.48,1.552c0.896,0.924,1.98,2.256,3.115,3.542
			C516.251,122.953,518.498,125.546,518.498,125.546z"/>
		<path d="M531.021,141.694l4.328-3.114c0,0-0.508-0.712-1.268-1.781c-0.764-1.067-1.75-2.511-2.859-3.865
			c-2.16-2.75-4.321-5.5-4.321-5.5l-4.167,3.327c0,0,2.121,2.698,4.24,5.395c1.088,1.328,2.056,2.746,2.805,3.792
			C530.522,140.995,531.021,141.694,531.021,141.694z"/>
		<path d="M542.372,158.678l4.549-2.783c0,0-1.888-2.944-3.775-5.889c-0.943-1.472-1.887-2.944-2.596-4.047
			c-0.345-0.558-0.664-1.001-0.888-1.312c-0.222-0.312-0.349-0.49-0.349-0.49l-4.402,3.007c0,0,0.124,0.175,0.342,0.48
			c0.219,0.305,0.533,0.739,0.871,1.287c0.694,1.083,1.619,2.527,2.545,3.971C540.521,155.791,542.372,158.678,542.372,158.678z"/>
	</g>
	<g>
		<path d="M552.324,176.526l4.743-2.435c0,0-0.398-0.778-0.996-1.946c-0.607-1.163-1.375-2.735-2.213-4.27
			c-1.744-3.033-3.487-6.065-3.487-6.065l-4.615,2.67c0,0,1.71,2.974,3.421,5.948c0.822,1.505,1.574,3.048,2.17,4.188
			C551.933,175.763,552.324,176.526,552.324,176.526z"/>
		<path d="M561.03,195.01l4.914-2.071c0,0-0.07-0.208-0.234-0.554c-0.157-0.349-0.383-0.847-0.652-1.444
			c-0.54-1.195-1.261-2.789-1.98-4.383c-1.445-3.186-2.889-6.372-2.889-6.372l-4.803,2.317c0,0,1.416,3.125,2.832,6.25
			c0.707,1.563,1.413,3.126,1.943,4.298c0.266,0.586,0.486,1.075,0.641,1.417C560.962,194.806,561.03,195.01,561.03,195.01z"/>
		<path d="M568.183,214.146l5.055-1.696c0,0-1.121-3.313-2.242-6.627c-0.59-1.646-1.269-3.26-1.738-4.484
			c-0.48-1.22-0.802-2.034-0.802-2.034l-4.963,1.949c0,0,0.314,0.798,0.786,1.995c0.461,1.201,1.127,2.783,1.706,4.397
			C567.083,210.897,568.183,214.146,568.183,214.146z"/>
		<path d="M574.003,233.731l5.169-1.31c0,0-0.172-0.858-0.55-2.115c-0.357-1.262-0.836-2.944-1.313-4.626
			c-0.956-3.364-1.912-6.729-1.912-6.729l-5.096,1.57c0,0,0.938,3.3,1.873,6.599c0.469,1.65,0.938,3.299,1.289,4.537
			C573.835,232.889,574.003,233.731,574.003,233.731z"/>
		<path d="M578.214,253.724l5.252-0.918c0,0-0.615-3.444-1.23-6.887c-0.295-1.724-0.759-3.414-1.031-4.697
			c-0.295-1.278-0.492-2.13-0.492-2.13l-5.199,1.182c0,0,0.193,0.835,0.482,2.089c0.268,1.258,0.724,2.915,1.014,4.606
			C577.61,250.346,578.214,253.724,578.214,253.724z"/>
		<path d="M581.04,273.961l5.306-0.523c0,0-0.049-0.874-0.233-2.173c-0.164-1.301-0.385-3.036-0.605-4.771
			c-0.441-3.47-0.882-6.939-0.882-6.939l-5.273,0.788c0,0,0.432,3.403,0.864,6.807c0.217,1.702,0.433,3.403,0.595,4.679
			C580.992,273.104,581.039,273.961,581.04,273.961z"/>
		<path d="M582.217,294.357l5.331-0.129c0,0-0.09-3.496-0.178-6.991c-0.083-1.746-0.251-3.487-0.339-4.795
			c-0.1-1.308-0.166-2.18-0.166-2.18l-5.317,0.394c0,0,0.064,0.855,0.162,2.138c0.088,1.283,0.254,2.992,0.334,4.705
			C582.131,290.928,582.217,294.357,582.217,294.357z"/>
	</g>
	<g>
		<polygon points="582.04,314.797 587.366,315.06 587.72,301.075 582.388,301.075 		"/>
		<path d="M580.196,335.146l5.292,0.659c0,0,0.11-0.868,0.275-2.17c0.149-1.303,0.42-3.032,0.571-4.773
			c0.266-3.488,0.53-6.976,0.53-6.976l-5.317-0.394c0,0-0.26,3.422-0.52,6.843c-0.147,1.709-0.414,3.405-0.561,4.684
			C580.306,334.296,580.196,335.146,580.196,335.146z"/>
		<path d="M576.983,355.323l5.227,1.053c0,0,0.615-3.443,1.23-6.888c0.308-1.722,0.615-3.443,0.846-4.735
			c0.249-1.287,0.338-2.158,0.339-2.158l-5.273-0.789c-0.001,0-0.087,0.854-0.333,2.118c-0.227,1.267-0.528,2.955-0.83,4.644
			C577.586,351.945,576.983,355.323,576.983,355.323z"/>
		<path d="M572.136,375.171l5.133,1.443c0,0,0.238-0.842,0.598-2.104c0.34-1.266,0.875-2.934,1.271-4.637
			c0.787-3.407,1.574-6.814,1.574-6.814l-5.199-1.183c0,0-0.771,3.343-1.543,6.685c-0.389,1.67-0.915,3.305-1.248,4.547
			C572.37,374.346,572.136,375.171,572.136,375.171z"/>
		<path d="M565.938,394.639l5.01,1.826c0,0,1.121-3.313,2.242-6.627c0.561-1.657,1.121-3.313,1.542-4.557
			c0.437-1.237,0.665-2.082,0.665-2.082l-5.096-1.569c0,0-0.223,0.828-0.652,2.041c-0.412,1.219-0.963,2.844-1.513,4.469
			C567.038,391.39,565.938,394.639,565.938,394.639z"/>
		<path d="M558.157,413.532l4.857,2.198c0,0,1.438-3.188,2.873-6.378c1.284-3.254,2.567-6.508,2.567-6.508l-4.963-1.949
			c0,0-1.258,3.191-2.517,6.383C559.566,410.405,558.157,413.532,558.157,413.532z"/>
		<path d="M549.105,431.845l4.68,2.556c0,0,0.108-0.189,0.3-0.521c0.174-0.341,0.424-0.827,0.724-1.41
			c0.598-1.168,1.396-2.724,2.192-4.28c1.594-3.112,3.188-6.226,3.188-6.226l-4.803-2.316c0,0-1.563,3.053-3.127,6.105
			c-0.782,1.526-1.563,3.053-2.15,4.197c-0.293,0.572-0.537,1.05-0.709,1.383C549.212,431.659,549.105,431.845,549.105,431.845z"/>
	</g>
	<g>
		<path d="M538.591,449.369l4.476,2.899c0,0,1.888-2.945,3.775-5.891c0.955-1.465,1.767-3.018,2.439-4.144
			c0.653-1.138,1.09-1.896,1.09-1.896l-4.615-2.67c0,0-0.427,0.744-1.069,1.859c-0.659,1.104-1.454,2.627-2.392,4.064
			C540.443,446.481,538.591,449.369,538.591,449.369z"/>
		<path d="M526.882,466.112l4.247,3.225c0,0,0.538-0.689,1.345-1.725c0.76-1.068,1.773-2.494,2.787-3.919
			c2.027-2.851,4.054-5.701,4.054-5.701l-4.403-3.008c0,0-1.988,2.796-3.977,5.593c-0.994,1.397-1.988,2.796-2.733,3.845
			C527.409,465.437,526.882,466.112,526.882,466.112z"/>
		<path d="M513.911,481.899l3.996,3.531c0,0,2.289-2.645,4.58-5.288c0.57-0.662,1.143-1.324,1.678-1.944
			c0.506-0.645,0.979-1.246,1.385-1.762c0.811-1.031,1.351-1.719,1.351-1.719l-4.167-3.327c0,0-0.529,0.675-1.324,1.687
			c-0.397,0.506-0.861,1.096-1.357,1.729c-0.525,0.608-1.087,1.258-1.647,1.906C516.157,479.306,513.911,481.899,513.911,481.899z"
			/>
		<path d="M499.823,496.698l3.722,3.818c0,0,0.633-0.604,1.582-1.509c0.974-0.88,2.151-2.174,3.364-3.433
			c2.414-2.531,4.826-5.063,4.826-5.063l-3.908-3.627c0,0-2.366,2.482-4.733,4.965c-1.189,1.235-2.345,2.506-3.301,3.368
			C500.444,496.106,499.823,496.698,499.823,496.698z"/>
		<path d="M484.683,510.42l3.428,4.084c0,0,2.644-2.29,5.287-4.58c1.312-1.157,2.668-2.264,3.611-3.176
			c0.949-0.905,1.582-1.509,1.582-1.509l-3.627-3.908c0,0-0.621,0.593-1.553,1.48c-0.924,0.896-2.256,1.98-3.542,3.115
			C487.276,508.173,484.683,510.42,484.683,510.42z"/>
		<path d="M468.534,522.942l3.115,4.328c0,0,0.712-0.508,1.781-1.268c1.066-0.764,2.511-1.75,3.865-2.859
			c2.75-2.16,5.5-4.321,5.5-4.321l-3.327-4.167c0,0-2.698,2.121-5.396,4.24c-1.327,1.088-2.745,2.056-3.791,2.805
			C469.233,522.444,468.534,522.942,468.534,522.942z"/>
		<path d="M451.551,534.294l2.782,4.549c0,0,2.945-1.888,5.889-3.775c1.473-0.943,2.944-1.887,4.048-2.596
			c0.558-0.345,1.001-0.664,1.312-0.888c0.313-0.222,0.49-0.349,0.49-0.349l-3.008-4.402c0,0-0.174,0.124-0.48,0.342
			c-0.305,0.219-0.738,0.533-1.286,0.871c-1.083,0.694-2.526,1.619-3.972,2.545C454.438,532.442,451.551,534.294,451.551,534.294z"
			/>
	</g>
	<g>
		<path d="M433.702,544.246l2.435,4.743c0,0,0.778-0.398,1.946-0.996c1.162-0.607,2.734-1.375,4.27-2.213
			c3.032-1.744,6.064-3.487,6.064-3.487l-2.67-4.615c0,0-2.975,1.71-5.948,3.421c-1.505,0.822-3.048,1.574-4.188,2.17
			C434.466,543.854,433.702,544.246,433.702,544.246z"/>
		<path d="M415.219,552.952l2.071,4.914c0,0,0.207-0.07,0.555-0.234c0.348-0.157,0.846-0.383,1.443-0.652
			c1.195-0.54,2.789-1.261,4.383-1.98c3.187-1.445,6.373-2.889,6.373-2.889l-2.317-4.803c0,0-3.125,1.416-6.25,2.832
			c-1.563,0.707-3.126,1.413-4.298,1.943c-0.586,0.266-1.075,0.486-1.417,0.641C415.423,552.884,415.219,552.952,415.219,552.952z"
			/>
		<path d="M396.082,560.104l1.696,5.055c0,0,3.313-1.121,6.627-2.242c1.646-0.59,3.26-1.269,4.484-1.738
			c1.22-0.48,2.033-0.802,2.033-0.802l-1.949-4.963c0,0-0.798,0.314-1.994,0.786c-1.201,0.461-2.783,1.127-4.398,1.706
			C399.331,559.005,396.082,560.104,396.082,560.104z"/>
		<path d="M376.497,565.925l1.311,5.169c0,0,0.858-0.172,2.115-0.55c1.262-0.357,2.943-0.836,4.626-1.313
			c3.364-0.956,6.729-1.912,6.729-1.912l-1.569-5.096c0,0-3.301,0.938-6.6,1.873c-1.65,0.469-3.299,0.938-4.537,1.289
			C377.339,565.757,376.497,565.925,376.497,565.925z"/>
		<path d="M356.505,570.136l0.918,5.252c0,0,3.443-0.615,6.887-1.23c1.725-0.295,3.414-0.759,4.697-1.031
			c1.278-0.295,2.131-0.492,2.131-0.492l-1.183-5.199c0,0-0.835,0.193-2.089,0.482c-1.258,0.268-2.915,0.724-4.606,1.014
			C359.882,569.532,356.505,570.136,356.505,570.136z"/>
		<path d="M336.267,572.962l0.523,5.306c0,0,0.873-0.049,2.173-0.233c1.301-0.164,3.036-0.385,4.771-0.605
			c3.47-0.441,6.939-0.882,6.939-0.882l-0.789-5.273c0,0-3.402,0.432-6.807,0.864c-1.701,0.217-3.402,0.433-4.679,0.595
			C337.124,572.914,336.267,572.961,336.267,572.962z"/>
		<path d="M315.871,574.139L316,579.47c0,0,3.495-0.09,6.991-0.178c1.746-0.083,3.487-0.251,4.795-0.339
			c1.309-0.1,2.18-0.166,2.18-0.166l-0.393-5.317c0,0-0.855,0.064-2.139,0.162c-1.283,0.088-2.991,0.254-4.704,0.334
			C319.301,574.053,315.871,574.139,315.871,574.139z"/>
	</g>
	<g>
		<polygon points="295.432,573.962 295.168,579.288 309.153,579.642 309.153,574.31 		"/>
		<path d="M275.082,572.118l-0.659,5.292c0,0,0.868,0.11,2.169,0.275c1.303,0.149,3.033,0.42,4.774,0.571
			c3.488,0.266,6.975,0.53,6.975,0.53l0.394-5.317c0,0-3.421-0.26-6.843-0.52c-1.709-0.147-3.406-0.414-4.684-0.561
			C275.933,572.228,275.082,572.118,275.082,572.118z"/>
		<path d="M254.906,568.905l-1.053,5.227c0,0,3.443,0.615,6.887,1.23c1.722,0.308,3.443,0.615,4.735,0.846
			c1.288,0.249,2.159,0.338,2.159,0.339l0.788-5.273c0-0.001-0.854-0.087-2.118-0.333c-1.267-0.227-2.955-0.528-4.644-0.83
			C258.283,569.508,254.906,568.905,254.906,568.905z"/>
		<path d="M235.058,564.058l-1.443,5.133c0,0,0.841,0.238,2.103,0.598c1.267,0.34,2.934,0.875,4.637,1.271
			c3.408,0.787,6.815,1.574,6.815,1.574l1.182-5.199c0,0-3.342-0.771-6.685-1.543c-1.67-0.389-3.305-0.915-4.547-1.248
			C235.883,564.292,235.058,564.058,235.058,564.058z"/>
		<path d="M215.59,557.86l-1.826,5.01c0,0,3.313,1.121,6.627,2.242c1.657,0.561,3.314,1.121,4.557,1.542
			c1.237,0.437,2.082,0.665,2.082,0.665l1.57-5.096c0,0-0.828-0.223-2.042-0.652c-1.219-0.412-2.844-0.963-4.468-1.513
			C218.839,558.96,215.59,557.86,215.59,557.86z"/>
		<path d="M196.696,550.079l-2.198,4.857c0,0,3.189,1.438,6.378,2.873c3.254,1.284,6.508,2.567,6.508,2.567l1.949-4.963
			c0,0-3.191-1.258-6.383-2.517C199.823,551.488,196.696,550.079,196.696,550.079z"/>
		<path d="M178.384,541.027l-2.556,4.68c0,0,0.189,0.108,0.521,0.3c0.34,0.174,0.827,0.424,1.41,0.724
			c1.167,0.598,2.723,1.396,4.28,2.192c3.113,1.594,6.226,3.188,6.226,3.188l2.317-4.803c0,0-3.053-1.563-6.105-3.127
			c-1.527-0.782-3.053-1.563-4.198-2.15c-0.572-0.293-1.049-0.537-1.383-0.709C178.57,541.134,178.384,541.027,178.384,541.027z"/>
	</g>
	<g>
		<path d="M160.859,530.513l-2.899,4.476c0,0,2.945,1.888,5.89,3.775c1.465,0.955,3.018,1.767,4.144,2.439
			c1.137,0.653,1.896,1.09,1.896,1.09l2.67-4.615c0,0-0.744-0.427-1.859-1.069c-1.104-0.659-2.628-1.454-4.065-2.392
			C163.748,532.365,160.859,530.513,160.859,530.513z"/>
		<path d="M144.116,518.804l-3.224,4.247c0,0,0.689,0.538,1.724,1.345c1.069,0.76,2.494,1.773,3.919,2.787
			c2.851,2.027,5.701,4.054,5.701,4.054l3.008-4.403c0,0-2.796-1.988-5.592-3.977c-1.398-0.994-2.796-1.988-3.845-2.733
			C144.792,519.331,144.116,518.804,144.116,518.804z"/>
		<path d="M128.33,505.833l-3.531,3.996c0,0,2.644,2.289,5.288,4.58c0.662,0.57,1.324,1.143,1.945,1.678
			c0.645,0.506,1.246,0.979,1.762,1.385c1.031,0.811,1.719,1.351,1.719,1.351l3.327-4.167c0,0-0.674-0.529-1.686-1.324
			c-0.506-0.397-1.096-0.861-1.729-1.357c-0.609-0.525-1.258-1.087-1.907-1.647C130.923,508.079,128.33,505.833,128.33,505.833z"/>
		<path d="M113.53,491.745l-3.818,3.722c0,0,0.603,0.633,1.508,1.582c0.88,0.974,2.174,2.151,3.433,3.364
			c2.531,2.414,5.062,4.826,5.062,4.826l3.627-3.908c0,0-2.482-2.366-4.965-4.733c-1.236-1.189-2.505-2.345-3.368-3.301
			C114.122,492.366,113.53,491.745,113.53,491.745z"/>
		<path d="M99.809,476.604l-4.084,3.428c0,0,2.29,2.644,4.58,5.287c1.157,1.312,2.264,2.668,3.176,3.611
			c0.905,0.949,1.508,1.582,1.508,1.582l3.908-3.627c0,0-0.592-0.621-1.48-1.553c-0.896-0.924-1.98-2.256-3.115-3.542
			C102.055,479.198,99.809,476.604,99.809,476.604z"/>
		<path d="M87.287,460.456l-4.328,3.115c0,0,0.507,0.712,1.267,1.781c0.763,1.066,1.75,2.511,2.859,3.865
			c2.161,2.75,4.322,5.5,4.322,5.5l4.167-3.327c0,0-2.12-2.698-4.24-5.396c-1.088-1.327-2.056-2.745-2.804-3.791
			C87.784,461.155,87.287,460.456,87.287,460.456z"/>
		<path d="M75.935,443.473l-4.548,2.782c0,0,1.887,2.945,3.774,5.889c0.944,1.473,1.888,2.944,2.596,4.048
			c0.345,0.558,0.665,1.001,0.888,1.312c0.222,0.313,0.348,0.49,0.348,0.49l4.403-3.008c0,0-0.124-0.174-0.342-0.48
			c-0.219-0.305-0.533-0.738-0.871-1.286c-0.694-1.083-1.62-2.526-2.545-3.972C77.786,446.36,75.935,443.473,75.935,443.473z"/>
	</g>
	<g>
		<path d="M65.982,425.624l-4.744,2.435c0,0,0.398,0.778,0.997,1.946c0.607,1.162,1.375,2.734,2.213,4.27
			c1.743,3.032,3.487,6.064,3.487,6.064l4.615-2.67c0,0-1.71-2.975-3.421-5.948c-0.822-1.505-1.575-3.048-2.17-4.188
			C66.374,426.388,65.982,425.624,65.982,425.624z"/>
		<path d="M57.276,407.141l-4.913,2.071c0,0,0.07,0.207,0.233,0.555c0.158,0.348,0.383,0.846,0.653,1.443
			c0.54,1.195,1.261,2.789,1.981,4.383c1.444,3.187,2.889,6.373,2.889,6.373l4.802-2.317c0,0-1.416-3.125-2.832-6.25
			c-0.707-1.563-1.414-3.126-1.944-4.298c-0.265-0.586-0.486-1.075-0.641-1.417C57.345,407.345,57.276,407.141,57.276,407.141z"/>
		<path d="M50.124,388.004l-5.055,1.696c0,0,1.122,3.313,2.243,6.627c0.59,1.646,1.268,3.26,1.738,4.484
			c0.481,1.22,0.802,2.033,0.802,2.033l4.963-1.949c0,0-0.314-0.798-0.787-1.994c-0.46-1.201-1.127-2.783-1.706-4.398
			C51.223,391.253,50.124,388.004,50.124,388.004z"/>
		<path d="M44.303,368.419l-5.168,1.311c0,0,0.172,0.858,0.549,2.115c0.358,1.262,0.836,2.943,1.313,4.626
			c0.956,3.364,1.911,6.729,1.911,6.729l5.096-1.569c0,0-0.937-3.301-1.873-6.6c-0.469-1.65-0.938-3.299-1.289-4.537
			C44.471,369.261,44.303,368.419,44.303,368.419z"/>
		<path d="M40.093,348.427l-5.252,0.918c0,0,0.615,3.443,1.23,6.887c0.296,1.725,0.759,3.414,1.032,4.697
			c0.295,1.278,0.492,2.131,0.492,2.131l5.199-1.183c0,0-0.193-0.835-0.482-2.089c-0.268-1.258-0.724-2.915-1.014-4.606
			C40.696,351.804,40.093,348.427,40.093,348.427z"/>
		<path d="M37.267,328.188l-5.306,0.523c0,0,0.049,0.873,0.233,2.173c0.165,1.301,0.385,3.036,0.605,4.771
			c0.441,3.47,0.882,6.939,0.882,6.939l5.274-0.789c0,0-0.432-3.402-0.864-6.807c-0.217-1.701-0.433-3.402-0.595-4.679
			C37.314,329.046,37.268,328.188,37.267,328.188z"/>
		<path d="M36.09,307.793l-5.331,0.129c0,0,0.089,3.495,0.177,6.991c0.083,1.746,0.251,3.487,0.339,4.795
			c0.099,1.309,0.166,2.18,0.166,2.18l5.317-0.393c0,0-0.065-0.855-0.163-2.139c-0.087-1.283-0.253-2.991-0.334-4.704
			C36.176,311.223,36.09,307.793,36.09,307.793z"/>
	</g>
</g>
</svg>
