<?xml version="1.0" encoding="utf-8"?>
<!-- Generator: Adobe Illustrator 16.0.3, SVG Export Plug-In . SVG Version: 6.00 Build 0)  -->
<!DOCTYPE svg PUBLIC "-//W3C//DTD SVG 1.1//EN" "http://www.w3.org/Graphics/SVG/1.1/DTD/svg11.dtd">
<svg version="1.1" id="Capa_1" xmlns="http://www.w3.org/2000/svg" xmlns:xlink="http://www.w3.org/1999/xlink" x="0px" y="0px"
	 width="595.28px" height="595.28px" viewBox="0 0 595.28 595.28" enable-background="new 0 0 595.28 595.28" xml:space="preserve">
<g>
	<g>
		<g>
			<path d="M187.205,461.741c-4.618-5.593-9.282-11.149-13.93-16.718c-2.42-2.899-4.84-5.799-7.258-8.7
				c-1.21-1.45-2.418-2.901-3.626-4.353c-1.209-1.452-4.348-4.139-3.991-6.313c-0.657,0.268-1.314,0.535-1.971,0.802
				c3.51,2.258,5.958,5.985,8.616,9.165c2.692,3.221,5.381,6.445,8.069,9.669s5.376,6.45,8.065,9.674
				c1.493,1.791,2.988,3.582,4.483,5.372c0.878,1.05,1.932,2.814,3.118,3.508c1.762,1.032,5.891,0.183,7.818,0.183
				c3.081,0,6.162,0,9.242,0c0.798,0,1.255-0.616,1.342-1.342c0.454-3.778-0.872-6.605-3.154-9.516
				c-3.403-4.338-7.031-8.506-10.571-12.733c-6.714-8.019-13.442-16.025-20.163-24.039c-0.316,0.764-0.633,1.527-0.948,2.291
				c2.097-0.091,2.522,0.199,3.904,1.795c1.464,1.688,2.858,3.438,4.287,5.156c0.967,1.163,2.409-0.144,2.242-1.306
				c-1.175-8.235-1.455-16.895-8.665-22.447c-6.273-4.832-15.435-5.608-22.019-0.975c-3.323,2.339-5.438,5.973-7.016,9.624
				c-2.265,5.244-4.244,10.63-6.354,15.939c-4.745,11.949-9.483,23.902-14.224,35.854c-0.329,0.827,0.493,1.698,1.294,1.698
				c20.152,0,40.304,0,60.457,0c1.73,0,1.73-2.684,0-2.684c-20.153,0-40.305,0-60.457,0c0.431,0.566,0.861,1.133,1.293,1.699
				c3.688-9.296,7.373-18.592,11.063-27.887c1.932-4.869,3.865-9.737,5.8-14.605c1.806-4.544,3.319-9.354,5.97-13.491
				c4.697-7.331,14.262-8.227,21.353-3.934c7.726,4.676,7.794,14.044,8.918,21.922c0.747-0.435,1.495-0.87,2.243-1.305
				c-1.839-2.21-3.641-4.451-5.555-6.598c-1.37-1.536-2.569-1.225-4.535-1.139c-1.228,0.054-1.7,1.396-0.949,2.291
				c5.867,6.995,11.739,13.987,17.604,20.983c2.901,3.462,5.804,6.924,8.707,10.384c3.208,3.823,7.44,7.631,6.792,13.022
				c0.447-0.447,0.895-0.895,1.342-1.342c-2.848,0-5.695,0-8.543,0c-1.888,0-3.776,0-5.664,0c-0.528,0-1.056,0-1.583,0
				c-0.859,0-0.295-0.346-1.078-1.247c-5.371-6.177-10.512-12.567-15.754-18.854c-2.688-3.224-5.379-6.446-8.072-9.666
				c-2.317-2.77-4.314-5.476-7.364-7.438c-0.678-0.436-1.833-0.043-1.971,0.802c-0.411,2.498,0.331,3.828,1.963,5.657
				c3.136,3.516,6.047,7.264,9.064,10.882c6.157,7.382,12.345,14.741,18.466,22.154
				C186.409,464.975,188.297,463.065,187.205,461.741z"/>
		</g>
		<g>
			<path d="M144.008,360.326c3.011,1.285,6.022,2.57,9.033,3.855c0.565,0.241,1.16,0.256,1.627-0.21
				c2.815-2.811,5.691-7.392,9.788-3.717c0-0.632,0-1.265,0-1.897c-4.849,3.982-8.387,7.801-10.339,13.896
				c-1.848,5.768-1.27,12.037,1.267,17.476c4.969,10.656,18.186,14.348,28.455,9.72c10.289-4.638,15.085-16.436,12.554-27.06
				c-1.187-4.985-4.201-9.359-8.223-12.467c-5.619-4.345-12.287-4.321-18.99-3.528c0.431,0.328,0.862,0.656,1.293,0.985
				c-1.477-3.807-2.686-7.481-5.817-10.264c-2.755-2.449-6.555-3.216-10.124-2.826c-7.695,0.843-11.78,7.629-11.188,14.879
				c0.14,1.712,2.825,1.726,2.684,0c-0.478-5.85,2.019-10.455,7.843-12.049c2.91-0.797,5.896-0.026,8.383,1.522
				c3.254,2.024,4.337,6.109,5.634,9.451c0.198,0.512,0.668,1.059,1.294,0.985c5.893-0.697,11.169-0.856,16.445,2.322
				c3.97,2.392,6.587,6.574,7.957,10.896c3.045,9.608-1.676,19.46-10.167,24.359c-9.293,5.361-20.913,0.771-25.714-8.28
				c-2.667-5.027-2.369-11.12-0.685-16.382c1.657-5.174,5.288-8.413,9.337-11.738c0.545-0.447,0.506-1.443,0-1.897
				c-5.635-5.054-9.308-0.551-13.584,3.717c0.542-0.07,1.085-0.14,1.626-0.21c-3.011-1.285-6.022-2.57-9.034-3.855
				C143.789,357.337,142.42,359.648,144.008,360.326z"/>
		</g>
	</g>
	<g>
		<g>
			<path d="M464.861,459.263c-5.526,0-11.052,0-16.578,0c0.447,0.447,0.895,0.895,1.342,1.342c0-21.838,0.003-43.676,0-65.514
				c-0.002-10.859-0.005-21.719-0.011-32.578c-0.002-4.475,0.382-9.125-0.063-13.581c-0.212-2.118-1.634-3.998-3.882-4.148
				c-7.662-0.511-5.788,8.574-5.788,13.619c-0.002,11.447-0.002,22.894-0.002,34.341c0,22.584,0.002,45.168,0.002,67.751
				c0.447-0.447,0.895-0.895,1.342-1.342c-10.324,0-20.649,0-30.975,0c0.447,0.447,0.895,0.895,1.342,1.342
				c-0.002-4.916,2.245-15.024-4.913-15.704c-7.036-0.667-4.814,12.07-4.817,15.743c0.447-0.447,0.895-0.895,1.342-1.342
				c-11.722,0-23.444,0-35.167,0c0.447,0.447,0.895,0.895,1.342,1.342c1.51-28.855,1.858-57.792,2.205-86.683
				c0.172-14.24-0.547-28.603,0.125-42.823c0.151-3.2-2.31-7.239-5.968-6.386c-4.525,1.056-3.948,7.451-4.125,10.756
				c0.447-0.447,0.895-0.895,1.342-1.342c-36.842,1.241-73.685,2.483-110.526,3.725c0.447,0.447,0.895,0.895,1.342,1.342
				c-0.43-6.322-0.66-12.561-0.646-18.898c-0.447,0.447-0.895,0.895-1.342,1.342c22.694-2.538,45.407-4.359,68.044-7.493
				c11.665-1.615,23.311-3.363,34.959-5.084c5.896-0.871,11.644-1.687,17.612-1.696c6.171-0.01,12.341-0.017,18.511-0.022
				c11.867-0.01,23.733-0.009,35.601,0.001c9.646,0.008,18.63-0.425,26.822,5.437c7.291,5.216,10.275,13.789,10.312,22.436
				c0.05,11.921,0.074,23.842,0.087,35.763c0.017,15.259,0.01,30.517,0,45.776c-0.005,7.629-0.011,15.259-0.015,22.888
				c-0.004,6.962,0.449,14.1-0.197,21.033c-0.16,1.724,2.524,1.708,2.684,0c1.04-11.142,0.197-22.716,0.205-33.908
				c0.008-11.921,0.017-23.841,0.017-35.762c0-11.92-0.01-23.842-0.034-35.763c-0.013-5.722-0.029-11.444-0.051-17.166
				c-0.017-4.505-0.075-8.783-1.345-13.135c-1.962-6.729-6.654-12.313-12.546-15.972c-7.508-4.663-16.02-4.301-24.515-4.309
				c-11.866-0.012-23.733-0.012-35.6-0.004c-11.391,0.008-22.775-0.462-34.067,1.196c-18.055,2.652-36.097,5.399-54.2,7.708
				c-17.394,2.218-34.866,3.444-52.283,5.392c-0.728,0.082-1.339,0.548-1.342,1.342c-0.015,6.338,0.216,12.576,0.646,18.898
				c0.048,0.71,0.573,1.368,1.342,1.342c36.842-1.241,73.685-2.483,110.526-3.725c0.761-0.025,1.302-0.592,1.342-1.342
				c0.126-2.351-0.353-5.455,1.236-7.408c2.037-2.506,3.548,1.974,3.489,3.038c-0.068,1.224-0.044,2.448-0.044,3.673
				c-0.005,6.059,0.01,12.118,0.013,18.177c0.005,12.17-0.122,24.337-0.327,36.506c-0.398,23.724-0.732,47.455-1.971,71.15
				c-0.039,0.731,0.639,1.342,1.341,1.342c11.723,0,23.445,0,35.167,0c0.731,0,1.341-0.61,1.341-1.342
				c0.003-3.733-0.545-7.948,0.18-11.618c1.304-1.917,2.622-1.921,3.955-0.014c0.375,0.979,0.23,2.354,0.229,3.363
				c-0.009,2.743,0,5.486,0.001,8.23c0,0.731,0.61,1.342,1.342,1.342c10.325,0,20.65,0,30.975,0c0.732,0,1.342-0.61,1.342-1.342
				c0-19.245-0.001-38.49-0.002-57.735c0-9.539,0-19.078,0-28.617c0-4.77,0.001-9.539,0.002-14.309
				c0-2.289-1.529-12.086,2.149-12.429c3.517-0.328,2.213,9.13,2.213,10.86c0.004,4.721,0.006,9.443,0.008,14.164
				c0.004,9.915,0.006,19.83,0.006,29.745c0.002,19.478,0,38.955,0,58.432c0,0.731,0.609,1.342,1.342,1.342
				c5.526,0,11.052,0,16.578,0C466.592,461.947,466.592,459.263,464.861,459.263z"/>
		</g>
		<path fill-rule="evenodd" clip-rule="evenodd" d="M308.713,201.829c0,5.468,0,10.308,0,16.173
			c-3.484-2.902-6.662-4.924-9.035-7.648c-6.289-7.217-13.95-8.935-23.332-8.685c-23.289,0.622-46.606,0.321-69.909,0.159
			c-22.613-0.156-37.636-21.746-29.846-42.604c4.45-11.915,15.848-20.236,28.564-20.273c39.343-0.113,78.687-0.152,118.03,0
			c17.235,0.066,30.701,14.07,30.801,31.428c0.096,16.921-13.38,30.86-30.484,31.425
			C318.765,201.961,314.02,201.829,308.713,201.829z M234.387,172.426c-0.031,0.234,0.026,0.555-0.105,0.69
			c-3.154,3.221-6.314,6.438-9.508,9.621c-1.861,1.854-3.836,3.822-1.274,6.327c2.364,2.312,4.309,0.551,6.06-1.256
			c1.221-1.26,2.46-2.501,3.717-3.726c2.163-2.108,4.346-4.196,6.82-6.583c0.765,8.008,4.614,12.343,10.643,12.604
			c5.49,0.238,10.328-3.564,11.321-9.012c0.651-3.562-0.1-7.063-2.873-9.27c-2.552-2.034-5.846-3.141-9.14-4.824
			c3.284-3.172,6.799-6.546,10.289-9.946c1.785-1.74,2.9-3.729,0.696-5.82c-2.016-1.913-3.898-0.918-5.544,0.801
			c-0.692,0.724-1.393,1.442-2.105,2.147c-3.047,3.01-6.1,6.015-9.526,9.392c-0.46-8.713-4.567-13.379-11.065-13.359
			c-5.72,0.019-10.52,4.553-10.932,10.327C221.401,166.994,225.993,171.356,234.387,172.426z M282.864,166.114
			c-0.969,2.996-1.245,5.71-2.671,7.52c-0.777,0.987-3.501,0.441-5.346,0.587c-0.125,0.01-0.298-0.025-0.365,0.042
			c-1.051,1.066-3.015,2.257-2.904,3.197c0.155,1.302,1.696,2.7,2.984,3.515c0.906,0.574,2.384,0.248,3.786,0.334
			c-0.188,1.078-0.236,1.952-0.498,2.756c-0.822,2.51-0.996,4.973,2.061,5.824c3.176,0.883,4.003-1.672,4.708-4.046
			c1.607-5.419,2.328-5.767,8.716-4.072c-0.307,1.318-1.111,2.775-0.803,3.936c0.414,1.559,1.688,2.889,2.592,4.316
			c1.329-0.871,3.671-1.604,3.813-2.639c0.732-5.293,3.426-7.294,8.566-6.278c0.117,0.024,0.301,0.034,0.363-0.034
			c1.101-1.143,3.053-2.313,3.033-3.447c-0.02-1.151-1.803-2.696-3.154-3.281c-1.305-0.564-3.043-0.122-4.693-0.122
			c1.335-7.233,1.362-7.082,7.68-8.253c1.293-0.24,3.169-2.079,3.179-3.195c0.01-1.168-1.733-2.622-3.033-3.44
			c-0.904-0.569-2.352-0.277-3.804-0.389c0.398-1.751,1.217-3.308,0.929-4.62c-0.321-1.449-1.405-3.298-2.629-3.788
			c-0.88-0.353-2.892,0.958-3.751,2.042c-0.862,1.084-0.658,2.968-1.413,4.201c-0.629,1.027-1.865,2.003-3.018,2.309
			c-1.483,0.393-3.148,0.096-5.151,0.096c0.402-1.719,0.702-2.909,0.955-4.108c0.477-2.255-0.097-4.427-2.505-4.537
			c-1.348-0.062-3.224,1.427-4.063,2.73c-1.033,1.605-1.233,3.746-1.873,5.927c-2.079,0-4.066-0.005-6.054,0.001
			c-2.311,0.007-4.056,0.999-4.092,3.417c-0.038,2.399,1.572,3.526,3.956,3.502C279.602,166.104,280.841,166.114,282.864,166.114z
			 M204.922,165.207c-0.161-0.382-0.324-0.764-0.488-1.146c2.718-2.577,5.675-4.959,8.023-7.836
			c0.846-1.038,0.231-3.268,0.284-4.953c-1.674,0.062-3.97-0.563-4.917,0.297c-5.088,4.622-9.906,9.55-14.643,14.541
			c-0.775,0.817-1.264,2.756-0.823,3.658c0.525,1.073,2.119,2.011,3.389,2.243c2.013,0.367,4.141,0.098,6.97,0.098
			c-1.206,1.577-1.906,2.547-2.664,3.472c-2.378,2.904-5.033,5.627-7.032,8.769c-0.726,1.141,0.093,3.264,0.205,4.938
			c1.663-0.214,4.021,0.199,4.875-0.748c5.116-5.654,9.982-11.546,14.73-17.518c2.123-2.669,0.634-5.521-2.809-5.791
			C208.333,165.097,206.622,165.207,204.922,165.207z M329.201,170.347c0-5.125-0.022-10.252,0.01-15.378
			c0.018-2.535-0.674-4.705-3.588-4.654c-2.659,0.047-3.374,2.063-3.366,4.485c0.031,10.252,0.017,20.505-0.003,30.757
			c-0.005,2.381,0.633,4.446,3.371,4.453c2.907,0.007,3.615-2.104,3.591-4.659C329.169,180.351,329.202,175.35,329.201,170.347z"/>
		<g>
			<path d="M377.795,266.468c0.334-15.774,11.595-30.717,28.345-30.133c15.886,0.554,25.756,16.229,25.839,30.836
				c0.084,14.884-10.707,29.37-26.143,30.226C388.949,298.333,377.833,281.85,377.795,266.468c-0.004-1.73-2.688-1.73-2.684,0
				c0.04,16.129,10.464,31.533,27.19,33.502c15.979,1.882,28.796-11.557,31.723-26.258c3.086-15.498-4.658-32.359-19.585-38.333
				c-14.705-5.886-30.715,3.214-36.508,17.172c-1.857,4.474-2.718,9.085-2.82,13.917
				C375.075,268.199,377.759,268.196,377.795,266.468z"/>
		</g>
		<g>
			<path d="M417.897,168.262c4.37,0,8.741,0,13.112,0c-0.387-0.673-0.772-1.346-1.159-2.019
				c-6.837,9.576-13.673,19.153-20.51,28.729c0.505-0.206,1.01-0.412,1.515-0.617c-0.252-0.093-0.505-0.186-0.758-0.278
				c0.329,0.431,0.657,0.863,0.985,1.294c0.618-6.655,1.235-13.31,1.854-19.965c0.068-0.729-0.661-1.342-1.342-1.342
				c-3.631,0-7.263,0-10.894,0c0.432,0.566,0.862,1.132,1.294,1.699c2.071-6.227,4.128-12.46,6.235-18.675
				c0.544-1.604,1.096-3.206,1.648-4.808c0.743-2.149,4.622-1.608,6.274-1.62c3.473-0.026,6.946,0.006,10.419,0.009
				c-0.387-0.673-0.772-1.346-1.159-2.019c-2.891,5.864-5.782,11.728-8.675,17.592c-0.763,1.546,1.552,2.907,2.317,1.354
				c2.892-5.864,5.784-11.728,8.675-17.592c0.441-0.894-0.087-2.018-1.158-2.019c-4.291-0.003-8.581-0.036-12.871,0.014
				c-2.061,0.023-5.141-0.085-5.993,2.369c-2.85,8.199-5.561,16.445-8.3,24.68c-0.278,0.836,0.456,1.699,1.293,1.699
				c3.631,0,7.263,0,10.894,0c-0.447-0.447-0.895-0.895-1.342-1.342c-0.618,6.655-1.235,13.31-1.854,19.965
				c-0.058,0.622,0.46,1.101,0.985,1.294c0.253,0.092,0.505,0.185,0.758,0.277c0.596,0.219,1.185-0.153,1.516-0.617
				c6.836-9.577,13.673-19.153,20.51-28.729c0.608-0.852-0.211-2.019-1.158-2.019c-4.371,0-8.742,0-13.112,0
				C416.167,165.578,416.167,168.262,417.897,168.262z"/>
		</g>
		<g>
			<path d="M457.264,185.957c-2.907,5.881-5.813,11.762-8.719,17.644c-0.44,0.894,0.088,2.019,1.159,2.019c4.365,0,8.731,0,13.098,0
				c-0.387-0.673-0.772-1.346-1.159-2.019c-6.864,9.63-13.73,19.261-20.594,28.892c0.505-0.206,1.01-0.411,1.515-0.617
				c-0.237-0.062-0.474-0.125-0.711-0.188c0.329,0.431,0.657,0.863,0.985,1.294c0.614-6.711,1.229-13.421,1.844-20.132
				c0.066-0.73-0.662-1.342-1.342-1.342c-3.624,0-7.247,0-10.87,0c0.431,0.566,0.862,1.132,1.293,1.698
				c2.192-6.622,4.364-13.249,6.599-19.856c0.594-1.756,1.097-5.27,3.674-5.333c1.511-0.037,3.022-0.045,4.533-0.053
				c3.285-0.019,6.569,0.01,9.854,0.013c1.73,0.001,1.73-2.682,0-2.684c-4.046-0.003-8.091-0.034-12.137,0.003
				c-2.771,0.026-4.975-0.167-6.73,2.208c-0.93,1.259-1.277,3.646-1.782,5.132c-0.686,2.021-1.361,4.044-2.037,6.069
				c-1.531,4.592-3.04,9.192-4.561,13.788c-0.276,0.836,0.455,1.698,1.294,1.698c3.623,0,7.246,0,10.87,0
				c-0.447-0.447-0.895-0.894-1.342-1.341c-0.615,6.711-1.229,13.421-1.844,20.132c-0.053,0.583,0.448,1.153,0.986,1.294
				c0.236,0.063,0.474,0.125,0.71,0.188c0.624,0.164,1.159-0.116,1.516-0.617c6.864-9.631,13.729-19.261,20.594-28.892
				c0.607-0.852-0.212-2.019-1.158-2.019c-4.366,0-8.732,0-13.098,0c0.386,0.673,0.771,1.346,1.158,2.019
				c2.906-5.881,5.812-11.763,8.719-17.644C460.345,185.765,458.031,184.405,457.264,185.957z"/>
		</g>
		<g>
			<path d="M376.796,205.7c4.351,0,8.702,0,13.054,0c-0.387-0.673-0.772-1.346-1.159-2.019
				c-6.866,9.623-13.733,19.245-20.601,28.868c0.506-0.205,1.011-0.411,1.516-0.617c-0.224-0.065-0.447-0.129-0.672-0.194
				c0.328,0.431,0.657,0.863,0.985,1.294c0.628-6.731,1.256-13.461,1.885-20.191c0.068-0.73-0.661-1.342-1.342-1.342
				c-3.633,0-7.265,0-10.897,0c0.431,0.566,0.862,1.132,1.293,1.698c2.197-6.637,4.38-13.279,6.613-19.904
				c0.522-1.551,1.091-5.218,3.371-5.267c1.544-0.033,3.089-0.041,4.633-0.048c3.317-0.017,6.635,0.006,9.952,0.009
				c-0.387-0.673-0.772-1.346-1.159-2.019c-2.878,5.904-5.753,11.809-8.631,17.713c-0.754,1.549,1.56,2.91,2.317,1.354
				c2.878-5.904,5.753-11.81,8.631-17.713c0.437-0.895-0.084-2.019-1.158-2.019c-4.094-0.003-8.188-0.027-12.282,0.007
				c-2.68,0.022-4.865-0.254-6.487,2.132c-0.91,1.339-1.255,3.601-1.774,5.137c-0.685,2.023-1.36,4.049-2.035,6.075
				c-1.535,4.606-3.052,9.219-4.577,13.829c-0.276,0.836,0.455,1.699,1.294,1.699c3.633,0,7.265,0,10.897,0
				c-0.447-0.447-0.895-0.895-1.342-1.342c-0.629,6.73-1.257,13.46-1.885,20.191c-0.055,0.592,0.452,1.139,0.985,1.294
				c0.224,0.064,0.447,0.129,0.672,0.194c0.616,0.179,1.165-0.126,1.515-0.617c6.867-9.623,13.733-19.245,20.601-28.868
				c0.608-0.852-0.211-2.019-1.158-2.019c-4.352,0-8.703,0-13.054,0C375.065,203.017,375.065,205.7,376.796,205.7z"/>
		</g>
		<g>
			<path d="M243.061,320.743c0.265,6.006,0.53,12.013,0.798,18.02c0.447-0.447,0.895-0.895,1.342-1.342
				c-6.813,0.384-19.17,3.42-20.129-6.547c-0.962-9.988,13.059-8.435,19.331-8.789c1.72-0.097,1.729-2.781,0-2.683
				c-8.562,0.482-20.94-0.895-22.014,10.517c-0.377,4.005,2.035,7.705,5.366,9.67c2.069,1.221,4.573,1.146,6.881,1.121
				c3.524-0.039,7.047-0.406,10.564-0.604c0.704-0.04,1.375-0.581,1.342-1.342c-0.268-6.006-0.533-12.013-0.798-18.02
				C245.668,319.02,242.984,319.012,243.061,320.743z"/>
		</g>
		<path fill-rule="evenodd" clip-rule="evenodd" d="M210.18,376.771c-0.65-0.674-2.409-1.69-2.577-2.92
			c-0.136-0.996,1.439-2.84,2.628-3.264c2.189-0.78,4.674-1.135,6.992-0.987c1.228,0.077,3.153,1.456,3.321,2.482
			c0.168,1.034-1.214,3.004-2.339,3.418C216.028,376.303,213.558,376.298,210.18,376.771z"/>
		<path fill-rule="evenodd" clip-rule="evenodd" d="M188.67,338.278c-0.698,3.28-0.913,5.854-1.868,8.113
			c-0.472,1.115-2.312,1.648-3.531,2.446c-0.789-1.238-2.221-2.474-2.229-3.716c-0.012-2.326,0.496-4.784,1.396-6.933
			c0.485-1.159,2.255-2.49,3.4-2.451C186.9,335.775,187.901,337.532,188.67,338.278z"/>
		<path fill-rule="evenodd" clip-rule="evenodd" d="M209.76,351.179c-0.121,2.08-6.917,7.938-9.005,7.571
			c-0.865-0.153-2.115-0.83-2.303-1.513c-0.292-1.054-0.248-2.714,0.407-3.42c1.85-1.997,3.936-3.861,6.204-5.356
			C207.269,347.009,209.904,348.698,209.76,351.179z"/>
		<g>
			<path d="M251.695,183.066c-0.836-1.119-1.83-2.121-2.583-3.298c-0.932-1.457,0.069-3.37,1.854-3.117
				c0.999,0.141,2.889,1.622,2.633,2.747c-0.297,1.308-1.796,2.534-2.543,3.627c0.387-0.221,0.772-0.443,1.159-0.665
				c-0.56,0.013-1.119,0.027-1.679,0.041c-1.728,0.042-1.731,2.726,0,2.684c0.642-0.016,1.412,0.083,2.035-0.088
				c0.708-0.195,1.053-1.004,1.468-1.534c0.838-1.072,1.653-2.069,2.147-3.352c0.929-2.407-1.818-4.978-3.784-5.795
				c-2.316-0.962-4.954,0.086-5.959,2.381c-1.385,3.163,1.22,5.426,2.934,7.723C250.4,185.79,252.732,184.455,251.695,183.066z"/>
		</g>
		<g>
			<path d="M233.348,165.113c-0.894-1.161-2.01-2.178-2.757-3.441c-0.634-1.074,1.328-2.471,2.077-2.893
				c1.396-0.786,2.567,0.65,2.607,1.903c0.05,1.538-1.763,3.152-2.554,4.347c0.386-0.221,0.771-0.443,1.158-0.665
				c-0.563,0.028-1.127,0.057-1.691,0.085c-1.722,0.086-1.73,2.771,0,2.684c0.649-0.032,1.418,0.041,2.048-0.133
				c0.705-0.194,1.035-0.976,1.426-1.519c0.915-1.269,1.877-2.42,2.213-3.986c0.539-2.512-1.141-4.981-3.614-5.479
				c-2.549-0.513-4.892,1.46-6.036,3.562c-1.513,2.775,1.292,4.922,2.806,6.89C232.069,167.819,234.402,166.485,233.348,165.113z"/>
		</g>
		<g>
			<path d="M295.964,166.137c-0.265,1.5-0.502,3.006-0.813,4.497c-0.149,0.715-0.31,1.663-0.822,2.143
				c-0.221,0.207-1.219,0.135-1.647,0.115c-1.473-0.067-2.942-0.281-4.409-0.424c0.432,0.566,0.863,1.132,1.294,1.698
				c0.276-1.514,0.522-3.034,0.835-4.541c0.146-0.703,0.31-1.663,0.796-2.114c0.145-0.134,1.201-0.096,1.622-0.074
				c1.482,0.075,2.961,0.274,4.439,0.398c1.726,0.145,1.711-2.54,0-2.684c-2.313-0.194-5.801-1.21-7.84,0.369
				c-2.033,1.575-2.029,5.683-2.439,7.932c-0.167,0.915,0.377,1.609,1.293,1.699c2.323,0.227,5.788,1.229,7.832-0.381
				c2.042-1.608,2.045-5.635,2.448-7.92C298.85,165.159,296.264,164.435,295.964,166.137z"/>
		</g>
	</g>
</g>
<g>
	<rect x="128.08" y="451.865" fill-rule="evenodd" clip-rule="evenodd" width="353.557" height="11.318"/>
	<g>
		<path d="M130.008,463.183c0-3.772,0-7.545,0-11.318c-0.643,0.643-1.285,1.285-1.928,1.928c24.088,0,48.176,0,72.262,0
			c49.102,0,98.201,0,147.303,0c39.373,0,78.746,0,118.119,0c5.291,0,10.582,0,15.873,0c-0.643-0.643-1.285-1.285-1.928-1.928
			c0,3.773,0,7.546,0,11.318c0.643-0.643,1.285-1.284,1.928-1.927c-24.087,0-48.174,0-72.262,0c-49.1,0-98.201,0-147.301,0
			c-39.373,0-78.748,0-118.121,0c-5.291,0-10.582,0-15.873,0c-2.486,0-2.486,3.854,0,3.854c24.088,0,48.176,0,72.262,0
			c49.102,0,98.201,0,147.303,0c39.373,0,78.746,0,118.119,0c5.291,0,10.582,0,15.873,0c1.051,0,1.928-0.876,1.928-1.928
			c0-3.772,0-7.545,0-11.318c0-1.051-0.877-1.928-1.928-1.928c-24.087,0-48.174,0-72.262,0c-49.1,0-98.201,0-147.301,0
			c-39.373,0-78.748,0-118.121,0c-5.291,0-10.582,0-15.873,0c-1.051,0-1.928,0.877-1.928,1.928c0,3.773,0,7.546,0,11.318
			C126.152,465.669,130.008,465.669,130.008,463.183z"/>
	</g>
</g>
<g>
	<g>
		<polygon points="27.508,280.775 22.182,280.512 21.828,294.497 27.16,294.497 		"/>
		<path d="M29.352,260.425l-5.292-0.659c0,0-0.11,0.868-0.275,2.169c-0.149,1.303-0.42,3.033-0.571,4.774
			c-0.266,3.488-0.531,6.975-0.531,6.975L28,274.079c0,0,0.26-3.421,0.52-6.843c0.147-1.709,0.414-3.406,0.561-4.684
			C29.242,261.276,29.352,260.425,29.352,260.425z"/>
		<path d="M32.564,240.249l-5.227-1.053c0,0-0.615,3.443-1.23,6.887c-0.308,1.722-0.615,3.443-0.846,4.735
			c-0.249,1.288-0.338,2.159-0.339,2.159l5.274,0.788c0,0,0.086-0.854,0.332-2.118c0.227-1.267,0.528-2.955,0.83-4.644
			C31.962,243.626,32.564,240.249,32.564,240.249z"/>
		<path d="M37.412,220.401l-5.133-1.443c0,0-0.238,0.841-0.598,2.103c-0.34,1.267-0.875,2.934-1.271,4.637
			c-0.787,3.408-1.574,6.815-1.574,6.815l5.199,1.182c0,0,0.771-3.342,1.543-6.685c0.389-1.67,0.915-3.305,1.248-4.547
			C37.178,221.226,37.412,220.401,37.412,220.401z"/>
		<path d="M43.609,200.933l-5.01-1.826c0,0-1.121,3.313-2.242,6.627c-0.561,1.657-1.121,3.314-1.542,4.557
			c-0.437,1.237-0.665,2.082-0.665,2.082l5.096,1.57c0,0,0.223-0.828,0.652-2.042c0.412-1.219,0.963-2.844,1.513-4.468
			C42.51,204.183,43.609,200.933,43.609,200.933z"/>
		<path d="M51.391,182.039l-4.857-2.198c0,0-1.438,3.189-2.873,6.378c-1.284,3.254-2.567,6.508-2.567,6.508l4.963,1.949
			c0,0,1.258-3.191,2.517-6.383C49.981,185.166,51.391,182.039,51.391,182.039z"/>
		<path d="M60.442,163.727l-4.68-2.556c0,0-0.108,0.189-0.3,0.521c-0.174,0.34-0.424,0.827-0.724,1.41
			c-0.598,1.167-1.396,2.723-2.192,4.28c-1.594,3.113-3.188,6.226-3.188,6.226l4.803,2.317c0,0,1.563-3.053,3.127-6.105
			c0.782-1.527,1.563-3.053,2.15-4.198c0.293-0.572,0.537-1.049,0.709-1.383C60.336,163.913,60.442,163.727,60.442,163.727z"/>
	</g>
	<g>
		<path d="M70.957,146.203l-4.476-2.899c0,0-1.888,2.945-3.775,5.89c-0.955,1.465-1.767,3.018-2.439,4.144
			c-0.653,1.137-1.09,1.896-1.09,1.896l4.615,2.67c0,0,0.427-0.744,1.069-1.859c0.659-1.104,1.454-2.628,2.392-4.065
			C69.105,149.091,70.957,146.203,70.957,146.203z"/>
		<path d="M82.666,129.459l-4.247-3.224c0,0-0.538,0.689-1.345,1.724c-0.76,1.069-1.773,2.494-2.787,3.919
			c-2.027,2.851-4.055,5.701-4.055,5.701l4.404,3.008c0,0,1.988-2.796,3.977-5.592c0.994-1.398,1.988-2.796,2.733-3.845
			C82.139,130.136,82.666,129.459,82.666,129.459z"/>
		<path d="M95.637,113.673l-3.996-3.531c0,0-2.289,2.644-4.58,5.288c-0.57,0.662-1.143,1.324-1.678,1.945
			c-0.506,0.645-0.979,1.246-1.385,1.762c-0.811,1.031-1.351,1.719-1.351,1.719l4.167,3.327c0,0,0.529-0.674,1.324-1.686
			c0.397-0.506,0.861-1.096,1.357-1.729c0.525-0.609,1.087-1.258,1.647-1.907C93.391,116.266,95.637,113.673,95.637,113.673z"/>
		<path d="M109.725,98.874l-3.722-3.818c0,0-0.633,0.603-1.582,1.508c-0.974,0.88-2.151,2.174-3.364,3.433
			c-2.414,2.531-4.826,5.062-4.826,5.062l3.908,3.627c0,0,2.366-2.482,4.733-4.965c1.189-1.236,2.345-2.505,3.301-3.368
			C109.104,99.465,109.725,98.874,109.725,98.874z"/>
		<path d="M124.865,85.152l-3.428-4.084c0,0-2.644,2.29-5.287,4.58c-1.312,1.157-2.668,2.264-3.611,3.176
			c-0.949,0.905-1.582,1.508-1.582,1.508l3.627,3.908c0,0,0.621-0.592,1.553-1.48c0.924-0.896,2.256-1.98,3.542-3.115
			C122.271,87.398,124.865,85.152,124.865,85.152z"/>
		<path d="M141.014,72.63l-3.115-4.328c0,0-0.712,0.507-1.781,1.267c-1.066,0.763-2.511,1.75-3.865,2.859
			c-2.75,2.161-5.5,4.322-5.5,4.322l3.327,4.167c0,0,2.698-2.12,5.396-4.24c1.327-1.088,2.745-2.056,3.791-2.804
			C140.314,73.127,141.014,72.63,141.014,72.63z"/>
		<path d="M157.997,61.278l-2.782-4.548c0,0-2.945,1.887-5.889,3.774c-1.473,0.944-2.944,1.888-4.048,2.596
			c-0.558,0.345-1.001,0.665-1.312,0.888c-0.313,0.222-0.49,0.348-0.49,0.348l3.008,4.403c0,0,0.174-0.124,0.48-0.342
			c0.305-0.219,0.738-0.533,1.286-0.871c1.083-0.694,2.526-1.62,3.972-2.545C155.109,63.129,157.997,61.278,157.997,61.278z"/>
	</g>
	<g>
		<path d="M175.846,51.326l-2.435-4.744c0,0-0.778,0.398-1.946,0.997c-1.162,0.607-2.734,1.375-4.27,2.213
			c-3.032,1.743-6.064,3.487-6.064,3.487l2.67,4.615c0,0,2.975-1.71,5.948-3.421c1.505-0.822,3.048-1.575,4.188-2.17
			C175.082,51.717,175.846,51.326,175.846,51.326z"/>
		<path d="M194.329,42.619l-2.071-4.913c0,0-0.207,0.07-0.555,0.233c-0.348,0.158-0.846,0.383-1.443,0.653
			c-1.195,0.54-2.789,1.261-4.383,1.981c-3.187,1.444-6.373,2.889-6.373,2.889l2.317,4.802c0,0,3.125-1.416,6.25-2.832
			c1.563-0.707,3.126-1.414,4.298-1.944c0.586-0.265,1.075-0.486,1.417-0.641C194.125,42.688,194.329,42.619,194.329,42.619z"/>
		<path d="M213.466,35.467l-1.696-5.055c0,0-3.313,1.122-6.627,2.243c-1.646,0.59-3.26,1.268-4.484,1.738
			c-1.22,0.481-2.033,0.802-2.033,0.802l1.949,4.963c0,0,0.798-0.314,1.994-0.787c1.201-0.46,2.783-1.127,4.398-1.706
			C210.217,36.566,213.466,35.467,213.466,35.467z"/>
		<path d="M233.051,29.646l-1.311-5.168c0,0-0.858,0.172-2.115,0.549c-1.262,0.358-2.943,0.836-4.626,1.313
			c-3.364,0.956-6.729,1.911-6.729,1.911l1.569,5.096c0,0,3.301-0.937,6.6-1.873c1.65-0.469,3.299-0.938,4.537-1.289
			C232.209,29.814,233.051,29.646,233.051,29.646z"/>
		<path d="M253.043,25.436l-0.918-5.252c0,0-3.443,0.615-6.887,1.23c-1.725,0.296-3.414,0.759-4.697,1.032
			c-1.278,0.295-2.131,0.492-2.131,0.492l1.183,5.199c0,0,0.835-0.193,2.089-0.482c1.258-0.268,2.915-0.724,4.606-1.014
			C249.666,26.039,253.043,25.436,253.043,25.436z"/>
		<path d="M273.281,22.61l-0.523-5.306c0,0-0.873,0.049-2.173,0.233c-1.301,0.165-3.036,0.385-4.771,0.605
			c-3.47,0.441-6.939,0.882-6.939,0.882l0.789,5.274c0,0,3.402-0.432,6.807-0.864c1.701-0.217,3.402-0.433,4.679-0.595
			C272.424,22.658,273.281,22.611,273.281,22.61z"/>
		<path d="M293.677,21.433l-0.129-5.331c0,0-3.495,0.089-6.991,0.177c-1.746,0.083-3.487,0.251-4.795,0.339
			c-1.309,0.099-2.18,0.166-2.18,0.166l0.393,5.317c0,0,0.855-0.065,2.139-0.163c1.283-0.087,2.991-0.253,4.704-0.334
			C290.247,21.519,293.677,21.433,293.677,21.433z"/>
	</g>
	<g>
		<polygon points="314.116,21.609 314.379,16.284 300.395,15.93 300.395,21.262 		"/>
		<path d="M334.466,23.453l0.659-5.292c0,0-0.868-0.11-2.17-0.275c-1.303-0.15-3.032-0.42-4.773-0.571
			c-3.488-0.266-6.976-0.531-6.976-0.531l-0.394,5.318c0,0,3.422,0.26,6.843,0.52c1.709,0.147,3.405,0.414,4.684,0.561
			C333.615,23.345,334.466,23.453,334.466,23.453z"/>
		<path d="M354.643,26.667l1.053-5.227c0,0-3.443-0.615-6.888-1.23c-1.722-0.308-3.443-0.615-4.735-0.845
			c-1.287-0.25-2.158-0.339-2.158-0.339l-0.789,5.274c0,0,0.854,0.087,2.118,0.333c1.267,0.227,2.955,0.528,4.644,0.83
			C351.265,26.064,354.643,26.667,354.643,26.667z"/>
		<path d="M374.49,31.514l1.443-5.133c0,0-0.842-0.239-2.104-0.597c-1.266-0.34-2.934-0.875-4.637-1.272
			c-3.407-0.787-6.814-1.574-6.814-1.574l-1.183,5.199c0,0,3.343,0.771,6.685,1.542c1.67,0.389,3.305,0.916,4.547,1.249
			C373.665,31.28,374.49,31.514,374.49,31.514z"/>
		<path d="M393.958,37.711l1.826-5.01c0,0-3.313-1.121-6.627-2.243c-1.657-0.561-3.313-1.121-4.557-1.542
			c-1.237-0.437-2.082-0.665-2.082-0.666l-1.569,5.096c0,0,0.828,0.224,2.041,0.653c1.219,0.413,2.844,0.963,4.469,1.513
			C390.709,36.612,393.958,37.711,393.958,37.711z"/>
		<path d="M412.852,45.493l2.198-4.858c0,0-3.188-1.437-6.378-2.874c-3.254-1.284-6.508-2.567-6.508-2.567l-1.949,4.963
			c0,0,3.191,1.258,6.383,2.516C409.725,44.083,412.852,45.493,412.852,45.493z"/>
		<path d="M431.164,54.544l2.556-4.68c0,0-0.189-0.109-0.521-0.299c-0.341-0.175-0.827-0.424-1.41-0.724
			c-1.168-0.598-2.724-1.395-4.28-2.192c-3.112-1.594-6.226-3.188-6.226-3.188l-2.316,4.803c0,0,3.053,1.564,6.105,3.128
			c1.526,0.782,3.053,1.563,4.197,2.149c0.572,0.293,1.05,0.538,1.383,0.709C430.979,54.438,431.164,54.544,431.164,54.544z"/>
	</g>
	<g>
		<path d="M448.688,65.059l2.899-4.475c0,0-2.945-1.888-5.891-3.775c-1.465-0.955-3.018-1.767-4.144-2.439
			c-1.138-0.654-1.896-1.09-1.896-1.09l-2.67,4.615c0,0,0.744,0.427,1.859,1.069c1.104,0.66,2.627,1.455,4.064,2.392
			C445.801,63.207,448.688,65.059,448.688,65.059z"/>
		<path d="M465.432,76.768l3.225-4.247c0,0-0.689-0.538-1.725-1.344c-1.068-0.76-2.494-1.774-3.919-2.788
			c-2.851-2.027-5.701-4.054-5.701-4.054l-3.008,4.403c0,0,2.796,1.988,5.593,3.977c1.397,0.994,2.796,1.988,3.845,2.733
			C464.756,76.24,465.432,76.768,465.432,76.768z"/>
		<path d="M481.219,89.739l3.531-3.996c0,0-2.645-2.29-5.288-4.58c-0.662-0.571-1.324-1.143-1.944-1.678
			c-0.645-0.506-1.246-0.979-1.762-1.385c-1.031-0.811-1.719-1.351-1.719-1.351l-3.327,4.167c0,0,0.675,0.53,1.687,1.325
			c0.506,0.397,1.096,0.861,1.729,1.358c0.608,0.525,1.258,1.086,1.906,1.647C478.625,87.492,481.219,89.739,481.219,89.739z"/>
		<path d="M496.018,103.827l3.818-3.722c0,0-0.604-0.633-1.509-1.582c-0.88-0.973-2.174-2.152-3.433-3.365
			c-2.531-2.413-5.063-4.826-5.063-4.826l-3.627,3.908c0,0,2.482,2.367,4.965,4.734c1.235,1.189,2.506,2.345,3.368,3.301
			C495.426,103.206,496.018,103.827,496.018,103.827z"/>
		<path d="M509.739,118.968l4.084-3.428c0,0-2.29-2.644-4.58-5.288c-1.157-1.311-2.264-2.667-3.176-3.61
			c-0.905-0.95-1.509-1.583-1.509-1.583l-3.908,3.627c0,0,0.593,0.621,1.48,1.552c0.896,0.924,1.98,2.256,3.115,3.542
			C507.492,116.374,509.739,118.968,509.739,118.968z"/>
		<path d="M522.262,135.115l4.328-3.114c0,0-0.508-0.712-1.268-1.781c-0.764-1.067-1.75-2.511-2.859-3.865
			c-2.16-2.75-4.321-5.5-4.321-5.5l-4.167,3.327c0,0,2.121,2.698,4.24,5.395c1.088,1.328,2.056,2.746,2.805,3.792
			C521.764,134.417,522.262,135.115,522.262,135.115z"/>
		<path d="M533.613,152.099l4.549-2.783c0,0-1.888-2.944-3.775-5.889c-0.943-1.472-1.887-2.944-2.596-4.047
			c-0.345-0.558-0.664-1.001-0.888-1.312c-0.222-0.312-0.349-0.49-0.349-0.49l-4.402,3.007c0,0,0.124,0.175,0.342,0.48
			c0.219,0.305,0.533,0.739,0.871,1.287c0.694,1.083,1.619,2.527,2.545,3.971C531.762,149.212,533.613,152.099,533.613,152.099z"/>
	</g>
	<g>
		<path d="M543.565,169.948l4.743-2.435c0,0-0.398-0.778-0.996-1.946c-0.607-1.163-1.375-2.735-2.213-4.27
			c-1.744-3.033-3.487-6.065-3.487-6.065l-4.615,2.67c0,0,1.71,2.974,3.421,5.948c0.822,1.505,1.574,3.048,2.17,4.188
			C543.174,169.185,543.565,169.948,543.565,169.948z"/>
		<path d="M552.271,188.431l4.914-2.071c0,0-0.07-0.208-0.234-0.554c-0.157-0.349-0.383-0.847-0.652-1.444
			c-0.54-1.195-1.261-2.789-1.98-4.383c-1.445-3.186-2.889-6.372-2.889-6.372l-4.803,2.317c0,0,1.416,3.125,2.832,6.25
			c0.707,1.563,1.413,3.126,1.943,4.298c0.266,0.586,0.486,1.075,0.641,1.417C552.203,188.228,552.271,188.431,552.271,188.431z"/>
		<path d="M559.424,207.568l5.055-1.696c0,0-1.121-3.313-2.242-6.627c-0.59-1.646-1.269-3.26-1.738-4.484
			c-0.48-1.22-0.802-2.034-0.802-2.034l-4.963,1.949c0,0,0.314,0.798,0.786,1.995c0.461,1.201,1.127,2.783,1.706,4.397
			C558.324,204.318,559.424,207.568,559.424,207.568z"/>
		<path d="M565.244,227.152l5.169-1.31c0,0-0.172-0.858-0.55-2.115c-0.357-1.262-0.836-2.944-1.313-4.626
			c-0.956-3.364-1.912-6.729-1.912-6.729l-5.096,1.57c0,0,0.938,3.3,1.873,6.599c0.469,1.65,0.938,3.299,1.289,4.537
			C565.076,226.311,565.244,227.152,565.244,227.152z"/>
		<path d="M569.455,247.145l5.252-0.918c0,0-0.615-3.444-1.23-6.887c-0.295-1.724-0.759-3.414-1.031-4.697
			c-0.295-1.278-0.492-2.13-0.492-2.13l-5.199,1.182c0,0,0.193,0.835,0.482,2.089c0.268,1.258,0.724,2.915,1.014,4.606
			C568.852,243.768,569.455,247.145,569.455,247.145z"/>
		<path d="M572.281,267.383l5.306-0.523c0,0-0.049-0.874-0.233-2.173c-0.164-1.301-0.385-3.036-0.605-4.771
			c-0.441-3.47-0.882-6.939-0.882-6.939l-5.273,0.788c0,0,0.432,3.403,0.864,6.807c0.217,1.702,0.433,3.403,0.595,4.679
			C572.233,266.526,572.28,267.383,572.281,267.383z"/>
		<path d="M573.458,287.779l5.331-0.129c0,0-0.09-3.496-0.178-6.991c-0.083-1.746-0.251-3.487-0.339-4.795
			c-0.1-1.308-0.166-2.18-0.166-2.18l-5.317,0.394c0,0,0.064,0.855,0.162,2.138c0.088,1.283,0.254,2.992,0.334,4.705
			C573.372,284.349,573.458,287.779,573.458,287.779z"/>
	</g>
	<g>
		<polygon points="573.281,308.218 578.607,308.481 578.961,294.497 573.629,294.497 		"/>
		<path d="M571.438,328.568l5.292,0.659c0,0,0.11-0.868,0.275-2.169c0.149-1.303,0.42-3.033,0.571-4.774
			c0.266-3.488,0.53-6.975,0.53-6.975l-5.317-0.394c0,0-0.26,3.421-0.52,6.843c-0.147,1.709-0.414,3.406-0.561,4.684
			C571.547,327.717,571.438,328.568,571.438,328.568z"/>
		<path d="M568.225,348.744l5.227,1.053c0,0,0.615-3.443,1.23-6.887c0.308-1.722,0.615-3.443,0.846-4.735
			c0.249-1.288,0.338-2.159,0.339-2.159l-5.273-0.788c-0.001,0-0.087,0.854-0.333,2.118c-0.227,1.267-0.528,2.955-0.83,4.644
			C568.827,345.367,568.225,348.744,568.225,348.744z"/>
		<path d="M563.377,368.592l5.133,1.443c0,0,0.238-0.841,0.598-2.103c0.34-1.267,0.875-2.934,1.271-4.637
			c0.787-3.408,1.574-6.815,1.574-6.815l-5.199-1.182c0,0-0.771,3.342-1.543,6.685c-0.389,1.67-0.915,3.305-1.248,4.547
			C563.611,367.767,563.377,368.592,563.377,368.592z"/>
		<path d="M557.18,388.06l5.01,1.826c0,0,1.121-3.313,2.242-6.627c0.561-1.657,1.121-3.314,1.542-4.557
			c0.437-1.237,0.665-2.082,0.665-2.082l-5.096-1.57c0,0-0.223,0.828-0.652,2.042c-0.412,1.219-0.963,2.844-1.513,4.468
			C558.279,384.811,557.18,388.06,557.18,388.06z"/>
		<path d="M549.398,406.954l4.857,2.198c0,0,1.438-3.189,2.873-6.378c1.284-3.254,2.567-6.508,2.567-6.508l-4.963-1.949
			c0,0-1.258,3.191-2.517,6.383C550.808,403.827,549.398,406.954,549.398,406.954z"/>
		<path d="M540.347,425.266l4.68,2.556c0,0,0.108-0.189,0.3-0.521c0.174-0.34,0.424-0.827,0.724-1.41
			c0.598-1.167,1.396-2.723,2.192-4.28c1.594-3.113,3.188-6.226,3.188-6.226l-4.803-2.317c0,0-1.563,3.053-3.127,6.105
			c-0.782,1.527-1.563,3.053-2.15,4.198c-0.293,0.572-0.537,1.049-0.709,1.383C540.453,425.08,540.347,425.266,540.347,425.266z"/>
	</g>
	<g>
		<path d="M529.832,442.791l4.476,2.899c0,0,1.888-2.945,3.775-5.89c0.955-1.465,1.767-3.018,2.439-4.144
			c0.653-1.137,1.09-1.896,1.09-1.896l-4.615-2.67c0,0-0.427,0.744-1.069,1.859c-0.659,1.104-1.454,2.628-2.392,4.065
			C531.685,439.902,529.832,442.791,529.832,442.791z"/>
		<path d="M518.123,459.534l4.247,3.224c0,0,0.538-0.689,1.345-1.724c0.76-1.069,1.773-2.494,2.787-3.919
			c2.027-2.851,4.054-5.701,4.054-5.701l-4.403-3.008c0,0-1.988,2.796-3.977,5.592c-0.994,1.398-1.988,2.796-2.733,3.845
			C518.65,458.857,518.123,459.534,518.123,459.534z"/>
		<path d="M505.152,475.32l3.996,3.531c0,0,2.289-2.644,4.58-5.288c0.57-0.662,1.143-1.324,1.678-1.945
			c0.506-0.645,0.979-1.246,1.385-1.762c0.811-1.031,1.351-1.719,1.351-1.719l-4.167-3.327c0,0-0.529,0.674-1.324,1.686
			c-0.397,0.506-0.861,1.096-1.357,1.729c-0.525,0.609-1.087,1.258-1.647,1.907C507.398,472.727,505.152,475.32,505.152,475.32z"/>
		<path d="M491.064,490.12l3.722,3.818c0,0,0.633-0.603,1.582-1.508c0.974-0.88,2.151-2.174,3.364-3.433
			c2.414-2.531,4.826-5.062,4.826-5.062l-3.908-3.627c0,0-2.366,2.482-4.733,4.965c-1.189,1.235-2.345,2.505-3.301,3.368
			C491.686,489.528,491.064,490.12,491.064,490.12z"/>
		<path d="M475.924,503.841l3.428,4.084c0,0,2.644-2.29,5.287-4.58c1.312-1.157,2.668-2.264,3.611-3.176
			c0.949-0.905,1.582-1.508,1.582-1.508l-3.627-3.908c0,0-0.621,0.592-1.553,1.48c-0.924,0.896-2.256,1.98-3.542,3.115
			C478.518,501.595,475.924,503.841,475.924,503.841z"/>
		<path d="M459.775,516.363l3.115,4.328c0,0,0.712-0.507,1.781-1.267c1.066-0.763,2.511-1.75,3.865-2.859
			c2.75-2.161,5.5-4.322,5.5-4.322l-3.327-4.167c0,0-2.698,2.12-5.396,4.24c-1.327,1.088-2.745,2.056-3.791,2.804
			C460.475,515.866,459.775,516.363,459.775,516.363z"/>
		<path d="M442.792,527.715l2.782,4.548c0,0,2.945-1.887,5.889-3.774c1.473-0.944,2.944-1.888,4.048-2.596
			c0.558-0.345,1.001-0.665,1.312-0.888c0.313-0.222,0.49-0.348,0.49-0.348l-3.008-4.403c0,0-0.174,0.124-0.48,0.342
			c-0.305,0.219-0.738,0.533-1.286,0.871c-1.083,0.694-2.526,1.62-3.972,2.545C445.68,525.864,442.792,527.715,442.792,527.715z"/>
	</g>
	<g>
		<path d="M424.943,537.667l2.435,4.744c0,0,0.778-0.398,1.946-0.997c1.162-0.607,2.734-1.375,4.27-2.213
			c3.032-1.743,6.064-3.487,6.064-3.487l-2.67-4.615c0,0-2.975,1.71-5.948,3.421c-1.505,0.822-3.048,1.575-4.188,2.17
			C425.707,537.276,424.943,537.667,424.943,537.667z"/>
		<path d="M406.46,546.374l2.071,4.913c0,0,0.207-0.07,0.555-0.233c0.348-0.158,0.846-0.383,1.443-0.653
			c1.195-0.54,2.789-1.261,4.383-1.981c3.187-1.444,6.373-2.889,6.373-2.889l-2.317-4.802c0,0-3.125,1.416-6.25,2.832
			c-1.563,0.707-3.126,1.414-4.298,1.944c-0.586,0.265-1.075,0.486-1.417,0.641C406.664,546.305,406.46,546.374,406.46,546.374z"/>
		<path d="M387.323,553.526l1.696,5.055c0,0,3.313-1.122,6.627-2.243c1.646-0.59,3.26-1.268,4.484-1.738
			c1.22-0.481,2.033-0.802,2.033-0.802l-1.949-4.963c0,0-0.798,0.314-1.994,0.787c-1.201,0.46-2.783,1.127-4.398,1.706
			C390.572,552.427,387.323,553.526,387.323,553.526z"/>
		<path d="M367.738,559.347l1.311,5.168c0,0,0.858-0.172,2.115-0.549c1.262-0.358,2.943-0.836,4.626-1.313
			c3.364-0.956,6.729-1.911,6.729-1.911l-1.569-5.096c0,0-3.301,0.937-6.6,1.873c-1.65,0.469-3.299,0.938-4.537,1.289
			C368.58,559.179,367.738,559.346,367.738,559.347z"/>
		<path d="M347.746,563.557l0.918,5.252c0,0,3.443-0.615,6.887-1.23c1.725-0.296,3.414-0.759,4.697-1.032
			c1.278-0.295,2.131-0.492,2.131-0.492l-1.183-5.199c0,0-0.835,0.193-2.089,0.482c-1.258,0.268-2.915,0.724-4.606,1.013
			C351.123,562.954,347.746,563.557,347.746,563.557z"/>
		<path d="M327.508,566.383l0.523,5.306c0,0,0.873-0.049,2.173-0.233c1.301-0.165,3.036-0.385,4.771-0.605
			c3.47-0.441,6.939-0.882,6.939-0.882l-0.789-5.273c0,0-3.402,0.432-6.807,0.864c-1.701,0.216-3.402,0.433-4.679,0.595
			C328.365,566.335,327.508,566.382,327.508,566.383z"/>
		<path d="M307.112,567.56l0.129,5.331c0,0,3.495-0.089,6.991-0.177c1.746-0.083,3.487-0.251,4.795-0.339
			c1.309-0.1,2.18-0.166,2.18-0.166l-0.393-5.317c0,0-0.855,0.065-2.139,0.163c-1.283,0.087-2.991,0.253-4.704,0.334
			C310.542,567.474,307.112,567.56,307.112,567.56z"/>
	</g>
	<g>
		<polygon points="286.673,567.384 286.41,572.709 300.395,573.063 300.395,567.731 		"/>
		<path d="M266.323,565.54l-0.659,5.292c0,0,0.868,0.11,2.17,0.275c1.303,0.15,3.032,0.42,4.773,0.571
			c3.488,0.266,6.976,0.531,6.976,0.531l0.394-5.317c0,0-3.422-0.26-6.843-0.52c-1.709-0.147-3.405-0.414-4.684-0.561
			C267.174,565.648,266.323,565.54,266.323,565.54z"/>
		<path d="M246.146,562.326l-1.053,5.227c0,0,3.443,0.615,6.888,1.23c1.722,0.308,3.443,0.615,4.735,0.845
			c1.287,0.25,2.158,0.339,2.158,0.339l0.789-5.273c0,0-0.854-0.087-2.118-0.333c-1.267-0.227-2.955-0.528-4.644-0.83
			C249.524,562.929,246.146,562.326,246.146,562.326z"/>
		<path d="M226.299,557.479l-1.443,5.133c0,0,0.842,0.239,2.104,0.597c1.266,0.34,2.934,0.875,4.637,1.272
			c3.407,0.787,6.814,1.574,6.814,1.574l1.183-5.199c0,0-3.343-0.771-6.685-1.542c-1.67-0.389-3.305-0.916-4.547-1.249
			C227.124,557.713,226.299,557.479,226.299,557.479z"/>
		<path d="M206.831,551.282l-1.826,5.01c0,0,3.313,1.121,6.627,2.243c1.657,0.561,3.313,1.121,4.557,1.542
			c1.237,0.437,2.082,0.665,2.082,0.666l1.569-5.096c0,0-0.828-0.224-2.041-0.653c-1.219-0.413-2.844-0.963-4.469-1.513
			C210.08,552.381,206.831,551.282,206.831,551.282z"/>
		<path d="M187.938,543.5l-2.198,4.858c0,0,3.188,1.437,6.378,2.874c3.254,1.284,6.508,2.567,6.508,2.567l1.949-4.963
			c0,0-3.191-1.258-6.383-2.516C191.064,544.91,187.938,543.5,187.938,543.5z"/>
		<path d="M169.625,534.449l-2.556,4.68c0,0,0.189,0.109,0.521,0.3c0.341,0.174,0.827,0.424,1.41,0.724
			c1.168,0.598,2.724,1.395,4.28,2.192c3.112,1.594,6.226,3.188,6.226,3.188l2.316-4.803c0,0-3.053-1.564-6.105-3.128
			c-1.526-0.782-3.053-1.563-4.197-2.149c-0.572-0.293-1.049-0.538-1.383-0.709C169.811,534.556,169.625,534.449,169.625,534.449z"
			/>
	</g>
	<g>
		<path d="M152.101,523.935l-2.899,4.475c0,0,2.945,1.888,5.891,3.775c1.465,0.955,3.018,1.767,4.144,2.439
			c1.138,0.654,1.896,1.09,1.896,1.09l2.67-4.615c0,0-0.744-0.427-1.859-1.069c-1.104-0.66-2.627-1.455-4.064-2.392
			C154.988,525.787,152.101,523.935,152.101,523.935z"/>
		<path d="M135.357,512.226l-3.225,4.247c0,0,0.689,0.538,1.725,1.344c1.068,0.76,2.494,1.774,3.919,2.788
			c2.851,2.027,5.701,4.054,5.701,4.054l3.008-4.403c0,0-2.796-1.988-5.593-3.977c-1.397-0.994-2.796-1.988-3.845-2.733
			C136.033,512.753,135.357,512.226,135.357,512.226z"/>
		<path d="M119.57,499.254l-3.531,3.996c0,0,2.645,2.29,5.288,4.58c0.662,0.571,1.324,1.143,1.944,1.678
			c0.645,0.506,1.246,0.979,1.762,1.385c1.031,0.811,1.719,1.351,1.719,1.351l3.327-4.167c0,0-0.675-0.53-1.687-1.325
			c-0.506-0.397-1.096-0.861-1.729-1.358c-0.608-0.525-1.258-1.086-1.906-1.647C122.164,501.501,119.57,499.254,119.57,499.254z"/>
		<path d="M104.771,485.167l-3.818,3.722c0,0,0.604,0.633,1.509,1.582c0.88,0.973,2.174,2.152,3.433,3.365
			c2.531,2.413,5.063,4.826,5.063,4.826l3.627-3.908c0,0-2.482-2.367-4.965-4.734c-1.236-1.189-2.506-2.345-3.368-3.301
			C105.363,485.787,104.771,485.167,104.771,485.167z"/>
		<path d="M91.05,470.025l-4.084,3.428c0,0,2.29,2.644,4.58,5.288c1.157,1.311,2.264,2.667,3.176,3.61
			c0.905,0.95,1.509,1.583,1.509,1.583l3.908-3.627c0,0-0.593-0.621-1.48-1.552c-0.896-0.924-1.98-2.256-3.115-3.542
			C93.297,472.619,91.05,470.025,91.05,470.025z"/>
		<path d="M78.527,453.878l-4.328,3.114c0,0,0.508,0.712,1.268,1.781c0.764,1.067,1.75,2.511,2.859,3.865
			c2.16,2.75,4.321,5.5,4.321,5.5l4.167-3.327c0,0-2.121-2.698-4.24-5.395c-1.088-1.328-2.056-2.746-2.805-3.792
			C79.025,454.577,78.527,453.878,78.527,453.878z"/>
		<path d="M67.176,436.894l-4.549,2.783c0,0,1.888,2.944,3.775,5.889c0.943,1.472,1.887,2.944,2.596,4.047
			c0.345,0.558,0.664,1.001,0.888,1.312c0.222,0.312,0.349,0.49,0.349,0.49l4.402-3.007c0,0-0.124-0.175-0.342-0.48
			c-0.219-0.305-0.533-0.739-0.871-1.287c-0.694-1.083-1.619-2.527-2.545-3.971C69.027,439.781,67.176,436.894,67.176,436.894z"/>
	</g>
	<g>
		<path d="M57.224,419.045l-4.743,2.435c0,0,0.398,0.778,0.996,1.946c0.607,1.163,1.375,2.735,2.213,4.27
			c1.744,3.033,3.487,6.065,3.487,6.065l4.615-2.67c0,0-1.71-2.974-3.421-5.948c-0.822-1.505-1.574-3.048-2.17-4.188
			C57.615,419.809,57.224,419.045,57.224,419.045z"/>
		<path d="M48.518,400.562l-4.914,2.071c0,0,0.07,0.208,0.234,0.554c0.157,0.349,0.383,0.847,0.652,1.444
			c0.54,1.195,1.261,2.789,1.98,4.383c1.445,3.186,2.889,6.372,2.889,6.372l4.803-2.317c0,0-1.416-3.125-2.832-6.25
			c-0.707-1.563-1.413-3.126-1.943-4.298c-0.266-0.586-0.486-1.075-0.641-1.417C48.586,400.766,48.518,400.562,48.518,400.562z"/>
		<path d="M41.365,381.425l-5.055,1.696c0,0,1.121,3.313,2.242,6.627c0.59,1.646,1.269,3.26,1.738,4.484
			c0.48,1.22,0.802,2.034,0.802,2.034l4.963-1.949c0,0-0.314-0.798-0.786-1.995c-0.461-1.201-1.127-2.783-1.706-4.397
			C42.465,384.675,41.365,381.425,41.365,381.425z"/>
		<path d="M35.545,361.841l-5.169,1.31c0,0,0.172,0.858,0.55,2.115c0.357,1.262,0.836,2.944,1.313,4.626
			c0.956,3.364,1.912,6.729,1.912,6.729l5.096-1.57c0,0-0.938-3.3-1.873-6.599c-0.469-1.65-0.938-3.299-1.289-4.537
			C35.713,362.683,35.545,361.841,35.545,361.841z"/>
		<path d="M31.334,341.848l-5.252,0.918c0,0,0.615,3.444,1.23,6.887c0.295,1.724,0.759,3.414,1.031,4.697
			c0.295,1.278,0.492,2.13,0.492,2.13l5.199-1.182c0,0-0.193-0.835-0.482-2.089c-0.268-1.258-0.724-2.915-1.014-4.606
			C31.938,345.226,31.334,341.848,31.334,341.848z"/>
		<path d="M28.508,321.61l-5.306,0.523c0,0,0.049,0.874,0.233,2.173c0.164,1.301,0.385,3.036,0.605,4.771
			c0.441,3.47,0.882,6.939,0.882,6.939l5.274-0.788c0,0-0.433-3.403-0.865-6.807c-0.217-1.702-0.433-3.403-0.595-4.679
			C28.556,322.467,28.509,321.61,28.508,321.61z"/>
		<path d="M27.331,301.214L22,301.343c0,0,0.09,3.496,0.178,6.991c0.082,1.746,0.251,3.487,0.34,4.795
			c0.099,1.308,0.165,2.18,0.165,2.18L28,314.916c0,0-0.064-0.855-0.162-2.138c-0.088-1.283-0.254-2.992-0.334-4.705
			C27.417,304.644,27.331,301.214,27.331,301.214z"/>
	</g>
</g>
</svg>
