<!-- icon666.com - MILLIONS vector ICONS FREE --><svg id="Capa_1" enable-background="new 0 0 512 512" viewBox="0 0 512 512" xmlns="http://www.w3.org/2000/svg"><g><path d="m447.942 215.91c2.331-3.525 3.695-7.738 3.7-12.264 0-156.104-163.663-255.093-294.399-175.536-8.472 5.155-.68 17.962 7.792 12.807 120.678-73.432 271.615 18.191 271.615 162.721-.005 4.089-3.386 7.415-7.536 7.415h-11.754c-2.044-9.451-4.805-18.688-8.23-27.373-.858-2.169-2.337-3.198-3.643-4.107-14.535-10.116-39.119-34.175-40.459-81.656-.357-12.659-15.732-18.801-26.304-12.004-19.915 12.834-26.998 9.905-53.295 9.052-69.289-2.245-96.564 24.511-119.148 80.832-4.285 10.685-17.88 24.008-25.714 27.161-4.203 1.024-23.481 1.229-36.306 8.094h-21.348c-4.15 0-7.531-3.326-7.536-7.406 0-56.139 23.744-108.926 65.145-144.824 7.493-6.496-2.328-17.824-9.821-11.326-44.687 38.748-70.316 95.662-70.316 156.159.005 4.522 1.369 8.732 3.699 12.256-11.739 9.903-18.74 24.605-18.74 40.265 0 30.054 25.211 54.108 55.227 52.591 7.987 22.625 20.514 43.125 36.241 60.134-22.413 19.704-39.647 44.622-50.049 72.547-12.926 34.655 13.289 70.552 49.261 70.552h142.51c9.917 0 9.917-14.991 0-14.991h-142.51c-26.12 0-44.304-25.951-35.212-50.323 9.659-25.931 25.738-49.041 46.677-67.219 61.896 55.982 154.452 56.783 217.076.014 20.929 18.184 36.999 41.289 46.654 67.208 9.092 24.371-9.096 50.32-35.213 50.32h-67.277c-9.917 0-9.917 14.991 0 14.991h67.277c35.966 0 62.188-35.893 49.261-70.548-10.401-27.923-27.634-52.843-50.047-72.557 16.354-17.723 28.749-38.507 36.615-61.304l8.794-.937c46.53-4.958 61.641-61.787 27.313-90.744zm-371.276 9.25c3.868 1.114 5.644.884 15.332.884-2.493 11.414-2.667 41.493 4.03 67.749-35.398-1.809-49.185-48.088-19.362-68.633zm303.146 113.696c-58.697 88.54-181.841 90.3-243.444 5.951-20.495-28.023-30.887-61.226-30.887-95.534 0-6.968 0-14.866 1.187-20.165 2.182-9.741 33.83-10.032 39.19-12.119 12.44-4.845 28.807-21.818 34.338-35.611 19.492-48.604 39.972-73.528 104.749-71.428 28.264.915 38.122 3.886 61.894-11.429 1.007-.648 2.633-.411 3.21-.007 1.234 42.077 19.866 74.105 45.918 92.689 17.862 47.295 13.517 102.898-16.155 147.653zm39.226-47.108-2.626.28c5.14-21.003 6.568-43.227 3.553-65.984 9.293 0 11.497.239 15.397-.884 27.67 19.062 18.733 62.852-16.324 66.588z"></path><path d="m256.014 158.38c-24.392 0-46.207 14.551-55.576 37.072-11.252 27.051 29.951 43.837 41.767 17.027 2.538-5.76 8.461-9.369 14.785-8.976 15.152.941 18.472 19.668 8.177 26.707-19.858 13.578-31.731 35.488-31.759 58.595l-.062 20.061c-.016 12.449 10.055 22.533 22.504 22.533 12.409 0 22.505-10.095 22.505-22.504v-10.04c0-13.316 5.977-26.036 16.398-34.899 43.048-36.605 16.572-105.576-38.739-105.576zm29.027 94.155c-13.777 11.715-21.678 28.598-21.678 46.319v10.04c0 6.714-8.14 10.004-12.829 5.309-2.939-2.943-2.201-4.156-2.134-25.366.022-18.175 9.454-35.466 25.23-46.253 22.429-15.336 13.149-54.102-17.564-54.102-11.842 0-22.767 7.037-27.578 17.95-3.953 8.973-17.887 3.62-14.207-5.222 7.035-16.911 23.417-27.839 41.734-27.839 41.251 0 61.631 51.437 29.026 79.164z"></path><path d="m256.014 346.507c-12.431 0-22.546 10.114-22.546 22.546s10.114 22.546 22.546 22.546c12.431 0 22.546-10.114 22.546-22.546s-10.114-22.546-22.546-22.546zm0 30.101c-4.166 0-7.554-3.389-7.554-7.555s3.389-7.555 7.554-7.555c4.166 0 7.554 3.389 7.554 7.555.001 4.166-3.388 7.555-7.554 7.555z"></path></g></svg>