<!-- icon666.com - MILLIONS vector ICONS FREE --><svg id="Capa_1" enable-background="new 0 0 512 512" viewBox="0 0 512 512" xmlns="http://www.w3.org/2000/svg"><g><path d="m413.204 301.288c61.064 1.093 74.403-85.878 15.837-103.202.195-3.048.136-.718.136-45.617 0-117.739-146.18-190.774-260.94-131.358-8.815 4.564-1.918 17.885 6.898 13.323 104.233-53.964 239.039 11.101 239.039 118.036 0 43.577.333 44.476-.881 50.688-3.852-4.791-9.64-7.882-16.06-8.136-14.297-.566-43.615-2.766-79.331-11.14-4.035-.946-8.07 1.558-9.016 5.591-.945 4.033 1.558 8.07 5.591 9.015 36.932 8.659 67.329 10.937 82.162 11.524 3.037.12 5.63 2.299 6.308 5.3 21.327 94.458-50.471 185.931-150.019 183.921-89.389-1.784-158.174-80.976-146.255-170.643.358-2.695 2.329-4.921 5.032-5.653 32.41-8.788 62.916-28.32 87.76-50.525 7.859-7.024 19.057-8.624 28.527-4.078 17.515 8.406 36.227 15.727 55.619 21.758 9.478 2.948 13.934-11.378 4.456-14.326-18.697-5.815-36.725-12.867-53.583-20.958-14.953-7.178-32.623-4.658-45.016 6.417-18.322 16.376-47.354 37.859-81.686 47.231-2.411.654-4.632 1.701-6.618 3.048-4.436-11.104-3.343-16.751-3.343-59.035 0-38.421 18.75-75.354 51.443-101.328 7.77-6.173-1.564-17.921-9.333-11.746-36.296 28.837-57.113 70.051-57.113 113.074 0 45.045-.055 42.589.139 45.611-58.61 17.363-45.192 104.379 15.924 103.206 7.988 23.888 21.543 46.192 40.632 65.087-23.815 20.087-42.026 45.85-52.892 75.023-12.936 34.682 13.298 70.604 49.297 70.604h240.161c35.994 0 62.233-35.919 49.296-70.6-10.843-29.106-29.003-54.826-52.745-74.904 18.727-18.514 32.482-40.786 40.574-65.208zm4.226-15.139c4.389-19.22 5.449-39.592 2.72-59.846 2.572-4.224 4.613-8.708 6.099-13.37 38.435 13.095 31.633 69.703-8.819 73.216zm-331.681-73.22c1.487 4.664 3.533 9.145 6.107 13.366-2.539 17.153-2.081 38.89 2.761 59.858-40.495-3.462-47.332-60.097-8.868-73.224zm221.7 193.301c-12.32 50.81-90.719 50.739-102.926-.098 34.007 11.078 70.47 10.585 102.926.098zm-156.716-29.707c11.551 9.539 24.222 17.385 37.696 23.407 2.263 30.85 27.772 55.744 60.068 59.12v37.948h-90.427v-30.042c0-12.409-10.095-22.504-22.504-22.504h-34.028c10.292-26.478 27.192-49.822 49.195-67.929zm-52.428 82.931h37.261c4.136 0 7.501 3.365 7.501 7.501v30.042h-7.15c-21.941 0-37.739-18.1-37.612-37.543zm277.774 37.543h-7.15v-30.042c0-4.137 3.365-7.501 7.501-7.501h37.261c.127 19.421-15.646 37.543-37.612 37.543zm34.379-52.545h-34.028c-12.409 0-22.504 10.095-22.504 22.504v30.042h-90.426v-37.948c32.249-3.371 57.731-28.199 60.057-58.988 13.524-6.006 26.245-13.853 37.852-23.423 21.93 18.098 38.78 41.401 49.049 67.813z"></path><path d="m193.541 214.174c-4.143 0-7.501 3.358-7.501 7.501v12.002c0 4.143 3.358 7.501 7.501 7.501s7.501-3.358 7.501-7.501v-12.002c.001-4.143-3.358-7.501-7.501-7.501z"></path><path d="m325.961 233.677v-12.002c0-4.143-3.358-7.501-7.501-7.501s-7.501 3.358-7.501 7.501v12.002c0 4.143 3.358 7.501 7.501 7.501s7.501-3.358 7.501-7.501z"></path><path d="m266.813 228.392c-5.726 6.569-15.899 6.569-21.625 0-2.722-3.124-7.461-3.449-10.583-.726-3.123 2.722-3.448 7.46-.726 10.583 11.701 13.426 32.543 13.426 44.244 0 2.722-3.123 2.397-7.861-.726-10.583-3.123-2.723-7.862-2.399-10.584.726z"></path></g></svg>