<!-- icon666.com - MILLIONS vector ICONS FREE --><svg id="Capa_1" enable-background="new 0 0 512 512" viewBox="0 0 512 512" xmlns="http://www.w3.org/2000/svg"><g><path d="m459.479 229.184c49.273-42.291 43.126-107.308-60.486-145.633-3.42-62.077-107.286-99.086-196.943-77.229-9.64 2.35-6.087 16.927 3.553 14.574 78.644-19.173 167.566 10.697 177.583 57.304-76.985-23.944-177.291-23.944-254.276 0 3.932-18.383 20.689-35.299 47.328-47.33 9.044-4.084 2.87-17.755-6.174-13.671-34.929 15.774-55.5 39.825-56.963 66.352-57.561 21.292-90.448 53.787-90.448 89.636 0 19.898 10.331 39.141 29.953 55.987-2.698 4.536-4.734 9.516-5.97 14.817-40.75 56.559 6.167 103.565 11.708 108.79 17.567 16.457 17.474 35.469 11.925 56.292-3.97 14.897 2.447 30.523 14.645 38.074-8.245 32.898 17.15 64.853 51.066 64.853h149.851c9.923 0 9.923-15.001 0-15.001h-135.232l-.016-113.292c13.726 11.33 28.794 20.245 45.379 26.704-5.227 84.438 125.398 84.438 120.171 0 16.585-6.459 31.653-15.374 45.379-26.704l-.016 113.292h-44.887c-9.923 0-9.923 15.001 0 15.001h59.506c33.89 0 59.319-31.93 51.067-64.854 12.198-7.552 18.615-23.177 14.645-38.074-4.609-17.294-3.874-26.551-2.448-31.269 9.719-32.13 72.919-68.796 26.082-133.81-1.239-5.295-3.28-10.273-5.982-14.809zm-398.499 19.403c3.26-16.374 17.142-28.746 33.742-30.126-5.762 24.835-5.718 50.45-.004 75.088-22.144-1.872-38.215-22.736-33.738-44.962zm46.045-45.415c2.567-21.266 16.723-39.456 36.56-46.711 70.24-25.668 147.678-28.68 221.024-3.821 22.099 7.485 37.812 27.17 40.483 50.47-30.443-1.309-51.545-7.854-74.863-28.229-15.599-13.632-37.972-15.413-55.673-4.437-50.423 31.273-104.166 32.278-167.531 32.728zm309.512 15.147c.314.069.632.125.961.154 18.916 1.646 34.353 17.619 34.353 37.541 0 19.692-15.182 35.894-34.451 37.535 6.267-27.01 5.39-50.961-.863-75.23zm-293.508-122.405c146.081-50.63 351.412-1.813 351.412 77.274 0 18.6-12.282 33.829-24.392 44.323-8.067-7.515-18.45-12.52-29.824-13.828-2.537-30.046-22.473-55.655-50.804-65.25-76.931-26.075-158.007-22.731-230.989 3.939-25.854 9.456-44.08 33.498-46.538 61.302-11.401 1.306-21.794 6.308-29.864 13.825-55.245-47.89-9.382-96.937 60.999-121.585zm-54.409 245.938c-2.225-2.098-13.631-13.4-19.657-29.924-4.749-13.024-5.011-25.982-.828-38.73 7.263 20.987 27.377 35.946 50.851 35.48 7.73 23.061 20.281 43.791 36.678 61.117-19.495 17.423-34.989 38.852-45.373 62.742-5.092-4.588-7.492-12.23-5.528-19.602 7.353-27.593 4.694-51.557-16.143-71.083zm66.978 48.891v106.245c-38.405-.372-57.677-45.217 0-106.245zm75.269 24.663c28.896 8.169 60.414 8.467 90.362 0-1.609 58.165-88.754 58.165-90.362 0zm94.468-17.013c-113.303 39.202-225.183-64.182-195.11-180.243 62.951-.447 119.167-2.045 172.237-34.958 12.062-7.481 27.291-6.282 37.895 2.984 24.909 21.766 48.211 29.824 80.533 31.738 19.583 70.076-13.291 148.868-95.555 180.479zm71.162 98.595v-106.245c56.473 59.754 39.678 105.861 0 106.245zm86.634-185.06c-11.483 31.49-27.762 27.313-38.112 61.533-2.895 9.575-2.116 22.855 2.312 39.474 1.964 7.371-.436 15.013-5.528 19.602-10.386-23.89-25.879-45.319-45.374-62.742 16.358-17.283 28.923-37.992 36.686-61.116 23.41.461 43.561-14.438 50.843-35.48 4.184 12.746 3.922 25.705-.827 38.729z"></path><path d="m193.595 233.453c-4.143 0-7.501 3.358-7.501 7.5v12.001c0 4.142 3.358 7.5 7.501 7.5s7.5-3.358 7.5-7.5v-12.001c.001-4.142-3.357-7.5-7.5-7.5z"></path><path d="m318.5 233.453c-4.143 0-7.5 3.358-7.5 7.5v12.001c0 4.142 3.358 7.5 7.5 7.5 4.143 0 7.5-3.358 7.5-7.5v-12.001c0-4.142-3.357-7.5-7.5-7.5z"></path><path d="m277.441 246.943c-3.124-2.722-7.863-2.396-10.583.727-5.724 6.567-15.896 6.567-21.621 0-2.723-3.124-7.46-3.448-10.583-.727-3.122 2.721-3.448 7.459-.727 10.582 11.698 13.425 32.541 13.425 44.239 0 2.723-3.123 2.397-7.861-.725-10.582z"></path></g></svg>