<?xml version="1.0" encoding="utf-8"?>
<!-- Generator: Adobe Illustrator 16.0.3, SVG Export Plug-In . SVG Version: 6.00 Build 0)  -->
<!DOCTYPE svg PUBLIC "-//W3C//DTD SVG 1.1//EN" "http://www.w3.org/Graphics/SVG/1.1/DTD/svg11.dtd">
<svg version="1.1" id="Capa_1" xmlns="http://www.w3.org/2000/svg" xmlns:xlink="http://www.w3.org/1999/xlink" x="0px" y="0px"
	 width="595.28px" height="595.28px" viewBox="0 0 595.28 595.28" enable-background="new 0 0 595.28 595.28" xml:space="preserve">
<g>
	<path fill-rule="evenodd" clip-rule="evenodd" d="M322.314,313.355c-34.118-0.933-67.436-0.999-100.752-0.912
		c-6.659,0.018-13.318,0.046-19.978,0.082c-0.375,0.131-0.8,0.133-1.176,0.006c-20.298,0.11-40.595,0.286-60.893,0.436
		c-0.285,0.002-0.627,0.375-0.835,0.655c-0.221,0.296-0.312,0.689-1.006,2.331c9.044,1.51,6.838,8.587,6.856,14.698
		c0.058,19.778,0.003,39.558,0.063,59.335c0.013,4.049,0.336,8.097,0.551,12.911c4.82-0.342,8.401-0.598,12.702-0.902v-69.64
		h145.318c1.262,23.172-0.272,46.229,0.929,69.745h12.347c0.203-4.388,0.516-8.123,0.524-11.858
		c0.04-19.018-0.029-38.036,0.002-57.053C316.977,326.375,315.633,319.203,322.314,313.355z"/>
	<g>
		<path d="M379.116,342.856c-1.85-7.592-3.696-15.185-5.619-22.76c-3.528-13.902-7.037-27.707-13.308-40.662
			c-4.536-9.369-10.834-20.918-22.95-19.239c-4.017,0.557-7.787,3.154-9.954,6.517c-1.576,2.445-1.754,5.419-1.399,8.317
			c0.541-0.541,1.082-1.082,1.624-1.623c0.1-0.1,0.203-0.179,0.31-0.246c-0.022-2.623,0.646-5.132,2.663-7.321
			c3.809-4.135,10.377-4.891,15.24-2.462c4.994,2.494,8.35,8.372,10.761,13.113c2.855,5.612,5.529,11.299,7.616,17.246
			c3.752,10.696,6.246,21.969,8.99,32.956c1.388,5.559,2.736,11.13,4.092,16.697c1.086,4.46,0.969,8.975,1.132,13.527
			c-22.317-2.835-44.816-3.962-67.132-6.798c-0.005-6.691-0.039-13.382,0.021-20.073c0.027-3.031,1.121-3.045,3.792-3.99
			c1.815-0.643,3.682-1.172,5.452-1.935c3.151-1.356,5.123-5.743,6.373-8.774c1.078-2.613,0.037-5.384-1.256-7.887h-2.273
			c0.884,1.615,1.721,3.303,1.95,5.086c0.279,2.165-1.349,4.3-2.44,6.01c-1.546,2.422-2.5,3.546-5.155,4.479
			c-1.804,0.633-3.624,1.212-5.406,1.91c-3.5,1.372-3.022,2.763-3.056,6.43c-0.059,6.542-0.01,13.085-0.008,19.628
			c0,0.601,0.461,0.934,1.003,1.004c22.993,2.976,46.188,4.065,69.182,7.043c0.429,0.056,0.709-0.135,0.849-0.417
			c0.105-0.15,0.166-0.347,0.154-0.587C380.115,352.922,380.337,347.868,379.116,342.856z"/>
	</g>
	<g>
		<path d="M152.68,326.787c-5.411-1.355-11.024-2.019-16.513-2.985c-1.25-0.221-2.499-0.453-3.744-0.705
			c-1.645-0.332-0.785-2.224-0.818-3.936c-0.106-5.417,0.837-10.583,1.766-15.892c0.085-0.488-0.066-0.842-0.461-1.133
			c-0.449-0.332-0.898-0.662-1.346-0.994c-0.313,0.616-0.583,1.248-0.793,1.904c0.977,0.802,0.06,3.037-0.109,3.947
			c-1.04,5.613-1.039,11.044-0.995,16.732c0.003,0.439,0.303,0.859,0.737,0.968c5.41,1.356,11.023,2.019,16.512,2.986
			c1.251,0.22,2.5,0.454,3.745,0.704c1.611,0.326,0.75,1.877,0.75,3.587c0,1.394,0.417,15.398-0.013,15.476
			c-7.321,1.335-15.095,0.99-22.492,0.707c-7.088-0.271-15.873,0.009-22.495-2.819c-8.601-3.673-9.281-15.694-9.921-23.564
			c-0.876-10.78,0.359-21.625,2.936-32.098c2.607-10.6,6.198-21.6,16.215-27.322c5.167-2.952,11.381-2.003,15.872,1.714
			c1.777,1.471,2.769,3.349,3.228,5.387c0.375,0.159,0.671,0.493,0.757,1.051c0.393,2.544,0.458,5.083,0.458,7.653
			c0,0.18-0.032,0.339-0.076,0.489c0.228-0.104,0.417-0.302,0.493-0.627c1.43-6.028,0.768-11.887-4.221-16.018
			c-5.909-4.893-13.641-3.999-19.697-0.056c-7.533,4.903-10.764,13.242-13.346,21.43c-3.008,9.534-4.602,19.479-4.868,29.465
			c-0.362,13.582,0.385,33.381,17.135,35.841c13.268,1.948,28.045,2.985,41.306,0.565c0.434-0.079,0.736-0.551,0.736-0.968v-20.522
			C153.417,327.316,153.112,326.895,152.68,326.787z"/>
	</g>
	<path fill-rule="evenodd" clip-rule="evenodd" d="M168.471,306.657c-0.381-0.051-0.691-0.206-0.93-0.422
		c-1.585,0.358-3.169,0.715-4.756,1.073c1.881,1.137,3.683,1.402,5.488,1.428c10.374,0.153,20.727-0.468,31.11-0.448v-2.028
		C189.51,308.88,178.424,307.967,168.471,306.657z"/>
	<path fill-rule="evenodd" clip-rule="evenodd" d="M262.005,308.263v-37.884c-2.999,0.206-6.001-0.035-6.34,0.803
		c-2.942,7.238-9.028,5.562-14.462,5.648c-6.829,0.106-13.661,0.033-20.492,0.006c-4.17-0.015-8.106,0.213-10.543-4.693
		c-1.378-2.777-4.15-2.639-7.574-0.622v36.797c3.612,0.059,7.228,0.209,10.852,0.517c12.808,1.089,25.83,0.92,38.667,0.015
		c3.309-0.234,6.612-0.357,9.911-0.42C262.017,308.373,262.005,308.321,262.005,308.263z"/>
	<path fill-rule="evenodd" clip-rule="evenodd" d="M265.217,305.023v3.24c0,0.043-0.009,0.082-0.012,0.124
		c7.682-0.054,15.349,0.188,23.032,0.261c3.132,0.029,6.272,0.079,9.496-0.123v-1.867c-3.478,0.047-7.145,0.504-10.78,0.649
		C279.452,307.868,271.716,308.152,265.217,305.023z"/>
	<path fill-rule="evenodd" clip-rule="evenodd" d="M83.241,389.506c-1.529,4.807-2.664,8.378-3.977,12.508c-2.078,0-4.199,0-6.564,0
		c-0.347-0.937-1.129-1.995-1.04-2.975c0.648-7.152,1.353-14.306,2.261-21.429c4.257-33.396,2.041-66.584-2.996-99.695
		c-0.274-1.806-0.417-3.63-0.623-5.462c1.418-0.719,2.352-1.472,3.383-1.649c1.438-0.246,2.947-0.061,4.937-0.061
		c6.68,27.291,6.537,47.382,6.601,75.122c8.637,3.442,14.078,1.472,22.217,1.822c8.25,0.357,19.48,0.698,28.679,0.698
		c-0.879,8.777-1.937,23.215-2.329,30.897c-0.382,7.485-0.083,15.005-0.083,22.5c-8.676-0.202-8.676-0.202-10.785-12.181
		C110.168,388.792,97.098,389.069,83.241,389.506z M121.864,384.231c0.308-7.858,0.308-7.858,0.5-18.987
		c-12.102-0.965-24.372-1.216-37.347,0.279c-0.593,6.525-1.116,12.288-1.698,18.708C97.153,384.231,109.532,384.231,121.864,384.231
		z"/>
	<path fill-rule="evenodd" clip-rule="evenodd" d="M384.218,357.657c-0.448-30.839-0.866-57.092,6.472-86.973
		c3.036,0.367,5.462,0.662,8.783,1.064c-8.076,43.455-8.172,86.408-1.118,130.154c-3.66,0.25-5.771,0.393-8.316,0.568
		c-1.241-4.143-2.411-8.039-3.764-12.556c-13.342,0-26.432,0-40.176,0c-0.688,3.993-1.308,7.596-2.08,12.076
		c-2.256,0.224-4.715,0.466-6.89,0.681c-0.769-1.043-1.565-1.621-1.585-2.225c-0.46-13.942-0.833-30.691-1.258-45.857
		C350.4,353.375,366.147,358.07,384.218,357.657z M384.132,365.406c-13.19-0.971-25.783-1.622-38.484,0.248
		c0,6.669,0,12.195,0,17.553c11.426,2.38,31.296,2.164,40.574-0.535C385.572,377.303,384.903,371.781,384.132,365.406z"/>
	<path fill-rule="evenodd" clip-rule="evenodd" d="M201.946,336.092c5.753-1.82,8.535-0.603,8.788,4.598
		c0.216,4.441,0.469,8.88,0.732,13.86c14.306,0,27.487,0,41.792,0c0.52-6.017,1.031-11.912,1.543-17.807
		c7.56-1.893,9.249-1.602,8.769,4.602c-1.548,20.042-0.545,37.019-0.082,55.53c0.132,5.253-2.812,6.545-8.145,5.112
		c-0.71-3.63-1.473-7.531-2.363-12.085c-13.469,0-29.635-0.683-43.564-0.683c-0.925,3.946,1.177,8.529,0.163,12.863
		c-2.301,0-4.424,0-6.633,0c-0.441-1.274-1.103-2.317-1.118-3.369c-0.137-9.122-0.053-18.36-0.549-27.3
		C200.595,359.059,202.724,348.229,201.946,336.092z M253.596,384.102c0.247-4.032,0.573-6.648,0.523-9.257
		c-0.054-2.921-0.448-5.836-0.676-8.548c-12.315-2.694-33.591-2.294-41.811,0.673c0,5.454,0,10.947,0,17.132
		C225.827,384.102,239.208,384.102,253.596,384.102z"/>
	<g>
		<path d="M305.037,232.573c0.149-11.922,8.402-20.358,20.397-19.86c10.659,0.444,19.479,6.927,20.463,17.912
			c1.063,11.873-8.535,21.702-20.108,22.252C314.043,253.436,305.405,243.835,305.037,232.573c-0.042-1.29-2.05-1.294-2.007,0
			c0.417,12.777,9.894,22.301,22.76,22.312c13.022,0.01,22.721-11.711,22.115-24.26c-0.599-12.395-11.024-19.08-22.471-19.919
			c-13.088-0.959-22.247,9.201-22.405,21.867C303.014,233.869,305.021,233.867,305.037,232.573z"/>
	</g>
	<g>
		<path d="M163.796,235.614c-0.327,11.146-8.353,19.575-19.527,20.207c-11.905,0.674-21.269-9.253-21.374-20.8
			c-0.104-11.418,9.894-20.2,20.894-20.323C155.519,214.565,163.623,224.458,163.796,235.614c0.021,1.293,2.027,1.295,2.008,0
			c-0.191-12.271-8.57-21.849-20.919-22.883c-12.94-1.083-23.484,9.815-23.997,22.29c-0.519,12.604,10.182,22.363,22.277,22.819
			c12.722,0.479,22.279-9.971,22.639-22.225C165.842,234.319,163.834,234.322,163.796,235.614z"/>
	</g>
	<g>
		<path d="M156.331,301.822c-13.274-0.295-27.137-3.236-35.289-14.694c-3.567-5.016-7.869-14.74,0.216-17.66
			c6.439-2.327,7.698,7.464,10.633,11.103c5.532,6.861,14.034,8.383,22.383,8.923c3.37,0.218,6.739,0.071,10.11-0.038
			c3.633-0.117,8.351-0.725,10.053,3.36C178.53,302.64,161.415,301.497,156.331,301.822c-1.285,0.082-1.292,2.09,0,2.007
			c6.056-0.387,15.867,1.05,19.572-5.04c2.694-4.43-0.194-9.759-4.721-11.096c-3.9-1.151-8.845-0.138-12.854-0.085
			c-3.926,0.051-7.922-0.306-11.781-1.014c-8.029-1.474-13.764-6.115-16.482-13.863c-1.884-5.368-6.78-6.639-11.631-4.215
			c-5.702,2.849-3.889,10.188-1.818,14.729c7.132,15.641,23.803,20.231,39.715,20.584
			C157.626,303.858,157.624,301.851,156.331,301.822z"/>
	</g>
	<g>
		<path d="M295.581,295.853c-5.272-2.917-1.654-8.369,3.125-8.691c3.292-0.221,6.66,0.663,9.917,1.083
			c4.802,0.619,9.761,0.526,14.408-0.911c3.604-1.115,6.947-3.545,9.131-6.616c1.727-2.428,2.613-5.376,4.47-7.684
			c2.065-2.564,5.516-1.729,7.704,0.105c1.749,1.464,1.087,4.06,0.562,5.857c-3.097,10.604-13.825,18.727-24.746,19.523
			c-3.891,0.284-7.944-0.244-11.812-0.609c-4.32-0.408-8.849-0.807-12.999-2.158c-1.235-0.402-1.759,1.537-0.534,1.936
			c5.215,1.698,11.022,2.039,16.453,2.489c5.369,0.445,10.033,0.522,15.247-0.983c6.201-1.79,11.587-5.516,15.527-10.599
			c3.092-3.99,7.233-10.896,4.469-15.958c-2.465-4.516-9.591-4.043-12.115,0.011c-2.169,3.483-3.414,6.973-6.571,9.801
			c-3.193,2.861-7.625,3.829-11.77,4.097c-6.918,0.448-15.449-3.577-21.828-0.169c-4.778,2.552-4.25,8.666,0.349,11.21
			C295.701,298.212,296.713,296.479,295.581,295.853z"/>
	</g>
</g>
<g>
	<g>
		<path fill-rule="evenodd" clip-rule="evenodd" d="M548.45,263.921c-0.253-1.571-0.293-3.168-0.595-4.746
			c-0.325-1.694-0.552-3.403-1.085-5.052c-0.229-0.714-0.303-1.465-0.584-2.178c-0.331-0.841-0.472-1.755-0.749-2.621
			c-0.288-0.894-0.64-1.768-0.964-2.651c-0.299-0.814-0.598-1.628-0.896-2.442c-0.013-0.038-0.015-0.079-0.031-0.114
			c-0.28-0.595-0.564-1.188-0.843-1.783c-0.074-0.158-0.124-0.329-0.204-0.485c-0.292-0.579-0.599-1.148-0.888-1.727
			c-0.257-0.517-0.473-1.056-0.755-1.558c-0.507-0.899-1.043-1.781-1.582-2.662c-0.53-0.866-1.065-1.729-1.623-2.58
			c-0.44-0.669-0.903-1.323-1.378-1.969c-0.626-0.852-1.27-1.691-1.914-2.531c-0.392-0.514-0.774-1.035-1.197-1.521
			c-0.435-0.499-0.921-0.949-1.368-1.436c-0.483-0.527-0.921-1.096-1.419-1.607c-0.749-0.767-1.531-1.502-2.298-2.251
			c-0.454-0.441-0.9-0.892-1.363-1.323c-0.432-0.404-0.875-0.795-1.326-1.178c-0.334-0.285-0.685-0.546-1.03-0.818
			c-0.808-0.634-1.608-1.279-2.426-1.898c-0.61-0.461-1.233-0.907-1.869-1.331c-1.098-0.731-2.204-1.447-3.315-2.155
			c-0.756-0.481-1.512-0.966-2.295-1.4c-1.055-0.583-2.128-1.13-3.208-1.665c-0.825-0.409-1.667-0.785-2.511-1.152
			c-0.862-0.374-1.726-0.739-2.603-1.075c-0.759-0.291-1.536-0.541-2.31-0.795c-0.24-0.079-0.534-0.049-0.734-0.176
			c-0.619-0.391-1.342-0.461-1.998-0.73c-0.548-0.225-1.138-0.356-1.714-0.506c-0.805-0.208-1.618-0.396-2.428-0.589
			c-0.96-0.23-1.944-0.323-2.91-0.56c-1.223-0.298-2.49-0.413-3.741-0.59c-0.425-0.061-0.856-0.076-1.284-0.111
			c-1.419-0.115-2.837-0.299-4.256-0.331c-2.046-0.044-4.087-0.043-6.141,0.114c-2.606,0.201-5.207,0.367-7.783,0.831
			c-0.191,0.034-0.406,0.01-0.578,0.083c-1.047,0.452-2.208,0.356-3.285,0.747c-1.196,0.434-2.487,0.599-3.728,0.915
			c-0.581,0.147-1.144,0.363-1.708,0.564c-0.738,0.264-1.455,0.6-2.207,0.807c-0.993,0.272-1.916,0.683-2.834,1.127
			c-0.294,0.143-0.645,0.164-0.943,0.298c-0.572,0.258-1.122,0.569-1.688,0.838c-0.572,0.271-1.158,0.509-1.729,0.777
			c-0.4,0.187-0.796,0.381-1.18,0.599c-0.882,0.5-1.754,1.021-2.632,1.528c-0.399,0.231-0.823,0.429-1.205,0.686
			c-0.649,0.432-1.271,0.903-1.911,1.349c-0.569,0.395-1.155,0.764-1.719,1.165c-0.739,0.528-1.526,0.994-2.186,1.635
			c-0.312,0.301-0.704,0.517-1.046,0.788c-0.329,0.26-0.641,0.541-0.959,0.816c-0.458,0.398-0.912,0.801-1.37,1.199
			c-0.331,0.286-0.678,0.555-0.996,0.855c-0.664,0.627-1.317,1.268-1.966,1.91c-0.427,0.421-0.856,0.842-1.26,1.288
			c-0.595,0.66-1.168,1.341-1.749,2.015c-0.562,0.649-1.13,1.292-1.679,1.951c-0.46,0.555-0.902,1.126-1.343,1.697
			c-0.399,0.519-0.815,1.03-1.177,1.576c-0.667,1.003-1.302,2.027-1.945,3.047c-0.638,1.016-1.301,2.021-1.891,3.063
			c-0.517,0.916-0.957,1.875-1.421,2.82c-0.211,0.431-0.394,0.874-0.599,1.307c-0.302,0.64-0.625,1.271-0.917,1.917
			c-0.217,0.485-0.401,0.988-0.595,1.483c-0.325,0.818-0.67,1.628-0.962,2.457c-0.37,1.05-0.71,2.111-1.032,3.178
			c-0.365,1.215-0.729,2.435-1.032,3.667c-0.269,1.087-0.458,2.193-0.673,3.293c-0.058,0.288-0.081,0.582-0.127,0.871
			c-0.131,0.798-0.304,1.591-0.395,2.394c-0.134,1.205-0.227,2.415-0.314,3.623c-0.103,1.399-0.242,2.8-0.258,4.2
			c-0.018,1.631-0.014,3.256,0.153,4.892c0.23,2.259,0.245,4.54,0.7,6.777c0.061,0.305,0.071,0.622,0.132,0.929
			c0.146,0.76,0.314,1.518,0.463,2.278c0.086,0.439,0.122,0.891,0.234,1.323c0.253,0.96,0.547,1.911,0.807,2.871
			c0.132,0.49,0.19,1,0.346,1.481c0.248,0.762,0.554,1.505,0.825,2.258c0.169,0.469,0.322,0.942,0.477,1.416
			c0.12,0.369,0.201,0.753,0.348,1.112c0.28,0.688,0.603,1.36,0.896,2.045c0.25,0.582,0.455,1.182,0.729,1.751
			c0.469,0.976,0.973,1.933,1.463,2.899c0.264,0.518,0.516,1.044,0.801,1.549c0.29,0.515,0.616,1.006,0.922,1.511
			c0.218,0.36,0.415,0.736,0.644,1.089c0.527,0.813,1.064,1.619,1.604,2.422c0.296,0.441,0.61,0.873,0.919,1.305
			c0.386,0.54,0.771,1.081,1.167,1.614c0.45,0.602,0.892,1.21,1.37,1.79c0.483,0.585,1.009,1.135,1.507,1.707
			c0.415,0.475,0.799,0.979,1.23,1.438c0.507,0.539,1.056,1.039,1.577,1.563c0.428,0.427,0.83,0.881,1.268,1.298
			c0.456,0.433,0.94,0.835,1.413,1.25c0.64,0.563,1.277,1.13,1.924,1.688c0.518,0.449,1.037,0.899,1.573,1.325
			c0.552,0.44,1.12,0.86,1.693,1.272c0.447,0.323,0.915,0.619,1.371,0.929c0.863,0.587,1.711,1.199,2.593,1.756
			c0.779,0.491,1.6,0.917,2.398,1.377c0.794,0.46,1.569,0.952,2.373,1.388c0.755,0.406,1.535,0.765,2.311,1.129
			c0.758,0.358,1.516,0.719,2.29,1.037c0.907,0.373,1.825,0.72,2.743,1.066c-0.519-4.721-0.354-9.641,1.471-13.614
			c-0.499-0.208-1-0.412-1.487-0.644c-0.515-0.246-1.01-0.541-1.511-0.816c-0.388-0.212-0.771-0.436-1.162-0.641
			c-1.175-0.618-2.324-1.276-3.399-2.064c-0.669-0.49-1.38-0.919-2.056-1.399c-0.592-0.419-1.162-0.868-1.738-1.31
			c-0.394-0.303-0.795-0.597-1.169-0.924c-0.515-0.451-1.003-0.93-1.507-1.395c-0.44-0.409-0.898-0.8-1.323-1.223
			c-0.486-0.483-0.941-0.996-1.415-1.491c-0.395-0.412-0.814-0.801-1.188-1.23c-0.565-0.648-1.101-1.321-1.645-1.986
			c-0.388-0.471-0.776-0.943-1.154-1.422c-0.261-0.327-0.525-0.652-0.759-0.998c-0.472-0.702-0.886-1.445-1.395-2.117
			c-0.855-1.135-1.513-2.383-2.193-3.622c-0.44-0.803-0.898-1.599-1.303-2.42c-0.298-0.604-0.512-1.249-0.778-1.869
			c-0.274-0.632-0.569-1.254-0.852-1.882c-0.016-0.035-0.029-0.072-0.041-0.108c-0.287-0.887-0.564-1.775-0.856-2.66
			c-0.245-0.743-0.517-1.476-0.754-2.221c-0.101-0.315-0.137-0.65-0.218-0.972c-0.322-1.283-0.533-2.588-0.805-3.879
			c-0.334-1.596-0.364-3.215-0.604-4.811c-0.427-2.845-0.269-5.688-0.153-8.532c0.048-1.202,0.232-2.402,0.411-3.595
			c0.218-1.459,0.476-2.912,0.754-4.36c0.151-0.796,0.352-1.583,0.578-2.362c0.326-1.127,0.672-2.25,1.051-3.36
			c0.31-0.912,0.667-1.811,1.032-2.703c0.37-0.908,0.744-1.817,1.171-2.699c0.407-0.837,0.884-1.639,1.33-2.458
			c0.229-0.421,0.438-0.855,0.683-1.266c0.521-0.87,1.047-1.737,1.598-2.589c0.57-0.882,1.154-1.76,1.768-2.613
			c0.51-0.711,1.074-1.384,1.617-2.078c0.726,0.696,1.438,1.361,2.129,2.05c0.418,0.417,0.792,0.879,1.204,1.303
			c0.639,0.66,1.295,1.303,1.939,1.958c0.616,0.626,1.222,1.266,1.842,1.888c0.337,0.338,0.749,0.613,1.029,0.99
			c0.341,0.458,0.779,0.797,1.168,1.197c0.695,0.716,1.341,1.477,2.106,2.133c0.665,0.57,1.213,1.274,1.825,1.909
			c0.597,0.621,1.207,1.23,1.813,1.843c0.322,0.326,0.653,0.643,0.968,0.976c0.644,0.685,1.262,1.394,1.921,2.064
			c0.628,0.64,1.308,1.229,1.94,1.866c0.645,0.649,1.251,1.336,1.889,1.991c0.415,0.424,0.867,0.809,1.284,1.231
			c0.671,0.677,1.323,1.373,1.989,2.054c0.454,0.462,0.931,0.902,1.38,1.369c0.462,0.479,0.894,0.987,1.355,1.466
			c0.423,0.439,0.872,0.852,1.3,1.282c0.496,0.497,0.973,1.009,1.471,1.501c0.648,0.641,1.317,1.263,1.964,1.908
			c0.435,0.434,0.841,0.893,1.262,1.337c0.09,0.096,0.201,0.173,0.285,0.274c0.129,0.155,0.243,0.322,0.437,0.586h-0.941
			c-8.145,0-16.288-0.001-24.43,0c-0.212,0-0.426,0.019-0.638,0.028c0.253,0.008,0.506,0.023,0.759,0.023
			c8.012,0.001,16.024,0.001,24.035,0.002c0.371,0,0.742,0.008,1.113,0.025c0.399,0.018,0.824,0.408,0.936,0.842
			c0.363,0.295,0.744,0.572,1.083,0.89c0.542,0.507,1.063,1.038,1.583,1.567c0.413,0.418,0.806,0.856,1.217,1.275
			c0.508,0.516,1.032,1.015,1.538,1.531c0.582,0.596,1.151,1.204,1.729,1.806c0.478,0.497,0.939,1.012,1.445,1.48
			c0.273,0.253,0.367,0.523,0.361,0.875c-0.014,0.82-0.006,1.64-0.008,2.46c0.022-0.697,0.045-1.394,0.063-2.091
			c0.006-0.193,0.001-0.388,0.001-0.705c0.185,0.165,0.293,0.252,0.392,0.35c0.78,0.772,1.563,1.542,2.334,2.323
			c0.335,0.34,0.635,0.716,0.967,1.061c0.375,0.391,0.769,0.765,1.147,1.154c0.092,0.095,0.158,0.219,0.236,0.328
			c0.065-0.024,0.182-0.08,0.189-0.068c0.474,0.756,1.209,1.262,1.802,1.904c0.636,0.688,1.311,1.34,1.959,2.016
			c0.703,0.732,1.381,1.487,2.094,2.209c0.639,0.646,1.323,1.247,1.962,1.894c0.64,0.646,1.242,1.331,1.873,1.984
			c0.286,0.296,0.65,0.523,0.899,0.843c0.32,0.409,0.884,0.662,0.888,1.29c0.134,0.066,0.311-0.137,0.437,0.114
			c0.099,0.194,0.317,0.325,0.476,0.49c0.524,0.541,1.041,1.089,1.569,1.627c0.797,0.812,1.609,1.61,2.398,2.43
			c0.16,0.167,0.517,0.173,0.46,0.528c0.347,0.293,0.71,0.571,1.037,0.885c0.516,0.495,1.013,1.011,1.507,1.526
			c0.634,0.66,1.249,1.336,1.884,1.994c0.425,0.442,0.876,0.86,1.306,1.297c0.494,0.505,0.983,1.015,1.466,1.53
			c0.297,0.317,0.581,0.648,0.881,0.986c-0.292,0.22-0.629,0.481-0.972,0.733c-0.702,0.517-1.396,1.048-2.118,1.538
			c-0.647,0.44-1.328,0.834-1.995,1.246c-0.831,0.511-1.662,1.023-2.5,1.525c-0.348,0.207-0.703,0.399-1.068,0.576
			c-0.343,0.166-0.69,0.321-1.037,0.479c2.747,3.528,4.634,7.519,5.804,11.743c0.915-0.444,1.827-0.89,2.709-1.409
			c1.05-0.619,2.148-1.163,3.17-1.837c0.221-0.146,0.427-0.317,0.651-0.458c0.693-0.439,1.407-0.848,2.084-1.308
			c0.69-0.469,1.351-0.979,2.018-1.481c0.513-0.386,1.051-0.75,1.513-1.191c0.227-0.216,0.439-0.4,0.719-0.538
			c0.197-0.095,0.351-0.28,0.521-0.426c0.325-0.277,0.647-0.555,0.97-0.831c0.433-0.37,0.927-0.688,1.282-1.121
			c0.47-0.572,1.168-0.889,1.541-1.583c0.217-0.404,0.715-0.652,1.066-0.99c0.467-0.449,0.926-0.906,1.364-1.381
			c0.426-0.464,0.819-0.958,1.232-1.435c0.532-0.619,1.083-1.224,1.604-1.854c0.424-0.515,0.819-1.053,1.221-1.586
			c0.469-0.619,0.942-1.237,1.391-1.871c0.299-0.421,0.549-0.878,0.842-1.306c0.289-0.421,0.628-0.811,0.902-1.242
			c0.426-0.676,0.792-1.389,1.224-2.062c0.623-0.973,1.178-1.98,1.691-3.014c0.28-0.563,0.609-1.101,0.879-1.668
			c0.298-0.625,0.548-1.271,0.823-1.906c0.135-0.311,0.273-0.62,0.415-0.929c0.295-0.647,0.624-1.281,0.879-1.944
			c0.323-0.85,0.588-1.723,0.877-2.586c0.038-0.111,0.069-0.223,0.107-0.334c0.226-0.666,0.465-1.326,0.675-1.997
			c0.133-0.421,0.138-0.904,0.351-1.274c0.294-0.517,0.335-1.071,0.459-1.617c0.054-0.228,0.084-0.462,0.145-0.689
			c0.213-0.799,0.468-1.59,0.646-2.398c0.222-1.023,0.42-2.054,0.563-3.09c0.231-1.68,0.458-3.364,0.597-5.053
			c0.126-1.541,0.133-3.089,0.191-4.581C548.705,268.627,548.827,266.269,548.45,263.921z M535.542,273.115
			c-0.021,0.879-0.057,1.762-0.16,2.634c-0.166,1.43-0.376,2.856-0.602,4.279c-0.125,0.782-0.292,1.562-0.49,2.328
			c-0.228,0.875-0.508,1.734-0.766,2.6c-0.006,0.019-0.004,0.04-0.009,0.059c-0.294,1.007-0.563,2.021-0.892,3.017
			c-0.205,0.616-0.502,1.199-0.756,1.798c-0.038,0.09-0.056,0.188-0.092,0.278c-0.461,1.128-0.887,2.272-1.403,3.376
			c-0.509,1.092-1.08,2.159-1.686,3.2c-0.601,1.035-1.277,2.024-1.925,3.031c-0.43,0.666-0.844,1.343-1.308,1.984
			c-0.563,0.777-1.167,1.522-1.763,2.272c-0.05,0.064-0.174,0.069-0.252,0.097c-0.511-0.506-1.014-0.99-1.501-1.486
			c-0.696-0.711-1.374-1.439-2.072-2.148c-0.799-0.809-1.622-1.595-2.417-2.407c-0.665-0.679-1.296-1.389-1.961-2.068
			c-0.439-0.448-0.92-0.853-1.364-1.299c-0.455-0.458-0.873-0.949-1.326-1.408c-0.479-0.483-0.984-0.938-1.467-1.417
			c-0.417-0.414-0.821-0.843-1.231-1.267c-0.439-0.453-0.881-0.905-1.313-1.363c-0.381-0.404-0.752-0.817-1.128-1.227
			c-0.491-0.469-0.984-0.937-1.47-1.41c-0.288-0.28-0.568-0.566-0.847-0.854c-0.417-0.431-0.828-0.866-1.242-1.299
			c-0.256-0.265-0.521-0.524-0.77-0.793c-0.286-0.306-0.561-0.622-0.84-0.934c-0.386-0.361-0.778-0.717-1.159-1.084
			c-0.506-0.489-1.011-0.981-1.504-1.485c-0.509-0.519-0.994-1.059-1.505-1.576c-0.405-0.409-0.839-0.792-1.249-1.198
			c-0.255-0.254-0.48-0.538-0.729-0.8c-0.455-0.474-0.916-0.939-1.373-1.409c-0.248-0.255-0.494-0.51-0.74-0.767
			c-0.492-0.508-0.979-1.022-1.478-1.524c-0.471-0.475-0.958-0.935-1.434-1.406c-0.375-0.372-0.764-0.733-1.105-1.137
			c-0.137-0.16-0.174-0.412-0.231-0.629c-0.076-0.276,0.099-0.602-0.159-0.847c-0.012,0.267-0.026,0.533-0.043,0.89
			c-0.211-0.198-0.372-0.332-0.513-0.482c-0.439-0.462-0.857-0.942-1.305-1.394c-0.551-0.557-1.102-1.118-1.694-1.628
			c-0.547-0.471-0.792-1.026-0.712-1.735c-0.311,0.195-0.049,0.54-0.243,0.835c-12.097-12.3-24.183-24.589-36.263-36.873
			c0.322-0.621,0.893-0.843,1.335-1.193c0.629-0.497,1.346-0.883,1.988-1.367c0.854-0.641,1.773-1.167,2.691-1.709
			c0.923-0.546,1.842-1.089,2.816-1.544c0.866-0.404,1.702-0.875,2.551-1.315c0.067-0.034,0.149-0.043,0.222-0.071
			c0.757-0.291,1.524-0.558,2.267-0.882c1.011-0.44,2.042-0.817,3.11-1.095c0.653-0.169,1.315-0.325,1.938-0.573
			c0.827-0.329,1.715-0.364,2.54-0.627c0.729-0.231,1.485-0.257,2.205-0.455c1.501-0.413,3.052-0.368,4.571-0.592
			c2.9-0.43,5.806-0.339,8.71-0.168c1.672,0.1,3.339,0.351,5.003,0.575c0.801,0.107,1.595,0.295,2.39,0.466
			c0.715,0.155,1.432,0.313,2.138,0.513c0.927,0.263,1.841,0.571,2.763,0.853c0.242,0.074,0.503,0.094,0.739,0.183
			c1.221,0.465,2.437,0.945,3.655,1.419c0.019,0.007,0.036,0.015,0.055,0.021c1.021,0.3,1.941,0.836,2.899,1.281
			c0.779,0.36,1.542,0.761,2.291,1.183c0.781,0.441,1.539,0.926,2.306,1.394c0.393,0.239,0.796,0.465,1.173,0.727
			c1.065,0.737,2.139,1.467,3.174,2.244c1.021,0.764,2.026,1.557,2.993,2.386c0.691,0.593,1.305,1.273,1.959,1.907
			c0.45,0.434,0.916,0.848,1.364,1.282c0.243,0.234,0.474,0.487,0.695,0.744c0.508,0.594,1.013,1.191,1.511,1.795
			c0.448,0.544,0.892,1.093,1.323,1.651c0.668,0.862,1.338,1.725,1.979,2.606c0.289,0.399,0.513,0.845,0.765,1.27
			c0.275,0.464,0.525,0.946,0.829,1.389c0.605,0.875,1.096,1.81,1.565,2.761c0.439,0.895,0.928,1.765,1.352,2.667
			c0.313,0.664,0.552,1.363,0.827,2.044c0.26,0.64,0.524,1.277,0.787,1.917c0.029,0.072,0.063,0.145,0.085,0.218
			c0.25,0.814,0.512,1.626,0.743,2.445c0.237,0.84,0.373,1.715,0.683,2.526c0.303,0.796,0.3,1.641,0.537,2.434
			c0.411,1.375,0.397,2.802,0.629,4.196C535.706,266.992,535.616,270.053,535.542,273.115z"/>
		<path fill-rule="evenodd" clip-rule="evenodd" fill="#C7152F" d="M456.757,205.616c0.056,0.029,0.111,0.058,0.169,0.087
			c-0.332,0.128-0.666,0.256-0.999,0.385c-0.03-0.024-0.061-0.047-0.091-0.07c0.001-0.054-0.01-0.152,0.007-0.157
			C456.146,205.773,456.45,205.696,456.757,205.616z"/>
		<g>
			<path d="M475.194,272.402c-1.029,7.997-1.706,16.05-2.844,24.029c-0.231,1.62-0.391,3.244-0.614,4.865
				c-0.366,2.666-3.054,1.737-5.228,1.737c-4.392,0-8.784,0-13.175,0c0.331,0.332,0.663,0.664,0.995,0.995
				c-0.46-5.386-1.387-10.718-1.902-16.095c-0.506-5.271-2.315-11.128-2.084-16.422c-0.332,0.333-0.664,0.665-0.995,0.996
				c4.252,0.13,8.521,0.024,12.776,0.025c2.003,0,4.005,0,6.009,0c1.169,0,6.51-0.729,7.197,0.374c0.678,1.086,2.4,0.088,1.72-1.004
				c-1.755-2.813-7.641-1.36-10.42-1.36c-5.753,0-11.532,0.151-17.283-0.024c-0.56-0.018-0.972,0.466-0.995,0.995
				c-0.195,4.458,1.019,9.78,1.723,14.195c0.963,6.051,1.741,12.218,2.263,18.323c0.045,0.541,0.418,0.995,0.996,0.995
				c6.341,0,12.682,0,19.023,0c0.397,0,0.9-0.299,0.959-0.73c1.459-10.612,2.502-21.267,3.869-31.89
				C477.347,271.132,475.354,271.147,475.194,272.402z"/>
		</g>
		<g>
			<path d="M503.483,282.69c0.27-2.865,0.348-5.757,0.351-8.635c0-0.468-0.31-0.808-0.73-0.96
				c-4.812-1.729-3.471-9.039-3.469-12.929c0.002-3.973-0.036-7.947-0.041-11.921c-0.004-3.387-0.398-6.954,0.566-10.232
				c0.964-3.283,6.594-5.721,6.574-0.82c-0.008,2.087-0.007,4.174-0.008,6.262c-0.007,14.827,0.337,29.704-0.063,44.525
				c0.566-0.234,1.133-0.469,1.699-0.704c-1.785-1.703-3.52-3.456-5.17-5.289c-0.86-0.956-2.263,0.457-1.407,1.407
				c1.649,1.834,3.385,3.586,5.169,5.29c0.636,0.606,1.676,0.169,1.699-0.704c0.326-12.056,0.053-24.157,0.062-36.217
				c0.004-5.586,0.426-11.356-0.051-16.917c-0.246-2.88-3.42-3.125-5.573-2.647c-3.223,0.714-4.728,4.504-5.377,7.287
				c-0.526,2.253-0.115,4.968-0.112,7.271c0.006,3.476,0.008,6.954,0.023,10.432c0.012,2.941-0.021,5.883,0.017,8.824
				c0.021,1.619-0.025,4.245,0.846,5.709c0.767,1.289,1.574,2.392,3.054,2.923c0.885,0.318,0.067,6.819-0.049,8.046
				C501.372,283.968,503.364,283.957,503.483,282.69z"/>
		</g>
		<g>
			<path d="M486.217,264.48c0.047-3.179,0.095-6.36,0.142-9.54c0.004-0.282-0.204-0.579-0.487-0.64
				c-5.595-1.197-4.17-7.137-4.017-11.261c0.072-1.941,0.083-3.886,0.132-5.828c0.015-0.572,0.427-5.757,0.42-1.938
				c-0.008,3.563-0.001,7.125,0.001,10.688c0.001,1.223,0.923,1.761,1.985,1.807c0.77,0.033,1.35-0.99,1.352-1.638
				c0.009-3.884,0.381-7.96,0.232-11.791c0.146,3.766,0.021,7.564,0.035,11.333c0.005,1.144,0.353,2.131,1.66,2.131
				c0.808,0,1.456-0.505,1.521-1.337c0.271-3.406,0.042-6.914,0.04-10.33c-0.003-3.253,0.28,1.529,0.28,2.122
				c0,2.026,0.001,4.052,0.003,6.078c0,1.227-0.306,2.95,1.265,3.382c3.585,0.986,2.062-8.039,2.062-9.456
				c0-0.467,0.058-5.736,0.292-3.547c0.206,1.919,0.152,3.882,0.198,5.81c0.104,4.382,2.143,12.288-3.938,13.748
				c-0.282,0.068-0.492,0.352-0.487,0.64c0.088,4.91,0.446,9.904,0.207,14.809c0.377-0.157,0.755-0.313,1.133-0.47
				C489.125,268.197,486.403,265.954,486.217,264.48c-0.106-0.836-1.435-0.847-1.327,0c0.305,2.415,2.711,4.108,4.419,5.708
				c0.433,0.407,1.104,0.112,1.132-0.468c0.14-2.858-0.044-5.753-0.095-8.614c-0.028-1.547-0.056-3.096-0.083-4.644
				c-0.024-1.304,1.669-1.625,2.58-2.136c3.7-2.074,1.949-9.067,1.856-12.243c-0.045-1.546,1.168-9.854-1.786-9.854
				c-2.8,0-1.396,7.303-1.396,8.759c0,1.292,0,2.584-0.002,3.875c-0.223,0.33-0.445,0.661-0.669,0.991
				c-0.002-1.013-0.003-2.025-0.004-3.039c-0.002-2.782,0.692-6.616-0.026-9.292c-0.47-1.745-2.398-1.653-2.885,0.033
				c-0.667,2.311-0.022,5.742-0.02,8.148c0.001,1.393,0.001,2.786,0.002,4.179c-0.825-0.101-1.018-0.643-0.579-1.628
				c-0.004-0.944-0.007-1.889-0.01-2.833c-0.007-2.396,1.641-9.173-2.073-9.173c-0.273,0-0.59,0.2-0.641,0.487
				c-0.586,3.414-0.193,7.116-0.193,10.575c0.472,1.145,0.244,1.626-0.684,1.445c0-0.803,0-1.604,0.001-2.407
				c0.001-1.869-0.001-3.74-0.002-5.609c0-1.046,0.606-3.638-0.659-4.378c-0.917-0.537-1.804,0.249-2.184,1.005
				c-0.989,1.967-0.281,6.045-0.325,8.215c-0.057,2.821-1.147,6.963-0.17,9.667c0.754,2.086,1.56,2.927,3.576,3.913
				c1.556,0.76,1.048,0.577,1.02,2.515c-0.034,2.267-0.068,4.535-0.102,6.802C484.877,265.337,486.204,265.335,486.217,264.48z"/>
		</g>
		<g>
			<path d="M489.283,286.706c-0.014,3.182,0.263,6.363,0.305,9.548c0.028,2.016,0.041,4.031,0.088,6.045
				c0.028,1.251-4.183,0.667-4.95,0.667c0.332,0.331,0.664,0.664,0.995,0.996c-0.395-3.625,0.173-7.455,0.268-11.089
				c0.099-3.787,0.204-7.593,0.208-11.381c-0.565,0.234-1.133,0.468-1.698,0.704c1.668,1.491,3.612,3.194,4.919,5.015
				c0.742,1.032,2.47,0.04,1.719-1.005c-1.42-1.978-3.419-3.798-5.231-5.417c-0.633-0.566-1.698-0.201-1.699,0.704
				c-0.005,3.791-0.146,7.59-0.208,11.381c-0.061,3.644-0.664,7.455-0.268,11.089c0.059,0.539,0.408,0.995,0.995,0.995
				c1.984,0,3.969,0,5.953,0c0.453,0,0.83-0.305,0.96-0.73c0.675-2.199-0.038-5.652-0.061-7.972
				c-0.03-3.185-0.319-6.366-0.306-9.548C491.278,285.422,489.288,285.423,489.283,286.706z"/>
		</g>
		<g>
			<path d="M507.285,302.972c-1.798,0-3.595,0-5.393,0c0.332,0.331,0.664,0.664,0.995,0.995c-0.002-1.731,0.015-3.459,0.053-5.19
				c-0.332,0.332-0.663,0.663-0.995,0.995c0.099,0.008,0.198,0.005,0.297-0.012c-0.235-0.097-0.469-0.194-0.704-0.291
				c0.859,0.78,1.633,1.684,2.451,2.513c0.833,0.844,1.745,1.639,2.567,2.479c-0.097-0.234-0.195-0.47-0.292-0.704
				c0.009,0.069,0.018,0.14,0.026,0.209c0.154,1.257,2.146,1.272,1.99,0c-0.074-0.606-0.256-0.982-0.805-1.285
				c-0.36-0.199-0.717-0.736-1.009-1.031c-0.356-0.359-0.713-0.717-1.069-1.077c-0.924-0.932-2.048-2.76-3.451-2.793
				c-0.551-0.013-0.983,0.462-0.995,0.996c-0.038,1.73-0.055,3.458-0.052,5.19c0,0.542,0.451,0.995,0.994,0.995
				c1.798,0,3.595,0,5.393,0C508.569,304.962,508.569,302.972,507.285,302.972z"/>
		</g>
		<path fill-rule="evenodd" clip-rule="evenodd" fill="#F3F2F2" d="M506.807,205.388l-0.009,0.002L506.807,205.388z"/>
	</g>
	<path fill-rule="evenodd" clip-rule="evenodd" d="M505.875,430.35c-0.063-2.442-0.124-4.883-0.185-7.325
		c-0.062-2.415-0.123-4.832-0.186-7.249c-0.058-2.166-0.119-4.33-0.176-6.495c-0.064-2.492-0.126-4.984-0.189-7.477
		c-0.06-2.34-0.119-4.682-0.181-7.023c-0.061-2.291-0.125-4.581-0.184-6.871c-0.026-1.001-0.049-2.002-0.074-3.004
		c-0.694,0.202-1.389,0.399-2.089,0.581c0.023,0.895,0.048,1.789,0.072,2.684c0.062,2.366,0.125,4.733,0.186,7.099
		c0.061,2.366,0.121,4.732,0.182,7.097c0.061,2.366,0.123,4.732,0.186,7.099c0.057,2.214,0.122,4.43,0.175,6.645
		c0.073,3.071,0.133,6.144,0.21,9.215c0.039,1.586,0.114,3.17,0.153,4.755c0.089,3.575,0.201,7.15,0.233,10.725
		c0.013,1.454-0.617,2.724-1.879,3.808c-2.244,1.925-6.234,2.098-8.735,0.365c-1.263-0.877-2.114-1.933-2.22-3.335
		c-0.044-0.576-0.113-1.148-0.172-1.724c-0.169-1.653-0.353-3.305-0.504-4.958c-0.154-1.68-0.275-3.362-0.415-5.043
		c-0.059-0.702-0.124-1.404-0.194-2.105c-0.162-1.654-0.343-3.307-0.493-4.96c-0.152-1.655-0.26-3.313-0.415-4.968
		c-0.212-2.28-0.461-4.559-0.672-6.839c-0.156-1.706-0.274-3.414-0.414-5.12c-0.063-0.777-0.132-1.554-0.205-2.332
		c-0.169-1.804-0.347-3.608-0.513-5.413c-0.081-0.878-0.136-1.757-0.217-2.635c-0.018-0.199-0.074-0.399-0.147-0.589
		c-0.133-0.351-0.437-0.526-0.883-0.552c-0.699-0.041-1.092,0.178-1.162,0.797c-0.198,1.726-0.355,3.456-0.51,5.186
		c-0.19,2.132-0.363,4.264-0.543,6.396c-0.186,2.208-0.377,4.414-0.553,6.622c-0.146,1.858-0.271,3.716-0.41,5.575
		c-0.063,0.828-0.129,1.656-0.205,2.483c-0.161,1.755-0.34,3.507-0.49,5.263c-0.095,1.103-0.146,2.21-0.227,3.315
		c-0.054,0.753-0.123,1.506-0.192,2.259c-0.162,1.754-0.331,3.507-0.494,5.261c-0.122,1.329-0.196,2.661-0.365,3.986
		c-0.402,3.152-4.159,5.376-8.261,4.415c-2.487-0.582-4.686-2.692-4.564-5.169c0.075-1.535,0.12-3.069,0.179-4.604
		c0.058-1.535,0.118-3.069,0.172-4.604c0.066-1.837,0.126-3.674,0.193-5.511c0.056-1.534,0.122-3.069,0.177-4.604
		c0.069-1.887,0.115-3.773,0.205-5.66c0.085-1.808-0.072-3.619,0.163-5.43c0.167-1.298,0.132-2.614,0.184-3.921
		c0.062-1.56,0.122-3.12,0.178-4.679c0.067-1.837,0.125-3.674,0.191-5.51c0.056-1.535,0.118-3.068,0.175-4.603
		c0.062-1.635,0.132-3.271,0.183-4.905c0.084-2.694,0.149-5.388,0.236-8.081c0.038-1.182,0.105-2.363,0.165-3.545
		c0.005-0.095,0.045-0.19,0.078-0.324c0.229,0,0.44-0.026,0.638,0.004c2.003,0.309,4.002,0.626,6.003,0.94
		c1.386,0.218,2.729,0.086,4.025-0.357c2.413-0.823,4.386-3.038,4.305-5.573c-0.083-2.6-2.532-5.026-5.527-5.497
		c-3.853-0.606-7.708-1.208-11.561-1.818c-0.527-0.083-1.048-0.197-1.622-0.307c0.098-0.215,0.15-0.357,0.225-0.49
		c0.956-1.742,1.921-3.481,2.869-5.227c0.3-0.55,0.575-1.11,0.826-1.676c0.17-0.388-0.088-0.686-0.434-0.918
		c-0.315-0.21-0.717-0.222-1.031-0.057c-0.265,0.14-0.499,0.378-0.633,0.617c-0.879,1.55-1.73,3.11-2.584,4.669
		c-0.479,0.871-0.949,1.745-1.422,2.618c-0.611,1.125-0.145,1.927,1.301,2.191c0.89,0.163,1.789,0.293,2.685,0.434
		c3.555,0.557,7.118,1.08,10.663,1.677c3.126,0.526,4.765,2.833,3.759,5.387c-0.733,1.859-3.118,2.92-5.58,2.552
		c-2.662-0.398-5.313-0.845-7.97-1.263c-2.449-0.386-4.903-0.755-7.352-1.144c-2.388-0.379-4.775-0.768-7.16-1.166
		c-2.921-0.487-4.551-3.32-3.273-5.583c0.8-1.414,1.59-2.831,2.382-4.248c1.392-2.489,2.787-4.977,4.172-7.467
		c1.056-1.898,2.09-3.803,3.148-5.699c1.39-2.491,2.789-4.979,4.196-7.465c0.257-0.455,0.524-0.916,0.875-1.321
		c0.399-0.462,0.87-0.838,1.406-1.107c-0.319-0.543-0.598-1.099-0.817-1.668c-1.384,0.598-2.415,1.517-3.09,2.761
		c-0.424,0.782-0.875,1.553-1.311,2.33c-1.794,3.194-3.592,6.387-5.378,9.583c-0.663,1.186-1.286,2.386-1.95,3.57
		c-1.807,3.221-3.622,6.438-5.442,9.652c-0.457,0.807-0.781,1.644-0.819,2.535c-0.123,2.787,2.095,5.209,5.393,5.889
		c0.884,0.182,1.788,0.295,2.684,0.436c2.45,0.383,4.901,0.761,7.349,1.147c1.223,0.193,2.441,0.401,3.763,0.618
		c0,0.332,0.009,0.581-0.001,0.83c-0.05,1.232-0.108,2.465-0.159,3.697c-0.061,1.509-0.118,3.019-0.173,4.527
		c-0.071,1.938-0.134,3.875-0.205,5.813c-0.05,1.383-0.11,2.767-0.164,4.15c-0.063,1.686-0.124,3.372-0.188,5.057
		c-0.059,1.61-0.123,3.22-0.18,4.83c-0.066,1.836-0.136,3.674-0.189,5.51c-0.052,1.78-0.031,3.562-0.178,5.342
		c-0.112,1.355-0.126,2.714-0.178,4.073c-0.065,1.736-0.125,3.472-0.188,5.208c-0.061,1.685-0.123,3.37-0.185,5.056
		c-0.059,1.585-0.124,3.171-0.175,4.755c-0.081,2.466-0.139,4.934-0.231,7.399c-0.067,1.765,0.567,3.344,1.908,4.689
		c2.178,2.187,5.021,3.03,8.392,2.557c2.163-0.303,3.906-1.236,5.233-2.677c1.042-1.129,1.655-2.391,1.694-3.834
		c0.023-0.853,0.108-1.704,0.184-2.555c0.118-1.302,0.261-2.603,0.38-3.904c0.079-0.853,0.126-1.708,0.207-2.559
		c0.153-1.629,0.327-3.256,0.478-4.885c0.13-1.405,0.242-2.811,0.359-4.216c0.188-2.258,0.379-4.515,0.557-6.773
		c0.149-1.908,0.274-3.816,0.423-5.724c0.055-0.701,0.149-1.4,0.244-2.276c0.102,0.456,0.198,0.744,0.227,1.036
		c0.136,1.378,0.251,2.758,0.377,4.136c0.179,1.98,0.362,3.961,0.541,5.941c0.186,2.057,0.377,4.113,0.552,6.169
		c0.146,1.705,0.271,3.413,0.411,5.118c0.061,0.753,0.134,1.506,0.208,2.257c0.16,1.603,0.322,3.206,0.49,4.808
		c0.052,0.5,0.14,0.998,0.189,1.498c0.078,0.8,0.095,1.606,0.214,2.401c0.13,0.875,0.388,1.738,0.924,2.507
		c1.001,1.438,2.455,2.441,4.309,3.113c3.18,1.155,7.12,0.441,9.557-1.682c1.547-1.35,2.339-2.993,2.381-4.848
		c0.024-1.129-0.1-2.262-0.133-3.393C505.992,435.131,505.936,432.741,505.875,430.35z"/>
	<path fill-rule="evenodd" clip-rule="evenodd" d="M519.922,369.22c-1.356-3.326-2.67-6.67-3.988-10.012
		c-1.072-2.716-2.116-5.444-3.185-8.163c-1.481-3.768-2.988-7.528-4.457-11.301c-0.683-1.754-1.815-3.054-3.409-3.917
		c-0.26,0.683-0.555,1.351-0.865,2.012c1.09,0.606,1.823,1.568,2.305,2.809c0.562,1.447,1.124,2.895,1.692,4.34
		c2.357,5.976,4.715,11.951,7.073,17.927c0.905,2.295,1.801,4.593,2.72,6.882c0.7,1.741,0.604,3.4-0.485,4.947
		c-0.752,1.067-1.834,1.64-3.091,1.962c-2.534,0.65-5.055,1.353-7.583,2.029c-3.968,1.062-7.931,2.143-11.909,3.168
		c-2.533,0.653-4.963-0.71-5.819-3.178c-0.853-2.458,0.558-5.381,3.001-6.145c1.743-0.545,3.504-1.028,5.257-1.542
		c2.482-0.728,4.965-1.454,7.446-2.188c0.917-0.271,1.401-0.878,1.42-1.785c0.006-0.3-0.01-0.617-0.1-0.9
		c-0.833-2.61-1.685-5.214-2.532-7.819c-0.028-0.086-0.07-0.169-0.114-0.25c-0.284-0.514-0.792-0.726-1.31-0.547
		c-0.496,0.169-0.805,0.698-0.701,1.24c0.046,0.238,0.138,0.467,0.214,0.698c0.705,2.172,1.411,4.344,2.114,6.517
		c0.072,0.226,0.127,0.459,0.198,0.714c-0.167,0.091-0.291,0.188-0.429,0.228c-1.548,0.456-3.099,0.898-4.646,1.353
		c-2.424,0.712-4.849,1.424-7.269,2.15c-1.674,0.501-3.007,1.512-3.905,2.987c-1.77,2.907-1.417,6.31,0.993,8.73
		c1.928,1.938,4.325,2.512,6.99,1.799c4.998-1.336,9.993-2.676,14.989-4.018c1.674-0.45,3.365-0.854,5.018-1.375
		C519.601,377.304,521.404,372.853,519.922,369.22z"/>
	<path fill-rule="evenodd" clip-rule="evenodd" d="M485.952,401.994c-0.143-3.022-0.287-6.044-0.431-9.1
		c-0.298-0.035-0.502-0.063-0.708-0.082c-0.72-0.065-0.833-0.189-0.732-0.915c0.105-0.75,0.226-1.501,0.373-2.245
		c0.531-2.677,1.076-5.353,1.618-8.029c0.028-0.139,0.072-0.274,0.256-0.424c0.033,0.212,0.092,0.425,0.094,0.637
		c0.015,2.098,0.01,4.198,0.035,6.297c0.008,0.661,0.085,1.323,0.137,2.057c0.513,0.043,0.952,0.08,1.506,0.126
		c-0.324,2.014-0.597,3.98-0.966,5.928C486.769,398.163,486.559,400.116,485.952,401.994z"/>
	<path fill-rule="evenodd" clip-rule="evenodd" d="M484.453,383.352c-1.222,2.087-2.444,4.174-3.703,6.323
		c0.301,0.251,0.593,0.494,0.966,0.804c-2.092,2.433-4.162,4.841-6.233,7.249c-0.057-0.038-0.115-0.076-0.172-0.112
		c1.13-2.146,2.361-4.242,3.517-6.402c-0.348-0.309-0.634-0.563-0.971-0.861c2.163-2.397,4.296-4.761,6.43-7.125
		C484.342,383.27,484.398,383.31,484.453,383.352z"/>
	<path fill-rule="evenodd" clip-rule="evenodd" d="M493.223,391.239c-0.429,0.207-0.75,0.362-1.151,0.556
		c-1.585-2.684-2.848-5.461-4.263-8.171c1.681,1.684,3.116,3.571,4.671,5.424c0.401-0.201,0.744-0.374,1.122-0.563
		c0.722,0.756,1.057,1.749,1.573,2.629c0.524,0.892,1.052,1.781,1.539,2.692c0.478,0.893,1.062,1.733,1.318,2.754
		C496.434,394.792,494.836,393.024,493.223,391.239z"/>
	<g>
		<path d="M500.564,328.989c-0.054,3.919-1.497,7.629-4.309,10.389c-2.805,2.75-6.696,4.003-10.572,3.924
			c-3.989-0.082-7.747-1.886-10.429-4.807c-2.719-2.961-3.902-6.998-3.62-10.963c0.27-3.794,2.204-7.308,5.015-9.814
			c2.874-2.56,6.706-3.725,10.511-3.534c3.646,0.183,7.088,1.794,9.587,4.441C499.371,321.405,500.562,325.221,500.564,328.989
			c0,1.77,2.744,1.77,2.744,0c-0.002-4.185-1.291-8.152-3.881-11.446c-2.43-3.092-6.102-5.125-9.943-5.828
			c-8.539-1.564-16.902,3.407-19.746,11.572c-2.817,8.09,1.132,17.322,8.788,21.03c7.638,3.7,17.166,1.287,21.941-5.74
			c1.905-2.803,2.795-6.224,2.841-9.588C503.331,327.219,500.587,327.222,500.564,328.989z"/>
	</g>
</g>
<g>
	<g>
		<polygon points="36.266,286.735 30.94,286.472 30.587,300.457 35.919,300.457 		"/>
		<path d="M38.11,266.386l-5.292-0.659c0,0-0.11,0.868-0.275,2.169c-0.15,1.303-0.42,3.033-0.571,4.774
			c-0.266,3.488-0.531,6.975-0.531,6.975l5.318,0.394c0,0,0.26-3.421,0.52-6.843c0.147-1.709,0.414-3.406,0.561-4.684
			C38.001,267.236,38.11,266.386,38.11,266.386z"/>
		<path d="M41.324,246.209l-5.227-1.053c0,0-0.615,3.443-1.23,6.887c-0.308,1.722-0.615,3.443-0.845,4.735
			c-0.25,1.288-0.339,2.159-0.339,2.159l5.274,0.788c0,0,0.087-0.854,0.333-2.118c0.227-1.267,0.528-2.955,0.83-4.644
			C40.721,249.587,41.324,246.209,41.324,246.209z"/>
		<path d="M46.171,226.362l-5.133-1.443c0,0-0.239,0.841-0.597,2.103c-0.34,1.267-0.875,2.934-1.272,4.637
			c-0.787,3.408-1.574,6.815-1.574,6.815l5.199,1.182c0,0,0.771-3.342,1.542-6.685c0.389-1.67,0.916-3.305,1.249-4.547
			C45.937,227.187,46.171,226.362,46.171,226.362z"/>
		<path d="M52.368,206.894l-5.01-1.826c0,0-1.121,3.313-2.243,6.627c-0.561,1.657-1.121,3.314-1.542,4.557
			c-0.437,1.237-0.665,2.082-0.666,2.082l5.096,1.57c0,0,0.224-0.828,0.653-2.042c0.413-1.219,0.963-2.844,1.513-4.468
			C51.269,210.143,52.368,206.894,52.368,206.894z"/>
		<path d="M60.15,188l-4.858-2.198c0,0-1.437,3.189-2.874,6.378c-1.284,3.254-2.567,6.508-2.567,6.508l4.963,1.949
			c0,0,1.258-3.191,2.516-6.383C58.74,191.126,60.15,188,60.15,188z"/>
		<path d="M69.201,169.688l-4.68-2.556c0,0-0.109,0.189-0.299,0.521c-0.175,0.34-0.424,0.827-0.724,1.41
			c-0.598,1.167-1.395,2.723-2.192,4.28c-1.594,3.113-3.188,6.226-3.188,6.226l4.803,2.317c0,0,1.564-3.053,3.128-6.105
			c0.782-1.527,1.563-3.053,2.149-4.198c0.293-0.572,0.538-1.049,0.709-1.383C69.094,169.874,69.201,169.688,69.201,169.688z"/>
	</g>
	<g>
		<path d="M79.715,152.163l-4.475-2.899c0,0-1.888,2.945-3.775,5.89c-0.955,1.465-1.767,3.018-2.439,4.144
			c-0.654,1.137-1.09,1.896-1.09,1.896l4.615,2.67c0,0,0.427-0.744,1.069-1.859c0.66-1.104,1.455-2.628,2.392-4.065
			C77.864,155.051,79.715,152.163,79.715,152.163z"/>
		<path d="M91.424,135.42l-4.247-3.224c0,0-0.538,0.689-1.344,1.724c-0.76,1.069-1.774,2.494-2.788,3.919
			c-2.027,2.851-4.054,5.701-4.054,5.701l4.403,3.008c0,0,1.988-2.796,3.977-5.592c0.994-1.398,1.988-2.796,2.733-3.845
			C90.897,136.096,91.424,135.42,91.424,135.42z"/>
		<path d="M104.396,119.633l-3.996-3.531c0,0-2.29,2.644-4.58,5.288c-0.571,0.662-1.143,1.324-1.678,1.945
			c-0.506,0.645-0.979,1.246-1.385,1.762c-0.811,1.031-1.351,1.719-1.351,1.719l4.167,3.327c0,0,0.53-0.674,1.325-1.686
			c0.397-0.506,0.861-1.096,1.358-1.729c0.525-0.609,1.086-1.258,1.647-1.907C102.149,122.227,104.396,119.633,104.396,119.633z"/>
		<path d="M118.483,104.834l-3.722-3.818c0,0-0.633,0.603-1.582,1.508c-0.973,0.88-2.152,2.174-3.365,3.433
			c-2.413,2.531-4.826,5.062-4.826,5.062l3.908,3.627c0,0,2.367-2.482,4.734-4.965c1.189-1.236,2.345-2.505,3.301-3.368
			C117.863,105.426,118.483,104.834,118.483,104.834z"/>
		<path d="M133.625,91.112l-3.428-4.084c0,0-2.644,2.29-5.288,4.58c-1.311,1.157-2.667,2.264-3.61,3.176
			c-0.95,0.905-1.583,1.508-1.583,1.508l3.627,3.908c0,0,0.621-0.592,1.552-1.48c0.924-0.896,2.256-1.98,3.542-3.115
			C131.031,93.359,133.625,91.112,133.625,91.112z"/>
		<path d="M149.772,78.59l-3.114-4.328c0,0-0.712,0.507-1.781,1.267c-1.067,0.763-2.511,1.75-3.865,2.859
			c-2.75,2.161-5.5,4.322-5.5,4.322l3.327,4.167c0,0,2.698-2.12,5.395-4.24c1.328-1.088,2.746-2.056,3.792-2.804
			C149.073,79.087,149.772,78.59,149.772,78.59z"/>
		<path d="M166.756,67.238l-2.783-4.548c0,0-2.944,1.887-5.889,3.774c-1.472,0.944-2.944,1.888-4.047,2.596
			c-0.558,0.345-1.001,0.665-1.312,0.888c-0.312,0.222-0.49,0.348-0.49,0.348l3.007,4.403c0,0,0.175-0.124,0.48-0.342
			c0.305-0.219,0.739-0.533,1.287-0.871c1.083-0.694,2.527-1.62,3.971-2.545C163.869,69.09,166.756,67.238,166.756,67.238z"/>
	</g>
	<g>
		<path d="M184.604,57.286l-2.435-4.744c0,0-0.778,0.398-1.946,0.997c-1.163,0.607-2.735,1.375-4.27,2.213
			c-3.033,1.743-6.065,3.487-6.065,3.487l2.67,4.615c0,0,2.974-1.71,5.948-3.421c1.505-0.822,3.048-1.575,4.188-2.17
			C183.841,57.677,184.604,57.286,184.604,57.286z"/>
		<path d="M203.088,48.58l-2.071-4.913c0,0-0.208,0.07-0.554,0.233c-0.349,0.158-0.847,0.383-1.444,0.653
			c-1.195,0.54-2.789,1.261-4.383,1.981c-3.186,1.444-6.372,2.889-6.372,2.889l2.317,4.802c0,0,3.125-1.416,6.25-2.832
			c1.563-0.707,3.126-1.414,4.298-1.944c0.586-0.265,1.075-0.486,1.417-0.641C202.884,48.648,203.088,48.58,203.088,48.58z"/>
		<path d="M222.225,41.428l-1.696-5.055c0,0-3.313,1.122-6.627,2.243c-1.646,0.59-3.26,1.268-4.484,1.738
			c-1.22,0.481-2.034,0.802-2.034,0.802l1.949,4.963c0,0,0.798-0.314,1.995-0.787c1.201-0.46,2.783-1.127,4.397-1.706
			C218.975,42.527,222.225,41.428,222.225,41.428z"/>
		<path d="M241.809,35.607l-1.31-5.168c0,0-0.858,0.172-2.115,0.549c-1.262,0.358-2.944,0.836-4.626,1.313
			c-3.364,0.956-6.729,1.911-6.729,1.911l1.57,5.096c0,0,3.3-0.937,6.599-1.873c1.65-0.469,3.299-0.938,4.537-1.289
			C240.967,35.775,241.809,35.607,241.809,35.607z"/>
		<path d="M261.802,31.396l-0.918-5.252c0,0-3.444,0.615-6.887,1.23c-1.724,0.296-3.414,0.759-4.697,1.032
			c-1.278,0.295-2.13,0.492-2.13,0.492l1.182,5.199c0,0,0.835-0.193,2.089-0.482c1.258-0.268,2.915-0.724,4.606-1.014
			C258.424,32,261.802,31.396,261.802,31.396z"/>
		<path d="M282.04,28.571l-0.523-5.306c0,0-0.874,0.049-2.173,0.233c-1.301,0.165-3.036,0.385-4.771,0.605
			c-3.47,0.441-6.939,0.882-6.939,0.882l0.788,5.274c0,0,3.403-0.432,6.807-0.864c1.702-0.217,3.403-0.433,4.679-0.595
			C281.183,28.618,282.04,28.571,282.04,28.571z"/>
		<path d="M302.436,27.394l-0.129-5.331c0,0-3.496,0.089-6.991,0.177c-1.746,0.083-3.487,0.251-4.795,0.339
			c-1.308,0.099-2.18,0.166-2.18,0.166l0.394,5.317c0,0,0.855-0.065,2.138-0.163c1.283-0.087,2.992-0.253,4.705-0.334
			C299.006,27.479,302.436,27.394,302.436,27.394z"/>
	</g>
	<g>
		<polygon points="322.875,27.57 323.138,22.244 309.153,21.891 309.153,27.223 		"/>
		<path d="M343.225,29.414l0.659-5.292c0,0-0.868-0.11-2.169-0.275c-1.303-0.15-3.033-0.42-4.774-0.571
			c-3.488-0.266-6.975-0.531-6.975-0.531l-0.394,5.318c0,0,3.421,0.26,6.843,0.52c1.709,0.147,3.406,0.414,4.684,0.561
			C342.374,29.305,343.225,29.414,343.225,29.414z"/>
		<path d="M363.401,32.627l1.053-5.227c0,0-3.443-0.615-6.887-1.23c-1.722-0.308-3.443-0.615-4.735-0.845
			c-1.288-0.25-2.159-0.339-2.159-0.339l-0.788,5.274c0,0,0.854,0.087,2.118,0.333c1.267,0.227,2.955,0.528,4.644,0.83
			C360.023,32.024,363.401,32.627,363.401,32.627z"/>
		<path d="M383.249,37.475l1.443-5.133c0,0-0.841-0.239-2.103-0.597c-1.267-0.34-2.934-0.875-4.637-1.272
			c-3.408-0.787-6.815-1.574-6.815-1.574l-1.182,5.199c0,0,3.342,0.771,6.685,1.542c1.67,0.389,3.305,0.916,4.547,1.249
			C382.424,37.24,383.249,37.475,383.249,37.475z"/>
		<path d="M402.717,43.672l1.826-5.01c0,0-3.313-1.121-6.627-2.243c-1.657-0.561-3.314-1.121-4.557-1.542
			c-1.237-0.437-2.082-0.665-2.082-0.666l-1.57,5.096c0,0,0.828,0.224,2.042,0.653c1.219,0.413,2.844,0.963,4.468,1.513
			C399.467,42.573,402.717,43.672,402.717,43.672z"/>
		<path d="M421.611,51.454l2.198-4.858c0,0-3.189-1.437-6.378-2.874c-3.254-1.284-6.508-2.567-6.508-2.567l-1.949,4.963
			c0,0,3.191,1.258,6.383,2.516C418.484,50.044,421.611,51.454,421.611,51.454z"/>
		<path d="M439.923,60.505l2.556-4.68c0,0-0.189-0.109-0.521-0.299c-0.34-0.175-0.827-0.424-1.41-0.724
			c-1.167-0.598-2.723-1.395-4.28-2.192c-3.113-1.594-6.226-3.188-6.226-3.188l-2.317,4.803c0,0,3.053,1.564,6.105,3.128
			c1.527,0.782,3.053,1.563,4.198,2.149c0.572,0.293,1.049,0.538,1.383,0.709C439.737,60.398,439.923,60.505,439.923,60.505z"/>
	</g>
	<g>
		<path d="M457.447,71.019l2.899-4.475c0,0-2.945-1.888-5.89-3.775c-1.465-0.955-3.018-1.767-4.144-2.439
			c-1.137-0.654-1.896-1.09-1.896-1.09l-2.67,4.615c0,0,0.744,0.427,1.859,1.069c1.104,0.66,2.628,1.455,4.065,2.392
			C454.559,69.167,457.447,71.019,457.447,71.019z"/>
		<path d="M474.19,82.728l3.224-4.247c0,0-0.689-0.538-1.724-1.344c-1.069-0.76-2.494-1.774-3.919-2.788
			c-2.851-2.027-5.701-4.054-5.701-4.054l-3.008,4.403c0,0,2.796,1.988,5.592,3.977c1.398,0.994,2.796,1.988,3.845,2.733
			C473.514,82.201,474.19,82.728,474.19,82.728z"/>
		<path d="M489.977,95.699l3.531-3.996c0,0-2.644-2.29-5.288-4.58c-0.662-0.571-1.324-1.143-1.945-1.678
			c-0.645-0.506-1.246-0.979-1.762-1.385c-1.031-0.811-1.719-1.351-1.719-1.351l-3.327,4.167c0,0,0.674,0.53,1.686,1.325
			c0.506,0.397,1.096,0.861,1.729,1.358c0.609,0.525,1.258,1.086,1.907,1.647C487.384,93.453,489.977,95.699,489.977,95.699z"/>
		<path d="M504.776,109.787l3.818-3.722c0,0-0.603-0.633-1.508-1.582c-0.88-0.973-2.174-2.152-3.433-3.365
			c-2.531-2.413-5.062-4.826-5.062-4.826l-3.627,3.908c0,0,2.482,2.367,4.965,4.734c1.235,1.189,2.505,2.345,3.368,3.301
			C504.185,109.167,504.776,109.787,504.776,109.787z"/>
		<path d="M518.498,124.928l4.084-3.428c0,0-2.29-2.644-4.58-5.288c-1.157-1.311-2.264-2.667-3.176-3.61
			c-0.905-0.95-1.508-1.583-1.508-1.583l-3.908,3.627c0,0,0.592,0.621,1.48,1.552c0.896,0.924,1.98,2.256,3.115,3.542
			C516.251,122.334,518.498,124.928,518.498,124.928z"/>
		<path d="M531.02,141.076l4.328-3.114c0,0-0.507-0.712-1.267-1.781c-0.763-1.067-1.75-2.511-2.859-3.865
			c-2.161-2.75-4.322-5.5-4.322-5.5l-4.167,3.327c0,0,2.12,2.698,4.24,5.395c1.088,1.328,2.056,2.746,2.804,3.792
			C530.523,140.377,531.02,141.076,531.02,141.076z"/>
		<path d="M542.372,158.06l4.548-2.783c0,0-1.887-2.944-3.774-5.889c-0.944-1.472-1.888-2.944-2.596-4.047
			c-0.345-0.558-0.665-1.001-0.888-1.312c-0.222-0.312-0.348-0.49-0.348-0.49l-4.403,3.007c0,0,0.124,0.175,0.342,0.48
			c0.219,0.305,0.533,0.739,0.871,1.287c0.694,1.083,1.62,2.527,2.545,3.971C540.521,155.172,542.372,158.06,542.372,158.06z"/>
	</g>
	<g>
		<path d="M552.324,175.908l4.744-2.435c0,0-0.398-0.778-0.997-1.946c-0.607-1.163-1.375-2.735-2.213-4.27
			c-1.743-3.033-3.487-6.065-3.487-6.065l-4.615,2.67c0,0,1.71,2.974,3.421,5.948c0.822,1.505,1.575,3.048,2.17,4.188
			C551.933,175.145,552.324,175.908,552.324,175.908z"/>
		<path d="M561.031,194.392l4.913-2.071c0,0-0.07-0.208-0.233-0.554c-0.158-0.349-0.383-0.847-0.653-1.444
			c-0.54-1.195-1.261-2.789-1.981-4.383c-1.444-3.186-2.889-6.372-2.889-6.372l-4.802,2.317c0,0,1.416,3.125,2.832,6.25
			c0.707,1.563,1.414,3.126,1.944,4.298c0.265,0.586,0.486,1.075,0.641,1.417C560.962,194.188,561.031,194.392,561.031,194.392z"/>
		<path d="M568.183,213.528l5.055-1.696c0,0-1.122-3.313-2.243-6.627c-0.59-1.646-1.268-3.26-1.738-4.484
			c-0.481-1.22-0.802-2.034-0.802-2.034l-4.963,1.949c0,0,0.314,0.798,0.787,1.995c0.46,1.201,1.127,2.783,1.706,4.397
			C567.083,210.279,568.183,213.528,568.183,213.528z"/>
		<path d="M574.003,233.113l5.168-1.31c0,0-0.172-0.858-0.549-2.115c-0.358-1.262-0.836-2.944-1.313-4.626
			c-0.956-3.364-1.911-6.729-1.911-6.729l-5.096,1.57c0,0,0.937,3.3,1.873,6.599c0.469,1.65,0.938,3.299,1.289,4.537
			C573.835,232.271,574.003,233.113,574.003,233.113z"/>
		<path d="M578.214,253.105l5.252-0.918c0,0-0.615-3.444-1.23-6.887c-0.296-1.724-0.759-3.414-1.032-4.697
			c-0.295-1.278-0.492-2.13-0.492-2.13l-5.199,1.182c0,0,0.193,0.835,0.482,2.089c0.268,1.258,0.724,2.915,1.013,4.606
			C577.611,249.728,578.214,253.105,578.214,253.105z"/>
		<path d="M581.04,273.343l5.306-0.523c0,0-0.049-0.874-0.233-2.173c-0.165-1.301-0.385-3.036-0.605-4.771
			c-0.441-3.47-0.882-6.939-0.882-6.939l-5.273,0.788c0,0,0.432,3.403,0.864,6.807c0.216,1.702,0.433,3.403,0.595,4.679
			C580.992,272.486,581.039,273.343,581.04,273.343z"/>
		<path d="M582.217,293.739l5.331-0.129c0,0-0.089-3.496-0.177-6.991c-0.083-1.746-0.251-3.487-0.339-4.795
			c-0.1-1.308-0.166-2.18-0.166-2.18l-5.317,0.394c0,0,0.065,0.855,0.163,2.138c0.087,1.283,0.253,2.992,0.334,4.705
			C582.131,290.31,582.217,293.739,582.217,293.739z"/>
	</g>
	<g>
		<polygon points="582.041,314.179 587.366,314.442 587.72,300.457 582.388,300.457 		"/>
		<path d="M580.197,334.528l5.292,0.659c0,0,0.11-0.868,0.275-2.169c0.15-1.303,0.42-3.033,0.571-4.774
			c0.266-3.488,0.531-6.975,0.531-6.975l-5.317-0.394c0,0-0.26,3.421-0.52,6.843c-0.147,1.709-0.414,3.406-0.561,4.684
			C580.305,333.678,580.197,334.528,580.197,334.528z"/>
		<path d="M576.983,354.705l5.227,1.053c0,0,0.615-3.443,1.23-6.887c0.308-1.722,0.615-3.443,0.845-4.735
			c0.25-1.288,0.339-2.159,0.339-2.159l-5.273-0.788c0,0-0.087,0.854-0.333,2.118c-0.227,1.267-0.528,2.955-0.83,4.644
			C577.586,351.327,576.983,354.705,576.983,354.705z"/>
		<path d="M572.136,374.552l5.133,1.443c0,0,0.239-0.841,0.597-2.103c0.34-1.267,0.875-2.934,1.272-4.637
			c0.787-3.408,1.574-6.815,1.574-6.815l-5.199-1.182c0,0-0.771,3.342-1.542,6.685c-0.389,1.67-0.916,3.305-1.249,4.547
			C572.37,373.728,572.136,374.552,572.136,374.552z"/>
		<path d="M565.938,394.021l5.01,1.826c0,0,1.121-3.313,2.243-6.627c0.561-1.657,1.121-3.314,1.542-4.557
			c0.437-1.237,0.665-2.082,0.666-2.082l-5.096-1.57c0,0-0.224,0.828-0.653,2.042c-0.413,1.219-0.963,2.844-1.513,4.468
			C567.038,390.771,565.938,394.021,565.938,394.021z"/>
		<path d="M558.157,412.915l4.858,2.198c0,0,1.437-3.189,2.874-6.378c1.284-3.254,2.567-6.508,2.567-6.508l-4.963-1.949
			c0,0-1.258,3.191-2.516,6.383C559.566,409.788,558.157,412.915,558.157,412.915z"/>
		<path d="M549.105,431.227l4.68,2.556c0,0,0.109-0.189,0.3-0.521c0.174-0.34,0.424-0.827,0.724-1.41
			c0.598-1.167,1.395-2.723,2.192-4.28c1.594-3.113,3.188-6.226,3.188-6.226l-4.803-2.317c0,0-1.564,3.053-3.128,6.105
			c-0.782,1.527-1.563,3.053-2.149,4.198c-0.293,0.572-0.538,1.049-0.709,1.383C549.212,431.041,549.105,431.227,549.105,431.227z"
			/>
	</g>
	<g>
		<path d="M538.591,448.751l4.475,2.899c0,0,1.888-2.945,3.775-5.89c0.955-1.465,1.767-3.018,2.439-4.144
			c0.654-1.137,1.09-1.896,1.09-1.896l-4.615-2.67c0,0-0.427,0.744-1.069,1.859c-0.66,1.104-1.455,2.628-2.392,4.065
			C540.443,445.863,538.591,448.751,538.591,448.751z"/>
		<path d="M526.882,465.494l4.247,3.224c0,0,0.538-0.689,1.344-1.724c0.76-1.069,1.774-2.494,2.788-3.919
			c2.027-2.851,4.054-5.701,4.054-5.701l-4.403-3.008c0,0-1.988,2.796-3.977,5.592c-0.994,1.398-1.988,2.796-2.733,3.845
			C527.41,464.818,526.882,465.494,526.882,465.494z"/>
		<path d="M513.911,481.281l3.996,3.531c0,0,2.29-2.644,4.58-5.288c0.571-0.662,1.143-1.324,1.678-1.945
			c0.506-0.645,0.979-1.246,1.385-1.762c0.811-1.031,1.351-1.719,1.351-1.719l-4.167-3.327c0,0-0.53,0.674-1.325,1.686
			c-0.397,0.506-0.861,1.096-1.358,1.729c-0.525,0.609-1.086,1.258-1.647,1.907C516.158,478.688,513.911,481.281,513.911,481.281z"
			/>
		<path d="M499.823,496.08l3.722,3.818c0,0,0.633-0.603,1.582-1.508c0.973-0.88,2.152-2.174,3.365-3.433
			c2.413-2.531,4.826-5.062,4.826-5.062l-3.908-3.627c0,0-2.367,2.482-4.734,4.965c-1.189,1.235-2.345,2.505-3.301,3.368
			C500.444,495.488,499.823,496.08,499.823,496.08z"/>
		<path d="M484.682,509.802l3.428,4.084c0,0,2.644-2.29,5.288-4.58c1.311-1.157,2.667-2.264,3.61-3.176
			c0.95-0.905,1.583-1.508,1.583-1.508l-3.627-3.908c0,0-0.621,0.592-1.552,1.48c-0.924,0.896-2.256,1.98-3.542,3.115
			C487.276,507.555,484.682,509.802,484.682,509.802z"/>
		<path d="M468.535,522.324l3.114,4.328c0,0,0.712-0.507,1.781-1.267c1.067-0.763,2.511-1.75,3.865-2.859
			c2.75-2.161,5.5-4.322,5.5-4.322l-3.327-4.167c0,0-2.698,2.12-5.395,4.24c-1.328,1.088-2.746,2.056-3.792,2.804
			C469.233,521.827,468.535,522.324,468.535,522.324z"/>
		<path d="M451.551,533.676l2.783,4.548c0,0,2.944-1.887,5.889-3.774c1.472-0.944,2.944-1.888,4.047-2.596
			c0.558-0.345,1.001-0.665,1.312-0.888c0.312-0.222,0.49-0.348,0.49-0.348l-3.007-4.403c0,0-0.175,0.124-0.48,0.342
			c-0.305,0.219-0.739,0.533-1.287,0.871c-1.083,0.694-2.527,1.62-3.971,2.545C454.438,531.824,451.551,533.676,451.551,533.676z"/>
	</g>
	<g>
		<path d="M433.702,543.628l2.435,4.744c0,0,0.778-0.398,1.946-0.997c1.163-0.607,2.735-1.375,4.27-2.213
			c3.033-1.743,6.065-3.487,6.065-3.487l-2.67-4.615c0,0-2.974,1.71-5.948,3.421c-1.505,0.822-3.048,1.575-4.188,2.17
			C434.465,543.237,433.702,543.628,433.702,543.628z"/>
		<path d="M415.219,552.334l2.071,4.913c0,0,0.208-0.07,0.554-0.233c0.349-0.158,0.847-0.383,1.444-0.653
			c1.195-0.54,2.789-1.261,4.383-1.981c3.186-1.444,6.372-2.889,6.372-2.889l-2.317-4.802c0,0-3.125,1.416-6.25,2.832
			c-1.563,0.707-3.126,1.414-4.298,1.944c-0.586,0.265-1.075,0.486-1.417,0.641C415.422,552.266,415.219,552.334,415.219,552.334z"
			/>
		<path d="M396.082,559.486l1.696,5.055c0,0,3.313-1.122,6.627-2.243c1.646-0.59,3.26-1.268,4.484-1.738
			c1.22-0.481,2.034-0.802,2.034-0.802l-1.949-4.963c0,0-0.798,0.314-1.995,0.787c-1.201,0.46-2.783,1.127-4.397,1.706
			C399.332,558.387,396.082,559.486,396.082,559.486z"/>
		<path d="M376.498,565.307l1.31,5.168c0,0,0.858-0.172,2.115-0.549c1.262-0.358,2.944-0.836,4.626-1.313
			c3.364-0.956,6.729-1.911,6.729-1.911l-1.57-5.096c0,0-3.3,0.937-6.599,1.873c-1.65,0.469-3.299,0.938-4.537,1.289
			C377.339,565.139,376.498,565.307,376.498,565.307z"/>
		<path d="M356.505,569.518l0.918,5.252c0,0,3.444-0.615,6.887-1.23c1.724-0.296,3.414-0.759,4.697-1.032
			c1.278-0.295,2.13-0.492,2.13-0.492l-1.182-5.199c0,0-0.835,0.193-2.089,0.482c-1.258,0.268-2.915,0.724-4.606,1.013
			C359.882,568.915,356.505,569.518,356.505,569.518z"/>
		<path d="M336.267,572.343l0.523,5.306c0,0,0.874-0.049,2.173-0.233c1.301-0.165,3.036-0.385,4.771-0.605
			c3.47-0.441,6.939-0.882,6.939-0.882l-0.788-5.273c0,0-3.403,0.432-6.807,0.864c-1.702,0.216-3.403,0.433-4.679,0.595
			C337.124,572.296,336.267,572.343,336.267,572.343z"/>
		<path d="M315.871,573.521l0.129,5.331c0,0,3.496-0.089,6.991-0.177c1.746-0.083,3.487-0.251,4.795-0.339
			c1.308-0.1,2.18-0.166,2.18-0.166l-0.394-5.317c0,0-0.855,0.065-2.138,0.163c-1.283,0.087-2.992,0.253-4.705,0.334
			C319.301,573.435,315.871,573.521,315.871,573.521z"/>
	</g>
	<g>
		<polygon points="295.432,573.344 295.168,578.67 309.153,579.023 309.153,573.691 		"/>
		<path d="M275.082,571.5l-0.659,5.292c0,0,0.868,0.11,2.169,0.275c1.303,0.15,3.033,0.42,4.774,0.571
			c3.488,0.266,6.975,0.531,6.975,0.531l0.394-5.317c0,0-3.421-0.26-6.843-0.52c-1.709-0.147-3.406-0.414-4.684-0.561
			C275.933,571.609,275.082,571.5,275.082,571.5z"/>
		<path d="M254.906,568.287l-1.053,5.227c0,0,3.443,0.615,6.887,1.23c1.722,0.308,3.443,0.615,4.735,0.845
			c1.288,0.25,2.159,0.339,2.159,0.339l0.788-5.273c0,0-0.854-0.087-2.118-0.333c-1.267-0.227-2.955-0.528-4.644-0.83
			C258.283,568.89,254.906,568.287,254.906,568.287z"/>
		<path d="M235.058,563.439l-1.443,5.133c0,0,0.841,0.239,2.103,0.597c1.267,0.34,2.934,0.875,4.637,1.272
			c3.408,0.787,6.815,1.574,6.815,1.574l1.182-5.199c0,0-3.342-0.771-6.685-1.542c-1.67-0.389-3.305-0.916-4.547-1.249
			C235.883,563.674,235.058,563.439,235.058,563.439z"/>
		<path d="M215.59,557.242l-1.826,5.01c0,0,3.313,1.121,6.627,2.243c1.657,0.561,3.314,1.121,4.557,1.542
			c1.237,0.437,2.082,0.665,2.082,0.666l1.57-5.096c0,0-0.828-0.224-2.042-0.653c-1.219-0.413-2.844-0.963-4.468-1.513
			C218.839,558.341,215.59,557.242,215.59,557.242z"/>
		<path d="M196.696,549.46l-2.198,4.858c0,0,3.189,1.437,6.378,2.874c3.254,1.284,6.508,2.567,6.508,2.567l1.949-4.963
			c0,0-3.191-1.258-6.383-2.516C199.823,550.87,196.696,549.46,196.696,549.46z"/>
		<path d="M178.384,540.409l-2.556,4.68c0,0,0.189,0.109,0.521,0.3c0.34,0.174,0.827,0.424,1.41,0.724
			c1.167,0.598,2.723,1.395,4.28,2.192c3.113,1.594,6.226,3.188,6.226,3.188l2.317-4.803c0,0-3.053-1.564-6.105-3.128
			c-1.527-0.782-3.053-1.563-4.198-2.149c-0.572-0.293-1.049-0.538-1.383-0.709C178.57,540.516,178.384,540.409,178.384,540.409z"/>
	</g>
	<g>
		<path d="M160.859,529.895l-2.899,4.475c0,0,2.945,1.888,5.89,3.775c1.465,0.955,3.018,1.767,4.144,2.439
			c1.137,0.654,1.896,1.09,1.896,1.09l2.67-4.615c0,0-0.744-0.427-1.859-1.069c-1.104-0.66-2.628-1.455-4.065-2.392
			C163.748,531.747,160.859,529.895,160.859,529.895z"/>
		<path d="M144.116,518.186l-3.224,4.247c0,0,0.689,0.538,1.724,1.344c1.069,0.76,2.494,1.774,3.919,2.788
			c2.851,2.027,5.701,4.054,5.701,4.054l3.008-4.403c0,0-2.796-1.988-5.592-3.977c-1.398-0.994-2.796-1.988-3.845-2.733
			C144.792,518.713,144.116,518.186,144.116,518.186z"/>
		<path d="M128.33,505.215l-3.531,3.996c0,0,2.644,2.29,5.288,4.58c0.662,0.571,1.324,1.143,1.945,1.678
			c0.645,0.506,1.246,0.979,1.762,1.385c1.031,0.811,1.719,1.351,1.719,1.351l3.327-4.167c0,0-0.674-0.53-1.686-1.325
			c-0.506-0.397-1.096-0.861-1.729-1.358c-0.609-0.525-1.258-1.086-1.907-1.647C130.923,507.461,128.33,505.215,128.33,505.215z"/>
		<path d="M113.53,491.127l-3.818,3.722c0,0,0.603,0.633,1.508,1.582c0.88,0.973,2.174,2.152,3.433,3.365
			c2.531,2.413,5.062,4.826,5.062,4.826l3.627-3.908c0,0-2.482-2.367-4.965-4.734c-1.236-1.189-2.505-2.345-3.368-3.301
			C114.122,491.748,113.53,491.127,113.53,491.127z"/>
		<path d="M99.809,475.986l-4.084,3.428c0,0,2.29,2.644,4.58,5.288c1.157,1.311,2.264,2.667,3.176,3.61
			c0.905,0.95,1.508,1.583,1.508,1.583l3.908-3.627c0,0-0.592-0.621-1.48-1.552c-0.896-0.924-1.98-2.256-3.115-3.542
			C102.055,478.58,99.809,475.986,99.809,475.986z"/>
		<path d="M87.287,459.838l-4.328,3.114c0,0,0.507,0.712,1.267,1.781c0.763,1.067,1.75,2.511,2.859,3.865
			c2.161,2.75,4.322,5.5,4.322,5.5l4.167-3.327c0,0-2.12-2.698-4.24-5.395c-1.088-1.328-2.056-2.746-2.804-3.792
			C87.784,460.537,87.287,459.838,87.287,459.838z"/>
		<path d="M75.935,442.854l-4.548,2.783c0,0,1.887,2.944,3.774,5.889c0.944,1.472,1.888,2.944,2.596,4.047
			c0.345,0.558,0.665,1.001,0.888,1.312c0.222,0.312,0.348,0.49,0.348,0.49l4.403-3.007c0,0-0.124-0.175-0.342-0.48
			c-0.219-0.305-0.533-0.739-0.871-1.287c-0.694-1.083-1.62-2.527-2.545-3.971C77.786,445.742,75.935,442.854,75.935,442.854z"/>
	</g>
	<g>
		<path d="M65.982,425.006l-4.744,2.435c0,0,0.398,0.778,0.997,1.946c0.607,1.163,1.375,2.735,2.213,4.27
			c1.743,3.033,3.487,6.065,3.487,6.065l4.615-2.67c0,0-1.71-2.974-3.421-5.948c-0.822-1.505-1.575-3.048-2.17-4.188
			C66.374,425.769,65.982,425.006,65.982,425.006z"/>
		<path d="M57.276,406.522l-4.913,2.071c0,0,0.07,0.208,0.233,0.554c0.158,0.349,0.383,0.847,0.653,1.444
			c0.54,1.195,1.261,2.789,1.981,4.383c1.444,3.186,2.889,6.372,2.889,6.372l4.802-2.317c0,0-1.416-3.125-2.832-6.25
			c-0.707-1.563-1.414-3.126-1.944-4.298c-0.265-0.586-0.486-1.075-0.641-1.417C57.345,406.726,57.276,406.522,57.276,406.522z"/>
		<path d="M50.124,387.386l-5.055,1.696c0,0,1.122,3.313,2.243,6.627c0.59,1.646,1.268,3.26,1.738,4.484
			c0.481,1.22,0.802,2.034,0.802,2.034l4.963-1.949c0,0-0.314-0.798-0.787-1.995c-0.46-1.201-1.127-2.783-1.706-4.397
			C51.223,390.635,50.124,387.386,50.124,387.386z"/>
		<path d="M44.303,367.801l-5.168,1.31c0,0,0.172,0.858,0.549,2.115c0.358,1.262,0.836,2.944,1.313,4.626
			c0.956,3.364,1.911,6.729,1.911,6.729l5.096-1.57c0,0-0.937-3.3-1.873-6.599c-0.469-1.65-0.938-3.299-1.289-4.537
			C44.471,368.643,44.303,367.801,44.303,367.801z"/>
		<path d="M40.093,347.809l-5.252,0.918c0,0,0.615,3.444,1.23,6.887c0.296,1.724,0.759,3.414,1.032,4.697
			c0.295,1.278,0.492,2.13,0.492,2.13l5.199-1.182c0,0-0.193-0.835-0.482-2.089c-0.268-1.258-0.724-2.915-1.014-4.606
			C40.696,351.186,40.093,347.809,40.093,347.809z"/>
		<path d="M37.267,327.571l-5.306,0.523c0,0,0.049,0.874,0.233,2.173c0.165,1.301,0.385,3.036,0.605,4.771
			c0.441,3.47,0.882,6.939,0.882,6.939l5.274-0.788c0,0-0.432-3.403-0.864-6.807c-0.217-1.702-0.433-3.403-0.595-4.679
			C37.314,328.428,37.268,327.571,37.267,327.571z"/>
		<path d="M36.09,307.175l-5.331,0.129c0,0,0.089,3.496,0.177,6.991c0.083,1.746,0.251,3.487,0.339,4.795
			c0.099,1.308,0.166,2.18,0.166,2.18l5.317-0.394c0,0-0.065-0.855-0.163-2.138c-0.087-1.283-0.253-2.992-0.334-4.705
			C36.176,310.604,36.09,307.175,36.09,307.175z"/>
	</g>
</g>
</svg>
