<?xml version="1.0" encoding="utf-8"?>
<!-- Generator: Adobe Illustrator 16.0.3, SVG Export Plug-In . SVG Version: 6.00 Build 0)  -->
<!DOCTYPE svg PUBLIC "-//W3C//DTD SVG 1.1//EN" "http://www.w3.org/Graphics/SVG/1.1/DTD/svg11.dtd">
<svg version="1.1" id="Capa_1" xmlns="http://www.w3.org/2000/svg" xmlns:xlink="http://www.w3.org/1999/xlink" x="0px" y="0px"
	 width="595.28px" height="595.28px" viewBox="0 0 595.28 595.28" enable-background="new 0 0 595.28 595.28" xml:space="preserve">
<g>
	<g>
		<g>
			<path d="M400.47,366.3c-2.633-0.648-4.504,0.092-6.223,2.175c-2.774,3.359-5.283,7.013-7.931,10.479
				c0.705-0.091,1.411-0.182,2.116-0.272c-19.827-15.599-39.656-31.196-59.483-46.794c0,0.635,0,1.27,0,1.905
				c4.358-4.535,8.584-9.191,12.839-13.823c4.148-4.517,9.384-8.937,12.497-14.248c2.381-4.064,1.863-9.146,0.936-13.537
				c-0.669-3.169-1.657-6.276-2.639-9.359c-0.557-1.749-1.144-3.488-1.72-5.231c-0.719-0.012-0.786-0.196-0.202-0.554
				c0.189-0.189,0.379-0.379,0.568-0.569c0.395-0.395,0.564-1.151,0.21-1.633c-6.096-8.302-12.022-16.726-17.875-25.201
				c-4.395-6.364-13.857-9.727-20.857-12.227c-0.604-0.216-1.183,0.153-1.521,0.62c-0.459,0.64-0.926,1.275-1.4,1.905
				c0.775,0.454,1.552,0.907,2.327,1.36c1.387-3.031-6.151-5.22-7.896-5.964c-2.625-1.12-5.276-2.176-7.931-3.224
				c-1.032-0.408-2.066-0.812-3.099-1.222c-0.279-0.11-1.43-0.721-1.041-0.351c-0.199,0.751-0.396,1.501-0.595,2.252
				c-0.722,0.173-0.785-0.045-0.227,0.117c0.53,0.154,1.056,0.328,1.581,0.497c1.594,0.513,3.173,1.088,4.778,1.563
				c1.718,0.507,2.267-1.951,0.717-2.599c-2.79-1.166-5.749-2.023-8.596-3.041c-1.882-0.672-2.444-0.817-3.584-2.133
				c-1.064-1.229-3.225-1.989-3.486-3.712c-0.069-0.454-0.53-0.82-0.941-0.941c-9.991-2.938-20.059-5.362-30.511-5.694
				c-0.792-0.025-1.271,0.636-1.348,1.348c-0.515,4.81-0.181,9.57,0.098,14.393c0.151,2.617,0.303,5.234,0.454,7.851
				c0.126,2.181,0.051,3.316,1.604,4.873c1.925,1.93,3.724,2.328,4.741,5.165c0.915,2.551,0.579,5.983,0.718,8.667
				c0.146,2.832,0.261,5.666,0.375,8.5c0.127,3.152,0.814,6.911,0.004,9.97c0.553-0.314,1.105-0.627,1.658-0.941
				c-0.63-0.25-0.669-2.388-0.79-2.891c-0.346-1.444-1.017-2.824-1.697-4.133c-1.297-2.496-3.347-4.611-5.399-6.489
				c-2.606-2.384-5.385-4.092-7.321-7.154c-2.042-3.229-2.939-7.184-4.148-10.771c-0.314,0.553-0.627,1.105-0.941,1.658
				c4.329-0.761,8.808-0.299,13.143-1.042c0.559-0.096,1.021-0.749,0.989-1.299c-0.468-8.042-0.934-16.138-1.402-24.212
				c-0.042-0.715-0.582-1.372-1.348-1.348c-8.24,0.256-19.391-0.915-26.526,4.037c-3.962,2.75-3.095,8.525-2.667,12.608
				c0.679,6.46,2.738,12.685,5.096,18.702c0.751-0.437,1.502-0.874,2.252-1.311c-7.059-5.545-14.118-11.09-21.176-16.635
				c-0.704-0.553-1.595-0.511-2.117,0.272c-1.82,2.733-3.641,5.467-5.462,8.199c-0.306,0.46-0.236,1.275,0.211,1.633
				c8.595,6.879,17.197,13.748,25.902,20.487c1.968,1.524,4.106,2.939,5.854,4.713c1.81,1.837,1.489,5.188,2.238,7.542
				c0.974,3.061,3.307,5.358,5.976,7.002c3.01,1.854,6.371,2.588,9.834,1.942c2.947-0.55,5.573,1.143,7.165,3.508
				c1.636,2.43,0.652,6.828,0.537,9.59c-0.148,3.547-1.608,8.624,1.381,11.357c0.867,0.792,2.182,1.074,3.303,1.199
				c3.015,0.335,6.035,0.611,9.053,0.91c-0.318-0.767-0.635-1.534-0.953-2.3c-1.559,1.55-2.639,3.333-5.011,3.111
				c-2.01-0.188-4.019-0.391-6.029-0.583c-0.735-0.07-1.344,0.666-1.348,1.348c-0.009,1.729-0.035,3.458-0.051,5.187
				c-0.023,2.489-0.045,3.36-1.826,5.132c-0.713,0.71-0.241,1.841-0.079,2.653c0.445,2.237,0.856,4.481,1.253,6.727
				c1.564,8.849,2.568,17.784,2.711,26.772c0.012,0.767,0.605,1.305,1.348,1.348c1.213,0.07,2.229-0.218,3.12-1.1
				c-0.767-0.317-1.534-0.635-2.3-0.953c-0.551,4.962-1.034,9.98-2.112,14.86c-0.278,1.261-0.23,2.374-0.008,3.633
				c0.619,3.507-0.639,5.554-2.032,8.663c-2.064,4.607-4.16,9.202-6.259,13.793c-1.482,3.241-4.751,7.903-3.709,11.704
				c1.189,4.34,4.077,8.44,6.049,12.483c1.568,3.213,2.891,6.819,6.002,8.898c2.354,1.573,5.119,2.437,7.97,2.018
				c2.583-0.38,6.832-1.619,7.82-4.447c1.038-2.97-1.07-5.253-2.819-7.465c-3.751-4.742-6.083-8.812-4.448-14.968
				c1.311-4.939,4.598-9.526,6.774-14.127c0.432-0.914,2.598-7.186,3.625-7.138c1.143,0.053,2.268-0.042,3.389-0.259
				c5.742-1.11,6.248-9.311,7.083-13.719c1.852-9.783,3.483-19.625,6.608-29.085c-0.75,0.198-1.501,0.396-2.252,0.595
				c3.516,3.193,5.478,6.551,6.885,11.16c1.304,4.272,2.558,8.559,3.742,12.865c1.662,6.038,1.837,12.302,8.706,14.176
				c-0.329-0.433-0.659-0.867-0.989-1.3c0.843,7.734,3.314,15.144,4.345,22.842c0.572,4.282-1.39,10.497,3.701,12.397
				c3.588,1.339,7.241,2.51,10.842,3.819c3.082,1.121,6.492,3.041,9.888,2.578c4.378-0.597,8.734-5.078,6.932-9.703
				c-0.92-2.359-3.691-3.393-5.771-4.394c-3.458-1.667-8.422-2.831-9.757-6.86c-1.319-3.979-1.109-9.138-1.552-13.306
				c-0.247-2.327-0.491-4.654-0.74-6.981c-0.114-1.077,1.499-1.401,2.239-1.995c1.156-0.928,1.576-2.007,1.573-3.474
				c-0.007-3.557-1.364-7.396-2.144-10.838c-1.907-8.412-4.488-16.768-5.818-25.293c-0.659,0.507-1.319,1.015-1.979,1.522
				c19.12,14.293,37.704,29.28,56.52,43.966c-0.069-0.544-0.14-1.088-0.21-1.633c-1.798,2.594-3.603,5.183-5.395,7.781
				c-0.905,1.312-2.028,2.842-2.224,4.477c-0.379,3.159,3.225,4.326,5.563,5.282c3.18,1.3,6.416,2.473,9.623,3.702
				c1.813,0.694,3.606,1.518,5.561,1.684c3.134,0.266,4.304-4.151,5.158-6.314c0.204-0.516-0.119-1.292-0.619-1.522
				c-3.299-1.52-6.585-3.047-9.96-4.388c-0.845-0.325-1.686-0.658-2.521-1c0.758-0.923,1.516-1.845,2.274-2.768
				c0.787,0.293,1.572,0.594,2.354,0.901c1.959,0.76,3.901,1.562,5.852,2.342c1.506,0.602,3.997,1.945,5.653,0.955
				c1.696-1.013,2.219-3.068,2.811-4.831c0.18-0.535-0.103-1.272-0.619-1.522c-4.209-2.033-8.418-4.064-12.628-6.095
				c0.207,0.507,0.413,1.014,0.619,1.522c0.194-0.889,0.4-1.755,0.673-2.623c0.524-1.669,3.438,0.186,4.047,0.454
				c2.68,1.179,5.328,2.449,8.069,3.481c3.308,1.246,4.432-2.192,5.432-4.626c0.216-0.524-0.13-1.278-0.619-1.522
				c-4.036-2.007-8.072-4.015-12.108-6.023c0.206,0.507,0.412,1.015,0.619,1.522c0.217-0.542,0.807-2.87,1.495-2.935
				c1.076-0.103,3.368,1.145,4.139,1.475c2.111,0.902,4.197,2.041,6.451,2.551c3.597,0.813,4.424-3.208,4.998-5.82
				c0.171-0.774-0.228-1.382-0.94-1.658C409.638,369.783,405.083,367.967,400.47,366.3c-1.638-0.592-2.338,2.013-0.716,2.599
				c4.612,1.667,9.168,3.483,13.741,5.251c-0.313-0.553-0.627-1.105-0.94-1.658c-0.261,1.18-0.482,2.398-0.991,3.504
				c-0.438,0.953-2.014,0.064-2.629-0.165c-2.691-0.997-5.218-2.364-7.948-3.269c-3.402-1.126-4.491,2.09-5.516,4.66
				c-0.211,0.526,0.126,1.276,0.619,1.522c4.036,2.007,8.072,4.015,12.108,6.022c-0.206-0.507-0.412-1.015-0.619-1.522
				c-0.022,0.055-0.966,2.997-1.577,2.904c-1.431-0.217-2.85-1.103-4.158-1.674c-2.479-1.083-4.935-2.432-7.55-3.165
				c-3.436-0.964-4.384,2.708-4.936,5.249c-0.121,0.558,0.061,1.252,0.619,1.522c4.21,2.031,8.419,4.062,12.628,6.095
				c-0.206-0.507-0.413-1.015-0.619-1.522c-0.643,1.917-0.911,3.514-3.19,2.752c-2.25-0.752-4.437-1.756-6.638-2.638
				c-3.323-1.331-6.154-2.634-8.848,0.398c-1.387,1.559-1.636,4.37,0.353,5.562c3.992,2.393,8.85,3.8,13.099,5.757
				c-0.206-0.507-0.413-1.015-0.619-1.522c-1.063,2.69-1.382,4.881-4.531,3.833c-3.872-1.288-7.665-2.912-11.47-4.384
				c-1.277-0.494-2.536-1.006-3.739-1.661c-1.488-0.81-0.671-1.884-0.009-3.02c1.884-3.228,4.261-6.234,6.389-9.303
				c0.312-0.449,0.234-1.286-0.211-1.633c-18.997-14.828-37.761-29.957-57.065-44.388c-1.069-0.799-2.137,0.516-1.979,1.522
				c1.115,7.156,3.188,14.194,4.868,21.234c0.861,3.604,1.674,7.218,2.421,10.847c0.255,1.236,0.738,2.742,0.557,4.021
				c-0.145,1.019-2.518,1.839-3.274,2.234c-0.382,0.2-0.715,0.722-0.667,1.164c0.503,4.667,0.985,9.335,1.496,14.001
				c0.402,3.686,0.225,7.976,2.378,11.155c1.837,2.714,5.605,3.805,8.413,5.113c1.95,0.91,5.184,1.847,6.053,4.079
				c1.285,3.297-3.529,5.614-5.917,5.644c-2.173,0.026-4.568-1.325-6.556-2.062c-2.176-0.806-4.36-1.585-6.548-2.354
				c-1.964-0.691-4.009-1.25-5.917-2.088c-1.854-0.814-1.076-4.181-1.102-5.775c-0.139-9.08-3.671-17.743-4.649-26.721
				c-0.066-0.604-0.363-1.128-0.99-1.299c-4.432-1.209-4.777-4.452-5.79-8.411c-0.996-3.894-2.103-7.758-3.235-11.614
				c-1.031-3.514-1.985-7.044-3.548-10.366c-1.445-3.077-3.108-4.881-5.569-7.116c-0.771-0.699-1.928-0.39-2.253,0.594
				c-2.548,7.711-3.987,15.593-5.545,23.561c-0.83,4.248-1.426,8.594-2.564,12.772c-0.754,2.766-2.123,4.57-5.067,4.755
				c-1.068,0.067-3.171-0.417-3.784,0.914c-1.922,4.178-3.777,8.39-5.9,12.472c-3.445,6.624-7.228,13.194-4.121,20.715
				c1.293,3.13,3.921,5.755,5.953,8.413c2.425,3.171-1.774,5.016-4.173,5.585c-2.084,0.494-4.248-0.1-6.071-1.091
				c-3.773-2.051-5.257-7.351-7.033-10.945c-1.027-2.08-2.101-4.136-3.193-6.182c-1.903-3.565-1.223-5.575,0.36-9.028
				c3.599-7.855,7.717-15.694,10.69-23.809c0.417-1.14,0.364-2.313,0.042-3.45c-0.7-2.469-0.199-4.14,0.182-6.499
				c0.657-4.084,1.129-8.198,1.585-12.308c0.136-1.222-1.535-1.711-2.3-0.953c-0.405,0.103-0.81,0.207-1.215,0.31
				c0.449,0.449,0.898,0.898,1.348,1.348c-0.133-8.324-1.039-16.575-2.353-24.79c-0.36-2.252-0.771-4.496-1.189-6.738
				c-0.484-2.594-0.719-3.13,1.151-4.992c0.814-0.81,0.346-2.505,0.331-3.488c-0.032-2.153,0.04-4.309,0.051-6.462
				c-0.449,0.449-0.898,0.898-1.348,1.348c2.755,0.262,5.508,0.54,8.264,0.787c1.524,0.137,3.724-3.152,4.682-4.105
				c0.897-0.893,0.165-2.19-0.953-2.301c-2.587-0.256-5.175-0.496-7.761-0.766c-4.573-0.478-3.594-3.83-3.409-7.291
				c0.201-3.788,1.457-9.304-0.355-12.841c-1.505-2.938-4.036-4.88-7.238-5.646c-1.803-0.431-3.575,0.208-5.369,0.31
				c-2.224,0.126-4.687-1.229-6.508-2.35c-4.101-2.526-4.048-6.489-5.149-10.62c-1.032-3.875-5.838-6.368-8.728-8.604
				c-8.345-6.461-16.582-13.057-24.821-19.65c0.07,0.544,0.141,1.088,0.21,1.633c1.821-2.733,3.642-5.466,5.462-8.199
				c-0.706,0.091-1.411,0.182-2.117,0.272c7.059,5.545,14.118,11.09,21.176,16.635c0.922,0.724,2.806,0.101,2.252-1.311
				c-1.883-4.806-3.486-9.671-4.496-14.739c-0.989-4.964-2.593-12.472,3.197-14.839c6.937-2.836,15.446-2.129,22.797-2.357
				c-0.449-0.449-0.898-0.898-1.348-1.348c0.468,8.068,0.935,16.179,1.402,24.212c0.33-0.433,0.66-0.867,0.989-1.3
				c-4.329,0.742-8.807,0.28-13.142,1.042c-0.696,0.123-1.16,1.01-0.941,1.658c1.086,3.221,2.054,6.468,3.447,9.574
				c1.581,3.523,4.159,5.863,7.127,8.201c2.879,2.267,5.339,4.92,7.035,8.184c1.484,2.856,0.375,6.07,3.629,7.362
				c0.679,0.27,1.485-0.289,1.658-0.941c1.323-4.999,0.082-11.22-0.147-16.354c-0.208-4.671,0.265-10.029-1.841-14.326
				c-0.638-1.301-1.869-2.597-3.086-3.351c-3.051-1.891-2.391-5.926-2.573-9.077c-0.329-5.682-0.857-11.358-0.25-17.028
				c-0.449,0.449-0.898,0.898-1.348,1.348c6.145,0.195,12.161,1.104,18.151,2.462c2.603,0.59,5.18,1.292,7.75,2.009
				c0.206,0.058,3.036,0.739,3.049,0.825c0.093,0.617,0.64,1.191,1.011,1.655c0.918,1.152,2.809,1.511,3.115,3.125
				c0.284,1.496,3.63,1.914,4.73,2.309c2.846,1.021,5.806,1.875,8.596,3.041c0.239-0.867,0.479-1.732,0.717-2.599
				c-1.944-0.574-5.44-2.688-7.566-2.176c-0.979,0.235-1.315,1.564-0.595,2.252c1.959,1.87,6.321,2.65,8.771,3.635
				c2.266,0.911,4.521,1.847,6.747,2.854c0.922,0.417,1.833,0.859,2.728,1.334c0.288,0.153,0.568,0.319,0.848,0.489
				c0.881,0.536-0.075,0.332,0.451-0.819c-0.73,1.595,1.291,2.752,2.327,1.36c0.474-0.63,0.94-1.265,1.4-1.905
				c-0.508,0.206-1.015,0.413-1.521,0.619c3.797,1.356,7.477,2.913,11.024,4.832c4.517,2.443,7.701,5.412,10.619,9.622
				c5.066,7.311,10.213,14.566,15.478,21.736c0.07-0.544,0.141-1.089,0.211-1.633c-0.379,0.379-0.759,0.758-1.138,1.138
				c-0.326,0.327-0.494,0.86-0.346,1.311c3.172,9.672,9.456,22.173,1.381,30.908c-7.388,7.99-14.637,16.118-22.177,23.965
				c-0.462,0.481-0.586,1.444,0,1.905c19.828,15.599,39.656,31.196,59.483,46.794c0.74,0.582,1.549,0.472,2.117-0.273
				c1.337-1.751,2.685-3.494,4.028-5.241c1.596-2.078,3.863-6.967,7.082-6.175C401.441,369.314,402.157,366.715,400.47,366.3z"/>
			<path d="M321.323,321.031c-1.241-1.704-2.499-2.683-4.581-3.165c-2.809-0.65-5.137,0.837-7.385-1.428c0,0.635,0,1.271,0,1.906
				c1.233-1.233,2.017-2.393,3.849-2.434c1.215-0.028,2.282-0.233,3.42-0.665c2.519-0.956,1.861-2.962,1.875-5.219
				c0.01-1.636,2.575-3.401,3.609-4.436c1.615-1.614,3.229-3.229,4.845-4.844c2.906-2.906,5.812-5.813,8.719-8.719
				c-0.635,0-1.271,0-1.906,0c2.937,3.386,3.815,5.596,1.369,9.641c-1.399,2.313-2.769,4.646-4.147,6.971
				c-1.409,2.374-2.709,4.877-4.573,6.929c-1.907,2.098-4.537,3.527-6.937,4.979c-1.484,0.899-0.131,3.23,1.359,2.327
				c2.658-1.609,5.238-3.236,7.482-5.401c2.747-2.65,4.453-6.56,6.374-9.8c1.637-2.763,4.704-6.234,4.814-9.61
				c0.11-3.391-1.717-5.498-3.836-7.942c-0.481-0.556-1.414-0.492-1.906,0c-5.49,5.489-10.979,10.98-16.469,16.47
				c-0.739,0.738-1.243,1.021-1.374,1.997c-0.172,1.278,0.518,3.855-0.999,4.431c-1.308,0.497-2.813-0.036-4.137,0.329
				c-1.247,0.343-2.456,2.209-3.338,3.09c-0.521,0.521-0.517,1.384,0,1.906c0.971,0.978,1.854,1.794,3.22,2.113
				c3.086,0.721,5.947-1.33,8.324,1.935C320.008,323.782,322.348,322.439,321.323,321.031z"/>
		</g>
		<g>
			<path d="M314.613,230.605c15.787-0.294,29.087-13.69,29.242-29.484c0.154-15.558-13.538-29.909-29.11-29.925
				c-14.543-0.016-26.951,9.666-29.828,23.946c-2.943,14.611,5.306,28.754,19.209,33.804
				C307.469,230.16,311.08,230.573,314.613,230.605c1.739,0.016,1.737-2.68,0-2.695c-14.23-0.127-26.486-10.266-27.565-24.789
				c-1.032-13.887,8.149-25.526,21.49-28.538c15.502-3.5,29.568,7.672,32.318,22.823c2.827,15.579-10.992,30.22-26.243,30.504
				C312.878,227.942,312.874,230.637,314.613,230.605z"/>
		</g>
	</g>
	<path d="M297.64,125.853c-100.767,0-182.454,80.667-182.454,180.175c0,99.509,81.687,180.175,182.454,180.175
		s182.454-80.667,182.454-180.175C480.094,206.52,398.406,125.853,297.64,125.853z M297.64,146.582
		c40.314,0,76.078,14.591,103.172,38.716L176.035,410.913c-24.816-28.036-39.857-64.724-39.857-104.885
		C136.178,217.968,208.466,146.582,297.64,146.582z M297.64,465.474c-39.631,0-75.92-14.11-104.018-37.507l227.167-221.12
		c20.815,27.225,32.954,61.689,32.954,99.181C453.743,394.088,386.813,465.474,297.64,465.474z"/>
</g>
<g>
	<g>
		<polygon points="24.752,289.88 19.427,289.617 19.073,303.602 24.405,303.602 		"/>
		<path d="M26.596,269.531l-5.292-0.659c0,0-0.11,0.868-0.275,2.169c-0.15,1.303-0.42,3.033-0.571,4.774
			c-0.266,3.488-0.531,6.975-0.531,6.975l5.318,0.394c0,0,0.26-3.421,0.52-6.843c0.147-1.709,0.414-3.406,0.561-4.684
			C26.488,270.381,26.596,269.531,26.596,269.531z"/>
		<path d="M29.81,249.354l-5.227-1.053c0,0-0.615,3.443-1.23,6.887c-0.308,1.722-0.615,3.443-0.845,4.735
			c-0.25,1.288-0.339,2.159-0.339,2.159l5.274,0.788c0,0,0.087-0.854,0.333-2.118c0.227-1.267,0.528-2.955,0.83-4.644
			C29.207,252.732,29.81,249.354,29.81,249.354z"/>
		<path d="M34.657,229.507l-5.133-1.443c0,0-0.239,0.841-0.597,2.103c-0.34,1.267-0.875,2.934-1.272,4.637
			c-0.787,3.408-1.574,6.815-1.574,6.815l5.199,1.182c0,0,0.771-3.342,1.542-6.685c0.389-1.67,0.916-3.305,1.249-4.547
			C34.423,230.332,34.657,229.507,34.657,229.507z"/>
		<path d="M40.854,210.039l-5.01-1.826c0,0-1.121,3.313-2.243,6.627c-0.561,1.657-1.121,3.314-1.542,4.557
			c-0.437,1.237-0.665,2.082-0.666,2.082l5.096,1.57c0,0,0.224-0.828,0.653-2.042c0.413-1.219,0.963-2.844,1.513-4.468
			C39.755,213.288,40.854,210.039,40.854,210.039z"/>
		<path d="M48.636,191.145l-4.858-2.198c0,0-1.437,3.189-2.874,6.378c-1.284,3.254-2.567,6.508-2.567,6.508l4.963,1.949
			c0,0,1.258-3.191,2.516-6.383C47.227,194.271,48.636,191.145,48.636,191.145z"/>
		<path d="M57.688,172.833l-4.68-2.556c0,0-0.109,0.189-0.299,0.521c-0.175,0.34-0.424,0.827-0.724,1.41
			c-0.598,1.167-1.395,2.723-2.192,4.28c-1.594,3.113-3.188,6.226-3.188,6.226l4.803,2.317c0,0,1.564-3.053,3.128-6.105
			c0.782-1.527,1.563-3.053,2.149-4.198c0.293-0.572,0.538-1.049,0.709-1.383C57.581,173.019,57.688,172.833,57.688,172.833z"/>
	</g>
	<g>
		<path d="M68.202,155.308l-4.475-2.899c0,0-1.888,2.945-3.775,5.89c-0.955,1.465-1.767,3.018-2.439,4.144
			c-0.654,1.137-1.09,1.896-1.09,1.896l4.615,2.67c0,0,0.427-0.744,1.069-1.859c0.66-1.104,1.455-2.628,2.392-4.065
			C66.35,158.196,68.202,155.308,68.202,155.308z"/>
		<path d="M79.911,138.565l-4.247-3.224c0,0-0.538,0.689-1.344,1.724c-0.76,1.069-1.774,2.494-2.788,3.919
			c-2.027,2.851-4.054,5.701-4.054,5.701l4.403,3.008c0,0,1.988-2.796,3.977-5.592c0.994-1.398,1.988-2.796,2.733-3.845
			C79.383,139.241,79.911,138.565,79.911,138.565z"/>
		<path d="M92.882,122.778l-3.996-3.531c0,0-2.29,2.644-4.58,5.288c-0.571,0.662-1.143,1.324-1.678,1.945
			c-0.506,0.645-0.979,1.246-1.385,1.762c-0.811,1.031-1.351,1.719-1.351,1.719l4.167,3.327c0,0,0.53-0.674,1.325-1.686
			c0.397-0.506,0.861-1.096,1.358-1.729c0.525-0.609,1.086-1.258,1.647-1.907C90.635,125.372,92.882,122.778,92.882,122.778z"/>
		<path d="M106.97,107.979l-3.722-3.818c0,0-0.633,0.603-1.582,1.508c-0.973,0.88-2.152,2.174-3.365,3.433
			c-2.413,2.531-4.826,5.062-4.826,5.062l3.908,3.627c0,0,2.367-2.482,4.734-4.965c1.189-1.236,2.345-2.505,3.301-3.368
			C106.349,108.571,106.97,107.979,106.97,107.979z"/>
		<path d="M122.111,94.257l-3.428-4.084c0,0-2.644,2.29-5.288,4.58c-1.311,1.157-2.667,2.264-3.61,3.176
			c-0.95,0.905-1.583,1.508-1.583,1.508l3.627,3.908c0,0,0.621-0.592,1.552-1.48c0.924-0.896,2.256-1.98,3.542-3.115
			C119.517,96.504,122.111,94.257,122.111,94.257z"/>
		<path d="M138.258,81.735l-3.114-4.328c0,0-0.712,0.507-1.781,1.267c-1.067,0.763-2.511,1.75-3.865,2.859
			c-2.75,2.161-5.5,4.322-5.5,4.322l3.327,4.167c0,0,2.698-2.12,5.395-4.24c1.328-1.088,2.746-2.056,3.792-2.804
			C137.56,82.232,138.258,81.735,138.258,81.735z"/>
		<path d="M155.242,70.383l-2.783-4.548c0,0-2.944,1.887-5.889,3.774c-1.472,0.944-2.944,1.888-4.047,2.596
			c-0.558,0.345-1.001,0.665-1.312,0.888c-0.312,0.222-0.49,0.348-0.49,0.348l3.007,4.403c0,0,0.175-0.124,0.48-0.342
			c0.305-0.219,0.739-0.533,1.287-0.871c1.083-0.694,2.527-1.62,3.971-2.545C152.355,72.235,155.242,70.383,155.242,70.383z"/>
	</g>
	<g>
		<path d="M173.091,60.431l-2.435-4.744c0,0-0.778,0.398-1.946,0.997c-1.163,0.607-2.735,1.375-4.27,2.213
			c-3.033,1.743-6.065,3.487-6.065,3.487l2.67,4.615c0,0,2.974-1.71,5.948-3.421c1.505-0.822,3.048-1.575,4.188-2.17
			C172.328,60.822,173.091,60.431,173.091,60.431z"/>
		<path d="M191.574,51.725l-2.071-4.913c0,0-0.208,0.07-0.554,0.233c-0.349,0.158-0.847,0.383-1.444,0.653
			c-1.195,0.54-2.789,1.261-4.383,1.981c-3.186,1.444-6.372,2.889-6.372,2.889l2.317,4.802c0,0,3.125-1.416,6.25-2.832
			c1.563-0.707,3.126-1.414,4.298-1.944c0.586-0.265,1.075-0.486,1.417-0.641C191.371,51.793,191.574,51.725,191.574,51.725z"/>
		<path d="M210.711,44.573l-1.696-5.055c0,0-3.313,1.122-6.627,2.243c-1.646,0.59-3.26,1.268-4.484,1.738
			c-1.22,0.481-2.034,0.802-2.034,0.802l1.949,4.963c0,0,0.798-0.314,1.995-0.787c1.201-0.46,2.783-1.127,4.397-1.706
			C207.461,45.672,210.711,44.573,210.711,44.573z"/>
		<path d="M230.295,38.752l-1.31-5.168c0,0-0.858,0.172-2.115,0.549c-1.262,0.358-2.944,0.836-4.626,1.313
			c-3.364,0.956-6.729,1.911-6.729,1.911l1.57,5.096c0,0,3.3-0.937,6.599-1.873c1.65-0.469,3.299-0.938,4.537-1.289
			C229.454,38.92,230.295,38.752,230.295,38.752z"/>
		<path d="M250.288,34.542l-0.918-5.252c0,0-3.444,0.615-6.887,1.23c-1.724,0.296-3.414,0.759-4.697,1.032
			c-1.278,0.295-2.13,0.492-2.13,0.492l1.182,5.199c0,0,0.835-0.193,2.089-0.482c1.258-0.268,2.915-0.724,4.606-1.014
			C246.911,35.145,250.288,34.542,250.288,34.542z"/>
		<path d="M270.526,31.716l-0.523-5.306c0,0-0.874,0.049-2.173,0.233c-1.301,0.165-3.036,0.385-4.771,0.605
			c-3.47,0.441-6.939,0.882-6.939,0.882l0.788,5.274c0,0,3.403-0.432,6.807-0.864c1.702-0.217,3.403-0.433,4.679-0.595
			C269.669,31.763,270.526,31.716,270.526,31.716z"/>
		<path d="M290.922,30.539l-0.129-5.331c0,0-3.496,0.089-6.991,0.177c-1.746,0.083-3.487,0.251-4.795,0.339
			c-1.308,0.099-2.18,0.166-2.18,0.166l0.394,5.317c0,0,0.855-0.065,2.138-0.163c1.283-0.087,2.992-0.253,4.705-0.334
			C287.492,30.625,290.922,30.539,290.922,30.539z"/>
	</g>
	<g>
		<polygon points="311.361,30.715 311.624,25.389 297.64,25.036 297.64,30.368 		"/>
		<path d="M331.711,32.559l0.659-5.292c0,0-0.868-0.11-2.17-0.275c-1.303-0.15-3.032-0.42-4.773-0.571
			c-3.488-0.266-6.976-0.531-6.976-0.531l-0.394,5.318c0,0,3.422,0.26,6.843,0.52c1.709,0.147,3.405,0.414,4.684,0.561
			C330.86,32.45,331.711,32.559,331.711,32.559z"/>
		<path d="M351.888,35.772l1.053-5.227c0,0-3.443-0.615-6.888-1.23c-1.722-0.308-3.443-0.615-4.735-0.845
			c-1.287-0.25-2.158-0.339-2.158-0.339l-0.789,5.274c0,0,0.854,0.087,2.118,0.333c1.267,0.227,2.955,0.528,4.644,0.83
			C348.51,35.169,351.888,35.772,351.888,35.772z"/>
		<path d="M371.735,40.62l1.443-5.133c0,0-0.842-0.239-2.104-0.597c-1.266-0.34-2.934-0.875-4.637-1.272
			c-3.407-0.787-6.814-1.574-6.814-1.574l-1.183,5.199c0,0,3.343,0.771,6.685,1.542c1.67,0.389,3.305,0.916,4.547,1.249
			C370.91,40.385,371.735,40.62,371.735,40.62z"/>
		<path d="M391.203,46.817l1.826-5.01c0,0-3.313-1.121-6.627-2.243c-1.657-0.561-3.313-1.121-4.557-1.542
			c-1.237-0.437-2.082-0.665-2.082-0.666l-1.569,5.096c0,0,0.828,0.224,2.041,0.653c1.219,0.413,2.844,0.963,4.469,1.513
			C387.954,45.718,391.203,46.817,391.203,46.817z"/>
		<path d="M410.097,54.599l2.198-4.858c0,0-3.188-1.437-6.378-2.874c-3.254-1.284-6.508-2.567-6.508-2.567l-1.949,4.963
			c0,0,3.191,1.258,6.383,2.516C406.97,53.189,410.097,54.599,410.097,54.599z"/>
		<path d="M428.409,63.65l2.556-4.68c0,0-0.189-0.109-0.521-0.299c-0.341-0.175-0.827-0.424-1.41-0.724
			c-1.168-0.598-2.724-1.395-4.28-2.192c-3.112-1.594-6.226-3.188-6.226-3.188l-2.316,4.803c0,0,3.053,1.564,6.105,3.128
			c1.526,0.782,3.053,1.563,4.197,2.149c0.572,0.293,1.05,0.538,1.383,0.709C428.224,63.543,428.409,63.65,428.409,63.65z"/>
	</g>
	<g>
		<path d="M445.934,74.164l2.899-4.475c0,0-2.945-1.888-5.891-3.775c-1.465-0.955-3.018-1.767-4.144-2.439
			c-1.138-0.654-1.896-1.09-1.896-1.09L434.233,67c0,0,0.744,0.427,1.859,1.069c1.104,0.66,2.627,1.455,4.064,2.392
			C443.046,72.313,445.934,74.164,445.934,74.164z"/>
		<path d="M462.677,85.873l3.225-4.247c0,0-0.689-0.538-1.725-1.344c-1.068-0.76-2.494-1.774-3.919-2.788
			c-2.851-2.027-5.701-4.054-5.701-4.054l-3.008,4.403c0,0,2.796,1.988,5.593,3.977c1.397,0.994,2.796,1.988,3.845,2.733
			C462.001,85.346,462.677,85.873,462.677,85.873z"/>
		<path d="M478.464,98.844l3.531-3.996c0,0-2.645-2.29-5.288-4.58c-0.662-0.571-1.324-1.143-1.944-1.678
			c-0.645-0.506-1.246-0.979-1.762-1.385c-1.031-0.811-1.719-1.351-1.719-1.351l-3.327,4.167c0,0,0.675,0.53,1.687,1.325
			c0.506,0.397,1.096,0.861,1.729,1.358c0.608,0.525,1.258,1.086,1.906,1.647C475.87,96.598,478.464,98.844,478.464,98.844z"/>
		<path d="M493.263,112.932l3.818-3.722c0,0-0.604-0.633-1.509-1.582c-0.88-0.973-2.174-2.152-3.433-3.365
			c-2.531-2.413-5.063-4.826-5.063-4.826l-3.627,3.908c0,0,2.482,2.367,4.965,4.734c1.235,1.189,2.506,2.345,3.368,3.301
			C492.671,112.312,493.263,112.932,493.263,112.932z"/>
		<path d="M506.984,128.073l4.084-3.428c0,0-2.29-2.644-4.58-5.288c-1.157-1.311-2.264-2.667-3.176-3.61
			c-0.905-0.95-1.509-1.583-1.509-1.583l-3.908,3.627c0,0,0.593,0.621,1.48,1.552c0.896,0.924,1.98,2.256,3.115,3.542
			C504.737,125.479,506.984,128.073,506.984,128.073z"/>
		<path d="M519.507,144.221l4.328-3.114c0,0-0.508-0.712-1.268-1.781c-0.764-1.067-1.75-2.511-2.859-3.865
			c-2.16-2.75-4.321-5.5-4.321-5.5l-4.167,3.327c0,0,2.121,2.698,4.24,5.395c1.088,1.328,2.056,2.746,2.805,3.792
			C519.009,143.522,519.507,144.221,519.507,144.221z"/>
		<path d="M530.858,161.205l4.549-2.783c0,0-1.888-2.944-3.775-5.889c-0.943-1.472-1.887-2.944-2.596-4.047
			c-0.345-0.558-0.664-1.001-0.888-1.312c-0.222-0.312-0.349-0.49-0.349-0.49l-4.402,3.007c0,0,0.124,0.175,0.342,0.48
			c0.219,0.305,0.533,0.739,0.871,1.287c0.694,1.083,1.619,2.527,2.545,3.971C529.007,158.317,530.858,161.205,530.858,161.205z"/>
	</g>
	<g>
		<path d="M540.811,179.053l4.743-2.435c0,0-0.398-0.778-0.996-1.946c-0.607-1.163-1.375-2.735-2.213-4.27
			c-1.744-3.033-3.487-6.065-3.487-6.065l-4.615,2.67c0,0,1.71,2.974,3.421,5.948c0.822,1.505,1.574,3.048,2.17,4.188
			C540.419,178.29,540.811,179.053,540.811,179.053z"/>
		<path d="M549.517,197.537l4.914-2.071c0,0-0.07-0.208-0.234-0.554c-0.157-0.349-0.383-0.847-0.652-1.444
			c-0.54-1.195-1.261-2.789-1.98-4.383c-1.445-3.186-2.889-6.372-2.889-6.372l-4.803,2.317c0,0,1.416,3.125,2.832,6.25
			c0.707,1.563,1.413,3.126,1.943,4.298c0.266,0.586,0.486,1.075,0.641,1.417C549.448,197.333,549.517,197.537,549.517,197.537z"/>
		<path d="M556.669,216.673l5.055-1.696c0,0-1.121-3.313-2.242-6.627c-0.59-1.646-1.269-3.26-1.738-4.484
			c-0.48-1.22-0.802-2.034-0.802-2.034l-4.963,1.949c0,0,0.314,0.798,0.786,1.995c0.461,1.201,1.127,2.783,1.706,4.397
			C555.569,213.424,556.669,216.673,556.669,216.673z"/>
		<path d="M562.489,236.258l5.169-1.31c0,0-0.172-0.858-0.55-2.115c-0.357-1.262-0.836-2.944-1.313-4.626
			c-0.956-3.364-1.912-6.729-1.912-6.729l-5.096,1.57c0,0,0.938,3.3,1.873,6.599c0.469,1.65,0.938,3.299,1.289,4.537
			C562.321,235.416,562.489,236.258,562.489,236.258z"/>
		<path d="M566.7,256.25l5.252-0.918c0,0-0.615-3.444-1.23-6.887c-0.295-1.724-0.759-3.414-1.031-4.697
			c-0.295-1.278-0.492-2.13-0.492-2.13l-5.199,1.182c0,0,0.193,0.835,0.482,2.089c0.268,1.258,0.724,2.915,1.014,4.606
			C566.097,252.873,566.7,256.25,566.7,256.25z"/>
		<path d="M569.526,276.488l5.306-0.523c0,0-0.049-0.874-0.233-2.173c-0.164-1.301-0.385-3.036-0.605-4.771
			c-0.441-3.47-0.882-6.939-0.882-6.939l-5.273,0.788c0,0,0.432,3.403,0.864,6.807c0.217,1.702,0.433,3.403,0.595,4.679
			C569.479,275.631,569.525,276.488,569.526,276.488z"/>
		<path d="M570.703,296.884l5.331-0.129c0,0-0.09-3.496-0.178-6.991c-0.083-1.746-0.251-3.487-0.339-4.795
			c-0.1-1.308-0.166-2.18-0.166-2.18l-5.317,0.394c0,0,0.064,0.855,0.162,2.138c0.088,1.283,0.254,2.992,0.334,4.705
			C570.617,293.455,570.703,296.884,570.703,296.884z"/>
	</g>
	<g>
		<polygon points="570.526,317.324 575.853,317.587 576.206,303.602 570.874,303.602 		"/>
		<path d="M568.683,337.673l5.292,0.659c0,0,0.11-0.868,0.275-2.169c0.149-1.303,0.42-3.033,0.571-4.774
			c0.266-3.488,0.53-6.975,0.53-6.975l-5.317-0.394c0,0-0.26,3.421-0.52,6.843c-0.147,1.709-0.414,3.406-0.561,4.684
			C568.792,336.823,568.683,337.673,568.683,337.673z"/>
		<path d="M565.47,357.85l5.227,1.053c0,0,0.615-3.443,1.23-6.887c0.308-1.722,0.615-3.443,0.846-4.735
			c0.249-1.288,0.338-2.159,0.339-2.159l-5.273-0.788c-0.001,0-0.087,0.854-0.333,2.118c-0.227,1.267-0.528,2.955-0.83,4.644
			C566.072,354.472,565.47,357.85,565.47,357.85z"/>
		<path d="M560.622,377.697l5.133,1.443c0,0,0.238-0.841,0.598-2.103c0.34-1.267,0.875-2.934,1.271-4.637
			c0.787-3.408,1.574-6.815,1.574-6.815l-5.199-1.182c0,0-0.771,3.342-1.543,6.685c-0.389,1.67-0.915,3.305-1.248,4.547
			C560.856,376.873,560.622,377.697,560.622,377.697z"/>
		<path d="M554.425,397.166l5.01,1.826c0,0,1.121-3.313,2.242-6.627c0.561-1.657,1.121-3.314,1.542-4.557
			c0.437-1.237,0.665-2.082,0.665-2.082l-5.096-1.57c0,0-0.223,0.828-0.652,2.042c-0.412,1.219-0.963,2.844-1.513,4.468
			C555.524,393.916,554.425,397.166,554.425,397.166z"/>
		<path d="M546.644,416.06l4.857,2.198c0,0,1.438-3.189,2.873-6.378c1.284-3.254,2.567-6.508,2.567-6.508l-4.963-1.949
			c0,0-1.258,3.191-2.517,6.383C548.053,412.933,546.644,416.06,546.644,416.06z"/>
		<path d="M537.592,434.372l4.68,2.556c0,0,0.108-0.189,0.3-0.521c0.174-0.34,0.424-0.827,0.724-1.41
			c0.598-1.167,1.396-2.723,2.192-4.28c1.594-3.113,3.188-6.226,3.188-6.226l-4.803-2.317c0,0-1.563,3.053-3.127,6.105
			c-0.782,1.527-1.563,3.053-2.15,4.198c-0.293,0.572-0.537,1.049-0.709,1.383C537.698,434.186,537.592,434.372,537.592,434.372z"/>
	</g>
	<g>
		<path d="M527.077,451.896l4.476,2.899c0,0,1.888-2.945,3.775-5.89c0.955-1.465,1.767-3.018,2.439-4.144
			c0.653-1.137,1.09-1.896,1.09-1.896l-4.615-2.67c0,0-0.427,0.744-1.069,1.859c-0.659,1.104-1.454,2.628-2.392,4.065
			C528.93,449.008,527.077,451.896,527.077,451.896z"/>
		<path d="M515.368,468.639l4.247,3.224c0,0,0.538-0.689,1.345-1.724c0.76-1.069,1.773-2.494,2.787-3.919
			c2.027-2.851,4.054-5.701,4.054-5.701l-4.403-3.008c0,0-1.988,2.796-3.977,5.592c-0.994,1.398-1.988,2.796-2.733,3.845
			C515.896,467.963,515.368,468.639,515.368,468.639z"/>
		<path d="M502.397,484.426l3.996,3.531c0,0,2.289-2.644,4.58-5.288c0.57-0.662,1.143-1.324,1.678-1.945
			c0.506-0.645,0.979-1.246,1.385-1.762c0.811-1.031,1.351-1.719,1.351-1.719l-4.167-3.327c0,0-0.529,0.674-1.324,1.686
			c-0.397,0.506-0.861,1.096-1.357,1.729c-0.525,0.609-1.087,1.258-1.647,1.907C504.644,481.833,502.397,484.426,502.397,484.426z"
			/>
		<path d="M488.31,499.225l3.722,3.818c0,0,0.633-0.603,1.582-1.508c0.974-0.88,2.151-2.174,3.364-3.433
			c2.414-2.531,4.826-5.062,4.826-5.062l-3.908-3.627c0,0-2.366,2.482-4.733,4.965c-1.189,1.235-2.345,2.505-3.301,3.368
			C488.931,498.633,488.31,499.225,488.31,499.225z"/>
		<path d="M473.169,512.947l3.428,4.084c0,0,2.644-2.29,5.287-4.58c1.312-1.157,2.668-2.264,3.611-3.176
			c0.949-0.905,1.582-1.508,1.582-1.508l-3.627-3.908c0,0-0.621,0.592-1.553,1.48c-0.924,0.896-2.256,1.98-3.542,3.115
			C475.763,510.7,473.169,512.947,473.169,512.947z"/>
		<path d="M457.021,525.469l3.115,4.328c0,0,0.712-0.507,1.781-1.267c1.066-0.763,2.511-1.75,3.865-2.859
			c2.75-2.161,5.5-4.322,5.5-4.322l-3.327-4.167c0,0-2.698,2.12-5.396,4.24c-1.327,1.088-2.745,2.056-3.791,2.804
			C457.72,524.972,457.021,525.469,457.021,525.469z"/>
		<path d="M440.037,536.821l2.782,4.548c0,0,2.945-1.887,5.889-3.774c1.473-0.944,2.944-1.888,4.048-2.596
			c0.558-0.345,1.001-0.665,1.312-0.888c0.313-0.222,0.49-0.348,0.49-0.348l-3.008-4.403c0,0-0.174,0.124-0.48,0.342
			c-0.305,0.219-0.738,0.533-1.286,0.871c-1.083,0.694-2.526,1.62-3.972,2.545C442.925,534.969,440.037,536.821,440.037,536.821z"/>
	</g>
	<g>
		<path d="M422.188,546.773l2.435,4.744c0,0,0.778-0.398,1.946-0.997c1.162-0.607,2.734-1.375,4.27-2.213
			c3.032-1.743,6.064-3.487,6.064-3.487l-2.67-4.615c0,0-2.975,1.71-5.948,3.421c-1.505,0.822-3.048,1.575-4.188,2.17
			C422.952,546.382,422.188,546.773,422.188,546.773z"/>
		<path d="M403.705,555.479l2.071,4.913c0,0,0.207-0.07,0.555-0.233c0.348-0.158,0.846-0.383,1.443-0.653
			c1.195-0.54,2.789-1.261,4.383-1.981c3.187-1.444,6.373-2.889,6.373-2.889l-2.317-4.802c0,0-3.125,1.416-6.25,2.832
			c-1.563,0.707-3.126,1.414-4.298,1.944c-0.586,0.265-1.075,0.486-1.417,0.641C403.909,555.411,403.705,555.479,403.705,555.479z"
			/>
		<path d="M384.568,562.631l1.696,5.055c0,0,3.313-1.122,6.627-2.243c1.646-0.59,3.26-1.268,4.484-1.738
			c1.22-0.481,2.033-0.802,2.033-0.802l-1.949-4.963c0,0-0.798,0.314-1.994,0.787c-1.201,0.46-2.783,1.127-4.398,1.706
			C387.817,561.532,384.568,562.631,384.568,562.631z"/>
		<path d="M364.983,568.452l1.311,5.168c0,0,0.858-0.172,2.115-0.549c1.262-0.358,2.943-0.836,4.626-1.313
			c3.364-0.956,6.729-1.911,6.729-1.911l-1.569-5.096c0,0-3.301,0.937-6.6,1.873c-1.65,0.469-3.299,0.938-4.537,1.289
			C365.825,568.284,364.983,568.452,364.983,568.452z"/>
		<path d="M344.991,572.663l0.918,5.252c0,0,3.443-0.615,6.887-1.23c1.725-0.296,3.414-0.759,4.697-1.032
			c1.278-0.295,2.131-0.492,2.131-0.492l-1.183-5.199c0,0-0.835,0.193-2.089,0.482c-1.258,0.268-2.915,0.724-4.606,1.013
			C348.368,572.06,344.991,572.663,344.991,572.663z"/>
		<path d="M324.753,575.488l0.523,5.306c0,0,0.873-0.049,2.173-0.233c1.301-0.165,3.036-0.385,4.771-0.605
			c3.47-0.441,6.939-0.882,6.939-0.882l-0.789-5.273c0,0-3.402,0.432-6.807,0.864c-1.701,0.216-3.402,0.433-4.679,0.595
			C325.61,575.441,324.753,575.488,324.753,575.488z"/>
		<path d="M304.357,576.666l0.129,5.331c0,0,3.495-0.089,6.991-0.177c1.746-0.083,3.487-0.251,4.795-0.339
			c1.309-0.1,2.18-0.166,2.18-0.166l-0.393-5.317c0,0-0.855,0.065-2.139,0.163c-1.283,0.087-2.991,0.253-4.704,0.334
			C307.787,576.58,304.357,576.666,304.357,576.666z"/>
	</g>
	<g>
		<polygon points="283.918,576.489 283.655,581.815 297.64,582.168 297.64,576.836 		"/>
		<path d="M263.568,574.646l-0.659,5.292c0,0,0.868,0.11,2.169,0.275c1.303,0.15,3.033,0.42,4.774,0.571
			c3.488,0.266,6.975,0.531,6.975,0.531l0.394-5.317c0,0-3.421-0.26-6.843-0.52c-1.709-0.147-3.406-0.414-4.684-0.561
			C264.419,574.754,263.568,574.646,263.568,574.646z"/>
		<path d="M243.392,571.432l-1.053,5.227c0,0,3.443,0.615,6.887,1.23c1.722,0.308,3.443,0.615,4.735,0.845
			c1.288,0.25,2.159,0.339,2.159,0.339l0.788-5.273c0,0-0.854-0.087-2.118-0.333c-1.267-0.227-2.955-0.528-4.644-0.83
			C246.77,572.035,243.392,571.432,243.392,571.432z"/>
		<path d="M223.544,566.584l-1.443,5.133c0,0,0.841,0.239,2.103,0.597c1.267,0.34,2.934,0.875,4.637,1.272
			c3.408,0.787,6.815,1.574,6.815,1.574l1.182-5.199c0,0-3.342-0.771-6.685-1.542c-1.67-0.389-3.305-0.916-4.547-1.249
			C224.369,566.819,223.544,566.584,223.544,566.584z"/>
		<path d="M204.076,560.387l-1.826,5.01c0,0,3.313,1.121,6.627,2.243c1.657,0.561,3.314,1.121,4.557,1.542
			c1.237,0.437,2.082,0.665,2.082,0.666l1.57-5.096c0,0-0.828-0.224-2.042-0.653c-1.219-0.413-2.844-0.963-4.468-1.513
			C207.326,561.486,204.076,560.387,204.076,560.387z"/>
		<path d="M185.182,552.605l-2.198,4.858c0,0,3.189,1.437,6.378,2.874c3.254,1.284,6.508,2.567,6.508,2.567l1.949-4.963
			c0,0-3.191-1.258-6.383-2.516C188.309,554.015,185.182,552.605,185.182,552.605z"/>
		<path d="M166.87,543.554l-2.556,4.68c0,0,0.189,0.109,0.521,0.3c0.34,0.174,0.827,0.424,1.41,0.724
			c1.167,0.598,2.723,1.395,4.28,2.192c3.113,1.594,6.226,3.188,6.226,3.188l2.317-4.803c0,0-3.053-1.564-6.105-3.128
			c-1.527-0.782-3.053-1.563-4.198-2.149c-0.572-0.293-1.049-0.538-1.383-0.709C167.056,543.661,166.87,543.554,166.87,543.554z"/>
	</g>
	<g>
		<path d="M149.346,533.04l-2.899,4.475c0,0,2.945,1.888,5.89,3.775c1.465,0.955,3.018,1.767,4.144,2.439
			c1.137,0.654,1.896,1.09,1.896,1.09l2.67-4.615c0,0-0.744-0.427-1.859-1.069c-1.104-0.66-2.628-1.455-4.065-2.392
			C152.234,534.892,149.346,533.04,149.346,533.04z"/>
		<path d="M132.603,521.331l-3.224,4.247c0,0,0.689,0.538,1.724,1.344c1.069,0.76,2.494,1.774,3.919,2.788
			c2.851,2.027,5.701,4.054,5.701,4.054l3.008-4.403c0,0-2.796-1.988-5.592-3.977c-1.398-0.994-2.796-1.988-3.845-2.733
			C133.279,521.858,132.603,521.331,132.603,521.331z"/>
		<path d="M116.816,508.36l-3.531,3.996c0,0,2.644,2.29,5.288,4.58c0.662,0.571,1.324,1.143,1.945,1.678
			c0.645,0.506,1.246,0.979,1.762,1.385c1.031,0.811,1.719,1.351,1.719,1.351l3.327-4.167c0,0-0.674-0.53-1.686-1.325
			c-0.506-0.397-1.096-0.861-1.729-1.358c-0.609-0.525-1.258-1.086-1.907-1.647C119.409,510.606,116.816,508.36,116.816,508.36z"/>
		<path d="M102.017,494.272l-3.818,3.722c0,0,0.603,0.633,1.508,1.582c0.88,0.973,2.174,2.152,3.433,3.365
			c2.531,2.413,5.062,4.826,5.062,4.826l3.627-3.908c0,0-2.482-2.367-4.965-4.734c-1.236-1.189-2.505-2.345-3.368-3.301
			C102.608,494.893,102.017,494.272,102.017,494.272z"/>
		<path d="M88.295,479.131l-4.084,3.428c0,0,2.29,2.644,4.58,5.288c1.157,1.311,2.264,2.667,3.176,3.61
			c0.905,0.95,1.508,1.583,1.508,1.583l3.908-3.627c0,0-0.592-0.621-1.48-1.552c-0.896-0.924-1.98-2.256-3.115-3.542
			C90.542,481.725,88.295,479.131,88.295,479.131z"/>
		<path d="M75.773,462.983l-4.328,3.114c0,0,0.507,0.712,1.267,1.781c0.763,1.067,1.75,2.511,2.859,3.865
			c2.161,2.75,4.322,5.5,4.322,5.5l4.167-3.327c0,0-2.12-2.698-4.24-5.395c-1.088-1.328-2.056-2.746-2.804-3.792
			C76.27,463.682,75.773,462.983,75.773,462.983z"/>
		<path d="M64.421,446l-4.548,2.783c0,0,1.887,2.944,3.774,5.889c0.944,1.472,1.888,2.944,2.596,4.047
			c0.345,0.558,0.665,1.001,0.888,1.312c0.222,0.312,0.348,0.49,0.348,0.49l4.403-3.007c0,0-0.124-0.175-0.342-0.48
			c-0.219-0.305-0.533-0.739-0.871-1.287c-0.694-1.083-1.62-2.527-2.545-3.971C66.272,448.887,64.421,446,64.421,446z"/>
	</g>
	<g>
		<path d="M54.469,428.151l-4.744,2.435c0,0,0.398,0.778,0.997,1.946c0.607,1.163,1.375,2.735,2.213,4.27
			c1.743,3.033,3.487,6.065,3.487,6.065l4.615-2.67c0,0-1.71-2.974-3.421-5.948c-0.822-1.505-1.575-3.048-2.17-4.188
			C54.86,428.914,54.469,428.151,54.469,428.151z"/>
		<path d="M45.762,409.667l-4.913,2.071c0,0,0.07,0.208,0.233,0.554c0.158,0.349,0.383,0.847,0.653,1.444
			c0.54,1.195,1.261,2.789,1.981,4.383c1.444,3.186,2.889,6.372,2.889,6.372l4.802-2.317c0,0-1.416-3.125-2.832-6.25
			c-0.707-1.563-1.414-3.126-1.944-4.298c-0.265-0.586-0.486-1.075-0.641-1.417C45.831,409.871,45.762,409.667,45.762,409.667z"/>
		<path d="M38.61,390.531l-5.055,1.696c0,0,1.122,3.313,2.243,6.627c0.59,1.646,1.268,3.26,1.738,4.484
			c0.481,1.22,0.802,2.034,0.802,2.034l4.963-1.949c0,0-0.314-0.798-0.787-1.995c-0.46-1.201-1.127-2.783-1.706-4.397
			C39.709,393.78,38.61,390.531,38.61,390.531z"/>
		<path d="M32.79,370.946l-5.168,1.31c0,0,0.172,0.858,0.549,2.115c0.358,1.262,0.836,2.944,1.313,4.626
			c0.956,3.364,1.911,6.729,1.911,6.729l5.096-1.57c0,0-0.937-3.3-1.873-6.599c-0.469-1.65-0.938-3.299-1.289-4.537
			C32.958,371.788,32.79,370.946,32.79,370.946z"/>
		<path d="M28.579,350.954l-5.252,0.918c0,0,0.615,3.444,1.23,6.887c0.296,1.724,0.759,3.414,1.032,4.697
			c0.295,1.278,0.492,2.13,0.492,2.13l5.199-1.182c0,0-0.193-0.835-0.482-2.089c-0.268-1.258-0.724-2.915-1.014-4.606
			C29.182,354.331,28.579,350.954,28.579,350.954z"/>
		<path d="M25.753,330.716l-5.306,0.523c0,0,0.049,0.874,0.233,2.173c0.165,1.301,0.385,3.036,0.605,4.771
			c0.441,3.47,0.882,6.939,0.882,6.939l5.274-0.788c0,0-0.432-3.403-0.864-6.807c-0.217-1.702-0.433-3.403-0.595-4.679
			C25.801,331.573,25.754,330.716,25.753,330.716z"/>
		<path d="M24.576,310.32l-5.331,0.129c0,0,0.089,3.496,0.177,6.991c0.083,1.746,0.251,3.487,0.339,4.795
			c0.099,1.308,0.166,2.18,0.166,2.18l5.317-0.394c0,0-0.065-0.855-0.163-2.138c-0.087-1.283-0.253-2.992-0.334-4.705
			C24.662,313.75,24.576,310.32,24.576,310.32z"/>
	</g>
</g>
</svg>
