<?xml version="1.0" encoding="utf-8"?>
<!-- Generator: Adobe Illustrator 16.0.3, SVG Export Plug-In . SVG Version: 6.00 Build 0)  -->
<!DOCTYPE svg PUBLIC "-//W3C//DTD SVG 1.1//EN" "http://www.w3.org/Graphics/SVG/1.1/DTD/svg11.dtd">
<svg version="1.1" id="Capa_1" xmlns="http://www.w3.org/2000/svg" xmlns:xlink="http://www.w3.org/1999/xlink" x="0px" y="0px"
	 width="595.28px" height="595.28px" viewBox="0 0 595.28 595.28" enable-background="new 0 0 595.28 595.28" xml:space="preserve">
<g>
	<g>
		<path d="M391.681,99.177c-35.165-0.836-65.524,17.856-83.644,45.241c2.79,1.83,5.541,3.816,8.181,5.965
			c16.232-24.281,43.62-40.167,75.463-40.924c50.585-1.205,89.998,42.384,91.158,91.154c1.204,50.585-42.389,89.995-91.158,91.155
			c-18.552,0.443-35.589-5.16-49.802-14.815c-1.218,3.066-2.412,6.14-3.55,9.231c15.392,9.658,33.604,15.396,53.352,15.865
			c56.215,1.338,100.152-47.225,101.441-101.437C494.46,144.399,445.892,100.467,391.681,99.177z"/>
	</g>
	<g>
		<path fill-rule="evenodd" clip-rule="evenodd" stroke="#000000" stroke-width="2.5067" stroke-miterlimit="10" d="
			M387.142,442.164c-1.888-1.911-3.868-3.741-5.648-5.751c-5.584-6.309-13.827-7.62-20.522-3.172
			c-6.77,4.496-8.223,10.809-4.002,17.755c4.015,6.596,10.112,10.436,17.162,13.193c6.126,2.406,6.463,3.561,2.553,8.526
			c-3.053,3.878-3.757,7.639-2.407,12.508c1.734,6.22,0.256,7.285-6.03,5.471c-2.604-0.759-5.164-1.671-9.664-3.146
			c5.953,20.21,11.786,38.43,23.836,54.155c-3.335-14.545-3.418-29.173-3.394-43.841c0.002-2.664-1.874-5.333-3.082-8.532
			c6.857,1.461,13.294,3.707,19.8,3.937c4.862,0.178,9.777-2.456,14.74-3.487c19.087-3.962,34.629-13.532,44.485-30.423
			c16.901-28.965,6.568-58.494-18.071-76.485c-4.579-3.345-5.429,0.029-7.197,2.84c-13.474,21.438-41.246,27.094-61.01,12.027
			c-4.521-3.446-8.223-8.283-11.408-13.078c-2.313-3.48-3.859-3.886-7.089-1.51c-15.88,11.679-25.147,26.982-26.162,46.921
			c-0.102,2.017-0.139,4.043-0.322,6.059c-0.029,0.326-0.648,0.604-1.639,1.454c-2.146-6.185-1.34-12.083-0.207-17.831
			c3.322-16.808,12.621-29.77,26.468-39.563c3.074-2.176,5.089-3.977,4.323-8.552c-2.901-17.411,2.938-31.788,17.486-41.759
			c14.298-9.801,29.76-10.134,44.68-1.516c15.376,8.878,22.146,23.076,20.095,40.504c-0.763,6.505,1.318,9.361,6.014,12.84
			c22.534,16.684,30.318,42.64,22.546,69.884c-2.538,8.899-2.649,18.494-3.859,27.77c-2.618,20.081-16.278,38.059-37.892,39.345
			c-6.784,0.398-10.89,2.911-13.431,9.663c-2.191,5.809-5.866,11.318-9.891,16.109c-5.476,6.535-13.665,6.312-19.126-0.275
			c-3.526-4.256-6.796-9.066-8.815-14.165c-5.129-12.964-9.315-26.288-14.269-39.324c-1.384-3.642-4.108-6.774-6.222-10.143
			l-0.181,0.161c2.338-2.492,4.492-0.964,6.813,0.17c4.056,1.984,8.207,3.774,12.216,5.601c1.541-6.174,2.964-11.853,4.604-18.431
			c-3.303-1.773-7.754-4.026-12.071-6.509c-7.188-4.126-12.002-12.758-10.873-19.517c0.964-5.787,3.361-11.006,9.305-12.866
			c7.325-2.29,15.187-3.912,21.477,2.203c2.833,2.755,4.226,6.994,6.268,10.562L387.142,442.164z M355.438,364.188
			c-0.005,21.181,17.158,38.587,38.085,38.616c20.911,0.029,38.452-17.3,38.729-38.259c0.269-20.674-17.476-38.501-38.357-38.534
			C372.663,325.979,355.449,343.064,355.438,364.188z M417.8,491.999c-8.356,1.345-15.021,3.037-21.751,3.363
			c-14.155,0.691-14.542,0.416-13.621,14.805c0.611,9.538,1.765,19.158,3.955,28.447c1.837,7.794,6.138,8.467,10.76,2.168
			C407.613,526.505,412.702,509.919,417.8,491.999z M458.182,464.458c-1.28,0.278-1.966,0.215-2.193,0.508
			c-8.434,10.778-18.299,19.664-31.344,24.612c-1.397,0.527-2.802,2.232-3.304,3.708c-2.444,7.155-4.584,14.421-6.845,21.71
			c10.738,1.797,22.446-2.257,29.946-10.548C454.661,493.155,456.996,479.186,458.182,464.458z"/>
		<path fill-rule="evenodd" clip-rule="evenodd" stroke="#000000" stroke-width="2.5067" stroke-miterlimit="10" d="
			M387.142,442.164l0.385-0.22c1.361-1.634,2.992-3.111,4.05-4.925c4.354-7.453,11.95-10.97,20.684-9.335
			c8.389,1.57,13.562,6.485,14.902,14.155c1.404,8.026-2.626,16.061-10.192,20.323c-11.284,6.354-22.149,8.438-36.25,6.81
			C382.869,460.009,385.002,451.087,387.142,442.164z M386.628,466.635c10.436-0.729,20.104-2.044,28.759-7.36
			c6.474-3.975,9.589-10.49,8.19-17.4c-1.271-6.274-5.622-9.304-11.545-10.596c-7.204-1.579-13.256,0.405-16.952,6.976
			C390.235,446.866,387.432,456.277,386.628,466.635z"/>
		<path fill-rule="evenodd" clip-rule="evenodd" stroke="#000000" stroke-width="2.5067" stroke-miterlimit="10" d="M349.97,480.57
			c-11.738-5.295-18.515-15.115-23.763-26.264c-1.688-3.588-3.177-7.296-4.397-11.065c-0.338-1.051,0.602-2.517,0.959-3.792
			c1.021,0.847,2.504,1.482,2.991,2.567c2.672,5.951,4.41,12.44,7.806,17.91c3.263,5.249,8.263,9.394,12.276,14.212
			c1.616,1.946,2.65,4.381,3.947,6.593L349.97,480.57z"/>
	</g>
	<g>
		<path d="M179.05,323.067c-0.74-4.167-2.792-7.725-3.239-12.08c-0.467-4.559-0.2-9.184,0.288-13.725
			c1.109-10.326,4.658-19.595,11.282-27.641c6.168-7.493,14.304-13.257,21.064-20.208c6.531-6.716,9.57-13.63,12.537-22.338
			c-1.735,0.227-3.47,0.454-5.205,0.68c8.854,11.757,4.5,25.859,0.386,38.367c-2.136,6.496-4.385,12.953-6.415,19.484
			c-1.167,3.753-2.604,10.488,1.563,12.93c3.162,1.853,7.418-0.731,9.82-2.706c1.753-1.441,3.16-3.748,4.449-5.586
			c1.534-2.187,2.928-7.938,6.057-8.22c2.527-0.228,5.154,5.389,6.229,7.224c1.681,2.868,2.707,6.014,3.443,9.237
			c1.606,7.026-0.239,14.031-2.441,20.685c-0.306,0.926,0.025,2.11,0.732,2.771c0.146,0.136,0.292,0.272,0.438,0.408
			c0.97,0.905,2.282,1.064,3.451,0.445c11.302-5.986,20.174-13.548,25.985-25.136c6.302-12.567,7.216-27.183,6.07-40.963
			c-1.264-15.196-6.002-29.618-11.746-43.638c-2.975-7.262-6.022-14.495-8.97-21.768c-2.688-6.633-4.329-14.31-8.005-20.45
			c-1.074-1.795-3.87-1.901-4.918,0c-3.886,7.044-7.359,13.732-8.282,21.869c-0.515,4.543,0.077,9.235-0.628,13.727
			c-0.659,4.194-5.109,5.388-8.26,2.77c-1.833-1.522-3.313-3.494-4.691-5.413c-5.566-7.746-8.584-17.414-11.295-26.458
			c-1.5-5.003-2.579-10.136-3.208-15.319c-0.485-3.998-0.181-8.029-0.77-12.004c-0.278-1.875-2.735-2.521-4.184-1.702
			c-10.819,6.119-17.254,17.379-20.162,29.177c-1.629,6.614-1.458,13.362-0.849,20.087c0.744,8.21,0.311,16.597-0.111,24.818
			c-0.384,7.486-1.048,14.683-5.915,20.679c-0.896,1.103-1.14-4.239-1.139-4.784c0.003-1.781,0.324-3.554,0.557-5.313
			c0.589-4.458,1.139-8.921,1.685-13.385c1.655-13.525,2.125-27.413-8.091-38.021c-1.45-1.505-4.275-0.827-4.76,1.257
			c-0.752,3.238-1.047,6.521-1.965,9.728c-1.072,3.743-3.073,7.195-4.905,10.605c-3.638,6.768-7.407,13.434-10.658,20.404
			c-5.978,12.815-10.266,26.718-10.476,40.947c-0.201,13.642,4.973,27.627,12.423,38.903c7.133,10.797,17.153,17.46,28.647,22.873
			c3.303,1.555,6.196-3.354,2.875-4.918c-10.724-5.05-19.723-10.937-26.604-20.829c-8-11.502-12.204-25.879-11.525-39.835
			c0.691-14.208,6.362-28.093,12.665-40.636c2.917-5.804,6.204-11.413,9.232-17.157c3.211-6.089,4.251-11.98,5.783-18.571
			c-1.587,0.419-3.173,0.838-4.76,1.257c12.333,12.805,6.685,33.011,4.581,48.532c-0.652,4.813-1.434,11.651,3.27,14.6
			c5.481,3.436,10.37-5.457,12.041-9.112c2.505-5.482,2.51-12.845,2.814-18.775c0.463-9.013,0.468-17.953-0.29-26.942
			c-1.285-15.241,4.605-32.806,18.512-40.67c-1.395-0.567-2.789-1.135-4.184-1.702c0.814,5.497,0.526,11.135,1.452,16.678
			c1.003,6.005,2.799,11.867,4.768,17.616c3.424,10.001,7.514,19.916,15.21,27.413c6.259,6.097,15.512,2.658,17.779-5.283
			c1.443-5.053,0.211-11.014,0.993-16.237c0.995-6.642,4.157-12.222,7.344-17.999c-1.639,0-3.279,0-4.918,0
			c3.399,5.679,4.957,12.939,7.431,19.09c2.685,6.674,5.478,13.305,8.224,19.954c5.25,12.715,9.638,25.447,11.728,39.093
			c2.098,13.704,1.475,28.542-4.021,41.403c-4.938,11.555-13.813,18.883-24.651,24.623c1.15,0.148,2.3,0.297,3.451,0.445
			c-0.146-0.136-0.292-0.272-0.438-0.408c0.244,0.924,0.488,1.848,0.732,2.771c3.916-11.831,4.404-23.071-1.577-34.311
			c-2.032-3.818-5.291-9.335-10.047-9.911c-5.797-0.702-8.218,3.654-10.414,8.226c-1.421,2.958-3.817,6.421-6.675,8.076
			c-2.318,1.342-1.303,1.065-1.194-0.97c0.123-2.292,0.668-4.293,1.341-6.454c2.381-7.661,5.027-15.247,7.567-22.856
			c4.048-12.124,5.58-26.653-2.667-37.603c-1.483-1.97-4.357-1.81-5.205,0.68c-1.464,4.298-2.62,8.444-4.96,12.395
			c-2.777,4.69-7.182,8.609-11.087,12.346c-7.197,6.888-14.844,12.841-20.521,21.159c-5.263,7.711-7.364,16.685-8.518,25.802
			c-0.648,5.119-0.64,10.286-0.114,15.413c0.436,4.256,2.548,7.85,3.269,11.905C174.199,328.193,179.688,326.658,179.05,323.067z"/>
	</g>
	<g>
		<path d="M99.955,242.083c0.339-36.512,18.016-70.553,48.012-91.499c30.283-21.146,69.438-24.902,103.736-12.013
			c33.605,12.63,58.568,42.671,67.354,77.07c9.104,35.64-1.386,74.147-25.804,101.283c-30.773,34.192-80.157,44.69-122.78,28.673
			C127.942,329.613,100.37,286.874,99.955,242.083c-0.077-8.079-12.609-8.086-12.536,0c0.686,73.511,65.781,131.571,139.059,122.666
			c73.053-8.877,121.383-81.601,104.667-152.439c-14.244-60.359-74.578-100.289-135.449-92.893
			c-61.511,7.475-107.705,61.22-108.277,122.666C87.346,250.169,99.878,250.163,99.955,242.083z"/>
	</g>
	<g>
		<path fill-rule="evenodd" clip-rule="evenodd" d="M451.922,245.497c-4.567,2.252-9.726,1.751-14.578,2.604
			c-4.944,0.869-9.987,1.18-15.39,1.78c2.259,4.678,5.761,7.996,7.471,12.194c-1.739,1.443-2.987,0.71-4.299,0.292
			c-7-2.24-14.018-4.43-21.237-6.701c-3.768,4.022-5.405,9.478-8.9,13.919c-3.35-0.848-4.786-3.804-6.901-5.865
			c-2.082-2.029-3.939-4.295-5.819-6.528c-1.394-1.639-2.898-1.879-4.926-1.198c-6.677,2.244-13.417,4.309-20.117,6.5
			c-1.4,0.459-2.668,0.935-3.644-1.053c3.391-3.813,6.845-7.699,10.647-11.981c-8.422-1.426-16.549-2.804-25.477-4.315
			c1.096-1.259,1.506-2.213,2.122-2.369c5.335-1.363,10.706-2.563,16.056-3.843c1.631-0.389,3.24-0.877,4.667-1.267
			c1.391-3.269,2.693-6.322,4.173-9.794c-1.973-2.128-4.589-4.62-4.963-8.341c-0.354-3.595,1.13-6.563,3.84-9.246
			c-2.497-2.806-5.461-5.199-5.709-9.202c-0.252-4.053,1.821-7.018,4.638-9.881c-0.718-0.86-1.385-1.633-2.027-2.424
			c-2.907-3.583-3.253-7.413-1.345-11.617c1.857-4.1,5.48-5.25,9.371-5.593c3.676-0.322,7.393-0.074,11.091-0.076
			c1.688,0,3.38,0,5.153,0c1.297-1.82,2.563-3.547,3.777-5.305c3.091-4.488,7.435-5.799,12.55-4.737
			c5.987,1.247,11.887,2.976,17.911,4.002c7.407,1.26,12.408,5.608,16.451,11.499c0.174,0.253,0.351,0.517,0.469,0.793
			c1.428,3.292,3.951,4.3,7.403,3.869c1.574-0.197,3.327-0.421,5.24,0.694c-2.417,3.427-5.929,1.13-8.745,2.366
			c0.049,2.513,2.801,4.894,1.289,7.878c-2.176-0.754-2.26-2.458-2.774-3.805c-2.213-5.811-5.145-11.139-9.678-15.518
			c-2.386-2.307-5.028-3.917-8.318-4.619c-6.281-1.344-12.518-2.892-18.787-4.316c-4.794-1.09-8.528-0.052-11.478,4.414
			c-5.835,8.84-12.07,17.415-18.197,26.061c-1.288,1.817-2.216,3.643-2.046,5.95c0.229,3.068,1.791,5.506,4.47,6.479
			c2.708,0.983,5.912,1.226,8.101-1.464c2.71-3.329,5.246-6.802,7.775-10.271c1.54-2.107,2.835-4.397,4.409-6.476
			c2.985-3.939,7.418-3.926,10.409,0.034c3.548,4.691,7.548,8.865,12.637,11.904c0.875,0.523,1.631,1.298,0.875,2.161
			c-0.375,0.426-1.812,0.487-2.355,0.113c-3.771-2.622-7.76-4.997-10.438-8.933c-0.951-1.392-2.121-2.637-3.244-3.904
			c-1.694-1.911-3.885-1.948-5.422-0.042c-0.768,0.953-1.354,2.048-2.158,3.291c3.195,5.743,2.591,11.056-3.013,15.639
			c2.406,2.729,4.941,5.126,4.923,9.106c-0.017,3.797-1.769,6.41-4.638,8.938c4.886,4.975,6.394,10.431,1.807,16.778
			c5.243,0.976,9.971,0.233,14.665-0.923c6.661-1.638,12.711-4.49,17.73-9.278c1.516-1.433,3.236-2.243,5.39-2.205
			c4.161,0.072,8.321,0.025,12.479,0.025c1.551,0.003,3.012,0.207,4.258,2.023c-1.12,0.295-1.917,0.679-2.721,0.692
			c-4.307,0.059-8.626,0.059-12.938,0.013c-2.106-0.023-3.946,0.436-5.606,2.69c8.026,2.398,15.834,4.731,23.647,7.064
			C451.924,244.62,451.924,245.057,451.922,245.497z M425.228,239.119c-6.606,4.834-14.358,7.463-22.532,7.923
			c-9.977,0.566-20.021,0.353-30.022,0.056c-3.523-0.103-6.93-1.541-8.642-5.238c-0.3-0.653-0.81-1.208-1.295-1.912
			c-4.379,2.074-9.314,1.643-13.737,4.148c6.637,1.334,13.049,1.662,19.548,3.662c-1.381,4.496-6.242,6.128-7.573,10.664
			c6.929-2.272,13.303-4.361,19.495-6.391c2.546,2.443,4.756,4.813,7.221,6.878c2.408,2.007,3.527,5.315,6.541,6.759
			c2.741-4.538,5.333-8.825,8.062-13.335c7.526,2.351,14.609,4.561,22.211,6.935c-1.515-2.318-2.69-4.095-3.846-5.886
			c-1.099-1.708-2.943-3.141-2.277-5.656c2.722-0.413,5.265-0.82,7.818-1.174c2.735-0.377,5.479-0.626,8.197-1.065
			c2.443-0.394,5.197,0.734,7.702-1.472C436.317,242.335,430.894,240.762,425.228,239.119z M379.141,226.051
			c0,0.001,0,0.005,0,0.006c2.915,0,5.837,0.11,8.743-0.024c3.879-0.184,6.61-2.856,7.107-6.548
			c0.556-4.114-1.469-7.314-5.089-8.163c-7.032-1.648-14.283-1.666-21.343-0.002c-3.485,0.822-5.458,4.752-4.987,8.354
			c0.459,3.579,3.387,6.202,7.286,6.356C373.615,226.138,376.378,226.051,379.141,226.051z M380.172,228.805
			c0,0.005,0,0.011,0,0.011c-2.461,0-4.951-0.213-7.388,0.048c-4.894,0.516-7.367,4.074-7.384,7.956
			c-0.01,3.679,3.476,7.425,7.361,7.591c4.913,0.216,9.856,0.236,14.773,0c4.723-0.228,7.85-4.112,7.459-8.712
			c-0.334-3.938-3.353-6.624-7.897-6.87C384.795,228.705,382.48,228.805,380.172,228.805z M383.874,174.259
			c-5.217,0-9.658-0.028-14.098,0.008c-3.425,0.03-5.771,1.851-7.284,4.775c-1.789,3.463-0.299,7.649,3.4,9.828
			c3.461,2.036,6.892,1.374,9.203-1.9C377.921,182.975,380.66,178.92,383.874,174.259z M371.115,207.958
			c-3.901-5.201-4.054-9.995-0.549-14.823c-4.98-0.632-8.395,1.799-8.845,6.208C361.222,204.235,364.282,207.233,371.115,207.958z
			 M393.309,195.775c-1.1,2.059-2.283,3.97-3.159,6.013c-0.901,2.104-3.508,3.308-3.495,6.091
			C394.311,206.808,396.983,201.86,393.309,195.775z"/>
		<path fill-rule="evenodd" clip-rule="evenodd" d="M425.697,164.743c-0.294-0.716-0.965-1.53-0.82-2.138
			c2.11-8.482,3.971-17.061,8.612-24.653c0.698-1.13,1.51-2.188,2.618-3.78c0.567,1.261,1.19,1.966,1.069,2.502
			c-0.231,1.021-0.845,1.97-1.378,2.905c-3.669,6.47-5.998,13.42-7.59,20.658c-0.347,1.562-1.079,3.04-1.634,4.558
			C426.285,164.777,425.988,164.759,425.697,164.743z"/>
		<path fill-rule="evenodd" clip-rule="evenodd" d="M380.398,135.129c-5.66,9.541-7.629,19.633-11.363,29.01
			c-0.386-0.072-0.772-0.145-1.156-0.215c-0.191-0.777-0.713-1.646-0.526-2.316c2.327-8.402,5.052-16.67,8.805-24.561
			c0.387-0.81,0.875-1.671,1.561-2.19C378.09,134.574,378.969,134.953,380.398,135.129z"/>
		<path fill-rule="evenodd" clip-rule="evenodd" d="M393.504,132.026c0,1.836,0.272,2.757-0.037,3.389
			c-3.897,7.83-6.743,16.036-9.016,24.464c-0.318,1.164-0.637,2.928-2.705,2.04C382.145,154.556,388.838,136.697,393.504,132.026z"
			/>
		<path fill-rule="evenodd" clip-rule="evenodd" d="M421.954,133.618c-2.973,8.707-5.815,17.041-8.696,25.363
			c-0.051,0.151-0.532,0.153-1.022,0.277c-1.248-1.428-0.746-3.135-0.361-4.656c1.765-6.973,4.349-13.663,7.306-20.212
			C419.892,132.805,420.182,132.782,421.954,133.618z"/>
		<path fill-rule="evenodd" clip-rule="evenodd" d="M405.341,131.643c0.463,0.587,1.296,1.197,1.204,1.605
			c-0.287,1.328-0.82,2.635-1.434,3.861c-2.679,5.379-4.652,10.983-5.6,16.932c-0.222,1.427-0.604,2.706-2.284,3.042
			C396.229,151.502,400.416,138.176,405.341,131.643z"/>
	</g>
</g>
<g>
	<g>
		<polygon points="32.584,288.355 27.259,288.092 26.905,302.077 32.237,302.077 		"/>
		<path d="M34.428,268.005l-5.292-0.659c0,0-0.11,0.868-0.275,2.169c-0.15,1.303-0.42,3.033-0.571,4.774
			c-0.266,3.488-0.531,6.975-0.531,6.975l5.318,0.394c0,0,0.26-3.421,0.52-6.843c0.147-1.709,0.414-3.406,0.561-4.684
			C34.32,268.856,34.428,268.005,34.428,268.005z"/>
		<path d="M37.642,247.829l-5.227-1.053c0,0-0.615,3.443-1.23,6.887c-0.308,1.722-0.615,3.443-0.845,4.735
			c-0.25,1.288-0.339,2.159-0.339,2.159l5.274,0.788c0,0,0.087-0.854,0.333-2.118c0.227-1.267,0.528-2.955,0.83-4.644
			C37.039,251.207,37.642,247.829,37.642,247.829z"/>
		<path d="M42.489,227.981l-5.133-1.443c0,0-0.239,0.841-0.597,2.103c-0.34,1.267-0.875,2.934-1.272,4.637
			c-0.787,3.408-1.574,6.815-1.574,6.815l5.199,1.182c0,0,0.771-3.342,1.542-6.685c0.389-1.67,0.916-3.305,1.249-4.547
			C42.255,228.806,42.489,227.981,42.489,227.981z"/>
		<path d="M48.687,208.513l-5.01-1.826c0,0-1.121,3.313-2.243,6.627c-0.561,1.657-1.121,3.314-1.542,4.557
			c-0.437,1.237-0.665,2.082-0.666,2.082l5.096,1.57c0,0,0.224-0.828,0.653-2.042c0.413-1.219,0.963-2.844,1.513-4.468
			C47.587,211.763,48.687,208.513,48.687,208.513z"/>
		<path d="M56.468,189.619l-4.858-2.198c0,0-1.437,3.189-2.874,6.378c-1.284,3.254-2.567,6.508-2.567,6.508l4.963,1.949
			c0,0,1.258-3.191,2.516-6.383C55.059,192.746,56.468,189.619,56.468,189.619z"/>
		<path d="M65.52,171.307l-4.68-2.556c0,0-0.109,0.189-0.299,0.521c-0.175,0.34-0.424,0.827-0.724,1.41
			c-0.598,1.167-1.395,2.723-2.192,4.28c-1.594,3.113-3.188,6.226-3.188,6.226l4.803,2.317c0,0,1.564-3.053,3.128-6.105
			c0.782-1.527,1.563-3.053,2.149-4.198c0.293-0.572,0.538-1.049,0.709-1.383C65.413,171.493,65.52,171.307,65.52,171.307z"/>
	</g>
	<g>
		<path d="M76.034,153.783l-4.475-2.899c0,0-1.888,2.945-3.775,5.89c-0.955,1.465-1.767,3.018-2.439,4.144
			c-0.654,1.137-1.09,1.896-1.09,1.896l4.615,2.67c0,0,0.427-0.744,1.069-1.859c0.66-1.104,1.455-2.628,2.392-4.065
			C74.182,156.671,76.034,153.783,76.034,153.783z"/>
		<path d="M87.743,137.04l-4.247-3.224c0,0-0.538,0.689-1.344,1.724c-0.76,1.069-1.774,2.494-2.788,3.919
			c-2.027,2.851-4.054,5.701-4.054,5.701l4.403,3.008c0,0,1.988-2.796,3.977-5.592c0.994-1.398,1.988-2.796,2.733-3.845
			C87.215,137.716,87.743,137.04,87.743,137.04z"/>
		<path d="M100.714,121.253l-3.996-3.531c0,0-2.29,2.644-4.58,5.288c-0.571,0.662-1.143,1.324-1.678,1.945
			c-0.506,0.645-0.979,1.246-1.385,1.762c-0.811,1.031-1.351,1.719-1.351,1.719l4.167,3.327c0,0,0.53-0.674,1.325-1.686
			c0.397-0.506,0.861-1.096,1.358-1.729c0.525-0.609,1.086-1.258,1.647-1.907C98.467,123.846,100.714,121.253,100.714,121.253z"/>
		<path d="M114.802,106.454l-3.722-3.818c0,0-0.633,0.603-1.582,1.508c-0.973,0.88-2.152,2.174-3.365,3.433
			c-2.413,2.531-4.826,5.062-4.826,5.062l3.908,3.627c0,0,2.367-2.482,4.734-4.965c1.189-1.236,2.345-2.505,3.301-3.368
			C114.181,107.045,114.802,106.454,114.802,106.454z"/>
		<path d="M129.943,92.732l-3.428-4.084c0,0-2.644,2.29-5.288,4.58c-1.311,1.157-2.667,2.264-3.61,3.176
			c-0.95,0.905-1.583,1.508-1.583,1.508l3.627,3.908c0,0,0.621-0.592,1.552-1.48c0.924-0.896,2.256-1.98,3.542-3.115
			C127.349,94.979,129.943,92.732,129.943,92.732z"/>
		<path d="M146.09,80.21l-3.114-4.328c0,0-0.712,0.507-1.781,1.267c-1.067,0.763-2.511,1.75-3.865,2.859
			c-2.75,2.161-5.5,4.322-5.5,4.322l3.327,4.167c0,0,2.698-2.12,5.395-4.24c1.328-1.088,2.746-2.056,3.792-2.804
			C145.392,80.707,146.09,80.21,146.09,80.21z"/>
		<path d="M163.074,68.858l-2.783-4.548c0,0-2.944,1.887-5.889,3.774c-1.472,0.944-2.944,1.888-4.047,2.596
			c-0.558,0.345-1.001,0.665-1.312,0.888c-0.312,0.222-0.49,0.348-0.49,0.348l3.007,4.403c0,0,0.175-0.124,0.48-0.342
			c0.305-0.219,0.739-0.533,1.287-0.871c1.083-0.694,2.527-1.62,3.971-2.545C160.187,70.709,163.074,68.858,163.074,68.858z"/>
	</g>
	<g>
		<path d="M180.923,58.906l-2.435-4.744c0,0-0.778,0.398-1.946,0.997c-1.163,0.607-2.735,1.375-4.27,2.213
			c-3.033,1.743-6.065,3.487-6.065,3.487l2.67,4.615c0,0,2.974-1.71,5.948-3.421c1.505-0.822,3.048-1.575,4.188-2.17
			C180.16,59.297,180.923,58.906,180.923,58.906z"/>
		<path d="M199.406,50.199l-2.071-4.913c0,0-0.208,0.07-0.554,0.233c-0.349,0.158-0.847,0.383-1.444,0.653
			c-1.195,0.54-2.789,1.261-4.383,1.981c-3.186,1.444-6.372,2.889-6.372,2.889l2.317,4.802c0,0,3.125-1.416,6.25-2.832
			c1.563-0.707,3.126-1.414,4.298-1.944c0.586-0.265,1.075-0.486,1.417-0.641C199.203,50.268,199.406,50.199,199.406,50.199z"/>
		<path d="M218.543,43.047l-1.696-5.055c0,0-3.313,1.122-6.627,2.243c-1.646,0.59-3.26,1.268-4.484,1.738
			c-1.22,0.481-2.034,0.802-2.034,0.802l1.949,4.963c0,0,0.798-0.314,1.995-0.787c1.201-0.46,2.783-1.127,4.397-1.706
			C215.293,44.146,218.543,43.047,218.543,43.047z"/>
		<path d="M238.127,37.227l-1.31-5.168c0,0-0.858,0.172-2.115,0.549c-1.262,0.358-2.944,0.836-4.626,1.313
			c-3.364,0.956-6.729,1.911-6.729,1.911l1.57,5.096c0,0,3.3-0.937,6.599-1.873c1.65-0.469,3.299-0.938,4.537-1.289
			C237.286,37.395,238.127,37.227,238.127,37.227z"/>
		<path d="M258.12,33.016l-0.918-5.252c0,0-3.444,0.615-6.887,1.23c-1.724,0.296-3.414,0.759-4.697,1.032
			c-1.278,0.295-2.13,0.492-2.13,0.492l1.182,5.199c0,0,0.835-0.193,2.089-0.482c1.258-0.268,2.915-0.724,4.606-1.014
			C254.743,33.619,258.12,33.016,258.12,33.016z"/>
		<path d="M278.358,30.19l-0.523-5.306c0,0-0.874,0.049-2.173,0.233c-1.301,0.165-3.036,0.385-4.771,0.605
			c-3.47,0.441-6.939,0.882-6.939,0.882l0.788,5.274c0,0,3.403-0.432,6.807-0.864c1.702-0.217,3.403-0.433,4.679-0.595
			C277.501,30.238,278.358,30.191,278.358,30.19z"/>
		<path d="M298.754,29.013l-0.129-5.331c0,0-3.496,0.089-6.991,0.177c-1.746,0.083-3.487,0.251-4.795,0.339
			c-1.308,0.099-2.18,0.166-2.18,0.166l0.394,5.317c0,0,0.855-0.065,2.138-0.163c1.283-0.087,2.992-0.253,4.705-0.334
			C295.324,29.099,298.754,29.013,298.754,29.013z"/>
	</g>
	<g>
		<polygon points="319.193,29.189 319.456,23.864 305.472,23.51 305.472,28.842 		"/>
		<path d="M339.543,31.033l0.659-5.292c0,0-0.868-0.11-2.17-0.275c-1.303-0.15-3.032-0.42-4.773-0.571
			c-3.488-0.266-6.976-0.531-6.976-0.531l-0.394,5.318c0,0,3.422,0.26,6.843,0.52c1.709,0.147,3.405,0.414,4.684,0.561
			C338.692,30.925,339.543,31.033,339.543,31.033z"/>
		<path d="M359.72,34.247l1.053-5.227c0,0-3.443-0.615-6.888-1.23c-1.722-0.308-3.443-0.615-4.735-0.845
			c-1.287-0.25-2.158-0.339-2.158-0.339l-0.789,5.274c0,0,0.854,0.087,2.118,0.333c1.267,0.227,2.955,0.528,4.644,0.83
			C356.342,33.644,359.72,34.247,359.72,34.247z"/>
		<path d="M379.567,39.094l1.443-5.133c0,0-0.842-0.239-2.104-0.597c-1.266-0.34-2.934-0.875-4.637-1.272
			c-3.407-0.787-6.814-1.574-6.814-1.574l-1.183,5.199c0,0,3.343,0.771,6.685,1.542c1.67,0.389,3.305,0.916,4.547,1.249
			C378.742,38.86,379.567,39.094,379.567,39.094z"/>
		<path d="M399.035,45.292l1.826-5.01c0,0-3.313-1.121-6.627-2.243c-1.657-0.561-3.313-1.121-4.557-1.542
			c-1.237-0.437-2.082-0.665-2.082-0.666l-1.569,5.096c0,0,0.828,0.224,2.041,0.653c1.219,0.413,2.844,0.963,4.469,1.513
			C395.786,44.192,399.035,45.292,399.035,45.292z"/>
		<path d="M417.929,53.073l2.198-4.858c0,0-3.188-1.437-6.378-2.874c-3.254-1.284-6.508-2.567-6.508-2.567l-1.949,4.963
			c0,0,3.191,1.258,6.383,2.516C414.802,51.664,417.929,53.073,417.929,53.073z"/>
		<path d="M436.241,62.125l2.556-4.68c0,0-0.189-0.109-0.521-0.299c-0.341-0.175-0.827-0.424-1.41-0.724
			c-1.168-0.598-2.724-1.395-4.28-2.192c-3.112-1.594-6.226-3.188-6.226-3.188l-2.316,4.803c0,0,3.053,1.564,6.105,3.128
			c1.526,0.782,3.053,1.563,4.197,2.149c0.572,0.293,1.05,0.538,1.383,0.709C436.056,62.018,436.241,62.125,436.241,62.125z"/>
	</g>
	<g>
		<path d="M453.766,72.639l2.899-4.475c0,0-2.945-1.888-5.891-3.775c-1.465-0.955-3.018-1.767-4.144-2.439
			c-1.138-0.654-1.896-1.09-1.896-1.09l-2.67,4.615c0,0,0.744,0.427,1.859,1.069c1.104,0.66,2.627,1.455,4.064,2.392
			C450.878,70.787,453.766,72.639,453.766,72.639z"/>
		<path d="M470.509,84.348l3.225-4.247c0,0-0.689-0.538-1.725-1.344c-1.068-0.76-2.494-1.774-3.919-2.788
			c-2.851-2.027-5.701-4.054-5.701-4.054l-3.008,4.403c0,0,2.796,1.988,5.593,3.977c1.397,0.994,2.796,1.988,3.845,2.733
			C469.833,83.82,470.509,84.348,470.509,84.348z"/>
		<path d="M486.296,97.319l3.531-3.996c0,0-2.645-2.29-5.288-4.58c-0.662-0.571-1.324-1.143-1.944-1.678
			c-0.645-0.506-1.246-0.979-1.762-1.385c-1.031-0.811-1.719-1.351-1.719-1.351l-3.327,4.167c0,0,0.675,0.53,1.687,1.325
			c0.506,0.397,1.096,0.861,1.729,1.358c0.608,0.525,1.258,1.086,1.906,1.647C483.702,95.072,486.296,97.319,486.296,97.319z"/>
		<path d="M501.095,111.407l3.818-3.722c0,0-0.604-0.633-1.509-1.582c-0.88-0.973-2.174-2.152-3.433-3.365
			c-2.531-2.413-5.063-4.826-5.063-4.826l-3.627,3.908c0,0,2.482,2.367,4.965,4.734c1.235,1.189,2.506,2.345,3.368,3.301
			C500.503,110.786,501.095,111.407,501.095,111.407z"/>
		<path d="M514.816,126.548l4.084-3.428c0,0-2.29-2.644-4.58-5.288c-1.157-1.311-2.264-2.667-3.176-3.61
			c-0.905-0.95-1.509-1.583-1.509-1.583l-3.908,3.627c0,0,0.593,0.621,1.48,1.552c0.896,0.924,1.98,2.256,3.115,3.542
			C512.569,123.954,514.816,126.548,514.816,126.548z"/>
		<path d="M527.339,142.695l4.328-3.114c0,0-0.508-0.712-1.268-1.781c-0.764-1.067-1.75-2.511-2.859-3.865
			c-2.16-2.75-4.321-5.5-4.321-5.5l-4.167,3.327c0,0,2.121,2.698,4.24,5.395c1.088,1.328,2.056,2.746,2.805,3.792
			C526.841,141.997,527.339,142.695,527.339,142.695z"/>
		<path d="M538.69,159.679l4.549-2.783c0,0-1.888-2.944-3.775-5.889c-0.943-1.472-1.887-2.944-2.596-4.047
			c-0.345-0.558-0.664-1.001-0.888-1.312c-0.222-0.312-0.349-0.49-0.349-0.49l-4.402,3.007c0,0,0.124,0.175,0.342,0.48
			c0.219,0.305,0.533,0.739,0.871,1.287c0.694,1.083,1.619,2.527,2.545,3.971C536.839,156.792,538.69,159.679,538.69,159.679z"/>
	</g>
	<g>
		<path d="M548.643,177.528l4.743-2.435c0,0-0.398-0.778-0.996-1.946c-0.607-1.163-1.375-2.735-2.213-4.27
			c-1.744-3.033-3.487-6.065-3.487-6.065l-4.615,2.67c0,0,1.71,2.974,3.421,5.948c0.822,1.505,1.574,3.048,2.17,4.188
			C548.251,176.765,548.643,177.528,548.643,177.528z"/>
		<path d="M557.349,196.011l4.914-2.071c0,0-0.07-0.208-0.234-0.554c-0.157-0.349-0.383-0.847-0.652-1.444
			c-0.54-1.195-1.261-2.789-1.98-4.383c-1.445-3.186-2.889-6.372-2.889-6.372l-4.803,2.317c0,0,1.416,3.125,2.832,6.25
			c0.707,1.563,1.413,3.126,1.943,4.298c0.266,0.586,0.486,1.075,0.641,1.417C557.28,195.808,557.349,196.011,557.349,196.011z"/>
		<path d="M564.501,215.148l5.055-1.696c0,0-1.121-3.313-2.242-6.627c-0.59-1.646-1.269-3.26-1.738-4.484
			c-0.48-1.22-0.802-2.034-0.802-2.034l-4.963,1.949c0,0,0.314,0.798,0.786,1.995c0.461,1.201,1.127,2.783,1.706,4.397
			C563.401,211.898,564.501,215.148,564.501,215.148z"/>
		<path d="M570.321,234.732l5.169-1.31c0,0-0.172-0.858-0.55-2.115c-0.357-1.262-0.836-2.944-1.313-4.626
			c-0.956-3.364-1.912-6.729-1.912-6.729l-5.096,1.57c0,0,0.938,3.3,1.873,6.599c0.469,1.65,0.938,3.299,1.289,4.537
			C570.153,233.891,570.321,234.732,570.321,234.732z"/>
		<path d="M574.532,254.725l5.252-0.918c0,0-0.615-3.444-1.23-6.887c-0.295-1.724-0.759-3.414-1.031-4.697
			c-0.295-1.278-0.492-2.13-0.492-2.13l-5.199,1.182c0,0,0.193,0.835,0.482,2.089c0.268,1.258,0.724,2.915,1.014,4.606
			C573.929,251.348,574.532,254.725,574.532,254.725z"/>
		<path d="M577.358,274.963l5.306-0.523c0,0-0.049-0.874-0.233-2.173c-0.164-1.301-0.385-3.036-0.605-4.771
			c-0.441-3.47-0.882-6.939-0.882-6.939l-5.273,0.788c0,0,0.432,3.403,0.864,6.807c0.217,1.702,0.433,3.403,0.595,4.679
			C577.311,274.106,577.357,274.963,577.358,274.963z"/>
		<path d="M578.535,295.359l5.331-0.129c0,0-0.09-3.496-0.178-6.991c-0.083-1.746-0.251-3.487-0.339-4.795
			c-0.1-1.308-0.166-2.18-0.166-2.18l-5.317,0.394c0,0,0.064,0.855,0.162,2.138c0.088,1.283,0.254,2.992,0.334,4.705
			C578.449,291.929,578.535,295.359,578.535,295.359z"/>
	</g>
	<g>
		<polygon points="578.358,315.798 583.685,316.062 584.038,302.077 578.706,302.077 		"/>
		<path d="M576.515,336.147l5.292,0.66c0,0,0.11-0.869,0.275-2.17c0.149-1.303,0.42-3.033,0.571-4.773
			c0.266-3.488,0.53-6.977,0.53-6.977l-5.317-0.393c0,0-0.26,3.422-0.52,6.842c-0.147,1.709-0.414,3.406-0.561,4.684
			C576.624,335.298,576.515,336.147,576.515,336.147z"/>
		<path d="M573.302,356.325l5.227,1.053c0,0,0.615-3.443,1.23-6.889c0.308-1.721,0.615-3.443,0.846-4.734
			c0.249-1.287,0.338-2.158,0.339-2.158l-5.273-0.789c-0.001,0-0.087,0.854-0.333,2.117c-0.227,1.268-0.528,2.955-0.83,4.645
			C573.904,352.946,573.302,356.325,573.302,356.325z"/>
		<path d="M568.454,376.173l5.133,1.443c0,0,0.238-0.842,0.598-2.104c0.34-1.266,0.875-2.934,1.271-4.637
			c0.787-3.408,1.574-6.814,1.574-6.814l-5.199-1.184c0,0-0.771,3.344-1.543,6.686c-0.389,1.67-0.915,3.305-1.248,4.547
			C568.688,375.347,568.454,376.173,568.454,376.173z"/>
		<path d="M562.257,395.64l5.01,1.826c0,0,1.121-3.313,2.242-6.627c0.561-1.656,1.121-3.313,1.542-4.557
			c0.437-1.236,0.665-2.082,0.665-2.082l-5.096-1.568c0,0-0.223,0.828-0.652,2.041c-0.412,1.219-0.963,2.844-1.513,4.469
			C563.356,392.392,562.257,395.64,562.257,395.64z"/>
		<path d="M554.476,414.534l4.857,2.197c0,0,1.438-3.188,2.873-6.377c1.284-3.254,2.567-6.508,2.567-6.508l-4.963-1.949
			c0,0-1.258,3.191-2.517,6.383C555.885,411.407,554.476,414.534,554.476,414.534z"/>
		<path d="M545.424,432.847l4.68,2.555c0,0,0.108-0.189,0.3-0.52c0.174-0.342,0.424-0.828,0.724-1.41
			c0.598-1.168,1.396-2.725,2.192-4.281c1.594-3.111,3.188-6.225,3.188-6.225l-4.803-2.316c0,0-1.563,3.053-3.127,6.105
			c-0.782,1.525-1.563,3.053-2.15,4.197c-0.293,0.572-0.537,1.049-0.709,1.383C545.53,432.661,545.424,432.847,545.424,432.847z"/>
	</g>
	<g>
		<path d="M534.909,450.37l4.476,2.9c0,0,1.888-2.945,3.775-5.891c0.955-1.465,1.767-3.018,2.439-4.145
			c0.653-1.137,1.09-1.895,1.09-1.895l-4.615-2.67c0,0-0.427,0.744-1.069,1.859c-0.659,1.104-1.454,2.627-2.392,4.064
			C536.762,447.483,534.909,450.37,534.909,450.37z"/>
		<path d="M523.2,467.114l4.247,3.225c0,0,0.538-0.689,1.345-1.725c0.76-1.068,1.773-2.494,2.787-3.92
			c2.027-2.85,4.054-5.701,4.054-5.701l-4.403-3.008c0,0-1.988,2.797-3.977,5.594c-0.994,1.396-1.988,2.795-2.733,3.844
			C523.728,466.438,523.2,467.114,523.2,467.114z"/>
		<path d="M510.229,482.901l3.996,3.531c0,0,2.289-2.645,4.58-5.289c0.57-0.662,1.143-1.324,1.678-1.943
			c0.506-0.645,0.979-1.246,1.385-1.762c0.811-1.031,1.351-1.719,1.351-1.719l-4.167-3.328c0,0-0.529,0.676-1.324,1.688
			c-0.397,0.506-0.861,1.096-1.357,1.729c-0.525,0.607-1.087,1.258-1.647,1.906C512.476,480.308,510.229,482.901,510.229,482.901z"
			/>
		<path d="M496.142,497.7l3.722,3.818c0,0,0.633-0.604,1.582-1.51c0.974-0.879,2.151-2.174,3.364-3.432
			c2.414-2.531,4.826-5.063,4.826-5.063l-3.908-3.627c0,0-2.366,2.482-4.733,4.965c-1.189,1.234-2.345,2.506-3.301,3.367
			C496.763,497.108,496.142,497.7,496.142,497.7z"/>
		<path d="M481.001,511.421l3.428,4.084c0,0,2.644-2.289,5.287-4.58c1.312-1.156,2.668-2.264,3.611-3.176
			c0.949-0.904,1.582-1.508,1.582-1.508l-3.627-3.908c0,0-0.621,0.592-1.553,1.48c-0.924,0.896-2.256,1.98-3.542,3.115
			C483.595,509.175,481.001,511.421,481.001,511.421z"/>
		<path d="M464.853,523.944l3.115,4.328c0,0,0.712-0.508,1.781-1.268c1.066-0.764,2.511-1.75,3.865-2.859
			c2.75-2.16,5.5-4.322,5.5-4.322l-3.327-4.166c0,0-2.698,2.121-5.396,4.24c-1.327,1.088-2.745,2.055-3.791,2.805
			C465.552,523.446,464.853,523.944,464.853,523.944z"/>
		<path d="M447.869,535.296l2.782,4.549c0,0,2.945-1.889,5.889-3.775c1.473-0.943,2.944-1.887,4.048-2.596
			c0.558-0.346,1.001-0.664,1.312-0.889c0.313-0.221,0.49-0.348,0.49-0.348l-3.008-4.402c0,0-0.174,0.123-0.48,0.342
			c-0.305,0.219-0.738,0.533-1.286,0.871c-1.083,0.693-2.526,1.619-3.972,2.545C450.757,533.444,447.869,535.296,447.869,535.296z"
			/>
	</g>
	<g>
		<path d="M430.021,545.247l2.435,4.744c0,0,0.778-0.398,1.946-0.996c1.162-0.607,2.734-1.375,4.27-2.213
			c3.032-1.744,6.064-3.488,6.064-3.488l-2.67-4.615c0,0-2.975,1.711-5.948,3.422c-1.505,0.822-3.048,1.574-4.188,2.17
			C430.784,544.856,430.021,545.247,430.021,545.247z"/>
		<path d="M411.537,553.954l2.071,4.914c0,0,0.207-0.07,0.555-0.234c0.348-0.158,0.846-0.383,1.443-0.652
			c1.195-0.541,2.789-1.262,4.383-1.98c3.187-1.445,6.373-2.889,6.373-2.889l-2.317-4.803c0,0-3.125,1.416-6.25,2.832
			c-1.563,0.707-3.126,1.412-4.298,1.943c-0.586,0.266-1.075,0.486-1.417,0.641C411.741,553.886,411.537,553.954,411.537,553.954z"
			/>
		<path d="M392.4,561.106l1.696,5.055c0,0,3.313-1.121,6.627-2.242c1.646-0.59,3.26-1.27,4.484-1.738
			c1.22-0.48,2.033-0.803,2.033-0.803l-1.949-4.963c0,0-0.798,0.314-1.994,0.787c-1.201,0.461-2.783,1.127-4.398,1.705
			C395.649,560.007,392.4,561.106,392.4,561.106z"/>
		<path d="M372.815,566.927l1.311,5.168c0,0,0.858-0.172,2.115-0.549c1.262-0.357,2.943-0.836,4.626-1.313
			c3.364-0.957,6.729-1.912,6.729-1.912l-1.569-5.096c0,0-3.301,0.938-6.6,1.873c-1.65,0.469-3.299,0.938-4.537,1.289
			C373.657,566.759,372.815,566.927,372.815,566.927z"/>
		<path d="M352.823,571.138l0.918,5.252c0,0,3.443-0.615,6.887-1.23c1.725-0.295,3.414-0.76,4.697-1.031
			c1.278-0.295,2.131-0.492,2.131-0.492l-1.183-5.199c0,0-0.835,0.193-2.089,0.482c-1.258,0.268-2.915,0.723-4.606,1.014
			C356.2,570.534,352.823,571.138,352.823,571.138z"/>
		<path d="M332.585,573.964l0.523,5.305c0,0,0.873-0.049,2.173-0.232c1.301-0.164,3.036-0.385,4.771-0.605
			c3.47-0.441,6.939-0.883,6.939-0.883l-0.789-5.273c0,0-3.402,0.432-6.807,0.865c-1.701,0.217-3.402,0.432-4.679,0.594
			C333.442,573.915,332.585,573.962,332.585,573.964z"/>
		<path d="M312.189,575.14l0.129,5.332c0,0,3.495-0.09,6.991-0.178c1.746-0.084,3.487-0.252,4.795-0.34
			c1.309-0.1,2.18-0.166,2.18-0.166l-0.393-5.316c0,0-0.855,0.064-2.139,0.162c-1.283,0.088-2.991,0.254-4.704,0.334
			C315.619,575.054,312.189,575.14,312.189,575.14z"/>
	</g>
	<g>
		<polygon points="291.75,574.964 291.487,580.29 305.472,580.644 305.472,575.312 		"/>
		<path d="M271.4,573.12l-0.659,5.291c0,0,0.868,0.111,2.169,0.275c1.303,0.15,3.033,0.42,4.774,0.572
			c3.488,0.266,6.975,0.529,6.975,0.529l0.394-5.316c0,0-3.421-0.26-6.843-0.52c-1.709-0.148-3.406-0.414-4.684-0.561
			C272.251,573.229,271.4,573.12,271.4,573.12z"/>
		<path d="M251.224,569.907l-1.053,5.227c0,0,3.443,0.615,6.887,1.23c1.722,0.307,3.443,0.615,4.735,0.846
			c1.288,0.248,2.159,0.338,2.159,0.338l0.788-5.273c0,0-0.854-0.086-2.118-0.332c-1.267-0.227-2.955-0.529-4.644-0.83
			C254.602,570.509,251.224,569.907,251.224,569.907z"/>
		<path d="M231.376,565.06l-1.443,5.133c0,0,0.841,0.238,2.103,0.598c1.267,0.34,2.934,0.875,4.637,1.271
			c3.408,0.787,6.815,1.574,6.815,1.574l1.182-5.199c0,0-3.342-0.771-6.685-1.543c-1.67-0.389-3.305-0.916-4.547-1.248
			C232.201,565.294,231.376,565.06,231.376,565.06z"/>
		<path d="M211.908,558.862l-1.826,5.01c0,0,3.313,1.121,6.627,2.242c1.657,0.561,3.314,1.121,4.557,1.541
			c1.237,0.438,2.082,0.666,2.082,0.666l1.57-5.096c0,0-0.828-0.223-2.042-0.652c-1.219-0.412-2.844-0.963-4.468-1.514
			C215.158,559.962,211.908,558.862,211.908,558.862z"/>
		<path d="M193.014,551.081l-2.198,4.857c0,0,3.189,1.438,6.378,2.873c3.254,1.283,6.508,2.566,6.508,2.566l1.949-4.963
			c0,0-3.191-1.258-6.383-2.516C196.141,552.489,193.014,551.081,193.014,551.081z"/>
		<path d="M174.702,542.028l-2.556,4.68c0,0,0.189,0.109,0.521,0.301c0.34,0.174,0.827,0.424,1.41,0.723
			c1.167,0.598,2.723,1.396,4.28,2.193c3.113,1.594,6.226,3.188,6.226,3.188l2.317-4.803c0,0-3.053-1.564-6.105-3.127
			c-1.527-0.783-3.053-1.564-4.198-2.15c-0.572-0.293-1.049-0.537-1.383-0.709C174.888,542.136,174.702,542.028,174.702,542.028z"/>
	</g>
	<g>
		<path d="M157.178,531.515l-2.899,4.475c0,0,2.945,1.889,5.89,3.775c1.465,0.955,3.018,1.768,4.144,2.439
			c1.137,0.654,1.896,1.09,1.896,1.09l2.67-4.615c0,0-0.744-0.426-1.859-1.068c-1.104-0.66-2.628-1.455-4.065-2.393
			C160.066,533.366,157.178,531.515,157.178,531.515z"/>
		<path d="M140.435,519.806l-3.224,4.246c0,0,0.689,0.539,1.724,1.346c1.069,0.76,2.494,1.773,3.919,2.787
			c2.851,2.027,5.701,4.053,5.701,4.053l3.008-4.402c0,0-2.796-1.988-5.592-3.977c-1.398-0.994-2.796-1.988-3.845-2.734
			C141.111,520.333,140.435,519.806,140.435,519.806z"/>
		<path d="M124.648,506.835l-3.531,3.996c0,0,2.644,2.289,5.288,4.58c0.662,0.57,1.324,1.143,1.945,1.678
			c0.645,0.506,1.246,0.979,1.762,1.385c1.031,0.811,1.719,1.35,1.719,1.35l3.327-4.166c0,0-0.674-0.529-1.686-1.324
			c-0.506-0.398-1.096-0.861-1.729-1.357c-0.609-0.525-1.258-1.088-1.907-1.648C127.241,509.081,124.648,506.835,124.648,506.835z"
			/>
		<path d="M109.849,492.747l-3.818,3.721c0,0,0.603,0.633,1.508,1.582c0.88,0.975,2.174,2.152,3.433,3.365
			c2.531,2.414,5.062,4.826,5.062,4.826l3.627-3.908c0,0-2.482-2.367-4.965-4.734c-1.236-1.189-2.505-2.344-3.368-3.301
			C110.44,493.368,109.849,492.747,109.849,492.747z"/>
		<path d="M96.127,477.606l-4.084,3.428c0,0,2.29,2.643,4.58,5.287c1.157,1.311,2.264,2.668,3.176,3.611
			c0.905,0.949,1.508,1.582,1.508,1.582l3.908-3.627c0,0-0.592-0.621-1.48-1.553c-0.896-0.924-1.98-2.256-3.115-3.543
			C98.374,480.2,96.127,477.606,96.127,477.606z"/>
		<path d="M83.605,461.458l-4.328,3.115c0,0,0.507,0.711,1.267,1.781c0.763,1.066,1.75,2.51,2.859,3.865
			c2.161,2.75,4.322,5.5,4.322,5.5l4.167-3.328c0,0-2.12-2.697-4.24-5.395c-1.088-1.328-2.056-2.746-2.804-3.791
			C84.102,462.157,83.605,461.458,83.605,461.458z"/>
		<path d="M72.253,444.474l-4.548,2.783c0,0,1.887,2.945,3.774,5.889c0.944,1.473,1.888,2.943,2.596,4.047
			c0.345,0.559,0.665,1.002,0.888,1.313c0.222,0.313,0.348,0.49,0.348,0.49l4.403-3.008c0,0-0.124-0.174-0.342-0.48
			c-0.219-0.305-0.533-0.738-0.871-1.287c-0.694-1.082-1.62-2.525-2.545-3.971C74.104,447.362,72.253,444.474,72.253,444.474z"/>
	</g>
	<g>
		<path d="M62.301,426.626l-4.744,2.434c0,0,0.398,0.779,0.997,1.947c0.607,1.162,1.375,2.734,2.213,4.27
			c1.743,3.031,3.487,6.064,3.487,6.064l4.615-2.67c0,0-1.71-2.975-3.421-5.949c-0.822-1.504-1.575-3.047-2.17-4.188
			C62.692,427.39,62.301,426.626,62.301,426.626z"/>
		<path d="M53.594,408.142l-4.913,2.072c0,0,0.07,0.207,0.233,0.555c0.158,0.348,0.383,0.846,0.653,1.443
			c0.54,1.195,1.261,2.789,1.981,4.383c1.444,3.186,2.889,6.373,2.889,6.373l4.802-2.318c0,0-1.416-3.125-2.832-6.25
			c-0.707-1.563-1.414-3.125-1.944-4.297c-0.265-0.586-0.486-1.076-0.641-1.418C53.663,408.347,53.594,408.142,53.594,408.142z"/>
		<path d="M46.442,389.005l-5.055,1.697c0,0,1.122,3.313,2.243,6.627c0.59,1.645,1.268,3.26,1.738,4.484
			c0.481,1.219,0.802,2.033,0.802,2.033l4.963-1.949c0,0-0.314-0.799-0.787-1.994c-0.46-1.201-1.127-2.783-1.706-4.398
			C47.542,392.255,46.442,389.005,46.442,389.005z"/>
		<path d="M40.622,369.421l-5.168,1.311c0,0,0.172,0.857,0.549,2.115c0.358,1.262,0.836,2.943,1.313,4.625
			c0.956,3.365,1.911,6.729,1.911,6.729l5.096-1.568c0,0-0.937-3.301-1.873-6.6c-0.469-1.65-0.938-3.299-1.289-4.537
			C40.79,370.263,40.622,369.421,40.622,369.421z"/>
		<path d="M36.411,349.429l-5.252,0.918c0,0,0.615,3.443,1.23,6.887c0.296,1.725,0.759,3.414,1.032,4.697
			c0.295,1.277,0.492,2.131,0.492,2.131l5.199-1.184c0,0-0.193-0.834-0.482-2.088c-0.268-1.258-0.724-2.916-1.014-4.607
			C37.014,352.806,36.411,349.429,36.411,349.429z"/>
		<path d="M33.585,329.19l-5.306,0.523c0,0,0.049,0.873,0.233,2.172c0.165,1.301,0.385,3.037,0.605,4.771
			c0.441,3.469,0.882,6.939,0.882,6.939l5.274-0.789c0,0-0.432-3.402-0.864-6.807c-0.217-1.701-0.433-3.402-0.595-4.68
			C33.633,330.048,33.586,329.19,33.585,329.19z"/>
		<path d="M32.408,308.794l-5.331,0.129c0,0,0.089,3.496,0.177,6.992c0.083,1.746,0.251,3.486,0.339,4.795
			c0.099,1.309,0.166,2.18,0.166,2.18l5.317-0.393c0,0-0.065-0.855-0.163-2.139c-0.087-1.283-0.253-2.992-0.334-4.705
			C32.494,312.224,32.408,308.794,32.408,308.794z"/>
	</g>
</g>
</svg>
