<!-- icon666.com - MILLIONS vector ICONS FREE --><svg id="Layer_1" enable-background="new 0 0 510 510" viewBox="0 0 510 510" xmlns="http://www.w3.org/2000/svg"><g id="XMLID_1410_"><path id="XMLID_1421_" d="m30 0h30v30h-30z"></path><path id="XMLID_1886_" d="m30 60h30v30h-30z"></path><path id="XMLID_1887_" d="m60 30h30v30h-30z"></path><path id="XMLID_1888_" d="m0 30h30v30h-30z"></path><path id="XMLID_1891_" d="m465 480v-314.665l22.645 12.738 14.709-26.146-67.354-37.887v-114.04h-90v63.415l-90-50.625-247.354 139.137 14.708 26.146 22.646-12.738v314.665h-45v30h510v-30zm-90-450h30v67.162l-30-16.875zm-240 450v-150h90v150zm120 0v-180h-150v180h-30v-331.54l180-101.25 180 101.25v331.54z"></path><path id="XMLID_1896_" d="m307.5 157.5c0-28.948-23.552-52.5-52.5-52.5-69.553 2.64-69.534 102.371.001 105 28.947 0 52.499-23.552 52.499-52.5zm-52.5 22.5c-12.407 0-22.5-10.094-22.5-22.5 1.131-29.808 43.873-29.8 45 0 0 12.406-10.094 22.5-22.5 22.5z"></path><path id="XMLID_1899_" d="m285 375h120v-120h-120zm30-90h60v60h-60z"></path></g></svg>