<?xml version="1.0" encoding="utf-8"?>
<!-- Generator: Adobe Illustrator 16.0.3, SVG Export Plug-In . SVG Version: 6.00 Build 0)  -->
<!DOCTYPE svg PUBLIC "-//W3C//DTD SVG 1.1//EN" "http://www.w3.org/Graphics/SVG/1.1/DTD/svg11.dtd">
<svg version="1.1" id="Capa_1" xmlns="http://www.w3.org/2000/svg" xmlns:xlink="http://www.w3.org/1999/xlink" x="0px" y="0px"
	 width="595.28px" height="595.28px" viewBox="0 0 595.28 595.28" enable-background="new 0 0 595.28 595.28" xml:space="preserve">
<g>
	<path fill-rule="evenodd" clip-rule="evenodd" d="M361.465,291.228c-14.138,1.871-26.521-11.604-22.921-26.357
		c1.371-5.61,5.139-9.511,8.506-13.724c6.066-7.58,12.233-15.089,18.473-22.522c1.499-1.785,1.749-3.505,1.344-5.679
		c-1.658-8.959-0.002-17.308,5.266-24.766c8.604-12.185,20.495-17.064,34.984-14.104c13.435,2.743,21.986,11.41,25.648,24.598
		c1.895,6.837,1.319,13.697-1.22,20.361c-0.762,2.004-1.63,3.782-0.472,6.25c6.684,14.256,13.24,28.569,19.554,42.992
		c2.84,6.481,1.884,12.946-1.747,19.021c-2.629,4.403-6.581,7.086-11.313,8.688c-1.874,0.629-3.099,1.43-3.012,3.656
		c0.525,13.666-0.852,27.375,0.927,41.018c1.56,11.951,3.057,23.91,4.694,35.846c1.885,13.688,3.992,27.336,5.774,41.033
		c0.409,3.16,0.405,6.559-0.294,9.641c-1.778,7.859-9.318,15.73-21.227,14.824c-8.972-0.684-17.033-7.955-18.193-17.072
		c-1.148-9.033-2.081-18.092-3.212-28.057c-0.463,1.762-0.854,2.709-0.945,3.684c-0.681,7.314-1.628,14.633-1.851,21.969
		c-0.302,9.934-7.14,18.1-17.285,19.932c-10.139,1.816-21.848-6.418-22.764-16.664c-0.325-3.646-0.107-7.369,0.219-11.025
		c1.01-11.115,2.187-22.227,3.307-33.34c0.736-7.314,1.531-14.617,2.229-21.932c0.741-7.758,1.7-15.504,2.009-23.279
		c0.341-8.672,0.141-17.375,0.026-26.07c-0.128-9.684-0.422-19.371-0.653-29.509C364.968,290.872,363.214,290.996,361.465,291.228z
		 M376.508,278.228c-1.553,1.869-1.457,3.978-1.422,6.119c0.246,15.562,0.386,31.119,0.792,46.671
		c0.368,13.9-0.861,27.662-2.455,41.447c-1.292,11.15-2.046,22.369-3.115,33.549c-0.708,7.352-1.605,14.68-2.326,22.025
		c-0.285,2.91-0.276,5.85-0.5,8.766c-0.356,4.65,3.57,9.842,9.953,11.01c5.072,0.928,10.668-2.412,12.196-7.713
		c0.926-3.205,1.164-6.648,1.484-10.002c0.797-8.273,1.429-16.553,2.199-24.834c0.754-8.115,1.604-16.217,2.404-24.334
		c0.402-4.133,0.67-8.283,1.192-12.408c0.466-3.66,2.189-5.381,5.063-5.492c2.663-0.109,5.036,1.832,5.53,5.141
		c1.013,6.84,1.771,13.729,2.615,20.592c1.143,9.316,2.289,18.633,3.395,27.943c0.775,6.576,1.469,13.156,2.234,19.727
		c0.545,4.643,2.836,8.176,7.223,9.92c4.336,1.732,8.47,1.1,12.096-2.004c2.505-2.146,3.816-4.891,3.615-8.15
		c-0.262-4.297-0.665-8.59-1.226-12.863c-1.764-13.416-3.601-26.824-5.467-40.232c-1.676-12.025-3.568-24.031-5.065-36.09
		c-0.551-4.406-0.304-8.92-0.32-13.387c-0.04-9.549-0.014-19.109-0.014-28.883c-1.299-0.656-2.498-1.268-3.707-1.871
		c-5.156-2.58-8.793-6.527-11.188-11.799c-4.954-10.949-10.076-21.815-15.141-32.712c-0.318-0.68-0.76-1.314-1.577-2.717
		C388.577,263.489,382.59,270.896,376.508,278.228z M444.837,285.268c-2.047-5.712-4.74-11.192-7.205-16.752
		c-3.793-8.549-7.602-17.088-11.471-25.606c-1.96-4.31-5.069-7.372-9.751-8.771c-4.567-1.37-8.332,0.167-11.608,3.096
		c-3.596,3.222-5.266,7.314-4.147,12.175c0.381,1.65,1.135,3.234,1.853,4.786c5.882,12.736,11.856,25.433,17.683,38.193
		c2.54,5.559,6.317,9.182,11.001,9.342C441.524,301.675,447.732,293.359,444.837,285.268z M393.481,223.554
		c-5.47-2.489-12.252-0.738-16.476,3.958c-10.138,11.256-20.253,22.541-30.259,33.904c-4.73,5.38-4.832,10.692-1.477,15.932
		c4.603,7.208,17.258,7.638,22.874,1.406c8.199-9.096,16.353-18.235,24.44-27.425c0.881-1.003,1.824-2.523,1.652-3.665
		c-0.969-6.429,1.299-11.912,5.274-17c0.291-0.372,0.536-0.782,1.276-1.869C398.21,226.9,396.104,224.741,393.481,223.554z
		 M419.97,198.064c-9.286-8.971-21.08-11.098-32.605-5.212c-10.595,5.409-16.774,16.5-14.955,26.71
		c13.001-5.577,23.999-2.926,32.73,8.454c3.391-0.384,6.887-1.221,10.325-1.048c3.295,0.168,6.534,1.39,10.177,2.249
		C431.136,218.824,428.296,206.102,419.97,198.064z"/>
	<path fill-rule="evenodd" clip-rule="evenodd" d="M179.506,298.416c-5.066,43.357-10.103,86.431-15.172,129.806
		c1.334,0,2.426,0,3.521,0c20,0,40.003-0.002,60.002,0c4.877,0,6.2,1.336,6.213,6.291c0.012,4.893,0.016,9.785-0.005,14.68
		c-0.017,3.898-1.559,5.426-5.495,5.426c-28.844,0.004-57.686-0.002-86.527-0.012c-4.478-0.002-5.754-1.303-5.754-5.857
		c-0.002-55.881,0-111.764,0.005-167.645c0-4.294,1.406-5.729,5.712-5.729c55.198-0.01,110.392-0.008,165.59-0.008
		c2.395,0,4.794,0,7.188-0.004c3.619-0.006,5.36,1.688,5.394,5.353c0.033,3.948,0.013,7.896-0.004,11.846
		c-0.017,4.35-1.528,5.854-5.898,5.854c-42.835,0.005-85.67,0.002-128.504,0.002C183.804,298.416,181.837,298.416,179.506,298.416z"
		/>
	<path fill-rule="evenodd" clip-rule="evenodd" d="M204.048,257.8c1.299,0,2.403,0,3.508,0c31.849,0,63.695,0,95.545,0
		c4.182,0,4.272,0.093,4.269,4.382c-0.002,1.63-0.033,3.262,0.006,4.893c0.042,1.852-0.827,2.693-2.665,2.596
		c-0.599-0.031-1.202,0.006-1.802,0.006c-34.938,0-69.88,0.002-104.818,0c-3.795,0-3.758-0.012-4.494-3.623
		c-6.605-32.416-13.228-64.825-19.846-97.236c-0.529-2.604-1.218-5.193-1.493-7.824c-0.089-0.856,0.72-2.42,1.432-2.639
		c2.436-0.753,5.011-1.074,7.54-1.514c1.469-0.254,2.159,0.453,2.457,1.905c5.162,25.184,10.361,50.358,15.546,75.536
		C200.822,242.002,202.397,249.727,204.048,257.8z"/>
</g>
<g>
	<g>
		<polygon points="24.754,283.918 19.428,283.655 19.074,297.641 24.406,297.641 		"/>
		<path d="M26.598,263.569l-5.292-0.659c0,0-0.11,0.868-0.275,2.169c-0.149,1.303-0.42,3.033-0.571,4.774
			c-0.266,3.488-0.531,6.975-0.531,6.975l5.318,0.394c0,0,0.26-3.421,0.52-6.843c0.147-1.709,0.414-3.406,0.561-4.684
			C26.488,264.419,26.598,263.569,26.598,263.569z"/>
		<path d="M29.811,243.393l-5.227-1.053c0,0-0.615,3.443-1.23,6.887c-0.308,1.722-0.615,3.443-0.846,4.735
			c-0.249,1.288-0.338,2.159-0.339,2.159l5.274,0.788c0,0,0.086-0.854,0.332-2.118c0.227-1.267,0.528-2.955,0.83-4.644
			C29.208,246.77,29.811,243.393,29.811,243.393z"/>
		<path d="M34.658,223.545l-5.133-1.443c0,0-0.238,0.841-0.598,2.103c-0.34,1.267-0.875,2.934-1.271,4.637
			c-0.787,3.408-1.574,6.815-1.574,6.815l5.199,1.182c0,0,0.771-3.342,1.543-6.685c0.389-1.67,0.915-3.305,1.248-4.547
			C34.424,224.37,34.658,223.545,34.658,223.545z"/>
		<path d="M40.855,204.077l-5.01-1.826c0,0-1.121,3.313-2.242,6.627c-0.561,1.657-1.121,3.314-1.542,4.557
			c-0.437,1.237-0.665,2.082-0.665,2.082l5.096,1.57c0,0,0.223-0.828,0.652-2.042c0.412-1.219,0.963-2.844,1.513-4.468
			C39.756,207.326,40.855,204.077,40.855,204.077z"/>
		<path d="M48.637,185.183l-4.857-2.198c0,0-1.438,3.189-2.873,6.378c-1.284,3.254-2.567,6.508-2.567,6.508l4.963,1.949
			c0,0,1.258-3.191,2.517-6.383C47.228,188.31,48.637,185.183,48.637,185.183z"/>
		<path d="M57.688,166.871l-4.68-2.556c0,0-0.108,0.189-0.3,0.521c-0.174,0.34-0.424,0.827-0.724,1.41
			c-0.598,1.167-1.396,2.723-2.192,4.28c-1.594,3.113-3.188,6.226-3.188,6.226l4.803,2.317c0,0,1.563-3.053,3.127-6.105
			c0.782-1.527,1.563-3.053,2.15-4.198c0.293-0.572,0.537-1.049,0.709-1.383C57.582,167.057,57.688,166.871,57.688,166.871z"/>
	</g>
	<g>
		<path d="M68.203,149.346l-4.476-2.899c0,0-1.888,2.945-3.775,5.89c-0.955,1.465-1.767,3.018-2.439,4.144
			c-0.653,1.137-1.09,1.896-1.09,1.896l4.615,2.67c0,0,0.427-0.744,1.069-1.859c0.659-1.104,1.454-2.628,2.392-4.065
			C66.352,152.234,68.203,149.346,68.203,149.346z"/>
		<path d="M79.912,132.603l-4.247-3.224c0,0-0.538,0.689-1.345,1.724c-0.76,1.069-1.773,2.494-2.787,3.919
			c-2.027,2.851-4.055,5.701-4.055,5.701l4.404,3.008c0,0,1.988-2.796,3.977-5.592c0.994-1.398,1.988-2.796,2.733-3.845
			C79.385,133.279,79.912,132.603,79.912,132.603z"/>
		<path d="M92.883,116.816l-3.996-3.531c0,0-2.289,2.644-4.58,5.288c-0.57,0.662-1.143,1.324-1.678,1.945
			c-0.506,0.645-0.979,1.246-1.385,1.762c-0.811,1.031-1.351,1.719-1.351,1.719l4.167,3.327c0,0,0.529-0.674,1.324-1.686
			c0.397-0.506,0.861-1.096,1.357-1.729c0.525-0.609,1.087-1.258,1.647-1.907C90.637,119.41,92.883,116.816,92.883,116.816z"/>
		<path d="M106.971,102.017l-3.722-3.818c0,0-0.633,0.603-1.582,1.508c-0.974,0.88-2.151,2.174-3.364,3.433
			c-2.414,2.531-4.826,5.062-4.826,5.062l3.908,3.627c0,0,2.366-2.482,4.733-4.965c1.189-1.236,2.345-2.505,3.301-3.368
			C106.35,102.609,106.971,102.017,106.971,102.017z"/>
		<path d="M122.111,88.295l-3.428-4.084c0,0-2.644,2.29-5.287,4.58c-1.312,1.157-2.668,2.264-3.611,3.176
			c-0.949,0.905-1.582,1.508-1.582,1.508l3.627,3.908c0,0,0.621-0.592,1.553-1.48c0.924-0.896,2.256-1.98,3.542-3.115
			C119.518,90.542,122.111,88.295,122.111,88.295z"/>
		<path d="M138.26,75.773l-3.115-4.328c0,0-0.712,0.507-1.781,1.267c-1.066,0.763-2.511,1.75-3.865,2.859
			c-2.75,2.161-5.5,4.322-5.5,4.322l3.327,4.167c0,0,2.698-2.12,5.396-4.24c1.327-1.088,2.745-2.056,3.791-2.804
			C137.561,76.271,138.26,75.773,138.26,75.773z"/>
		<path d="M155.243,64.421l-2.782-4.548c0,0-2.945,1.887-5.889,3.774c-1.473,0.944-2.944,1.888-4.048,2.596
			c-0.558,0.345-1.001,0.665-1.312,0.888c-0.313,0.222-0.49,0.348-0.49,0.348l3.008,4.403c0,0,0.174-0.124,0.48-0.342
			c0.305-0.219,0.738-0.533,1.286-0.871c1.083-0.694,2.526-1.62,3.972-2.545C152.355,66.273,155.243,64.421,155.243,64.421z"/>
	</g>
	<g>
		<path d="M173.092,54.469l-2.435-4.744c0,0-0.778,0.398-1.946,0.997c-1.162,0.607-2.734,1.375-4.27,2.213
			c-3.032,1.743-6.064,3.487-6.064,3.487l2.67,4.615c0,0,2.975-1.71,5.948-3.421c1.505-0.822,3.048-1.575,4.188-2.17
			C172.328,54.86,173.092,54.469,173.092,54.469z"/>
		<path d="M191.575,45.763l-2.071-4.913c0,0-0.207,0.07-0.555,0.233c-0.348,0.158-0.846,0.383-1.443,0.653
			c-1.195,0.54-2.789,1.261-4.383,1.981c-3.187,1.444-6.373,2.889-6.373,2.889l2.317,4.802c0,0,3.125-1.416,6.25-2.832
			c1.563-0.707,3.126-1.414,4.298-1.944c0.586-0.265,1.075-0.486,1.417-0.641C191.371,45.832,191.575,45.763,191.575,45.763z"/>
		<path d="M210.712,38.611l-1.696-5.055c0,0-3.313,1.122-6.627,2.243c-1.646,0.59-3.26,1.268-4.484,1.738
			c-1.22,0.481-2.033,0.802-2.033,0.802l1.949,4.963c0,0,0.798-0.314,1.994-0.787c1.201-0.46,2.783-1.127,4.398-1.706
			C207.463,39.71,210.712,38.611,210.712,38.611z"/>
		<path d="M230.297,32.79l-1.311-5.168c0,0-0.858,0.172-2.115,0.549c-1.262,0.358-2.943,0.836-4.626,1.313
			c-3.364,0.956-6.729,1.911-6.729,1.911l1.569,5.096c0,0,3.301-0.937,6.6-1.873c1.65-0.469,3.299-0.938,4.537-1.289
			C229.455,32.958,230.297,32.79,230.297,32.79z"/>
		<path d="M250.289,28.58l-0.918-5.252c0,0-3.443,0.615-6.887,1.23c-1.725,0.296-3.414,0.759-4.697,1.032
			c-1.278,0.295-2.131,0.492-2.131,0.492l1.183,5.199c0,0,0.835-0.193,2.089-0.482c1.258-0.268,2.915-0.724,4.606-1.014
			C246.912,29.183,250.289,28.58,250.289,28.58z"/>
		<path d="M270.527,25.754l-0.523-5.306c0,0-0.873,0.049-2.173,0.233c-1.301,0.165-3.036,0.385-4.771,0.605
			c-3.47,0.441-6.939,0.882-6.939,0.882l0.789,5.274c0,0,3.402-0.432,6.807-0.864c1.701-0.217,3.402-0.433,4.679-0.595
			C269.67,25.801,270.527,25.754,270.527,25.754z"/>
		<path d="M290.923,24.577l-0.129-5.331c0,0-3.495,0.089-6.991,0.177c-1.746,0.083-3.487,0.251-4.795,0.339
			c-1.309,0.099-2.18,0.166-2.18,0.166l0.393,5.317c0,0,0.855-0.065,2.139-0.163c1.283-0.087,2.991-0.253,4.704-0.334
			C287.493,24.663,290.923,24.577,290.923,24.577z"/>
	</g>
	<g>
		<polygon points="311.362,24.753 311.625,19.427 297.641,19.074 297.641,24.406 		"/>
		<path d="M331.712,26.597l0.659-5.292c0,0-0.868-0.11-2.17-0.275c-1.303-0.15-3.032-0.42-4.773-0.571
			c-3.488-0.266-6.976-0.531-6.976-0.531l-0.394,5.318c0,0,3.422,0.26,6.843,0.52c1.709,0.147,3.405,0.414,4.684,0.561
			C330.861,26.488,331.712,26.597,331.712,26.597z"/>
		<path d="M351.889,29.811l1.053-5.227c0,0-3.443-0.615-6.888-1.23c-1.722-0.308-3.443-0.615-4.735-0.845
			c-1.287-0.25-2.158-0.339-2.158-0.339l-0.789,5.274c0,0,0.854,0.087,2.118,0.333c1.267,0.227,2.955,0.528,4.644,0.83
			C348.511,29.208,351.889,29.811,351.889,29.811z"/>
		<path d="M371.736,34.658l1.443-5.133c0,0-0.842-0.239-2.104-0.597c-1.266-0.34-2.934-0.875-4.637-1.272
			c-3.407-0.787-6.814-1.574-6.814-1.574l-1.183,5.199c0,0,3.343,0.771,6.685,1.542c1.67,0.389,3.305,0.916,4.547,1.249
			C370.911,34.423,371.736,34.658,371.736,34.658z"/>
		<path d="M391.204,40.855l1.826-5.01c0,0-3.313-1.121-6.627-2.243c-1.657-0.561-3.313-1.121-4.557-1.542
			c-1.237-0.437-2.082-0.665-2.082-0.666l-1.569,5.096c0,0,0.828,0.224,2.041,0.653c1.219,0.413,2.844,0.963,4.469,1.513
			C387.955,39.756,391.204,40.855,391.204,40.855z"/>
		<path d="M410.098,48.637l2.198-4.858c0,0-3.188-1.437-6.378-2.874c-3.254-1.284-6.508-2.567-6.508-2.567l-1.949,4.963
			c0,0,3.191,1.258,6.383,2.516C406.971,47.227,410.098,48.637,410.098,48.637z"/>
		<path d="M428.41,57.688l2.556-4.68c0,0-0.189-0.109-0.521-0.299c-0.341-0.175-0.827-0.424-1.41-0.724
			c-1.168-0.598-2.724-1.395-4.28-2.192c-3.112-1.594-6.226-3.188-6.226-3.188l-2.316,4.803c0,0,3.053,1.564,6.105,3.128
			c1.526,0.782,3.053,1.563,4.197,2.149c0.572,0.293,1.05,0.538,1.383,0.709C428.225,57.581,428.41,57.688,428.41,57.688z"/>
	</g>
	<g>
		<path d="M445.935,68.202l2.899-4.475c0,0-2.945-1.888-5.891-3.775c-1.465-0.955-3.018-1.767-4.144-2.439
			c-1.138-0.654-1.896-1.09-1.896-1.09l-2.67,4.615c0,0,0.744,0.427,1.859,1.069c1.104,0.66,2.627,1.455,4.064,2.392
			C443.047,66.351,445.935,68.202,445.935,68.202z"/>
		<path d="M462.678,79.911l3.225-4.247c0,0-0.689-0.538-1.725-1.344c-1.068-0.76-2.494-1.774-3.919-2.788
			c-2.851-2.027-5.701-4.054-5.701-4.054l-3.008,4.403c0,0,2.796,1.988,5.593,3.977c1.397,0.994,2.796,1.988,3.845,2.733
			C462.002,79.384,462.678,79.911,462.678,79.911z"/>
		<path d="M478.465,92.882l3.531-3.996c0,0-2.645-2.29-5.288-4.58c-0.662-0.571-1.324-1.143-1.944-1.678
			c-0.645-0.506-1.246-0.979-1.762-1.385c-1.031-0.811-1.719-1.351-1.719-1.351l-3.327,4.167c0,0,0.675,0.53,1.687,1.325
			c0.506,0.397,1.096,0.861,1.729,1.358c0.608,0.525,1.258,1.086,1.906,1.647C475.871,90.636,478.465,92.882,478.465,92.882z"/>
		<path d="M493.264,106.97l3.818-3.722c0,0-0.604-0.633-1.509-1.582c-0.88-0.973-2.174-2.152-3.433-3.365
			c-2.531-2.413-5.063-4.826-5.063-4.826l-3.627,3.908c0,0,2.482,2.367,4.965,4.734c1.235,1.189,2.506,2.345,3.368,3.301
			C492.672,106.35,493.264,106.97,493.264,106.97z"/>
		<path d="M506.985,122.111l4.084-3.428c0,0-2.29-2.644-4.58-5.288c-1.157-1.311-2.264-2.667-3.176-3.61
			c-0.905-0.95-1.509-1.583-1.509-1.583l-3.908,3.627c0,0,0.593,0.621,1.48,1.552c0.896,0.924,1.98,2.256,3.115,3.542
			C504.738,119.518,506.985,122.111,506.985,122.111z"/>
		<path d="M519.508,138.259l4.328-3.114c0,0-0.508-0.712-1.268-1.781c-0.764-1.067-1.75-2.511-2.859-3.865
			c-2.16-2.75-4.321-5.5-4.321-5.5l-4.167,3.327c0,0,2.121,2.698,4.24,5.395c1.088,1.328,2.056,2.746,2.805,3.792
			C519.01,137.56,519.508,138.259,519.508,138.259z"/>
		<path d="M530.859,155.243l4.549-2.783c0,0-1.888-2.944-3.775-5.889c-0.943-1.472-1.887-2.944-2.596-4.047
			c-0.345-0.558-0.664-1.001-0.888-1.312c-0.222-0.312-0.349-0.49-0.349-0.49l-4.402,3.007c0,0,0.124,0.175,0.342,0.48
			c0.219,0.305,0.533,0.739,0.871,1.287c0.694,1.083,1.619,2.527,2.545,3.971C529.008,152.355,530.859,155.243,530.859,155.243z"/>
	</g>
	<g>
		<path d="M540.812,173.091l4.743-2.435c0,0-0.398-0.778-0.996-1.946c-0.607-1.163-1.375-2.735-2.213-4.27
			c-1.744-3.033-3.487-6.065-3.487-6.065l-4.615,2.67c0,0,1.71,2.974,3.421,5.948c0.822,1.505,1.574,3.048,2.17,4.188
			C540.42,172.328,540.812,173.091,540.812,173.091z"/>
		<path d="M549.518,191.575l4.914-2.071c0,0-0.07-0.208-0.234-0.554c-0.157-0.349-0.383-0.847-0.652-1.444
			c-0.54-1.195-1.261-2.789-1.98-4.383c-1.445-3.186-2.889-6.372-2.889-6.372l-4.803,2.317c0,0,1.416,3.125,2.832,6.25
			c0.707,1.563,1.413,3.126,1.943,4.298c0.266,0.586,0.486,1.075,0.641,1.417C549.449,191.371,549.518,191.575,549.518,191.575z"/>
		<path d="M556.67,210.711l5.055-1.696c0,0-1.121-3.313-2.242-6.627c-0.59-1.646-1.269-3.26-1.738-4.484
			c-0.48-1.22-0.802-2.034-0.802-2.034l-4.963,1.949c0,0,0.314,0.798,0.786,1.995c0.461,1.201,1.127,2.783,1.706,4.397
			C555.57,207.462,556.67,210.711,556.67,210.711z"/>
		<path d="M562.49,230.296l5.169-1.31c0,0-0.172-0.858-0.55-2.115c-0.357-1.262-0.836-2.944-1.313-4.626
			c-0.956-3.364-1.912-6.729-1.912-6.729l-5.096,1.57c0,0,0.938,3.3,1.873,6.599c0.469,1.65,0.938,3.299,1.289,4.537
			C562.322,229.454,562.49,230.296,562.49,230.296z"/>
		<path d="M566.701,250.289l5.252-0.918c0,0-0.615-3.444-1.23-6.887c-0.295-1.724-0.759-3.414-1.031-4.697
			c-0.295-1.278-0.492-2.13-0.492-2.13L564,236.838c0,0,0.193,0.835,0.482,2.089c0.268,1.258,0.724,2.915,1.014,4.606
			C566.098,246.911,566.701,250.289,566.701,250.289z"/>
		<path d="M569.527,270.526l5.306-0.523c0,0-0.049-0.874-0.233-2.173c-0.164-1.301-0.385-3.036-0.605-4.771
			c-0.441-3.47-0.882-6.939-0.882-6.939l-5.273,0.788c0,0,0.432,3.403,0.864,6.807c0.217,1.702,0.433,3.403,0.595,4.679
			C569.479,269.669,569.526,270.526,569.527,270.526z"/>
		<path d="M570.704,290.922l5.331-0.129c0,0-0.09-3.496-0.178-6.991c-0.083-1.746-0.251-3.487-0.339-4.795
			c-0.1-1.308-0.166-2.18-0.166-2.18l-5.317,0.394c0,0,0.064,0.855,0.162,2.138c0.088,1.283,0.254,2.992,0.334,4.705
			C570.618,287.493,570.704,290.922,570.704,290.922z"/>
	</g>
	<g>
		<polygon points="570.527,311.361 575.854,311.625 576.207,297.641 570.875,297.641 		"/>
		<path d="M568.684,331.711l5.292,0.66c0,0,0.11-0.869,0.275-2.17c0.149-1.303,0.42-3.033,0.571-4.773
			c0.266-3.488,0.53-6.977,0.53-6.977l-5.317-0.393c0,0-0.26,3.422-0.52,6.842c-0.147,1.709-0.414,3.406-0.561,4.684
			C568.793,330.861,568.684,331.711,568.684,331.711z"/>
		<path d="M565.471,351.889l5.227,1.053c0,0,0.615-3.443,1.23-6.889c0.308-1.721,0.615-3.443,0.846-4.734
			c0.249-1.287,0.338-2.158,0.339-2.158l-5.273-0.789c-0.001,0-0.087,0.854-0.333,2.117c-0.227,1.268-0.528,2.955-0.83,4.645
			C566.073,348.51,565.471,351.889,565.471,351.889z"/>
		<path d="M560.623,371.736l5.133,1.443c0,0,0.238-0.842,0.598-2.104c0.34-1.266,0.875-2.934,1.271-4.637
			c0.787-3.408,1.574-6.814,1.574-6.814L564,358.441c0,0-0.771,3.344-1.543,6.686c-0.389,1.67-0.915,3.305-1.248,4.547
			C560.857,370.91,560.623,371.736,560.623,371.736z"/>
		<path d="M554.426,391.203l5.01,1.826c0,0,1.121-3.313,2.242-6.627c0.561-1.656,1.121-3.313,1.542-4.557
			c0.437-1.236,0.665-2.082,0.665-2.082l-5.096-1.568c0,0-0.223,0.828-0.652,2.041c-0.412,1.219-0.963,2.844-1.513,4.469
			C555.525,387.955,554.426,391.203,554.426,391.203z"/>
		<path d="M546.645,410.098l4.857,2.197c0,0,1.438-3.188,2.873-6.377c1.284-3.254,2.567-6.508,2.567-6.508l-4.963-1.949
			c0,0-1.258,3.191-2.517,6.383C548.054,406.971,546.645,410.098,546.645,410.098z"/>
		<path d="M537.593,428.41l4.68,2.555c0,0,0.108-0.189,0.3-0.52c0.174-0.342,0.424-0.828,0.724-1.41
			c0.598-1.168,1.396-2.725,2.192-4.281c1.594-3.111,3.188-6.225,3.188-6.225l-4.803-2.316c0,0-1.563,3.053-3.127,6.105
			c-0.782,1.525-1.563,3.053-2.15,4.197c-0.293,0.572-0.537,1.049-0.709,1.383C537.699,428.225,537.593,428.41,537.593,428.41z"/>
	</g>
	<g>
		<path d="M527.078,445.934l4.476,2.9c0,0,1.888-2.945,3.775-5.891c0.955-1.465,1.767-3.018,2.439-4.145
			c0.653-1.137,1.09-1.895,1.09-1.895l-4.615-2.67c0,0-0.427,0.744-1.069,1.859c-0.659,1.104-1.454,2.627-2.392,4.064
			C528.931,443.047,527.078,445.934,527.078,445.934z"/>
		<path d="M515.369,462.678l4.247,3.225c0,0,0.538-0.689,1.345-1.725c0.76-1.068,1.773-2.494,2.787-3.92
			c2.027-2.85,4.054-5.701,4.054-5.701l-4.403-3.008c0,0-1.988,2.797-3.977,5.594c-0.994,1.396-1.988,2.795-2.733,3.844
			C515.896,462.002,515.369,462.678,515.369,462.678z"/>
		<path d="M502.398,478.465l3.996,3.531c0,0,2.289-2.645,4.58-5.289c0.57-0.662,1.143-1.324,1.678-1.943
			c0.506-0.645,0.979-1.246,1.385-1.762c0.811-1.031,1.351-1.719,1.351-1.719l-4.167-3.328c0,0-0.529,0.676-1.324,1.688
			c-0.397,0.506-0.861,1.096-1.357,1.729c-0.525,0.607-1.087,1.258-1.647,1.906C504.645,475.871,502.398,478.465,502.398,478.465z"
			/>
		<path d="M488.311,493.264l3.722,3.818c0,0,0.633-0.604,1.582-1.51c0.974-0.879,2.151-2.174,3.364-3.432
			c2.414-2.531,4.826-5.063,4.826-5.063l-3.908-3.627c0,0-2.366,2.482-4.733,4.965c-1.189,1.234-2.345,2.506-3.301,3.367
			C488.932,492.672,488.311,493.264,488.311,493.264z"/>
		<path d="M473.17,506.984l3.428,4.084c0,0,2.644-2.289,5.287-4.58c1.312-1.156,2.668-2.264,3.611-3.176
			c0.949-0.904,1.582-1.508,1.582-1.508l-3.627-3.908c0,0-0.621,0.592-1.553,1.48c-0.924,0.896-2.256,1.98-3.542,3.115
			C475.764,504.738,473.17,506.984,473.17,506.984z"/>
		<path d="M457.021,519.508l3.115,4.328c0,0,0.712-0.508,1.781-1.268c1.066-0.764,2.511-1.75,3.865-2.859
			c2.75-2.16,5.5-4.322,5.5-4.322l-3.327-4.166c0,0-2.698,2.121-5.396,4.24c-1.327,1.088-2.745,2.055-3.791,2.805
			C457.721,519.01,457.021,519.508,457.021,519.508z"/>
		<path d="M440.038,530.859l2.782,4.549c0,0,2.945-1.889,5.889-3.775c1.473-0.943,2.944-1.887,4.048-2.596
			c0.558-0.346,1.001-0.664,1.312-0.889c0.313-0.221,0.49-0.348,0.49-0.348l-3.008-4.402c0,0-0.174,0.123-0.48,0.342
			c-0.305,0.219-0.738,0.533-1.286,0.871c-1.083,0.693-2.526,1.619-3.972,2.545C442.926,529.008,440.038,530.859,440.038,530.859z"
			/>
	</g>
	<g>
		<path d="M422.189,540.811l2.435,4.744c0,0,0.778-0.398,1.946-0.996c1.162-0.607,2.734-1.375,4.27-2.213
			c3.032-1.744,6.064-3.488,6.064-3.488l-2.67-4.615c0,0-2.975,1.711-5.948,3.422c-1.505,0.822-3.048,1.574-4.188,2.17
			C422.953,540.42,422.189,540.811,422.189,540.811z"/>
		<path d="M403.706,549.518l2.071,4.914c0,0,0.207-0.07,0.555-0.234c0.348-0.158,0.846-0.383,1.443-0.652
			c1.195-0.541,2.789-1.262,4.383-1.98c3.187-1.445,6.373-2.889,6.373-2.889l-2.317-4.803c0,0-3.125,1.416-6.25,2.832
			c-1.563,0.707-3.126,1.412-4.298,1.943c-0.586,0.266-1.075,0.486-1.417,0.641C403.91,549.449,403.706,549.518,403.706,549.518z"/>
		<path d="M384.569,556.67l1.696,5.055c0,0,3.313-1.121,6.627-2.242c1.646-0.59,3.26-1.27,4.484-1.738
			c1.22-0.48,2.033-0.803,2.033-0.803l-1.949-4.963c0,0-0.798,0.314-1.994,0.787c-1.201,0.461-2.783,1.127-4.398,1.705
			C387.818,555.57,384.569,556.67,384.569,556.67z"/>
		<path d="M364.984,562.49l1.311,5.168c0,0,0.858-0.172,2.115-0.549c1.262-0.357,2.943-0.836,4.626-1.313
			c3.364-0.957,6.729-1.912,6.729-1.912l-1.569-5.096c0,0-3.301,0.938-6.6,1.873c-1.65,0.469-3.299,0.938-4.537,1.289
			C365.826,562.322,364.984,562.49,364.984,562.49z"/>
		<path d="M344.992,566.701l0.918,5.252c0,0,3.443-0.615,6.887-1.23c1.725-0.295,3.414-0.76,4.697-1.031
			c1.278-0.295,2.131-0.492,2.131-0.492L358.442,564c0,0-0.835,0.193-2.089,0.482c-1.258,0.268-2.915,0.723-4.606,1.014
			C348.369,566.098,344.992,566.701,344.992,566.701z"/>
		<path d="M324.754,569.527l0.523,5.305c0,0,0.873-0.049,2.173-0.232c1.301-0.164,3.036-0.385,4.771-0.605
			c3.47-0.441,6.939-0.883,6.939-0.883l-0.789-5.273c0,0-3.402,0.432-6.807,0.865c-1.701,0.217-3.402,0.432-4.679,0.594
			C325.611,569.479,324.754,569.525,324.754,569.527z"/>
		<path d="M304.358,570.703l0.129,5.332c0,0,3.495-0.09,6.991-0.178c1.746-0.084,3.487-0.252,4.795-0.34
			c1.309-0.1,2.18-0.166,2.18-0.166l-0.393-5.316c0,0-0.855,0.064-2.139,0.162c-1.283,0.088-2.991,0.254-4.704,0.334
			C307.788,570.617,304.358,570.703,304.358,570.703z"/>
	</g>
	<g>
		<polygon points="283.919,570.527 283.656,575.854 297.641,576.207 297.641,570.875 		"/>
		<path d="M263.569,568.684l-0.659,5.291c0,0,0.868,0.111,2.17,0.275c1.303,0.15,3.032,0.42,4.773,0.572
			c3.488,0.266,6.976,0.529,6.976,0.529l0.394-5.316c0,0-3.422-0.26-6.843-0.52c-1.709-0.148-3.405-0.414-4.684-0.561
			C264.42,568.793,263.569,568.684,263.569,568.684z"/>
		<path d="M243.393,565.471l-1.053,5.227c0,0,3.443,0.615,6.888,1.23c1.722,0.307,3.443,0.615,4.735,0.846
			c1.287,0.248,2.158,0.338,2.158,0.338l0.789-5.273c0,0-0.854-0.086-2.118-0.332c-1.267-0.227-2.955-0.529-4.644-0.83
			C246.771,566.072,243.393,565.471,243.393,565.471z"/>
		<path d="M223.545,560.623l-1.443,5.133c0,0,0.842,0.238,2.104,0.598c1.266,0.34,2.934,0.875,4.637,1.271
			c3.407,0.787,6.814,1.574,6.814,1.574l1.183-5.199c0,0-3.343-0.771-6.685-1.543c-1.67-0.389-3.305-0.916-4.547-1.248
			C224.37,560.857,223.545,560.623,223.545,560.623z"/>
		<path d="M204.077,554.426l-1.826,5.01c0,0,3.313,1.121,6.627,2.242c1.657,0.561,3.313,1.121,4.557,1.541
			c1.237,0.438,2.082,0.666,2.082,0.666l1.569-5.096c0,0-0.828-0.223-2.041-0.652c-1.219-0.412-2.844-0.963-4.469-1.514
			C207.326,555.525,204.077,554.426,204.077,554.426z"/>
		<path d="M185.184,546.645l-2.198,4.857c0,0,3.188,1.438,6.378,2.873c3.254,1.283,6.508,2.566,6.508,2.566l1.949-4.963
			c0,0-3.191-1.258-6.383-2.516C188.311,548.053,185.184,546.645,185.184,546.645z"/>
		<path d="M166.871,537.592l-2.556,4.68c0,0,0.189,0.109,0.521,0.301c0.341,0.174,0.827,0.424,1.41,0.723
			c1.168,0.598,2.724,1.396,4.28,2.193c3.112,1.594,6.226,3.188,6.226,3.188l2.316-4.803c0,0-3.053-1.564-6.105-3.127
			c-1.526-0.783-3.053-1.564-4.197-2.15c-0.572-0.293-1.049-0.537-1.383-0.709C167.057,537.699,166.871,537.592,166.871,537.592z"/>
	</g>
	<g>
		<path d="M149.347,527.078l-2.899,4.475c0,0,2.945,1.889,5.891,3.775c1.465,0.955,3.018,1.768,4.144,2.439
			c1.138,0.654,1.896,1.09,1.896,1.09l2.67-4.615c0,0-0.744-0.426-1.859-1.068c-1.104-0.66-2.627-1.455-4.064-2.393
			C152.234,528.93,149.347,527.078,149.347,527.078z"/>
		<path d="M132.604,515.369l-3.225,4.246c0,0,0.689,0.539,1.725,1.346c1.068,0.76,2.494,1.773,3.919,2.787
			c2.851,2.027,5.701,4.053,5.701,4.053l3.008-4.402c0,0-2.796-1.988-5.593-3.977c-1.397-0.994-2.796-1.988-3.845-2.734
			C133.279,515.896,132.604,515.369,132.604,515.369z"/>
		<path d="M116.816,502.398l-3.531,3.996c0,0,2.645,2.289,5.288,4.58c0.662,0.57,1.324,1.143,1.944,1.678
			c0.645,0.506,1.246,0.979,1.762,1.385c1.031,0.811,1.719,1.35,1.719,1.35l3.327-4.166c0,0-0.675-0.529-1.687-1.324
			c-0.506-0.398-1.096-0.861-1.729-1.357c-0.608-0.525-1.258-1.088-1.906-1.648C119.41,504.645,116.816,502.398,116.816,502.398z"/>
		<path d="M102.018,488.311l-3.818,3.721c0,0,0.604,0.633,1.509,1.582c0.88,0.975,2.174,2.152,3.433,3.365
			c2.531,2.414,5.063,4.826,5.063,4.826l3.627-3.908c0,0-2.482-2.367-4.965-4.734c-1.236-1.189-2.506-2.344-3.368-3.301
			C102.609,488.932,102.018,488.311,102.018,488.311z"/>
		<path d="M88.296,473.17l-4.084,3.428c0,0,2.29,2.643,4.58,5.287c1.157,1.311,2.264,2.668,3.176,3.611
			c0.905,0.949,1.509,1.582,1.509,1.582l3.908-3.627c0,0-0.593-0.621-1.48-1.553c-0.896-0.924-1.98-2.256-3.115-3.543
			C90.543,475.764,88.296,473.17,88.296,473.17z"/>
		<path d="M75.773,457.021l-4.328,3.115c0,0,0.508,0.711,1.268,1.781c0.764,1.066,1.75,2.51,2.859,3.865
			c2.16,2.75,4.321,5.5,4.321,5.5l4.167-3.328c0,0-2.121-2.697-4.24-5.395c-1.088-1.328-2.056-2.746-2.805-3.791
			C76.271,457.721,75.773,457.021,75.773,457.021z"/>
		<path d="M64.422,440.037l-4.549,2.783c0,0,1.888,2.945,3.775,5.889c0.943,1.473,1.887,2.943,2.596,4.047
			c0.345,0.559,0.664,1.002,0.888,1.313c0.222,0.313,0.349,0.49,0.349,0.49l4.402-3.008c0,0-0.124-0.174-0.342-0.48
			c-0.219-0.305-0.533-0.738-0.871-1.287c-0.694-1.082-1.619-2.525-2.545-3.971C66.273,442.926,64.422,440.037,64.422,440.037z"/>
	</g>
	<g>
		<path d="M54.47,422.189l-4.743,2.434c0,0,0.398,0.779,0.996,1.947c0.607,1.162,1.375,2.734,2.213,4.27
			c1.744,3.031,3.487,6.064,3.487,6.064l4.615-2.67c0,0-1.71-2.975-3.421-5.949c-0.822-1.504-1.574-3.047-2.17-4.188
			C54.861,422.953,54.47,422.189,54.47,422.189z"/>
		<path d="M45.764,403.705l-4.914,2.072c0,0,0.07,0.207,0.234,0.555c0.157,0.348,0.383,0.846,0.652,1.443
			c0.54,1.195,1.261,2.789,1.98,4.383c1.445,3.186,2.889,6.373,2.889,6.373l4.803-2.318c0,0-1.416-3.125-2.832-6.25
			c-0.707-1.563-1.413-3.125-1.943-4.297c-0.266-0.586-0.486-1.076-0.641-1.418C45.832,403.91,45.764,403.705,45.764,403.705z"/>
		<path d="M38.611,384.568l-5.055,1.697c0,0,1.121,3.313,2.242,6.627c0.59,1.645,1.269,3.26,1.738,4.484
			c0.48,1.219,0.802,2.033,0.802,2.033l4.963-1.949c0,0-0.314-0.799-0.786-1.994c-0.461-1.201-1.127-2.783-1.706-4.398
			C39.711,387.818,38.611,384.568,38.611,384.568z"/>
		<path d="M32.791,364.984l-5.169,1.311c0,0,0.172,0.857,0.55,2.115c0.357,1.262,0.836,2.943,1.313,4.625
			c0.956,3.365,1.912,6.729,1.912,6.729l5.096-1.568c0,0-0.938-3.301-1.873-6.6c-0.469-1.65-0.938-3.299-1.289-4.537
			C32.959,365.826,32.791,364.984,32.791,364.984z"/>
		<path d="M28.58,344.992l-5.252,0.918c0,0,0.615,3.443,1.23,6.887c0.295,1.725,0.759,3.414,1.031,4.697
			c0.295,1.277,0.492,2.131,0.492,2.131l5.199-1.184c0,0-0.193-0.834-0.482-2.088c-0.268-1.258-0.724-2.916-1.014-4.607
			C29.184,348.369,28.58,344.992,28.58,344.992z"/>
		<path d="M25.754,324.754l-5.306,0.523c0,0,0.049,0.873,0.233,2.172c0.164,1.301,0.385,3.037,0.605,4.771
			c0.441,3.469,0.882,6.939,0.882,6.939l5.274-0.789c0,0-0.433-3.402-0.865-6.807c-0.217-1.701-0.433-3.402-0.595-4.68
			C25.802,325.611,25.755,324.754,25.754,324.754z"/>
		<path d="M24.577,304.357l-5.331,0.129c0,0,0.09,3.496,0.178,6.992c0.082,1.746,0.251,3.486,0.34,4.795
			c0.099,1.309,0.165,2.18,0.165,2.18l5.317-0.393c0,0-0.064-0.855-0.162-2.139c-0.088-1.283-0.254-2.992-0.334-4.705
			C24.663,307.787,24.577,304.357,24.577,304.357z"/>
	</g>
</g>
</svg>
