<!-- icon666.com - MILLIONS vector ICONS FREE --><svg xmlns="http://www.w3.org/2000/svg" viewBox="0 0 128 128"><g><path d="M96.246,0H31.754A6.758,6.758,0,0,0,25,6.747v114.5a6.758,6.758,0,0,0,6.75,6.75H96.246a6.758,6.758,0,0,0,6.75-6.75V6.747A6.758,6.758,0,0,0,96.246,0ZM81.687,3.5v3.25A3.254,3.254,0,0,1,78.437,10H49.562a3.254,3.254,0,0,1-3.25-3.25V3.5ZM99.5,121.247a3.254,3.254,0,0,1-3.25,3.25H31.754a3.254,3.254,0,0,1-3.25-3.25V6.747a3.254,3.254,0,0,1,3.25-3.25H42.812v3.25a6.758,6.758,0,0,0,6.75,6.75H78.437a6.758,6.758,0,0,0,6.75-6.75V3.5H96.246a3.254,3.254,0,0,1,3.25,3.25Z"></path><path d="M91.246,85.977H36.754A1.749,1.749,0,0,0,35,87.727V98.239a1.749,1.749,0,0,0,1.75,1.75H91.246A1.749,1.749,0,0,0,93,98.239V87.727A1.749,1.749,0,0,0,91.246,85.977ZM89.5,96.489H38.5V89.477H89.5Z"></path><path d="M91.246,20.005H36.754A1.75,1.75,0,0,0,35,21.755V54.394a1.75,1.75,0,0,0,1.75,1.75H91.246A1.75,1.75,0,0,0,93,54.394V21.755A1.75,1.75,0,0,0,91.246,20.005ZM89.5,52.644H38.5V23.505H89.5Z"></path><path d="M87.346,63.223a5.616,5.616,0,0,0-2.76.717,5.651,5.651,0,0,0-6.752,8.929l5.517,5.516a1.748,1.748,0,0,0,2.474,0l5.516-5.516a5.651,5.651,0,0,0-3.995-9.646Zm1.52,7.171-4.278,4.278-4.279-4.278a2.151,2.151,0,0,1,3.042-3.042,1.8,1.8,0,0,0,2.475,0,2.2,2.2,0,0,1,3.04,0,2.15,2.15,0,0,1,0,3.041Z"></path><path d="M36.754,66.151H67.921a1.75,1.75,0,1,0,0-3.5H36.754a1.75,1.75,0,0,0,0,3.5Z"></path><path d="M36.754,72.81H67.921a1.75,1.75,0,0,0,0-3.5H36.754a1.75,1.75,0,1,0,0,3.5Z"></path><path d="M36.754,79.469H58.281a1.75,1.75,0,1,0,0-3.5H36.754a1.75,1.75,0,1,0,0,3.5Z"></path><path d="M69.051,106.5h-10.1a5.75,5.75,0,0,0,0,11.5h10.1a5.75,5.75,0,0,0,0-11.5Zm0,8h-10.1a2.25,2.25,0,0,1,0-4.5h10.1a2.25,2.25,0,0,1,0,4.5Z"></path></g></svg>