<!-- icon666.com - MILLIONS vector ICONS FREE --><svg viewBox="0 0 68 68" xmlns="http://www.w3.org/2000/svg"><path d="m225 542.435201v-4.435201c0-1.104569.895431-2 2-2s2 .895431 2 2v.879646l2.671272-2.374465c.757772-.673575 1.899684-.673575 2.657456 0l9 8c.825565.733836.899927 1.997981.166091 2.823547-.394995.444369-.943633.671096-1.494819.671293v8.999979c0 1.104569-.895431 2-2 2h-14c-1.104569 0-2-.895431-2-2v-8.999979c-.551186-.000197-1.099824-.226924-1.494819-.671293-.733836-.825566-.659474-2.089711.166091-2.823547zm13 2.685153-5-4.444444-5 4.444444v9.879646h10zm-53 23.451075v-6.571429c0-1.104569.895431-2 2-2s2 .895431 2 2v2.761905l8.62069-8.210181c.772413-.735632 1.986207-.735632 2.75862 0l21 20c.799861.761772.830738 2.027726.068966 2.827586-.761772.799861-2.027726.830738-2.827586.068966l-.62069-.591133v23.142857c0 1.104569-.895431 2-2 2h-34c-1.104569 0-2-.895431-2-2v-23.142857l-.62069.591133c-.79986.761772-2.065814.730895-2.827586-.068966-.761772-.79986-.730895-2.065814.068966-2.827586zm-1 6.47619v24.952381h30v-24.952381l-15-14.285714z" transform="translate(-176 -536)"></path></svg>