<?xml version="1.0" encoding="utf-8"?>
<!-- Generator: Adobe Illustrator 16.0.3, SVG Export Plug-In . SVG Version: 6.00 Build 0)  -->
<!DOCTYPE svg PUBLIC "-//W3C//DTD SVG 1.1//EN" "http://www.w3.org/Graphics/SVG/1.1/DTD/svg11.dtd">
<svg version="1.1" id="Capa_1" xmlns="http://www.w3.org/2000/svg" xmlns:xlink="http://www.w3.org/1999/xlink" x="0px" y="0px"
	 width="595.28px" height="595.28px" viewBox="0 0 595.28 595.28" enable-background="new 0 0 595.28 595.28" xml:space="preserve">
<g>
	<path fill="#2F977E" d="M129.399,454.105c-6.75,13.076-19.121,20.233-40.329,20.233c-22.428,0-41.691-10.597-41.691-39.911
		c0-29.588,16.745-46.785,40.315-46.785c23.945,0,36.056,9.628,40.879,25.179l-22.569,11.558
		c-1.514-9.626-7.792-15.266-14.729-15.266c-8.136,0-17.341,7.01-17.341,20.914c0,14.721,7.501,21.465,16.929,21.465
		c7.65,0,13.766-4.677,16.234-11.421L129.399,454.105z"/>
	<path fill="#2F977E" d="M131.369,402.374l24.886-6.39c0,0,4.577,29.084,8.12,50.267c1.085,6.527,5.475,9.556,13.375,8.231
		c8.297-1.389,12.258-5.105,11.167-11.628c-3.541-21.188-8.685-50.315-8.685-50.315l26.723-7.116c0,0,3.823,37.093,7.372,58.343
		c2.908,17.418-11.59,28.034-31.189,31.303c-22.529,3.766-38.888-3.098-41.715-20.027
		C137.761,433.123,131.369,402.374,131.369,402.374"/>
	<path fill="none" stroke="#2F977E" stroke-width="2.7781" stroke-miterlimit="10" d="M131.369,402.374l24.886-6.39
		c0,0,4.577,29.084,8.12,50.267c1.085,6.527,5.475,9.556,13.375,8.231c8.297-1.389,12.258-5.105,11.167-11.628
		c-3.541-21.188-8.685-50.315-8.685-50.315l26.723-7.116c0,0,3.823,37.093,7.372,58.343c2.908,17.418-11.59,28.034-31.189,31.303
		c-22.529,3.766-38.888-3.098-41.715-20.027C137.761,433.123,131.369,402.374,131.369,402.374z"/>
	<polygon fill="#2F977E" points="287.236,385.572 284.344,406.631 248.717,406.766 248.582,417.228 280.356,418.465 280.22,437.455 
		248.717,436.216 248.443,447.508 288.061,450.125 285.033,473.924 226.817,470.207 222.002,388.47 	"/>
	<polygon fill="none" stroke="#2F977E" stroke-width="2.7781" stroke-miterlimit="10" points="287.236,385.572 284.344,406.631 
		248.717,406.766 248.582,417.228 280.356,418.465 280.22,437.455 248.717,436.216 248.443,447.508 288.061,450.125 
		285.033,473.924 226.817,470.207 222.002,388.47 	"/>
	<polygon fill="#2F977E" points="320.536,473.097 294.665,474.885 301.542,385.713 324.369,389.563 351.499,433.758 
		351.911,387.916 376.682,385.984 371.874,472.822 348.376,476.68 320.671,425.972 	"/>
	<polygon fill="none" stroke="#2F977E" stroke-width="2.7781" stroke-miterlimit="10" points="320.536,473.097 294.665,474.885 
		301.542,385.713 324.369,389.563 351.499,433.758 351.911,387.916 376.682,385.984 371.874,472.822 348.376,476.68 
		320.671,425.972 	"/>
	<polygon fill="#2F977E" points="381.633,389.153 455.54,382.965 455.122,406.224 433.934,407.455 436.544,470.896 410.122,468.558 
		407.642,408.009 385.081,410.76 	"/>
	<polygon fill="none" stroke="#2F977E" stroke-width="2.7781" stroke-miterlimit="10" points="381.633,389.153 455.54,382.965 
		455.122,406.224 433.934,407.455 436.544,470.896 410.122,468.558 407.642,408.009 385.081,410.76 	"/>
	<path fill="#2F977E" d="M453.739,436.311c0-27.119,16.256-43.631,43.25-43.631c27.076,0,37.418,15.688,37.418,47.343
		c0,27.496-15.076,39.225-41.688,39.225C467.374,479.247,453.739,465.894,453.739,436.311 M479.919,436.441
		c0,14.188,6.599,21.058,16.376,21.058c8.402,0,12.523-5.447,12.523-21.332c0-11.831-1.376-21.46-11.007-21.46
		C486.52,414.707,479.919,422.404,479.919,436.441"/>
	<path fill="none" stroke="#2F977E" stroke-width="2.7781" stroke-miterlimit="10" d="M453.739,436.311
		c0-27.119,16.256-43.631,43.25-43.631c27.076,0,37.418,15.688,37.418,47.343c0,27.496-15.076,39.225-41.688,39.225
		C467.374,479.247,453.739,465.894,453.739,436.311z M479.919,436.441c0,14.188,6.599,21.058,16.376,21.058
		c8.402,0,12.523-5.447,12.523-21.332c0-11.831-1.376-21.46-11.007-21.46C486.52,414.707,479.919,422.404,479.919,436.441z"/>
	<g>
		<path fill="#F7310F" d="M399.767,366.603c4.731,0.567,9.527,1.921,14.188,1.563c39.577-3.012,74.813-16.176,102.997-45.231
			c20.847-21.504,33.776-47.093,39.482-76.439c3.209-16.546,3.691-33.077,0.222-49.64c-0.396-1.894-0.746-3.828-1.462-5.61
			c-2.737-6.81-7.293-9.943-13.147-9.246c-5.475,0.657-9.686,5.421-11.313,11.729c-2.887,11.207-5.151,22.743-9.611,33.329
			c-3.188,7.569-8.579,14.859-14.681,20.424c-16.758,15.299-43.601,11.671-62.665-4.68c-5.589-4.8-11.039-9.768-16.875-14.246
			c-7.607-5.825-15.432-6.004-21.405-1.069c-6.007,4.965-7.688,15.847-2.61,23.408c5.172,7.693,11.319,14.742,17.07,22.04
			c9.249,11.729,17.447,24.043,17.369,39.688c-0.098,20.692-8.861,36.563-27.499,46.414c-3.378,1.788-6.788,3.503-10.177,5.244
			C399.685,365.057,399.729,365.827,399.767,366.603"/>
		<path fill="#F7310F" d="M403.228,350.002c24.455-10.38,30.939-34.971,17.212-59.385c-4.336-7.702-10.508-14.357-15.665-21.615
			c-5.166-7.257-10.697-14.327-15.038-22.059c-15.961-28.427-10.09-60.169,18.614-79.537c4.495-3.036,9.137-5.874,13.537-9.032
			c7.58-5.431,9.938-11.855,7.238-18.923c-3.212-8.424-10-12.67-19.332-11.088c-12.177,2.062-22.448,8.253-31.65,16.277
			c-12.686,11.072-23.028,23.976-31.229,38.726c-6.172,11.11-12.599,14.475-22.417,12.13c-3.283-0.789-6.774-2.312-9.266-4.517
			c-7.8-6.896-15.505-13.959-22.591-21.568c-6.674-7.16-12.653-10.024-17.838-6.956c-5.461,3.223-6.352,9.585-3.117,18.844
			c8.421,24.086,25.556,41.449,44.913,56.6c17.377,13.592,36.156,25.38,53.71,38.763c10.079,7.688,19.919,16.129,28.123,25.725
			C410.45,316.437,414.318,332.503,403.228,350.002"/>
		<path fill="#F88011" d="M328.094,307.898c-7.466-1.709-11.747-7.612-15.551-13.239c-5.388-7.976-9.354-16.907-14.384-25.152
			c-2.528-4.147-5.382-8.76-9.294-11.251c-6.577-4.167-13.771-0.276-14.357,7.456c-0.331,4.46,0.252,9.522,2.111,13.532
			c18.204,39.241,47.288,66.702,88.769,80.207c4.271,1.387,9.181,1.869,13.642,1.387c5.819-0.633,9.674-4.615,11.302-10.389
			c1.52-5.371,0.488-10.429-4.074-13.564c-4.672-3.201-9.827-6.137-15.204-7.781c-13.399-4.102-26.669-8.323-38.224-16.549
			c-1.831-1.3-3.264-3.175-4.883-4.78L328.094,307.898z"/>
		<path fill="#F7310F" d="M512.247,210.665c-0.081-18.283-15.188-34.021-33.071-33.256c-19.484,0.846-33.264,12.892-33.274,34.094
			c-0.009,19.295,15.586,33.085,33.654,32.771C500.701,243.915,513.571,226.237,512.247,210.665"/>
		<path fill="#F7310F" d="M327.142,177.49c16.362-0.098,29.26-13.37,28.929-29.778c-0.301-15.317-14.216-28.776-29.507-28.546
			c-15.523,0.23-28.616,13.695-28.996,29.132C297.188,163.941,312.825,179.498,327.142,177.49"/>
		<path fill="#F88011" d="M327.945,307.774c8.065,2.219,15.749,6.126,24.599,1.804c9.767-4.785,14.368-12.768,12.778-24.713
			c-1.222-9.224-8.97-17.342-18.022-18.869c-10.074-1.709-21.94,3.677-25.137,12.7c-3.738,10.556-1.524,20.578,5.931,29.202
			L327.945,307.774z"/>
	</g>
	<polygon fill="#490D7A" points="32.566,231.306 77.017,223.068 97.136,269.064 119.014,222.412 163.751,227.209 117.809,301.572 
		117.215,351.502 79.756,347.796 79.301,301.643 	"/>
	<path fill="#490D7A" d="M148.968,295.5c9.824-34.138,36.271-49.019,70.243-39.24c34.091,9.815,41.433,33.311,29.959,73.158
		c-9.965,34.607-33.196,43.896-66.699,34.252C150.574,354.486,138.244,332.739,148.968,295.5 M181.874,305.164
		c-5.144,17.849,0.676,28.894,12.981,32.432c10.578,3.049,17.735-2.314,23.492-22.31c4.289-14.896,6.056-27.521-6.072-31.012
		C198.065,280.183,186.958,287.486,181.874,305.164"/>
</g>
</svg>
