<?xml version="1.0" encoding="utf-8"?>
<!-- Generator: Adobe Illustrator 16.0.3, SVG Export Plug-In . SVG Version: 6.00 Build 0)  -->
<!DOCTYPE svg PUBLIC "-//W3C//DTD SVG 1.1//EN" "http://www.w3.org/Graphics/SVG/1.1/DTD/svg11.dtd">
<svg version="1.1" id="Capa_1" xmlns="http://www.w3.org/2000/svg" xmlns:xlink="http://www.w3.org/1999/xlink" x="0px" y="0px"
	 width="595.28px" height="595.28px" viewBox="0 0 595.28 595.28" enable-background="new 0 0 595.28 595.28" xml:space="preserve">
<path fill="#2F977E" d="M127.151,454.688c-7.119,13.806-20.176,21.36-42.564,21.36c-23.681,0-44.021-11.191-44.021-42.136
	c0-31.235,17.678-49.39,42.564-49.39c25.28,0,38.062,10.161,43.156,26.58l-23.83,12.204c-1.601-10.161-8.214-16.12-15.542-16.12
	c-8.593,0-18.314,7.4-18.314,22.078c0,15.548,7.919,22.664,17.868,22.664c8.089,0,14.537-4.936,17.144-12.064L127.151,454.688z"/>
<path fill="none" stroke="#2F977E" stroke-width="3.5682" stroke-miterlimit="10" d="M127.151,454.688
	c-7.119,13.806-20.176,21.36-42.564,21.36c-23.681,0-44.021-11.191-44.021-42.136c0-31.235,17.678-49.39,42.564-49.39
	c25.28,0,38.062,10.161,43.156,26.58l-23.83,12.204c-1.601-10.161-8.214-16.12-15.542-16.12c-8.593,0-18.314,7.4-18.314,22.078
	c0,15.548,7.919,22.664,17.868,22.664c8.089,0,14.537-4.936,17.144-12.064L127.151,454.688z"/>
<path fill="#2F977E" d="M129.242,400.077l26.261-6.746c0,0,4.836,30.707,8.575,53.064c1.146,6.893,5.788,10.084,14.126,8.684
	c8.758-1.465,12.932-5.381,11.784-12.272c-3.741-22.373-9.175-53.113-9.175-53.113l28.222-7.521c0,0,4.029,39.161,7.784,61.602
	c3.066,18.384-12.241,29.592-32.921,33.041c-23.798,3.979-41.063-3.269-44.052-21.139
	C135.984,432.54,129.242,400.077,129.242,400.077"/>
<path fill="none" stroke="#2F977E" stroke-width="3.5682" stroke-miterlimit="10" d="M129.242,400.077l26.261-6.746
	c0,0,4.836,30.707,8.575,53.064c1.146,6.893,5.788,10.084,14.126,8.684c8.758-1.465,12.932-5.381,11.784-12.272
	c-3.741-22.373-9.175-53.113-9.175-53.113l28.222-7.521c0,0,4.029,39.161,7.784,61.602c3.066,18.384-12.241,29.592-32.921,33.041
	c-23.798,3.979-41.063-3.269-44.052-21.139C135.984,432.54,129.242,400.077,129.242,400.077z"/>
<polygon fill="#2F977E" points="293.778,382.341 290.725,404.572 253.12,404.712 252.967,415.759 286.52,417.062 286.376,437.112 
	253.12,435.803 252.831,447.719 294.655,450.479 291.453,475.609 230.003,471.687 224.915,385.394 "/>
<polygon fill="none" stroke="#2F977E" stroke-width="3.5682" stroke-miterlimit="10" points="293.778,382.341 290.725,404.572 
	253.12,404.712 252.967,415.759 286.52,417.062 286.376,437.112 253.12,435.803 252.831,447.719 294.655,450.479 291.453,475.609 
	230.003,471.687 224.915,385.394 "/>
<polygon fill="#2F977E" points="328.941,474.738 301.622,476.62 308.888,382.48 332.979,386.551 361.619,433.209 362.058,384.815 
	388.202,382.767 383.122,474.439 358.326,478.517 329.076,424.985 "/>
<polygon fill="none" stroke="#2F977E" stroke-width="3.5682" stroke-miterlimit="10" points="328.941,474.738 301.622,476.62 
	308.888,382.48 332.979,386.551 361.619,433.209 362.058,384.815 388.202,382.767 383.122,474.439 358.326,478.517 329.076,424.985 
	"/>
<polygon fill="#2F977E" points="393.437,386.118 471.446,379.588 471.008,404.133 448.649,405.437 451.402,472.411 423.505,469.943 
	420.889,406.021 397.068,408.929 "/>
<polygon fill="none" stroke="#2F977E" stroke-width="3.5682" stroke-miterlimit="10" points="393.437,386.118 471.446,379.588 
	471.008,404.133 448.649,405.437 451.402,472.411 423.505,469.943 420.889,406.021 397.068,408.929 "/>
<path fill="#2F977E" d="M469.556,435.906c0-28.629,17.164-46.067,45.65-46.067c28.594,0,39.508,16.567,39.508,49.977
	c0,29.035-15.911,41.404-44.009,41.404C483.949,481.22,469.556,467.135,469.556,435.906 M497.187,436.039
	c0,14.984,6.97,22.231,17.295,22.231c8.867,0,13.214-5.75,13.214-22.518c0-12.489-1.446-22.663-11.615-22.663
	C504.159,413.09,497.187,421.223,497.187,436.039"/>
<path fill="none" stroke="#2F977E" stroke-width="3.5682" stroke-miterlimit="10" d="M469.556,435.906
	c0-28.629,17.164-46.067,45.65-46.067c28.594,0,39.508,16.567,39.508,49.977c0,29.035-15.911,41.404-44.009,41.404
	C483.949,481.22,469.556,467.135,469.556,435.906z M497.187,436.039c0,14.984,6.97,22.231,17.295,22.231
	c8.867,0,13.214-5.75,13.214-22.518c0-12.489-1.446-22.663-11.615-22.663C504.159,413.09,497.187,421.223,497.187,436.039z"/>
<polygon fill="#490D7A" points="71.795,180.548 141.573,156.372 185.323,225.733 209.23,145.03 282.676,141.83 226.665,273.176 
	237.927,353.963 176.515,357.147 164.492,282.717 "/>
<path fill="#490D7A" d="M275.507,255.739c7.521-57.539,46.586-88.039,103.843-80.567c57.463,7.506,75.071,43.668,66.298,110.833
	c-7.629,58.333-42.872,79.024-99.333,71.645C292.544,350.624,267.309,318.524,275.507,255.739 M331.017,263.292
	c-3.93,30.094,8.154,46.508,28.917,49.218c17.823,2.313,28.057-8.084,32.476-41.794c3.282-25.111,3.049-45.928-17.406-48.596
	C351.058,218.994,334.91,233.507,331.017,263.292"/>
</svg>
