<?xml version="1.0" encoding="utf-8"?>
<!-- Generator: Adobe Illustrator 16.0.3, SVG Export Plug-In . SVG Version: 6.00 Build 0)  -->
<!DOCTYPE svg PUBLIC "-//W3C//DTD SVG 1.1//EN" "http://www.w3.org/Graphics/SVG/1.1/DTD/svg11.dtd">
<svg version="1.1" id="Capa_1" xmlns="http://www.w3.org/2000/svg" xmlns:xlink="http://www.w3.org/1999/xlink" x="0px" y="0px"
	 width="328.689px" height="332.596px" viewBox="0 0 328.689 332.596" enable-background="new 0 0 328.689 332.596"
	 xml:space="preserve">
<g>
	<path fill-rule="evenodd" clip-rule="evenodd" d="M80.738,131.904c0.046-14.814,3.992-28.514,10.995-41.386
		c3.243-5.964,5.158-6.682,11.688-4.914c9.107,2.474,15.744,8.81,22.477,14.844c8.33,7.47,14.779,16.413,19.432,26.632
		c3.554,7.813,2.467,11.757-4.682,16.645c-1.103,0.75-2.196,1.513-3.297,2.269c-7.828,5.378-8.261,6.965-4.405,15.419
		c6.682,14.661,18.04,24.895,31.445,33.141c3.731,2.296,7.657,4.323,11.619,6.197c6.479,3.06,11.834,2.053,16.624-3.294
		c2.658-2.961,4.802-6.38,7.208-9.573c5.117-6.781,11.206-7.656,17.343-1.833c11.072,10.495,20.897,22.095,28.563,35.348
		c4.155,7.184,2.354,13.47-4.746,17.729c-12.877,7.719-26.949,9.689-41.64,8.296c-20.596-1.949-39.971-7.591-57.679-18.624
		c-14.364-8.95-26.294-20.443-36.329-33.92c-10.591-14.212-19.365-29.408-22.714-47.116
		C81.655,142.543,81.353,137.196,80.738,131.904z M93.21,129.868c0.303,0.053,0.605,0.107,0.902,0.161
		c0,0.933-0.056,1.871,0.014,2.801c2.313,31.571,17.546,56.266,41.184,76.209c16.396,13.833,35.711,21.353,56.792,24.812
		c13.044,2.144,25.748,2.098,38.02-3.458c4.332-1.96,5.017-3.405,2.29-7.278c-5.057-7.171-10.314-14.221-15.886-20.99
		c-6.079-7.375-5.554-8.59-12.209,0.465c-9.505,12.935-20.552,15.796-34.431,8.107c-8.818-4.888-17.5-10.227-25.515-16.323
		c-11.164-8.491-20.111-19.038-24.887-32.587c-3.098-8.79-1.262-15.859,5.801-21.913c1.612-1.382,3.373-2.607,5.122-3.824
		c3.913-2.711,4.286-4.005,2.096-8.277c-6.501-12.656-16.574-21.68-28.91-28.416c-2.816-1.539-4.549-0.925-5.151,2.287
		C96.682,111.048,94.949,120.458,93.21,129.868z"/>
	<path fill-rule="evenodd" clip-rule="evenodd" d="M166.745,108.036c-1.737,0-3.467-0.049-5.197,0.009
		c-2.751,0.093-5.701-0.476-5.709-3.511c0-1.733,2.098-4.29,3.865-5.063c7.914-3.464,16.225-4.306,24.587-1.667
		c16.893,5.338,28.784,16.702,37.449,31.743c5.402,9.376,8.153,19.651,9.271,30.331c0.303,2.851,0.194,6.017-0.8,8.633
		c-0.682,1.815-3.224,4.102-4.881,4.061c-1.761-0.044-4.042-2.287-5.019-4.136c-1.047-2-1.105-4.647-1.164-7.023
		c-0.443-18.475-9.435-32.42-23.386-43.506C185.013,109.362,177.854,107.18,166.745,108.036z"/>
	<path fill-rule="evenodd" clip-rule="evenodd" d="M195.205,158.761c2.658-13.452-11.47-27.816-27.053-27.309
		c-1.593,0.048-3.329,0.567-4.759,0.108c-1.697-0.548-3.96-1.629-4.445-3.021c-0.502-1.427,0.316-4.026,1.477-5.194
		c2.785-2.792,6.498-3.349,10.408-2.69c17.301,2.914,30.678,16.537,32.977,33.974c0.507,3.896,0.528,7.947,0.049,11.837
		c-0.182,1.457-2.431,2.66-3.74,3.981c-1.372-1.393-3.414-2.559-3.98-4.228C195.267,163.643,195.407,160.723,195.205,158.761z"/>
	<path fill-rule="evenodd" clip-rule="evenodd" fill="#FFFFFF" d="M93.21,129.868c1.739-9.409,3.472-18.819,5.231-28.225
		c0.603-3.212,2.335-3.825,5.151-2.287c12.336,6.736,22.409,15.76,28.91,28.416c2.19,4.272,1.817,5.566-2.096,8.277
		c-1.749,1.217-3.51,2.442-5.122,3.824c-7.063,6.054-8.898,13.123-5.801,21.913c4.775,13.549,13.723,24.096,24.887,32.587
		c8.015,6.096,16.696,11.436,25.515,16.323c13.879,7.689,24.926,4.828,34.431-8.107c6.655-9.055,6.13-7.841,12.209-0.465
		c5.571,6.769,10.829,13.818,15.886,20.99c2.727,3.874,2.042,5.318-2.29,7.278c-12.271,5.555-24.976,5.602-38.02,3.458
		c-21.081-3.459-40.396-10.979-56.792-24.812c-23.638-19.944-38.87-44.639-41.184-76.209c-0.069-0.931-0.014-1.868-0.014-2.801
		C93.815,129.975,93.513,129.92,93.21,129.868z"/>
</g>
</svg>
