<svg width="30" height="30" viewBox="0 0 30 30" fill="none" xmlns="http://www.w3.org/2000/svg">
<path d="M13.1248 21.8749C13.4691 21.8749 13.7498 21.5942 13.7498 21.25C13.7498 20.9058 13.4691 20.6249 13.1248 20.6249C12.7807 20.6249 12.5 20.9057 12.5 21.25C12.5 21.5942 12.7807 21.8749 13.1248 21.8749Z" fill="#5A4BB2"/>
<path d="M29.3749 9.06263C29.72 9.06263 30 8.78279 30 8.43749V2.18767C30 1.84243 29.72 1.56253 29.3749 1.56253H19.6295C19.6212 1.55315 19.613 1.54366 19.604 1.53464L18.2525 0.183107C18.0083 -0.0609964 17.6126 -0.0609964 17.3684 0.183107C17.141 0.410393 16.6934 0.551605 16.2 0.551605C15.8545 0.551605 15.5143 0.479241 15.3124 0.362697C15.1191 0.251134 14.8808 0.251134 14.6875 0.362697C14.4856 0.479241 14.1455 0.551605 13.8 0.551605C13.3067 0.551605 12.8592 0.410393 12.6318 0.183048C12.3877 -0.0609965 11.9919 -0.061055 11.7476 0.183107L10.3961 1.5347C10.3872 1.54372 10.3789 1.55315 10.3706 1.56259H0.625371C0.280254 1.56259 0.000234375 1.84243 0.000234375 2.18773V8.43761C0.000234375 8.78285 0.280195 9.06275 0.625371 9.06275H2.50008V26.2499H0.625137C0.28002 26.2497 0 26.5297 0 26.8749V29.3749C0 29.72 0.28002 30 0.625137 30H29.3747C29.7198 30 29.9998 29.7201 29.9998 29.3749V26.8749C29.9998 26.5297 29.7198 26.2497 29.3747 26.2497H27.5001V9.06263H29.3749ZM11.5352 5.98638C11.5545 5.888 11.5816 5.78599 11.6162 5.67964C11.6463 5.58689 11.6788 5.49331 11.7116 5.39845C11.7343 5.33277 11.7577 5.26497 11.781 5.19554C11.7853 5.18306 11.7895 5.17058 11.7937 5.15792C11.7973 5.14714 11.8008 5.13624 11.8045 5.12534C11.8104 5.10759 11.8163 5.08978 11.8221 5.07179C11.8248 5.06335 11.8275 5.05485 11.8302 5.04642C11.8368 5.02567 11.8434 5.00487 11.8499 4.98378C11.852 4.97704 11.854 4.97013 11.8562 4.96339C11.8633 4.94024 11.8704 4.91704 11.8774 4.8936C11.8788 4.88833 11.8804 4.88306 11.8819 4.87772C11.8893 4.85235 11.8968 4.82675 11.9038 4.80091C11.905 4.79733 11.9058 4.79376 11.9069 4.79024C11.9145 4.76253 11.9219 4.73464 11.9292 4.7064C11.9299 4.70411 11.9304 4.70182 11.931 4.69954C11.9386 4.66989 11.946 4.64001 11.9532 4.60983C11.9535 4.60872 11.9538 4.60766 11.9541 4.60661C12.0604 4.15719 12.1113 3.64678 11.9895 3.06933C11.9891 3.06775 11.9887 3.06617 11.9883 3.06459C11.9803 3.02644 11.9715 2.98806 11.9619 2.94939C11.9587 2.93697 11.9552 2.92431 11.9518 2.91183C11.9445 2.88383 11.9372 2.85588 11.9292 2.82763C11.9239 2.80947 11.918 2.79107 11.9124 2.77273C11.9055 2.74976 11.8986 2.72691 11.891 2.70371C11.8838 2.68197 11.8761 2.65994 11.8685 2.63802C11.8615 2.6181 11.8546 2.59812 11.8473 2.57802C11.8383 2.55382 11.8288 2.52945 11.8194 2.50507C11.8123 2.48668 11.8052 2.46839 11.7976 2.44988C11.7872 2.42439 11.7762 2.39867 11.7651 2.37294C11.7573 2.35507 11.7496 2.3372 11.7415 2.31915C11.7298 2.29308 11.7176 2.26695 11.7052 2.24064C11.6965 2.22224 11.6877 2.2039 11.6786 2.18538C11.666 2.1596 11.6528 2.13376 11.6395 2.10781C11.6338 2.09714 11.629 2.08654 11.6232 2.07581L12.2573 1.44194C12.6871 1.67444 13.2224 1.80194 13.8002 1.80194C14.2375 1.80194 14.6519 1.72929 15.0002 1.59417C15.3486 1.72935 15.7629 1.80194 16.2003 1.80194C16.7781 1.80194 17.3136 1.6745 17.7433 1.44194L18.377 2.07564C18.3715 2.08601 18.3667 2.0962 18.3613 2.10652C18.3476 2.133 18.3342 2.15949 18.3214 2.18574C18.3123 2.20402 18.3038 2.22212 18.2951 2.24017C18.2827 2.26648 18.2705 2.29273 18.2587 2.3188C18.2504 2.33714 18.2426 2.35531 18.2348 2.37353C18.2239 2.39878 18.213 2.42404 18.2028 2.44906C18.1949 2.46851 18.1874 2.48779 18.18 2.50712C18.1709 2.53039 18.1618 2.55371 18.1534 2.57673C18.1453 2.59853 18.1379 2.62009 18.1304 2.64183C18.1235 2.66199 18.1163 2.6822 18.1098 2.70218C18.1012 2.72808 18.0936 2.75369 18.0857 2.77935C18.0811 2.79476 18.0761 2.81035 18.0717 2.8257C18.0623 2.85828 18.0537 2.89045 18.0454 2.92262C18.0434 2.93088 18.0409 2.9392 18.0389 2.94734C17.788 3.95205 18.0672 4.75936 18.2885 5.39845C18.3212 5.49326 18.3537 5.58695 18.3838 5.67976C18.4005 5.73109 18.4153 5.78136 18.4285 5.83064C18.5108 6.13943 18.5239 6.41213 18.4603 6.66977C18.3652 7.05397 18.0994 7.40477 17.6379 7.79255C17.6087 7.81721 17.579 7.841 17.5493 7.86438C17.523 7.88477 17.4962 7.90475 17.4691 7.92462C17.4662 7.92679 17.4632 7.92913 17.4601 7.9313C17.4599 7.93153 17.4595 7.93171 17.4592 7.93194C17.4039 7.97214 17.3479 8.00999 17.2915 8.04614C17.2903 8.04696 17.2889 8.04778 17.2877 8.0486C17.2314 8.08452 17.1746 8.11862 17.1175 8.15108C17.1166 8.15161 17.1158 8.15208 17.1149 8.15255C16.767 8.3496 16.4047 8.48654 16.0515 8.62007C15.6717 8.76369 15.3039 8.90261 15 9.10792C14.6961 8.90267 14.3282 8.76369 13.9484 8.62007C13.5955 8.48654 13.2334 8.34972 12.8856 8.15272C12.8844 8.15202 12.8833 8.15143 12.882 8.15079C12.8254 8.11862 12.769 8.08475 12.7131 8.04919C12.7112 8.0479 12.7092 8.04649 12.707 8.04526C12.6512 8.00952 12.5958 7.97196 12.5409 7.93212C12.524 7.91987 12.5072 7.90704 12.4904 7.89421C12.4755 7.88296 12.4604 7.87171 12.4459 7.86034C12.4178 7.83831 12.3899 7.81587 12.3621 7.79266C11.7725 7.29713 11.5023 6.8619 11.4995 6.34053C11.4989 6.22685 11.511 6.10937 11.5352 5.98638ZM20 19.9998V17.6565H22.5645C22.9097 17.6565 23.1896 17.3766 23.1896 17.0313C23.1896 16.6861 22.9098 16.4062 22.5645 16.4062H20V15.0001H26.2498V19.9998H20ZM26.2498 21.2501V26.2499H20V21.2501H26.2498ZM19.3748 13.75H10.625H3.75029V9.06275H11.9789C11.9857 9.0672 11.9926 9.07113 11.9994 9.07552C12.1231 9.15615 12.2473 9.2291 12.3708 9.2956C12.3762 9.29847 12.3814 9.30129 12.3867 9.30416C12.7813 9.5148 13.1683 9.66158 13.5066 9.78949C13.9225 9.94664 14.3524 10.1092 14.4452 10.288C14.4712 10.3382 14.5037 10.3835 14.5409 10.4238C14.5421 10.4251 14.543 10.4268 14.5443 10.4281C14.5514 10.4355 14.5594 10.4419 14.5668 10.449C14.6612 10.54 14.7817 10.601 14.9135 10.6193C14.9419 10.6232 14.9708 10.6253 14.9999 10.6253C15.0001 10.6253 15.0001 10.6253 15.0001 10.6253C15.0292 10.6253 15.0581 10.6233 15.0865 10.6193C15.0877 10.6191 15.0889 10.6187 15.0902 10.6185C15.1173 10.6146 15.144 10.6091 15.1702 10.6017C15.1732 10.6008 15.1761 10.5994 15.1792 10.5985C15.2033 10.5913 15.227 10.5832 15.25 10.5732C15.2519 10.5724 15.2538 10.5712 15.2557 10.5703C15.3565 10.525 15.4448 10.4538 15.5099 10.362C15.5105 10.3611 15.511 10.3602 15.5116 10.3593C15.5273 10.3368 15.5419 10.3131 15.5549 10.2881C15.6478 10.1092 16.0777 9.9467 16.4936 9.78949C16.8321 9.66152 17.2194 9.51463 17.6144 9.30375C17.619 9.30123 17.6237 9.29877 17.6285 9.29619C17.7536 9.22892 17.8794 9.15498 18.0047 9.07312C18.0103 9.06949 18.0158 9.06644 18.0213 9.06281H26.2498V13.7499H19.3748V13.75ZM18.7498 15.0002V26.2499H18.7498H11.2501V15.0002H18.7498ZM3.75029 19.9998V15.0001H9.9999V19.9998H3.75029ZM9.9999 21.2501V26.2498H3.75029V21.2501H9.9999ZM1.25045 7.81264V2.81275H10.5939C10.6029 2.83238 10.6112 2.85177 10.6196 2.87111C10.6236 2.88008 10.6276 2.88904 10.6313 2.89789C10.6387 2.9157 10.6458 2.93328 10.6528 2.95092C10.657 2.96181 10.6613 2.97265 10.6655 2.98344C10.6717 2.99996 10.6777 3.01625 10.6835 3.0326C10.6878 3.04455 10.6918 3.0565 10.6958 3.06834C10.7011 3.08351 10.7061 3.09869 10.7109 3.11387C10.7152 3.12752 10.7193 3.141 10.7231 3.15441C10.7272 3.16766 10.7312 3.18096 10.7349 3.19408C10.7415 3.21775 10.7476 3.24137 10.7532 3.26475C10.7551 3.27248 10.7568 3.28021 10.7586 3.28789C10.7636 3.30945 10.7682 3.33096 10.7726 3.35229C10.7742 3.36049 10.7756 3.36857 10.7771 3.37678C10.7807 3.39553 10.7839 3.41428 10.7868 3.43285C10.788 3.44088 10.7891 3.44885 10.7904 3.45688C10.7932 3.47615 10.7958 3.49525 10.7979 3.5143C10.7987 3.52098 10.7994 3.52772 10.8001 3.53445C10.8024 3.55619 10.8044 3.57781 10.806 3.59938C10.8062 3.60313 10.8066 3.60688 10.8069 3.61057C10.8122 3.69032 10.8127 3.7686 10.809 3.84577C10.809 3.84664 10.809 3.84752 10.8089 3.8484C10.8077 3.87313 10.8061 3.89774 10.8042 3.92217C10.8039 3.92393 10.8038 3.92575 10.8036 3.92756C10.8016 3.95211 10.799 3.97672 10.7962 4.00116C10.7961 4.00168 10.7961 4.00221 10.796 4.00274C10.784 4.10481 10.7653 4.20536 10.7419 4.30538C10.7416 4.30661 10.7412 4.30778 10.741 4.30895C10.7355 4.33233 10.7297 4.35559 10.7238 4.37891C10.7232 4.38096 10.7227 4.38296 10.7222 4.38512C10.716 4.40891 10.7097 4.4327 10.703 4.45643C10.7029 4.45702 10.7028 4.45749 10.7027 4.45801C10.6819 4.53231 10.6591 4.60673 10.6348 4.68143C10.6339 4.68413 10.6331 4.68682 10.6322 4.68952C10.6251 4.7112 10.618 4.73282 10.6107 4.75462C10.6095 4.75854 10.6081 4.76241 10.6068 4.7664C10.5994 4.78849 10.592 4.81052 10.5844 4.83272C10.5838 4.8346 10.5831 4.83642 10.5825 4.83835C10.5654 4.88851 10.5479 4.93878 10.5304 4.9897C10.495 5.09206 10.46 5.19319 10.4273 5.29351C10.4071 5.35591 10.3893 5.4172 10.3726 5.47779C10.3673 5.49712 10.3629 5.51599 10.358 5.53509C10.3474 5.57658 10.3372 5.61788 10.3283 5.65861C10.3236 5.67976 10.3192 5.70074 10.3151 5.72165C10.3072 5.76103 10.3002 5.79994 10.2937 5.83843C10.2905 5.85777 10.2872 5.8771 10.2844 5.89621C10.2776 5.9422 10.2721 5.98761 10.2675 6.03256C10.2665 6.04275 10.2649 6.05324 10.2639 6.06343C10.2588 6.11834 10.2555 6.17224 10.2534 6.22551C10.2529 6.2398 10.2529 6.25375 10.2527 6.26799C10.2517 6.30695 10.2514 6.34556 10.252 6.38371C10.2523 6.40146 10.253 6.41904 10.2536 6.43674C10.2549 6.47148 10.2568 6.50588 10.2594 6.53992C10.2606 6.55686 10.2618 6.57379 10.2633 6.59055C10.2669 6.62793 10.2712 6.66473 10.2763 6.70117C10.2779 6.71307 10.2791 6.72526 10.2809 6.73703C10.2881 6.78526 10.2966 6.8326 10.3062 6.87924C10.3078 6.88692 10.3099 6.89436 10.3114 6.90203C10.3199 6.94065 10.329 6.97885 10.3389 7.01641C10.3427 7.03059 10.3468 7.04448 10.3508 7.05854C10.3597 7.08971 10.3689 7.12059 10.3788 7.15106C10.3835 7.16535 10.3881 7.17971 10.393 7.19389C10.4037 7.2253 10.4152 7.25623 10.4269 7.28676C10.4313 7.29825 10.4356 7.30997 10.4402 7.32133C10.4737 7.40465 10.5108 7.4851 10.5511 7.56268C10.5568 7.57376 10.5629 7.58448 10.5687 7.59538C10.5834 7.62309 10.5986 7.65046 10.6143 7.67747C10.6213 7.68971 10.6286 7.70196 10.6358 7.71409C10.6513 7.7401 10.6672 7.76577 10.6834 7.79108C10.6879 7.79823 10.6922 7.80555 10.6967 7.8127H3.12522H1.25045V7.81264ZM28.7495 27.5001V28.7498H1.25021V27.5001H3.12522H10.625H19.375H26.875H28.7495ZM26.8749 7.81241H19.3035C19.3086 7.80462 19.3132 7.79635 19.3182 7.78844C19.3336 7.7643 19.3488 7.73999 19.3635 7.71526C19.3712 7.70219 19.3791 7.68913 19.3866 7.67589C19.4016 7.64999 19.4162 7.62362 19.4303 7.59708C19.4367 7.58518 19.4433 7.57358 19.4494 7.56163C19.4895 7.4844 19.5264 7.40442 19.5598 7.32151C19.5645 7.30956 19.569 7.29731 19.5736 7.2853C19.5851 7.2553 19.5964 7.22483 19.6071 7.19401C19.6119 7.17959 19.6168 7.16494 19.6214 7.1503C19.6313 7.12012 19.6404 7.08942 19.6492 7.05842C19.6532 7.0443 19.6574 7.0303 19.6612 7.016C19.6712 6.97826 19.6804 6.94 19.6887 6.90115C19.6903 6.89371 19.6923 6.88645 19.6937 6.87901C19.7034 6.83225 19.7119 6.78467 19.7191 6.73633C19.7208 6.7249 19.722 6.71318 19.7236 6.70164C19.7287 6.66479 19.7331 6.62746 19.7367 6.58967C19.7382 6.5732 19.7394 6.55674 19.7406 6.54016C19.7433 6.50559 19.7451 6.47072 19.7464 6.43533C19.7471 6.41822 19.7477 6.40111 19.748 6.38383C19.7487 6.3451 19.7484 6.30566 19.7474 6.26594C19.747 6.25246 19.7471 6.2391 19.7466 6.22556C19.7446 6.17213 19.7411 6.11781 19.736 6.06267C19.7351 6.05336 19.7337 6.04363 19.7327 6.03425C19.728 5.98855 19.7224 5.94232 19.7156 5.8955C19.7128 5.87675 19.7095 5.85777 19.7064 5.83873C19.7 5.8 19.6929 5.76085 19.685 5.72124C19.6807 5.70033 19.6763 5.67929 19.6717 5.65808C19.6627 5.61771 19.6529 5.57681 19.6422 5.53556C19.6372 5.51599 19.6326 5.49665 19.6272 5.47691C19.6114 5.41902 19.5943 5.36054 19.5749 5.30107C19.5741 5.29837 19.5735 5.29579 19.5727 5.29316C19.5719 5.29064 19.571 5.28818 19.5701 5.28566C19.5382 5.18775 19.5041 5.08913 19.4696 4.98923C19.4613 4.96497 19.4529 4.94089 19.4446 4.91686C19.4426 4.91083 19.4405 4.90485 19.4384 4.89882C19.4327 4.88224 19.427 4.86577 19.4214 4.84925C19.4176 4.83823 19.4139 4.82727 19.4101 4.81632C19.406 4.8039 19.4017 4.79141 19.3976 4.77893C19.3937 4.76722 19.3898 4.75556 19.3858 4.74384C19.3818 4.73188 19.3779 4.71987 19.3739 4.70798C19.3702 4.69626 19.3663 4.68472 19.3625 4.67311C19.3584 4.66016 19.3542 4.64722 19.3502 4.63432C19.3469 4.62395 19.3437 4.61352 19.3403 4.60315C19.3334 4.58071 19.3265 4.55821 19.3198 4.53583C19.3178 4.5288 19.3158 4.52177 19.3137 4.51473C19.3089 4.49821 19.3042 4.4818 19.2995 4.46528C19.297 4.45667 19.2947 4.44811 19.2924 4.43944C19.2883 4.42432 19.2841 4.40921 19.2802 4.39391C19.2779 4.38536 19.2757 4.3768 19.2737 4.36825C19.2697 4.35249 19.2657 4.33678 19.2619 4.32108C19.2601 4.31323 19.2582 4.30532 19.2564 4.29747C19.2523 4.27977 19.2483 4.26202 19.2445 4.2442C19.2433 4.23846 19.242 4.23272 19.2407 4.22698C19.2307 4.17858 19.2219 4.13 19.2145 4.08114C19.2139 4.07762 19.2135 4.07416 19.213 4.07065C19.21 4.05008 19.2071 4.02946 19.2047 4.00877C19.2039 4.0028 19.2034 3.99682 19.2026 3.99084C19.2006 3.97239 19.1987 3.95387 19.197 3.9353C19.1964 3.92862 19.1959 3.92194 19.1953 3.91514C19.1938 3.89657 19.1926 3.87799 19.1916 3.8593C19.1914 3.85303 19.1909 3.84682 19.1906 3.84055C19.1896 3.81916 19.189 3.79772 19.1888 3.77621C19.1887 3.77276 19.1886 3.76948 19.1886 3.76602C19.1883 3.74053 19.1886 3.71487 19.1893 3.68914C19.1893 3.68651 19.1896 3.68381 19.1897 3.68112C19.1903 3.65903 19.1914 3.63688 19.1929 3.61461C19.1935 3.60617 19.1942 3.59768 19.1948 3.58924C19.1961 3.57266 19.1976 3.55596 19.1993 3.53932C19.2004 3.52895 19.2016 3.51858 19.2029 3.5082C19.2046 3.49326 19.2067 3.47832 19.2087 3.46326C19.2103 3.45178 19.2121 3.44018 19.2138 3.42858C19.2161 3.41451 19.2186 3.40033 19.2212 3.38621C19.2234 3.37391 19.2255 3.3616 19.2279 3.34918C19.2306 3.336 19.2337 3.32258 19.2366 3.30922C19.243 3.28027 19.25 3.25103 19.2579 3.2215C19.2601 3.21324 19.262 3.20504 19.2643 3.19678C19.269 3.17967 19.2743 3.16226 19.2795 3.14498C19.2823 3.1356 19.2851 3.12629 19.2881 3.11691C19.2937 3.09928 19.2996 3.08146 19.3056 3.06365C19.3088 3.05451 19.312 3.04537 19.3151 3.03629C19.3217 3.01783 19.3286 2.9992 19.3356 2.98051C19.3388 2.97236 19.342 2.9641 19.3453 2.9559C19.353 2.93609 19.361 2.91611 19.3695 2.89607C19.3717 2.89051 19.3743 2.88488 19.3767 2.87931C19.386 2.85734 19.3957 2.83531 19.406 2.81299H28.7494V7.81264H26.8749V7.81241Z" fill="#5A4BB2"/>
<path d="M4.93568 5.31278H8.12523C8.47047 5.31278 8.75037 5.03288 8.75037 4.68764C8.75037 4.3424 8.47053 4.0625 8.12523 4.0625H4.93568C4.59045 4.0625 4.31055 4.34235 4.31055 4.68764C4.31061 5.03288 4.59045 5.31278 4.93568 5.31278Z" fill="#5A4BB2"/>
<path d="M3.14014 5.31254C3.48537 5.31254 3.76527 5.03263 3.76527 4.6874C3.76527 4.34222 3.48543 4.06226 3.14014 4.06226H3.12514C2.77996 4.06226 2.5 4.34216 2.5 4.6874C2.5 5.03257 2.7799 5.31254 3.12514 5.31254H3.14014Z" fill="#5A4BB2"/>
<path d="M15.0002 7.18776C16.0341 7.18776 16.8754 6.34652 16.8754 5.31251C16.8754 4.27862 16.0341 3.4375 15.0002 3.4375C13.9662 3.4375 13.125 4.27868 13.125 5.31251C13.1251 6.34652 13.9662 7.18776 15.0002 7.18776ZM15.0002 4.68772C15.3448 4.68772 15.6251 4.96798 15.6251 5.31251C15.6251 5.65716 15.3448 5.93753 15.0002 5.93753C14.6555 5.93753 14.3752 5.65716 14.3752 5.31251C14.3753 4.96798 14.6556 4.68772 15.0002 4.68772Z" fill="#5A4BB2"/>
<path d="M24.3753 16.406H24.3605C24.0153 16.406 23.7354 16.6859 23.7354 17.0311C23.7354 17.3764 24.0152 17.6563 24.3605 17.6563H24.3753C24.7205 17.6563 25.0004 17.3764 25.0004 17.0311C25.0004 16.6859 24.7205 16.406 24.3753 16.406Z" fill="#5A4BB2"/>
</svg>
