<svg width="300" height="578" viewBox="0 0 300 578" fill="none" xmlns="http://www.w3.org/2000/svg">
<path d="M59.3677 135.541L62.5781 123.126H64.7388L62.6636 135.541H59.3677ZM64.1528 121.027C63.689 121.027 63.3187 120.897 63.042 120.636C62.7734 120.376 62.6392 120.006 62.6392 119.525C62.6392 118.923 62.8182 118.415 63.1763 118C63.5425 117.576 64.0592 117.365 64.7266 117.365C65.2555 117.365 65.6421 117.507 65.8862 117.792C66.1385 118.077 66.2646 118.431 66.2646 118.854C66.2646 119.204 66.1914 119.546 66.0449 119.879C65.9066 120.213 65.6828 120.49 65.3735 120.709C65.0643 120.921 64.6574 121.027 64.1528 121.027ZM71.5186 131L74.7656 115.644H70.127L70.6519 113.153H82.8345L82.3218 115.644H77.6709L74.4238 131H71.5186ZM86.8799 131.244C86.1556 131.244 85.5371 131.102 85.0244 130.817C84.5199 130.532 84.1333 130.121 83.8647 129.584C83.6043 129.039 83.4741 128.388 83.4741 127.631C83.4741 127.297 83.4985 126.931 83.5474 126.532C83.6043 126.125 83.6735 125.706 83.7549 125.275L85.415 117.487H88.2715L86.5259 125.69C86.4689 126.007 86.4201 126.296 86.3794 126.557C86.3468 126.809 86.3306 127.041 86.3306 127.252C86.3306 127.798 86.4567 128.213 86.709 128.498C86.9694 128.774 87.3722 128.913 87.9175 128.913C88.5034 128.913 89.0731 128.693 89.6265 128.253C90.188 127.806 90.6966 127.159 91.1523 126.312C91.6081 125.466 91.9621 124.445 92.2144 123.249L93.4351 117.487H96.2671L93.4106 131H91.1646L91.4575 128.437H91.3354C91.0099 128.917 90.6315 129.372 90.2002 129.804C89.7689 130.227 89.2806 130.573 88.7354 130.841C88.1901 131.11 87.5716 131.244 86.8799 131.244ZM104.968 137.006C104.618 137.006 104.281 136.977 103.955 136.92C103.621 136.863 103.341 136.798 103.113 136.725V134.381C103.357 134.471 103.593 134.536 103.821 134.577C104.041 134.625 104.272 134.65 104.517 134.65C105.07 134.65 105.522 134.446 105.872 134.04C106.23 133.641 106.498 133.03 106.677 132.208L109.326 119.66H107.166L107.434 118.341L109.79 117.45L110.046 116.291C110.225 115.46 110.453 114.765 110.73 114.203C111.015 113.633 111.348 113.178 111.731 112.836C112.122 112.494 112.569 112.25 113.074 112.104C113.586 111.949 114.164 111.872 114.807 111.872C115.295 111.872 115.763 111.92 116.211 112.018C116.667 112.116 117.061 112.242 117.395 112.396L116.638 114.545C116.402 114.447 116.15 114.362 115.881 114.289C115.613 114.215 115.316 114.179 114.99 114.179C114.412 114.179 113.953 114.358 113.611 114.716C113.269 115.074 113.017 115.648 112.854 116.437L112.634 117.487H115.405L114.966 119.66H112.17L109.436 132.599C109.249 133.462 108.976 134.223 108.618 134.882C108.268 135.549 107.796 136.07 107.202 136.444C106.608 136.819 105.863 137.006 104.968 137.006ZM121.941 131.22C120.916 131.22 120.02 131.008 119.255 130.585C118.49 130.162 117.896 129.564 117.473 128.791C117.058 128.009 116.851 127.086 116.851 126.02C116.851 125.116 116.944 124.237 117.131 123.383C117.327 122.528 117.611 121.731 117.986 120.99C118.36 120.25 118.828 119.603 119.39 119.049C119.951 118.488 120.602 118.052 121.343 117.743C122.083 117.426 122.913 117.267 123.833 117.267C124.883 117.267 125.786 117.479 126.543 117.902C127.3 118.325 127.882 118.931 128.289 119.721C128.695 120.51 128.899 121.454 128.899 122.553C128.899 123.432 128.805 124.29 128.618 125.128C128.439 125.967 128.167 126.756 127.8 127.497C127.434 128.229 126.97 128.876 126.409 129.438C125.855 129.991 125.204 130.426 124.456 130.744C123.715 131.061 122.877 131.22 121.941 131.22ZM122.148 128.876C122.604 128.876 123.027 128.774 123.418 128.571C123.817 128.359 124.175 128.062 124.492 127.68C124.81 127.289 125.078 126.829 125.298 126.3C125.526 125.763 125.701 125.169 125.823 124.518C125.945 123.867 126.006 123.171 126.006 122.431C126.006 121.934 125.933 121.474 125.786 121.051C125.64 120.62 125.396 120.274 125.054 120.014C124.72 119.745 124.272 119.611 123.711 119.611C123.206 119.611 122.743 119.733 122.319 119.977C121.904 120.213 121.534 120.543 121.208 120.966C120.891 121.389 120.623 121.877 120.403 122.431C120.183 122.976 120.016 123.562 119.902 124.188C119.788 124.807 119.731 125.434 119.731 126.068C119.731 126.972 119.935 127.667 120.342 128.156C120.757 128.636 121.359 128.876 122.148 128.876ZM131.882 131L134.751 117.487H136.985L136.692 120.038H136.826C137.176 119.517 137.555 119.045 137.961 118.622C138.376 118.199 138.836 117.861 139.341 117.609C139.845 117.357 140.407 117.23 141.025 117.23C141.245 117.23 141.473 117.247 141.709 117.279C141.953 117.304 142.165 117.34 142.344 117.389L141.721 120.075C141.542 120.026 141.347 119.985 141.135 119.953C140.924 119.92 140.7 119.904 140.464 119.904C139.927 119.904 139.422 120.03 138.95 120.282C138.478 120.535 138.051 120.884 137.668 121.332C137.286 121.78 136.956 122.305 136.68 122.907C136.403 123.501 136.187 124.148 136.033 124.848L134.739 131H131.882ZM143.337 131L146.206 117.487H148.44L148.147 120.038H148.269C148.586 119.558 148.953 119.106 149.368 118.683C149.791 118.252 150.267 117.902 150.796 117.633C151.333 117.365 151.935 117.23 152.603 117.23C153.547 117.23 154.267 117.491 154.763 118.012C155.268 118.533 155.581 119.245 155.703 120.148H155.801C156.134 119.627 156.521 119.147 156.96 118.708C157.408 118.268 157.909 117.914 158.462 117.646C159.023 117.369 159.634 117.23 160.293 117.23C161.383 117.23 162.209 117.548 162.771 118.183C163.333 118.817 163.613 119.704 163.613 120.844C163.613 121.186 163.589 121.535 163.54 121.894C163.499 122.252 163.434 122.622 163.345 123.004L161.66 131H158.804L160.549 122.797C160.614 122.479 160.663 122.195 160.696 121.942C160.736 121.682 160.757 121.438 160.757 121.21C160.757 120.681 160.631 120.278 160.378 120.001C160.134 119.717 159.76 119.574 159.255 119.574C158.832 119.574 158.413 119.7 157.998 119.953C157.591 120.205 157.205 120.571 156.838 121.051C156.472 121.531 156.147 122.113 155.862 122.797C155.577 123.472 155.345 124.237 155.166 125.092L153.921 131H151.077L152.798 122.821C152.871 122.496 152.924 122.203 152.957 121.942C152.989 121.682 153.005 121.454 153.005 121.259C153.005 120.714 152.887 120.299 152.651 120.014C152.424 119.721 152.057 119.574 151.553 119.574C151.13 119.574 150.71 119.7 150.295 119.953C149.88 120.205 149.49 120.575 149.124 121.063C148.757 121.552 148.428 122.146 148.135 122.846C147.842 123.537 147.602 124.331 147.415 125.226L146.194 131H143.337ZM170.991 131.244C170.267 131.244 169.648 131.102 169.136 130.817C168.631 130.532 168.245 130.121 167.976 129.584C167.716 129.039 167.585 128.388 167.585 127.631C167.585 127.297 167.61 126.931 167.659 126.532C167.716 126.125 167.785 125.706 167.866 125.275L169.526 117.487H172.383L170.637 125.69C170.58 126.007 170.531 126.296 170.491 126.557C170.458 126.809 170.442 127.041 170.442 127.252C170.442 127.798 170.568 128.213 170.82 128.498C171.081 128.774 171.484 128.913 172.029 128.913C172.615 128.913 173.184 128.693 173.738 128.253C174.299 127.806 174.808 127.159 175.264 126.312C175.719 125.466 176.073 124.445 176.326 123.249L177.546 117.487H180.378L177.522 131H175.276L175.569 128.437H175.447C175.121 128.917 174.743 129.372 174.312 129.804C173.88 130.227 173.392 130.573 172.847 130.841C172.301 131.11 171.683 131.244 170.991 131.244ZM182.812 131L186.853 112.006H189.697L185.669 131H182.812ZM195.269 131.244C194.577 131.244 193.946 131.077 193.376 130.744C192.815 130.402 192.367 129.881 192.034 129.181C191.7 128.473 191.533 127.574 191.533 126.483C191.533 125.539 191.631 124.62 191.826 123.725C192.03 122.829 192.314 121.991 192.681 121.21C193.055 120.429 193.507 119.741 194.036 119.147C194.565 118.545 195.163 118.077 195.83 117.743C196.497 117.401 197.218 117.23 197.991 117.23C198.577 117.23 199.089 117.332 199.529 117.536C199.968 117.731 200.339 117.995 200.64 118.329C200.941 118.663 201.185 119.033 201.372 119.44H201.482L202.214 117.487H204.412L201.543 131H199.358L199.626 128.815H199.529C199.179 129.263 198.788 129.669 198.357 130.036C197.934 130.402 197.466 130.695 196.953 130.915C196.44 131.134 195.879 131.244 195.269 131.244ZM196.318 128.913C196.888 128.913 197.433 128.701 197.954 128.278C198.475 127.847 198.935 127.277 199.333 126.569C199.74 125.861 200.042 125.084 200.237 124.237C200.334 123.83 200.4 123.444 200.432 123.078C200.473 122.711 200.493 122.345 200.493 121.979C200.493 121.271 200.306 120.693 199.932 120.246C199.557 119.798 199.045 119.574 198.394 119.574C197.946 119.574 197.519 119.7 197.112 119.953C196.713 120.205 196.351 120.555 196.025 121.002C195.7 121.442 195.415 121.951 195.171 122.528C194.935 123.106 194.752 123.729 194.622 124.396C194.5 125.055 194.438 125.727 194.438 126.41C194.438 127.232 194.601 127.855 194.927 128.278C195.26 128.701 195.724 128.913 196.318 128.913ZM206.711 131L209.58 117.487H211.814L211.521 120.038H211.655C212.005 119.517 212.384 119.045 212.791 118.622C213.206 118.199 213.665 117.861 214.17 117.609C214.674 117.357 215.236 117.23 215.854 117.23C216.074 117.23 216.302 117.247 216.538 117.279C216.782 117.304 216.994 117.34 217.173 117.389L216.55 120.075C216.371 120.026 216.176 119.985 215.964 119.953C215.753 119.92 215.529 119.904 215.293 119.904C214.756 119.904 214.251 120.03 213.779 120.282C213.307 120.535 212.88 120.884 212.498 121.332C212.115 121.78 211.785 122.305 211.509 122.907C211.232 123.501 211.016 124.148 210.862 124.848L209.568 131H206.711ZM218.167 131L221.035 117.487H223.892L221.023 131H218.167ZM223.098 115.46C222.675 115.46 222.321 115.359 222.036 115.155C221.751 114.944 221.609 114.614 221.609 114.167C221.609 113.792 221.678 113.467 221.816 113.19C221.963 112.913 222.17 112.702 222.439 112.555C222.716 112.401 223.045 112.323 223.428 112.323C223.851 112.323 224.197 112.425 224.465 112.628C224.734 112.824 224.868 113.141 224.868 113.581C224.868 114.15 224.709 114.606 224.392 114.948C224.075 115.29 223.643 115.46 223.098 115.46ZM231.965 131.22C230.94 131.22 230.045 131.008 229.28 130.585C228.515 130.162 227.921 129.564 227.498 128.791C227.083 128.009 226.875 127.086 226.875 126.02C226.875 125.116 226.969 124.237 227.156 123.383C227.351 122.528 227.636 121.731 228.01 120.99C228.385 120.25 228.853 119.603 229.414 119.049C229.976 118.488 230.627 118.052 231.367 117.743C232.108 117.426 232.938 117.267 233.857 117.267C234.907 117.267 235.811 117.479 236.567 117.902C237.324 118.325 237.906 118.931 238.313 119.721C238.72 120.51 238.923 121.454 238.923 122.553C238.923 123.432 238.83 124.29 238.643 125.128C238.464 125.967 238.191 126.756 237.825 127.497C237.458 128.229 236.995 128.876 236.433 129.438C235.88 129.991 235.229 130.426 234.48 130.744C233.739 131.061 232.901 131.22 231.965 131.22ZM232.173 128.876C232.629 128.876 233.052 128.774 233.442 128.571C233.841 128.359 234.199 128.062 234.517 127.68C234.834 127.289 235.103 126.829 235.322 126.3C235.55 125.763 235.725 125.169 235.847 124.518C235.969 123.867 236.03 123.171 236.03 122.431C236.03 121.934 235.957 121.474 235.811 121.051C235.664 120.62 235.42 120.274 235.078 120.014C234.744 119.745 234.297 119.611 233.735 119.611C233.231 119.611 232.767 119.733 232.344 119.977C231.929 120.213 231.558 120.543 231.233 120.966C230.916 121.389 230.647 121.877 230.427 122.431C230.208 122.976 230.041 123.562 229.927 124.188C229.813 124.807 229.756 125.434 229.756 126.068C229.756 126.972 229.959 127.667 230.366 128.156C230.781 128.636 231.383 128.876 232.173 128.876ZM105.356 169L109.385 150.006H112.229L111.338 154.12C111.273 154.478 111.183 154.868 111.069 155.292C110.964 155.715 110.85 156.134 110.728 156.549C110.614 156.964 110.504 157.346 110.398 157.696H110.508C110.833 157.273 111.2 156.874 111.606 156.5C112.021 156.126 112.485 155.825 112.998 155.597C113.519 155.361 114.097 155.243 114.731 155.243C115.472 155.243 116.099 155.389 116.611 155.682C117.124 155.967 117.515 156.382 117.783 156.927C118.052 157.464 118.186 158.124 118.186 158.905C118.186 159.214 118.162 159.548 118.113 159.906C118.064 160.256 117.999 160.622 117.917 161.004L116.221 169H113.364L115.098 160.797C115.171 160.479 115.224 160.195 115.256 159.942C115.289 159.69 115.305 159.462 115.305 159.259C115.305 158.705 115.175 158.286 114.915 158.001C114.654 157.717 114.251 157.574 113.706 157.574C113.128 157.574 112.559 157.798 111.997 158.246C111.436 158.685 110.931 159.328 110.483 160.174C110.036 161.013 109.686 162.03 109.434 163.226L108.213 169H105.356ZM125.686 169.244C124.994 169.244 124.364 169.077 123.794 168.744C123.232 168.402 122.785 167.881 122.451 167.181C122.118 166.473 121.951 165.574 121.951 164.483C121.951 163.539 122.048 162.62 122.244 161.725C122.447 160.829 122.732 159.991 123.098 159.21C123.472 158.429 123.924 157.741 124.453 157.147C124.982 156.545 125.58 156.077 126.248 155.743C126.915 155.401 127.635 155.23 128.408 155.23C128.994 155.23 129.507 155.332 129.946 155.536C130.386 155.731 130.756 155.995 131.057 156.329C131.358 156.663 131.602 157.033 131.79 157.44H131.899L132.632 155.487H134.829L131.96 169H129.775L130.044 166.815H129.946C129.596 167.263 129.206 167.669 128.774 168.036C128.351 168.402 127.883 168.695 127.371 168.915C126.858 169.134 126.296 169.244 125.686 169.244ZM126.736 166.913C127.306 166.913 127.851 166.701 128.372 166.278C128.892 165.847 129.352 165.277 129.751 164.569C130.158 163.861 130.459 163.084 130.654 162.237C130.752 161.83 130.817 161.444 130.85 161.078C130.89 160.711 130.911 160.345 130.911 159.979C130.911 159.271 130.723 158.693 130.349 158.246C129.975 157.798 129.462 157.574 128.811 157.574C128.363 157.574 127.936 157.7 127.529 157.953C127.131 158.205 126.768 158.555 126.443 159.002C126.117 159.442 125.833 159.951 125.588 160.528C125.352 161.106 125.169 161.729 125.039 162.396C124.917 163.055 124.856 163.727 124.856 164.41C124.856 165.232 125.019 165.855 125.344 166.278C125.678 166.701 126.142 166.913 126.736 166.913ZM148.425 169.244C147.579 169.244 146.838 169.171 146.204 169.024C145.577 168.886 145.011 168.683 144.507 168.414V165.96C145.028 166.27 145.614 166.53 146.265 166.742C146.924 166.945 147.599 167.047 148.291 167.047C148.828 167.047 149.296 166.974 149.695 166.827C150.094 166.681 150.403 166.473 150.623 166.205C150.85 165.928 150.964 165.594 150.964 165.204C150.964 164.919 150.899 164.667 150.769 164.447C150.639 164.227 150.415 164.003 150.098 163.775C149.78 163.548 149.341 163.275 148.779 162.958C148.185 162.624 147.681 162.286 147.266 161.944C146.859 161.594 146.545 161.208 146.326 160.785C146.114 160.361 146.008 159.865 146.008 159.295C146.008 158.441 146.204 157.713 146.594 157.11C146.993 156.5 147.555 156.036 148.279 155.719C149.011 155.393 149.874 155.23 150.867 155.23C151.664 155.23 152.417 155.324 153.125 155.511C153.833 155.69 154.488 155.943 155.09 156.268L154.15 158.392C153.703 158.14 153.206 157.924 152.661 157.745C152.116 157.558 151.53 157.464 150.903 157.464C150.326 157.464 149.841 157.599 149.451 157.867C149.068 158.136 148.877 158.518 148.877 159.015C148.877 159.275 148.938 159.511 149.06 159.723C149.19 159.926 149.406 160.134 149.707 160.345C150.008 160.557 150.419 160.801 150.94 161.078C151.501 161.387 152.002 161.712 152.441 162.054C152.881 162.396 153.227 162.791 153.479 163.238C153.731 163.678 153.857 164.211 153.857 164.837C153.857 165.79 153.634 166.595 153.186 167.254C152.747 167.905 152.12 168.402 151.306 168.744C150.492 169.077 149.532 169.244 148.425 169.244ZM157.427 169L160.295 155.487H163.152L160.283 169H157.427ZM162.358 153.46C161.935 153.46 161.581 153.359 161.296 153.155C161.012 152.944 160.869 152.614 160.869 152.167C160.869 151.792 160.938 151.467 161.077 151.19C161.223 150.913 161.431 150.702 161.699 150.555C161.976 150.401 162.306 150.323 162.688 150.323C163.111 150.323 163.457 150.425 163.726 150.628C163.994 150.824 164.128 151.141 164.128 151.581C164.128 152.15 163.97 152.606 163.652 152.948C163.335 153.29 162.904 153.46 162.358 153.46ZM169.883 169.244C169.183 169.244 168.548 169.077 167.979 168.744C167.417 168.41 166.969 167.893 166.636 167.193C166.302 166.485 166.135 165.578 166.135 164.471C166.135 163.543 166.229 162.636 166.416 161.749C166.611 160.854 166.892 160.016 167.258 159.234C167.625 158.445 168.072 157.753 168.601 157.159C169.13 156.557 169.728 156.089 170.396 155.755C171.071 155.414 171.803 155.243 172.593 155.243C173.179 155.243 173.679 155.344 174.094 155.548C174.509 155.751 174.859 156.02 175.144 156.354C175.429 156.687 175.669 157.049 175.864 157.44H175.974C175.999 157.228 176.027 156.96 176.06 156.634C176.1 156.301 176.149 155.943 176.206 155.56C176.263 155.169 176.332 154.791 176.414 154.425L177.354 150.006H180.198L176.169 169H173.936L174.204 166.815H174.119C173.761 167.271 173.37 167.682 172.947 168.048C172.532 168.414 172.072 168.707 171.567 168.927C171.063 169.138 170.501 169.244 169.883 169.244ZM170.994 166.913C171.376 166.913 171.742 166.815 172.092 166.62C172.45 166.424 172.78 166.156 173.081 165.814C173.39 165.464 173.671 165.065 173.923 164.618C174.176 164.162 174.391 163.678 174.57 163.165C174.749 162.652 174.888 162.132 174.985 161.603C175.083 161.074 175.132 160.561 175.132 160.064C175.132 159.308 174.949 158.705 174.583 158.258C174.224 157.802 173.687 157.574 172.971 157.574C172.507 157.574 172.076 157.704 171.677 157.965C171.278 158.225 170.916 158.579 170.591 159.027C170.265 159.474 169.985 159.991 169.749 160.577C169.521 161.155 169.346 161.773 169.224 162.433C169.102 163.092 169.041 163.751 169.041 164.41C169.041 165.232 169.203 165.855 169.529 166.278C169.862 166.701 170.351 166.913 170.994 166.913ZM187.124 169.22C186.099 169.22 185.203 169.008 184.438 168.585C183.674 168.162 183.079 167.564 182.656 166.791C182.241 166.009 182.034 165.086 182.034 164.02C182.034 163.116 182.127 162.237 182.314 161.383C182.51 160.528 182.795 159.731 183.169 158.99C183.543 158.25 184.011 157.603 184.573 157.049C185.134 156.488 185.785 156.052 186.526 155.743C187.266 155.426 188.097 155.267 189.016 155.267C190.066 155.267 190.969 155.479 191.726 155.902C192.483 156.325 193.065 156.931 193.472 157.721C193.879 158.51 194.082 159.454 194.082 160.553C194.082 161.432 193.988 162.29 193.801 163.128C193.622 163.967 193.35 164.756 192.983 165.497C192.617 166.229 192.153 166.876 191.592 167.438C191.038 167.991 190.387 168.426 189.639 168.744C188.898 169.061 188.06 169.22 187.124 169.22ZM187.332 166.876C187.787 166.876 188.21 166.774 188.601 166.571C189 166.359 189.358 166.062 189.675 165.68C189.993 165.289 190.261 164.829 190.481 164.3C190.709 163.763 190.884 163.169 191.006 162.518C191.128 161.867 191.189 161.171 191.189 160.431C191.189 159.934 191.116 159.474 190.969 159.051C190.823 158.62 190.579 158.274 190.237 158.014C189.903 157.745 189.456 157.611 188.894 157.611C188.389 157.611 187.926 157.733 187.502 157.977C187.087 158.213 186.717 158.543 186.392 158.966C186.074 159.389 185.806 159.877 185.586 160.431C185.366 160.976 185.199 161.562 185.085 162.188C184.972 162.807 184.915 163.434 184.915 164.068C184.915 164.972 185.118 165.667 185.525 166.156C185.94 166.636 186.542 166.876 187.332 166.876ZM103.181 207.244C102.148 207.244 101.244 207.049 100.471 206.658C99.7062 206.259 99.1121 205.678 98.689 204.913C98.2739 204.139 98.0664 203.195 98.0664 202.081C98.0664 200.974 98.2251 199.896 98.5425 198.846C98.8599 197.788 99.3278 196.836 99.9463 195.989C100.565 195.143 101.318 194.472 102.205 193.975C103.092 193.479 104.101 193.23 105.232 193.23C106.615 193.23 107.653 193.544 108.345 194.17C109.045 194.789 109.395 195.611 109.395 196.636C109.395 197.336 109.236 197.975 108.918 198.553C108.601 199.131 108.117 199.631 107.466 200.054C106.823 200.469 106.005 200.791 105.012 201.019C104.028 201.246 102.868 201.36 101.533 201.36H100.984C100.976 201.482 100.968 201.609 100.959 201.739C100.951 201.861 100.947 201.983 100.947 202.105C100.947 203.008 101.183 203.72 101.655 204.241C102.127 204.754 102.815 205.01 103.718 205.01C104.402 205.01 105.033 204.925 105.61 204.754C106.188 204.583 106.835 204.327 107.551 203.985V206.243C106.892 206.561 106.225 206.809 105.549 206.988C104.874 207.159 104.084 207.244 103.181 207.244ZM101.338 199.285H101.753C102.746 199.285 103.608 199.192 104.341 199.004C105.073 198.809 105.639 198.524 106.038 198.15C106.436 197.767 106.636 197.304 106.636 196.758C106.636 196.335 106.501 196.006 106.233 195.77C105.972 195.525 105.582 195.403 105.061 195.403C104.548 195.403 104.044 195.562 103.547 195.879C103.051 196.189 102.607 196.636 102.217 197.222C101.826 197.8 101.533 198.488 101.338 199.285ZM111.89 207L114.771 193.45H117.078L116.785 196.001H116.858C117.183 195.521 117.562 195.07 117.993 194.646C118.424 194.215 118.913 193.865 119.458 193.597C120.011 193.328 120.63 193.194 121.313 193.194C122.062 193.194 122.697 193.34 123.218 193.633C123.739 193.926 124.133 194.345 124.402 194.891C124.67 195.436 124.805 196.087 124.805 196.844C124.805 197.177 124.776 197.535 124.719 197.918C124.67 198.292 124.605 198.659 124.524 199.017L122.827 207H119.91L121.643 198.785C121.716 198.467 121.769 198.182 121.802 197.93C121.842 197.678 121.863 197.442 121.863 197.222C121.863 196.685 121.729 196.282 121.46 196.014C121.2 195.745 120.809 195.611 120.288 195.611C119.718 195.611 119.157 195.831 118.604 196.27C118.05 196.709 117.55 197.348 117.102 198.187C116.654 199.025 116.3 200.038 116.04 201.226L114.819 207H111.89ZM130.242 207L128.594 193.487H131.426L132.109 200.909C132.142 201.226 132.17 201.604 132.195 202.044C132.219 202.483 132.24 202.915 132.256 203.338C132.28 203.753 132.292 204.095 132.292 204.363H132.39C132.528 204.03 132.687 203.651 132.866 203.228C133.053 202.797 133.241 202.378 133.428 201.971C133.615 201.556 133.782 201.206 133.928 200.921L137.798 193.487H140.862L133.525 207H130.242ZM141.367 207L144.236 193.487H147.092L144.224 207H141.367ZM146.299 191.46C145.876 191.46 145.522 191.359 145.237 191.155C144.952 190.944 144.81 190.614 144.81 190.167C144.81 189.792 144.879 189.467 145.017 189.19C145.164 188.913 145.371 188.702 145.64 188.555C145.916 188.401 146.246 188.323 146.628 188.323C147.052 188.323 147.397 188.425 147.666 188.628C147.935 188.824 148.069 189.141 148.069 189.581C148.069 190.15 147.91 190.606 147.593 190.948C147.275 191.29 146.844 191.46 146.299 191.46ZM153.811 207.244C153.119 207.244 152.489 207.077 151.919 206.744C151.357 206.402 150.91 205.881 150.576 205.181C150.243 204.473 150.076 203.574 150.076 202.483C150.076 201.539 150.173 200.62 150.369 199.725C150.572 198.829 150.857 197.991 151.223 197.21C151.597 196.429 152.049 195.741 152.578 195.147C153.107 194.545 153.705 194.077 154.373 193.743C155.04 193.401 155.76 193.23 156.533 193.23C157.119 193.23 157.632 193.332 158.071 193.536C158.511 193.731 158.881 193.995 159.182 194.329C159.483 194.663 159.727 195.033 159.915 195.44H160.024L160.757 193.487H162.954L160.085 207H157.9L158.169 204.815H158.071C157.721 205.263 157.331 205.669 156.899 206.036C156.476 206.402 156.008 206.695 155.496 206.915C154.983 207.134 154.421 207.244 153.811 207.244ZM154.861 204.913C155.431 204.913 155.976 204.701 156.497 204.278C157.017 203.847 157.477 203.277 157.876 202.569C158.283 201.861 158.584 201.084 158.779 200.237C158.877 199.83 158.942 199.444 158.975 199.078C159.015 198.711 159.036 198.345 159.036 197.979C159.036 197.271 158.848 196.693 158.474 196.246C158.1 195.798 157.587 195.574 156.936 195.574C156.488 195.574 156.061 195.7 155.654 195.953C155.256 196.205 154.893 196.555 154.568 197.002C154.242 197.442 153.958 197.951 153.713 198.528C153.477 199.106 153.294 199.729 153.164 200.396C153.042 201.055 152.981 201.727 152.981 202.41C152.981 203.232 153.144 203.855 153.469 204.278C153.803 204.701 154.267 204.913 154.861 204.913ZM169.575 207.244C168.875 207.244 168.241 207.077 167.671 206.744C167.109 206.41 166.662 205.893 166.328 205.193C165.994 204.485 165.828 203.578 165.828 202.471C165.828 201.543 165.921 200.636 166.108 199.749C166.304 198.854 166.584 198.016 166.951 197.234C167.317 196.445 167.764 195.753 168.293 195.159C168.822 194.557 169.421 194.089 170.088 193.755C170.763 193.414 171.496 193.243 172.285 193.243C172.871 193.243 173.372 193.344 173.787 193.548C174.202 193.751 174.552 194.02 174.836 194.354C175.121 194.687 175.361 195.049 175.557 195.44H175.667C175.691 195.228 175.719 194.96 175.752 194.634C175.793 194.301 175.841 193.943 175.898 193.56C175.955 193.169 176.025 192.791 176.106 192.425L177.046 188.006H179.89L175.862 207H173.628L173.896 204.815H173.811C173.453 205.271 173.062 205.682 172.639 206.048C172.224 206.414 171.764 206.707 171.26 206.927C170.755 207.138 170.194 207.244 169.575 207.244ZM170.686 204.913C171.069 204.913 171.435 204.815 171.785 204.62C172.143 204.424 172.472 204.156 172.773 203.814C173.083 203.464 173.363 203.065 173.616 202.618C173.868 202.162 174.084 201.678 174.263 201.165C174.442 200.652 174.58 200.132 174.678 199.603C174.775 199.074 174.824 198.561 174.824 198.064C174.824 197.308 174.641 196.705 174.275 196.258C173.917 195.802 173.38 195.574 172.664 195.574C172.2 195.574 171.768 195.704 171.37 195.965C170.971 196.225 170.609 196.579 170.283 197.027C169.958 197.474 169.677 197.991 169.441 198.577C169.213 199.155 169.038 199.773 168.916 200.433C168.794 201.092 168.733 201.751 168.733 202.41C168.733 203.232 168.896 203.855 169.221 204.278C169.555 204.701 170.043 204.913 170.686 204.913ZM185.461 207.244C184.77 207.244 184.139 207.077 183.569 206.744C183.008 206.402 182.56 205.881 182.227 205.181C181.893 204.473 181.726 203.574 181.726 202.483C181.726 201.539 181.824 200.62 182.019 199.725C182.222 198.829 182.507 197.991 182.874 197.21C183.248 196.429 183.7 195.741 184.229 195.147C184.757 194.545 185.356 194.077 186.023 193.743C186.69 193.401 187.41 193.23 188.184 193.23C188.77 193.23 189.282 193.332 189.722 193.536C190.161 193.731 190.531 193.995 190.833 194.329C191.134 194.663 191.378 195.033 191.565 195.44H191.675L192.407 193.487H194.604L191.736 207H189.551L189.819 204.815H189.722C189.372 205.263 188.981 205.669 188.55 206.036C188.127 206.402 187.659 206.695 187.146 206.915C186.633 207.134 186.072 207.244 185.461 207.244ZM186.511 204.913C187.081 204.913 187.626 204.701 188.147 204.278C188.668 203.847 189.128 203.277 189.526 202.569C189.933 201.861 190.234 201.084 190.43 200.237C190.527 199.83 190.592 199.444 190.625 199.078C190.666 198.711 190.686 198.345 190.686 197.979C190.686 197.271 190.499 196.693 190.125 196.246C189.75 195.798 189.237 195.574 188.586 195.574C188.139 195.574 187.712 195.7 187.305 195.953C186.906 196.205 186.544 196.555 186.218 197.002C185.893 197.442 185.608 197.951 185.364 198.528C185.128 199.106 184.945 199.729 184.814 200.396C184.692 201.055 184.631 201.727 184.631 202.41C184.631 203.232 184.794 203.855 185.12 204.278C185.453 204.701 185.917 204.913 186.511 204.913ZM198.149 201.556L200.322 189.153H203.63L200.542 201.556H198.149ZM198.308 207.33C197.763 207.33 197.364 207.187 197.112 206.902C196.868 206.609 196.746 206.251 196.746 205.828C196.746 205.283 196.908 204.786 197.234 204.339C197.559 203.891 198.105 203.667 198.87 203.667C199.325 203.667 199.688 203.802 199.956 204.07C200.233 204.331 200.371 204.701 200.371 205.181C200.371 205.759 200.192 206.264 199.834 206.695C199.476 207.118 198.967 207.33 198.308 207.33Z" fill="white"/>
<g clip-path="url(#clip0_477_1735)">
<path fill-rule="evenodd" clip-rule="evenodd" d="M300 258V508H0V258H300Z" fill="#0080A8"/>
<path d="M122.064 469.409C120.055 468.573 118.126 467.634 117.778 467.322C117.429 467.01 116.255 466.911 115.169 467.101C113.957 467.313 112.358 467.069 111.028 466.47C109.835 465.933 108.19 465.487 107.371 465.479C105.211 465.458 97.6935 463.209 96.159 462.125C95.2708 461.497 94.1578 461.317 92.7137 461.566C87.9081 462.395 75.5333 459.32 73.1578 456.707C72.4552 455.934 70.6051 454.809 69.0467 454.207C67.4883 453.605 65.4482 452.356 64.5132 451.431C63.5781 450.507 62.2806 449.456 61.6296 449.097C60.3396 448.385 56.9991 440.039 56.6575 436.674C56.4629 434.756 56.2853 434.633 50.8512 432.65C45.6517 430.751 35.6214 428.121 26.8136 426.345C24.0053 425.779 20.6648 425.751 12.9296 426.231C2.34134 426.888 0.760254 426.672 0.760254 424.573C0.760254 422.938 3.26698 422.237 10.9607 421.719C19.2029 421.165 25.7505 421.315 29.3783 422.143C30.9367 422.499 33.8693 423.17 35.8952 423.633C37.9212 424.097 40.6775 424.636 42.0205 424.83C45.8258 425.381 58.843 430.206 64.7965 433.272L70.1801 436.044L74.997 435.427C79.3468 434.869 80.1162 434.934 82.9307 436.09C88.8406 438.519 91.9903 441.675 91.9957 445.173C91.9957 445.929 92.1891 446.546 92.4228 446.545C93.1608 446.539 95.7088 443.891 97.417 441.353C100.32 437.041 101.071 436.355 104.11 435.241C108.276 433.714 110.671 434.298 113.175 437.454L115.138 439.927L116.287 438.688C117.89 436.959 121.03 436.47 124.757 437.369C129.104 438.418 131.1 440.606 131.1 444.322C131.1 445.838 130.838 447.823 130.517 448.732C130.197 449.64 130.057 450.517 130.208 450.679C130.358 450.84 131.686 451.216 133.159 451.513C136.644 452.215 138.271 453.415 139.285 456.032C140.021 457.932 140.665 458.456 141.997 458.236C142.224 458.198 144.009 458.574 145.964 459.071C150.835 460.31 151.351 460.248 153.244 458.206C155.464 455.812 155.507 453.162 153.342 452.104C152.485 451.685 150.575 450.678 149.098 449.865C147.458 448.964 144.397 448.093 141.237 447.628C135.925 446.848 134.863 446.146 136.256 444.336C136.841 443.576 137.572 443.454 139.578 443.784C140.993 444.016 143.17 444.273 144.417 444.356C145.664 444.439 147.472 444.95 148.436 445.493C151.957 447.475 156.459 449.071 162.683 450.543C169.634 452.186 173.565 452.433 175.481 451.345C177.2 450.369 177.55 449.642 177.56 447.018C177.567 445.022 177.374 444.693 176.01 444.378C173.295 443.752 167.258 440.885 164.57 438.945C161.038 436.396 159.143 435.547 156.991 435.547C153.785 435.547 148.1 431.594 148.1 429.365C148.1 427.749 149.048 427.424 150.791 428.443C151.649 428.944 154.646 430.443 157.451 431.775C160.256 433.106 164.591 435.167 167.085 436.353C169.578 437.54 173.276 438.963 175.302 439.516C177.328 440.069 180.078 440.914 181.413 441.395C184.562 442.529 188.331 442.511 189.863 441.353C191.138 440.39 193.436 436.756 193.436 435.702C193.436 434.862 188.241 430.61 184.085 428.049C181.123 426.222 175.361 422.314 159.848 411.61C156.962 409.618 156.05 408.66 156.167 407.74C156.385 406.016 158.287 406.378 162.19 408.887C163.947 410.016 168.317 412.727 171.902 414.912C175.486 417.097 179.871 419.815 181.646 420.952C189.326 425.871 194.961 429.198 197.163 430.112C198.464 430.652 200.127 431.545 200.858 432.098C201.59 432.651 202.782 433.103 203.507 433.103C205.283 433.103 208.003 431.526 208.72 430.081C210.311 426.875 208.537 419.658 206.158 419.658C205.479 419.658 204.203 419.039 203.324 418.282C202.444 417.526 200.66 416.082 199.357 415.074C186.73 405.295 173.044 392.783 168.343 386.718C166.7 384.599 166.482 384.513 157.363 382.415C154.51 381.758 151.274 380.815 150.173 380.319C149.072 379.823 147.661 379.561 147.037 379.737C146.413 379.913 144.676 379.64 143.176 379.131C138.69 377.608 137.246 377.549 133.087 378.718C129.524 379.719 123.071 382.101 120.049 383.529C119.426 383.824 117.896 384.492 116.649 385.014C104.84 389.959 103.265 390.31 93.1312 390.253C80.6311 390.183 77.7319 389.548 69.8467 385.155C64.0703 381.936 62.6069 377.054 65.9495 372.152C67.4138 370.005 68.3188 369.399 72.0415 368.073C74.4462 367.217 77.8163 366.2 79.5306 365.814C82.8548 365.065 90.1515 361.374 94.1296 358.429C97.2777 356.099 98.7246 355.641 104.182 355.247C113.759 354.557 136.968 346.875 147.768 340.822C151.277 338.856 155.145 337.074 156.366 336.861C157.586 336.649 158.999 336.235 159.506 335.94C160.013 335.645 161.352 335.217 162.481 334.989C164.715 334.537 164.994 334.048 163.684 332.876C163.217 332.457 162.834 331.196 162.834 330.072C162.834 327.905 161.675 326.764 159.472 326.764C158.679 326.764 158.301 327.159 158.301 327.987C158.301 328.802 157.923 329.209 157.168 329.209C156.502 329.209 156.034 328.802 156.034 328.221C156.034 327.465 155.669 327.316 154.476 327.588C150.163 328.571 141.461 329.862 135.752 330.367C132.233 330.679 129.045 331.2 128.668 331.525C128.291 331.85 125.943 332.625 123.449 333.248C120.583 333.963 117.582 335.249 115.288 336.746C110.608 339.8 99.4456 345.71 98.3579 345.71C97.8962 345.71 95.8238 346.369 93.7523 347.175C91.681 347.981 87.8249 349.083 85.1834 349.624C82.5419 350.165 78.3607 351.287 75.892 352.116C71.5353 353.58 71.1983 353.603 64.4185 352.914C58.896 352.353 55.9798 352.372 50.4896 353.005C46.6704 353.445 40.1029 353.942 35.8952 354.109C21.3566 354.687 1.32694 351.625 1.32694 348.825C1.32694 348.538 1.71352 347.958 2.186 347.535C3.09662 346.72 5.38576 346.835 15.4943 348.202C22.241 349.115 41.8327 349.238 51.1959 348.427C55.7134 348.036 59.7167 348.021 62.2464 348.387C68.4683 349.285 70.2204 349.139 78.6805 347.009C83.0441 345.911 88.2718 344.598 90.2977 344.092C92.3237 343.586 94.8798 342.574 95.9782 341.843C97.0764 341.113 99.6265 339.648 101.645 338.588C108.945 334.754 116.135 330.781 118.636 329.198C121.489 327.393 123.629 326.65 126.566 326.445C139.367 325.549 147.308 324.626 153.239 323.344L160.362 321.805L164.857 324.017C167.329 325.233 171.121 326.759 173.283 327.406C175.446 328.054 177.473 328.862 177.789 329.202C178.604 330.081 180.808 329.957 184.085 328.848C185.708 328.298 190.907 327.637 196.253 327.3C202.693 326.894 207.331 326.246 211.213 325.21C214.307 324.384 217.805 323.709 218.985 323.709C220.838 323.709 226.427 321.768 232.254 319.101C233.189 318.673 235.287 317.901 236.915 317.387C238.544 316.872 244.202 314.783 249.491 312.744C254.779 310.706 262.882 307.947 267.498 306.613C276.129 304.118 284.556 301.054 293.411 297.192C296.191 295.979 298.593 295.125 298.75 295.294C299.266 295.851 296.365 298.691 293.47 300.464C290.081 302.539 282.571 305.676 274.756 308.28C271.64 309.319 266.029 311.19 262.289 312.438C256.106 314.501 249.569 317.041 242.738 320.033C237.881 322.161 232.794 323.839 226.871 325.267C218.479 327.29 211.196 329.156 207.887 330.13C206.328 330.589 201.1 331.257 196.269 331.613C191.438 331.97 186.083 332.694 184.369 333.222C176.954 335.504 174.56 336.164 166.536 338.135C158.283 340.162 155.157 341.472 148.1 345.858C145.084 347.733 132.403 353.26 125.963 355.506C120.375 357.455 108.704 359.766 104.4 359.775C102.098 359.78 99.8323 360.068 99.3648 360.414C98.6903 360.913 98.8012 361.006 99.9017 360.863C101.045 360.714 101.432 361.087 102.108 362.988C102.993 365.474 102.705 366.48 101.434 365.343C100.998 364.953 100.244 364.798 99.7583 365C99.1557 365.249 98.5843 364.76 97.9612 363.46L97.0476 361.555L95.5007 362.743C94.6498 363.396 91.5373 365.229 88.5839 366.817C85.6305 368.404 83.1327 369.778 83.0332 369.869C82.9336 369.961 83.1445 370.544 83.5016 371.165C84.5235 372.942 83.3553 375.237 80.3294 377.399C78.1239 378.974 77.0637 379.324 74.4749 379.332C72.7361 379.337 70.9671 379.578 70.5438 379.867C69.497 380.582 73.7289 382.187 77.8305 382.629C79.5447 382.814 82.8599 383.515 85.1975 384.185C88.2625 385.065 91.2851 385.409 96.0365 385.419C102.449 385.433 102.843 385.354 110.771 382.449C115.25 380.807 119.677 379.139 120.607 378.742C121.538 378.346 123.833 377.639 125.708 377.172C127.582 376.706 130.901 375.63 133.083 374.783C138.067 372.847 139.254 372.847 145.233 374.776C147.901 375.636 150.849 376.584 151.784 376.882C152.719 377.179 157.564 378.311 162.55 379.396C171.355 381.313 171.786 381.349 177.549 380.655C182.445 380.065 183.618 380.084 184.25 380.766C185.358 381.961 183.77 383.494 180.916 383.986C179.684 384.198 178.56 384.575 178.418 384.824C178.163 385.269 186.042 389.101 187.214 389.101C188.023 389.101 190.914 392.024 190.522 392.447C190.352 392.63 188.962 392.257 187.433 391.618C183.438 389.95 175.176 387.199 174.937 387.457C174.472 387.959 188.432 400.789 193.004 404.063L197.956 407.609L201.221 406.061C203.017 405.21 205.506 404.175 206.753 403.76C217.65 400.135 231.813 386.825 231.944 380.087C231.963 379.1 232.312 378.711 233.178 378.711C234.267 378.711 234.356 378.967 234.091 381.309C233.929 382.737 233.598 384.432 233.355 385.074C232.973 386.084 233.098 386.186 234.284 385.83C235.038 385.604 238.715 384.995 242.455 384.477C246.195 383.958 252.06 382.878 255.489 382.077C258.917 381.275 263.252 380.337 265.123 379.993C279.252 377.393 285.8 376.099 287.507 375.57C290.353 374.688 298.956 374.576 299.229 375.417C299.555 376.423 295.599 377.35 266.823 383.01C265.576 383.255 260.654 384.313 255.885 385.361C251.116 386.41 246.67 387.267 246.004 387.267C244.47 387.267 237.541 389.101 236.788 389.706C236.476 389.956 234.819 390.642 233.104 391.23C231.083 391.924 229.092 393.215 227.437 394.906C226.035 396.34 223.619 398.539 222.07 399.792C219.241 402.079 210.383 406.824 208.941 406.824C207.93 406.824 207.965 408.027 209.044 410.359C209.525 411.398 210.146 413.762 210.425 415.611C210.705 417.461 211.321 419.612 211.795 420.393C212.27 421.174 212.935 423.206 213.273 424.908C213.791 427.51 213.727 428.474 212.871 430.953C210.964 436.479 204.416 439.652 200.236 437.075C198.098 435.757 197.802 435.922 196.269 439.29C193.579 445.2 189.887 447.561 184.108 447.065C181.804 446.868 181.535 446.979 181.535 448.133C181.535 452.542 177.875 456.298 173.094 456.793C170.783 457.033 163.511 455.898 159.859 454.728C159.09 454.481 158.868 454.774 158.868 456.034C158.868 458.034 156.405 461.834 153.92 463.671C152.174 464.961 151.859 464.998 148.525 464.303C146.577 463.897 144.14 463.036 143.109 462.39C142.079 461.744 140.903 461.215 140.497 461.215C140.09 461.215 138.717 462.952 137.444 465.074C134.837 469.422 133.493 470.304 128.915 470.671C126.453 470.869 124.875 470.578 122.064 469.409V469.409ZM130.322 466.328C132.627 465.28 132.574 465.167 129.237 464.027C128.68 463.837 127.788 462.853 127.254 461.841C126.05 459.559 125.678 459.542 124.635 461.718C124.18 462.667 123.379 463.827 122.855 464.296C121.991 465.069 122.106 465.246 124.092 466.192C126.895 467.528 127.649 467.544 130.322 466.328V466.328ZM119.505 461.2C121.083 460.148 122.038 458.679 123.769 454.638C126.237 448.877 126.202 448.992 125.499 448.992C125.223 448.992 124.871 449.515 124.717 450.154C124.562 450.793 123.956 451.592 123.372 451.929C121.885 452.787 118.081 451.288 116.752 449.32C116.176 448.468 115.505 447.77 115.26 447.77C114.719 447.77 109.565 455.964 109.565 456.825C109.565 457.856 106.155 460.604 104.875 460.604C102.634 460.604 104.682 461.722 107.483 462.027C108.987 462.191 110.389 462.517 110.6 462.751C111.372 463.611 117.484 462.547 119.505 461.2V461.2ZM132.954 460.424C133.729 459.15 133.704 458.872 132.689 457.369C131.367 455.411 130.214 455.239 129.802 456.937C129.639 457.609 129.2 458.159 128.825 458.159C128.451 458.159 128.292 457.747 128.471 457.243C128.651 456.738 128.55 456.326 128.248 456.326C127.38 456.326 127.603 457.54 128.879 459.768C130.253 462.164 131.751 462.406 132.954 460.424V460.424ZM92.456 457.554C94.5416 457.222 98.1842 456.855 100.551 456.739C105.531 456.495 107.818 455.199 107.847 452.603C107.862 451.292 107.494 450.899 105.706 450.322C104.519 449.938 102.967 448.958 102.258 448.144C101.176 446.902 101.073 446.451 101.62 445.349C102.945 442.68 101.782 442.73 100.068 445.417C97.841 448.908 96.0101 450.215 93.3463 450.215C91.9946 450.215 90.6049 450.749 89.4175 451.726C87.3671 453.412 83.67 454.483 79.5493 454.583C75.2194 454.688 75.0507 455.432 79.042 456.821C83.1015 458.233 86.8985 458.441 92.456 457.554V457.554ZM77.8305 449.368C77.8305 449.238 77.4496 448.344 76.984 447.382C76.5184 446.419 76.1358 445.297 76.1339 444.889C76.1272 443.498 78.503 442.746 82.1186 442.994C86.1426 443.27 86.2677 442.838 82.6613 441.117C80.5107 440.091 79.618 440.005 76.1019 440.481C73.8633 440.784 71.8117 440.885 71.5427 440.706C71.2737 440.527 70.5442 440.674 69.9215 441.033C69.0122 441.558 68.5534 441.432 67.5908 440.394C66.4405 439.153 61.5807 436.978 61.1052 437.491C60.9788 437.627 61.6798 439.606 62.663 441.888C64.2828 445.648 64.7462 446.202 67.5987 447.791C70.0472 449.155 71.534 449.551 74.2887 449.574C76.2367 449.59 77.8305 449.497 77.8305 449.368V449.368ZM85.5272 448.992C86.4251 448.992 86.6257 447.428 85.7986 446.876C85.5058 446.681 84.2408 446.698 82.9874 446.914L80.7085 447.307L81.9613 448.437C82.6503 449.059 83.5537 449.438 83.9688 449.28C84.3839 449.122 85.0852 448.992 85.5272 448.992V448.992ZM124.196 447.577C125.093 445.957 125.091 445.81 124.157 445.065C122.989 444.133 120.454 444.494 119.075 445.788C117.336 447.421 119.489 449.678 122.496 449.374C122.907 449.332 123.672 448.523 124.196 447.577H124.196ZM107.962 446.759C109.155 445.595 109.3 444.062 108.319 443.003C107.168 441.762 105.733 442.183 104.441 444.139C103.245 445.951 103.239 446.036 104.261 446.87C105.662 448.014 106.708 447.983 107.962 446.759ZM126.789 442.877C126.485 442.549 124.972 442.15 123.426 441.989C121.881 441.828 121.126 441.84 121.749 442.015C122.373 442.19 123.393 442.574 124.016 442.868C126.593 444.084 127.912 444.088 126.789 442.877V442.877ZM120.332 441.899C120.332 441.767 119.95 441.659 119.482 441.659C119.015 441.659 118.632 441.925 118.632 442.251C118.632 442.576 119.015 442.684 119.482 442.491C119.95 442.297 120.332 442.031 120.332 441.899ZM110.699 441.397C110.699 441.253 110.298 440.703 109.808 440.174C108.501 438.764 107.511 439.002 108.715 440.436C109.647 441.546 110.699 442.056 110.699 441.397V441.397ZM206.761 413.166C206.289 411.949 205.903 410.405 205.903 409.737C205.903 408.665 205.652 408.571 203.778 408.942C202.609 409.174 201.445 409.58 201.192 409.844C200.735 410.319 206.153 415.38 207.118 415.38C207.393 415.38 207.232 414.384 206.761 413.166V413.166ZM78.6041 373.778C80.5196 372.153 80.6631 369.877 78.8222 370.319C68.2605 372.853 65.5319 375.044 72.9372 375.044C76.3016 375.044 77.4005 374.799 78.6041 373.778V373.778ZM172.76 332.482C173.474 332.187 173.029 331.733 170.964 330.655C169.454 329.866 167.899 329.218 167.51 329.215C166.21 329.204 166.78 330.435 168.643 331.66C170.625 332.963 171.281 333.094 172.76 332.482V332.482Z" fill="white" stroke="white" stroke-width="1.22228"/>
</g>
<defs>
<clipPath id="clip0_477_1735">
<rect width="300" height="250" fill="white" transform="translate(0 258)"/>
</clipPath>
</defs>
</svg>
