<svg width="300" height="250" viewBox="0 0 300 250" fill="none" xmlns="http://www.w3.org/2000/svg">
<g clip-path="url(#clip0_244_658)">
<path fill-rule="evenodd" clip-rule="evenodd" d="M300 0V250H0V0H300Z" fill="#0080A8"/>
<path d="M122.064 211.409C120.055 210.573 118.126 209.634 117.778 209.322C117.429 209.01 116.255 208.911 115.169 209.101C113.957 209.313 112.358 209.069 111.028 208.47C109.835 207.933 108.19 207.487 107.371 207.479C105.211 207.458 97.6935 205.209 96.159 204.125C95.2708 203.497 94.1578 203.317 92.7137 203.566C87.9081 204.395 75.5333 201.32 73.1578 198.707C72.4552 197.934 70.6051 196.809 69.0467 196.207C67.4883 195.605 65.4482 194.356 64.5132 193.431C63.5781 192.507 62.2806 191.456 61.6296 191.097C60.3396 190.385 56.9991 182.039 56.6575 178.674C56.4629 176.756 56.2853 176.633 50.8512 174.65C45.6517 172.751 35.6214 170.121 26.8136 168.345C24.0053 167.779 20.6648 167.751 12.9296 168.231C2.34134 168.888 0.760254 168.672 0.760254 166.573C0.760254 164.938 3.26698 164.237 10.9607 163.719C19.2029 163.165 25.7505 163.315 29.3783 164.143C30.9367 164.499 33.8693 165.17 35.8952 165.633C37.9212 166.097 40.6775 166.636 42.0205 166.83C45.8258 167.381 58.843 172.206 64.7965 175.272L70.1801 178.044L74.997 177.427C79.3468 176.869 80.1162 176.934 82.9307 178.09C88.8406 180.519 91.9903 183.675 91.9957 187.173C91.9957 187.929 92.1891 188.546 92.4228 188.545C93.1608 188.539 95.7088 185.891 97.417 183.353C100.32 179.041 101.071 178.355 104.11 177.241C108.276 175.714 110.671 176.298 113.175 179.454L115.138 181.927L116.287 180.688C117.89 178.959 121.03 178.47 124.757 179.369C129.104 180.418 131.1 182.606 131.1 186.322C131.1 187.838 130.838 189.823 130.517 190.732C130.197 191.64 130.057 192.517 130.208 192.679C130.358 192.84 131.686 193.216 133.159 193.513C136.644 194.215 138.271 195.415 139.285 198.032C140.021 199.932 140.665 200.456 141.997 200.236C142.224 200.198 144.009 200.574 145.964 201.071C150.835 202.31 151.351 202.248 153.244 200.206C155.464 197.812 155.507 195.162 153.342 194.104C152.485 193.685 150.575 192.678 149.098 191.865C147.458 190.964 144.397 190.093 141.237 189.628C135.925 188.848 134.863 188.146 136.256 186.336C136.841 185.576 137.572 185.454 139.578 185.784C140.993 186.016 143.17 186.273 144.417 186.356C145.664 186.439 147.472 186.95 148.436 187.493C151.957 189.475 156.459 191.071 162.683 192.543C169.634 194.186 173.565 194.433 175.481 193.345C177.2 192.369 177.55 191.642 177.56 189.018C177.567 187.022 177.374 186.693 176.01 186.378C173.295 185.752 167.258 182.885 164.57 180.945C161.038 178.396 159.143 177.547 156.991 177.547C153.785 177.547 148.1 173.594 148.1 171.365C148.1 169.749 149.048 169.424 150.791 170.443C151.649 170.944 154.646 172.443 157.451 173.775C160.256 175.106 164.591 177.167 167.085 178.353C169.578 179.54 173.276 180.963 175.302 181.516C177.328 182.069 180.078 182.914 181.413 183.395C184.562 184.529 188.331 184.511 189.863 183.353C191.138 182.39 193.436 178.756 193.436 177.702C193.436 176.862 188.241 172.61 184.085 170.049C181.123 168.222 175.361 164.314 159.848 153.61C156.962 151.618 156.05 150.66 156.167 149.74C156.385 148.016 158.287 148.378 162.19 150.887C163.947 152.016 168.317 154.727 171.902 156.912C175.486 159.097 179.871 161.815 181.646 162.952C189.326 167.871 194.961 171.198 197.163 172.112C198.464 172.652 200.127 173.545 200.858 174.098C201.59 174.651 202.782 175.103 203.507 175.103C205.283 175.103 208.003 173.526 208.72 172.081C210.311 168.875 208.537 161.658 206.158 161.658C205.479 161.658 204.203 161.039 203.324 160.282C202.444 159.526 200.66 158.082 199.357 157.074C186.73 147.295 173.044 134.783 168.343 128.718C166.7 126.599 166.482 126.513 157.363 124.415C154.51 123.758 151.274 122.815 150.173 122.319C149.072 121.823 147.661 121.561 147.037 121.737C146.413 121.913 144.676 121.64 143.176 121.131C138.69 119.608 137.246 119.549 133.087 120.718C129.524 121.719 123.071 124.101 120.049 125.529C119.426 125.824 117.896 126.492 116.649 127.014C104.84 131.959 103.265 132.31 93.1312 132.253C80.6311 132.183 77.7319 131.548 69.8467 127.155C64.0703 123.936 62.6069 119.054 65.9495 114.152C67.4138 112.005 68.3188 111.399 72.0415 110.073C74.4462 109.217 77.8163 108.2 79.5306 107.814C82.8548 107.065 90.1515 103.374 94.1296 100.429C97.2777 98.0991 98.7246 97.6411 104.182 97.2474C113.759 96.5565 136.968 88.8755 147.768 82.8223C151.277 80.8559 155.145 79.0735 156.366 78.8615C157.586 78.6494 158.999 78.2347 159.506 77.94C160.013 77.6452 161.352 77.2171 162.481 76.9886C164.715 76.5366 164.994 76.0478 163.684 74.8759C163.217 74.4574 162.834 73.1959 162.834 72.0724C162.834 69.9052 161.675 68.7645 159.472 68.7645C158.679 68.7645 158.301 69.1589 158.301 69.9867C158.301 70.8016 157.923 71.209 157.168 71.209C156.502 71.209 156.034 70.8016 156.034 70.2211C156.034 69.4647 155.669 69.3163 154.476 69.5881C150.163 70.5707 141.461 71.8623 135.752 72.3675C132.233 72.6788 129.045 73.1997 128.668 73.5249C128.291 73.8502 125.943 74.6254 123.449 75.2476C120.583 75.9628 117.582 77.2495 115.288 78.7463C110.608 81.7996 99.4456 87.7098 98.3579 87.7098C97.8962 87.7098 95.8238 88.3691 93.7523 89.1749C91.681 89.9807 87.8249 91.0828 85.1834 91.6242C82.5419 92.1655 78.3607 93.287 75.892 94.1164C71.5353 95.58 71.1983 95.6035 64.4185 94.9144C58.896 94.3531 55.9798 94.3721 50.4896 95.0048C46.6704 95.445 40.1029 95.9421 35.8952 96.1094C21.3566 96.6874 1.32694 93.6254 1.32694 90.8246C1.32694 90.5383 1.71352 89.958 2.186 89.5351C3.09662 88.7201 5.38576 88.8349 15.4943 90.2024C22.241 91.1151 41.8327 91.2385 51.1959 90.4272C55.7134 90.0358 59.7167 90.021 62.2464 90.3865C68.4683 91.2854 70.2204 91.1386 78.6805 89.0094C83.0441 87.9112 88.2718 86.5983 90.2977 86.092C92.3237 85.5857 94.8798 84.5737 95.9782 83.8432C97.0764 83.1127 99.6265 81.6477 101.645 80.5876C108.945 76.754 116.135 72.7808 118.636 71.1983C121.489 69.3934 123.629 68.6503 126.566 68.4447C139.367 67.5486 147.308 66.6255 153.239 65.3439L160.362 63.805L164.857 66.0168C167.329 67.2334 171.121 68.7586 173.283 69.4063C175.446 70.0539 177.473 70.862 177.789 71.202C178.604 72.0813 180.808 71.9573 184.085 70.8476C185.708 70.2983 190.907 69.6369 196.253 69.2999C202.693 68.8938 207.331 68.2459 211.213 67.21C214.307 66.3843 217.805 65.7087 218.985 65.7087C220.838 65.7087 226.427 63.7681 232.254 61.1009C233.189 60.673 235.287 59.9015 236.915 59.3865C238.544 58.8715 244.202 56.7826 249.491 54.7444C254.779 52.7062 262.882 49.947 267.498 48.6129C276.129 46.1181 284.556 43.0541 293.411 39.1917C296.191 37.9792 298.593 37.1253 298.75 37.2941C299.266 37.851 296.365 40.6914 293.47 42.4641C290.081 44.5389 282.571 47.6759 274.756 50.2804C271.64 51.3192 266.029 53.1903 262.289 54.4383C256.106 56.5014 249.569 59.0409 242.738 62.033C237.881 64.1609 232.794 65.8389 226.871 67.267C218.479 69.2903 211.196 71.1561 207.887 72.1304C206.328 72.5892 201.1 73.2565 196.269 73.6135C191.438 73.9704 186.083 74.6941 184.369 75.2217C176.954 77.504 174.56 78.1636 166.536 80.1348C158.283 82.1624 155.157 83.4723 148.1 87.8585C145.084 89.7335 132.403 95.2596 125.963 97.5058C120.375 99.4548 108.704 101.766 104.4 101.775C102.098 101.78 99.8323 102.068 99.3648 102.414C98.6903 102.913 98.8012 103.006 99.9017 102.863C101.045 102.714 101.432 103.087 102.108 104.988C102.993 107.474 102.705 108.48 101.434 107.343C100.998 106.953 100.244 106.798 99.7583 107C99.1557 107.249 98.5843 106.76 97.9612 105.46L97.0476 103.555L95.5007 104.743C94.6498 105.396 91.5373 107.229 88.5839 108.817C85.6305 110.404 83.1327 111.778 83.0332 111.869C82.9336 111.961 83.1445 112.544 83.5016 113.165C84.5235 114.942 83.3553 117.237 80.3294 119.399C78.1239 120.974 77.0637 121.324 74.4749 121.332C72.7361 121.337 70.9671 121.578 70.5438 121.867C69.497 122.582 73.7289 124.187 77.8305 124.629C79.5447 124.814 82.8599 125.515 85.1975 126.185C88.2625 127.065 91.2851 127.409 96.0365 127.419C102.449 127.433 102.843 127.354 110.771 124.449C115.25 122.807 119.677 121.139 120.607 120.742C121.538 120.346 123.833 119.639 125.708 119.172C127.582 118.706 130.901 117.63 133.083 116.783C138.067 114.847 139.254 114.847 145.233 116.776C147.901 117.636 150.849 118.584 151.784 118.882C152.719 119.179 157.564 120.311 162.55 121.396C171.355 123.313 171.786 123.349 177.549 122.655C182.445 122.065 183.618 122.084 184.25 122.766C185.358 123.961 183.77 125.494 180.916 125.986C179.684 126.198 178.56 126.575 178.418 126.824C178.163 127.269 186.042 131.101 187.214 131.101C188.023 131.101 190.914 134.024 190.522 134.447C190.352 134.63 188.962 134.257 187.433 133.618C183.438 131.95 175.176 129.199 174.937 129.457C174.472 129.959 188.432 142.789 193.004 146.063L197.956 149.609L201.221 148.061C203.017 147.21 205.506 146.175 206.753 145.76C217.65 142.135 231.813 128.825 231.944 122.087C231.963 121.1 232.312 120.711 233.178 120.711C234.267 120.711 234.356 120.967 234.091 123.309C233.929 124.737 233.598 126.432 233.355 127.074C232.973 128.084 233.098 128.186 234.284 127.83C235.038 127.604 238.715 126.995 242.455 126.477C246.195 125.958 252.06 124.878 255.489 124.077C258.917 123.275 263.252 122.337 265.123 121.993C279.252 119.393 285.8 118.099 287.507 117.57C290.353 116.688 298.956 116.576 299.229 117.417C299.555 118.423 295.599 119.35 266.823 125.01C265.576 125.255 260.654 126.313 255.885 127.361C251.116 128.41 246.67 129.267 246.004 129.267C244.47 129.267 237.541 131.101 236.788 131.706C236.476 131.956 234.819 132.642 233.104 133.23C231.083 133.924 229.092 135.215 227.437 136.906C226.035 138.34 223.619 140.539 222.07 141.792C219.241 144.079 210.383 148.824 208.941 148.824C207.93 148.824 207.965 150.027 209.044 152.359C209.525 153.398 210.146 155.762 210.425 157.611C210.705 159.461 211.321 161.612 211.795 162.393C212.27 163.174 212.935 165.206 213.273 166.908C213.791 169.51 213.727 170.474 212.871 172.953C210.964 178.479 204.416 181.652 200.236 179.075C198.098 177.757 197.802 177.922 196.269 181.29C193.579 187.2 189.887 189.561 184.108 189.065C181.804 188.868 181.535 188.979 181.535 190.133C181.535 194.542 177.875 198.298 173.094 198.793C170.783 199.033 163.511 197.898 159.859 196.728C159.09 196.481 158.868 196.774 158.868 198.034C158.868 200.034 156.405 203.834 153.92 205.671C152.174 206.961 151.859 206.998 148.525 206.303C146.577 205.897 144.14 205.036 143.109 204.39C142.079 203.744 140.903 203.215 140.497 203.215C140.09 203.215 138.717 204.952 137.444 207.074C134.837 211.422 133.493 212.304 128.915 212.671C126.453 212.869 124.875 212.578 122.064 211.409V211.409ZM130.322 208.328C132.627 207.28 132.574 207.167 129.237 206.027C128.68 205.837 127.788 204.853 127.254 203.841C126.05 201.559 125.678 201.542 124.635 203.718C124.18 204.667 123.379 205.827 122.855 206.296C121.991 207.069 122.106 207.246 124.092 208.192C126.895 209.528 127.649 209.544 130.322 208.328V208.328ZM119.505 203.2C121.083 202.148 122.038 200.679 123.769 196.638C126.237 190.877 126.202 190.992 125.499 190.992C125.223 190.992 124.871 191.515 124.717 192.154C124.562 192.793 123.956 193.592 123.372 193.929C121.885 194.787 118.081 193.288 116.752 191.32C116.176 190.468 115.505 189.77 115.26 189.77C114.719 189.77 109.565 197.964 109.565 198.825C109.565 199.856 106.155 202.604 104.875 202.604C102.634 202.604 104.682 203.722 107.483 204.027C108.987 204.191 110.389 204.517 110.6 204.751C111.372 205.611 117.484 204.547 119.505 203.2V203.2ZM132.954 202.424C133.729 201.15 133.704 200.872 132.689 199.369C131.367 197.411 130.214 197.239 129.802 198.937C129.639 199.609 129.2 200.159 128.825 200.159C128.451 200.159 128.292 199.747 128.471 199.243C128.651 198.738 128.55 198.326 128.248 198.326C127.38 198.326 127.603 199.54 128.879 201.768C130.253 204.164 131.751 204.406 132.954 202.424V202.424ZM92.456 199.554C94.5416 199.222 98.1842 198.855 100.551 198.739C105.531 198.495 107.818 197.199 107.847 194.603C107.862 193.292 107.494 192.899 105.706 192.322C104.519 191.938 102.967 190.958 102.258 190.144C101.176 188.902 101.073 188.451 101.62 187.349C102.945 184.68 101.782 184.73 100.068 187.417C97.841 190.908 96.0101 192.215 93.3463 192.215C91.9946 192.215 90.6049 192.749 89.4175 193.726C87.3671 195.412 83.67 196.483 79.5493 196.583C75.2194 196.688 75.0507 197.432 79.042 198.821C83.1015 200.233 86.8985 200.441 92.456 199.554V199.554ZM77.8305 191.368C77.8305 191.238 77.4496 190.344 76.984 189.382C76.5184 188.419 76.1358 187.297 76.1339 186.889C76.1272 185.498 78.503 184.746 82.1186 184.994C86.1426 185.27 86.2677 184.838 82.6613 183.117C80.5107 182.091 79.618 182.005 76.1019 182.481C73.8633 182.784 71.8117 182.885 71.5427 182.706C71.2737 182.527 70.5442 182.674 69.9215 183.033C69.0122 183.558 68.5534 183.432 67.5908 182.394C66.4405 181.153 61.5807 178.978 61.1052 179.491C60.9788 179.627 61.6798 181.606 62.663 183.888C64.2828 187.648 64.7462 188.202 67.5987 189.791C70.0472 191.155 71.534 191.551 74.2887 191.574C76.2367 191.59 77.8305 191.497 77.8305 191.368V191.368ZM85.5272 190.992C86.4251 190.992 86.6257 189.428 85.7986 188.876C85.5058 188.681 84.2408 188.698 82.9874 188.914L80.7085 189.307L81.9613 190.437C82.6503 191.059 83.5537 191.438 83.9688 191.28C84.3839 191.122 85.0852 190.992 85.5272 190.992V190.992ZM124.196 189.577C125.093 187.957 125.091 187.81 124.157 187.065C122.989 186.133 120.454 186.494 119.075 187.788C117.336 189.421 119.489 191.678 122.496 191.374C122.907 191.332 123.672 190.523 124.196 189.577H124.196ZM107.962 188.759C109.155 187.595 109.3 186.062 108.319 185.003C107.168 183.762 105.733 184.183 104.441 186.139C103.245 187.951 103.239 188.036 104.261 188.87C105.662 190.014 106.708 189.983 107.962 188.759ZM126.789 184.877C126.485 184.549 124.972 184.15 123.426 183.989C121.881 183.828 121.126 183.84 121.749 184.015C122.373 184.19 123.393 184.574 124.016 184.868C126.593 186.084 127.912 186.088 126.789 184.877V184.877ZM120.332 183.899C120.332 183.767 119.95 183.659 119.482 183.659C119.015 183.659 118.632 183.925 118.632 184.251C118.632 184.576 119.015 184.684 119.482 184.491C119.95 184.297 120.332 184.031 120.332 183.899ZM110.699 183.397C110.699 183.253 110.298 182.703 109.808 182.174C108.501 180.764 107.511 181.002 108.715 182.436C109.647 183.546 110.699 184.056 110.699 183.397V183.397ZM206.761 155.166C206.289 153.949 205.903 152.405 205.903 151.737C205.903 150.665 205.652 150.571 203.778 150.942C202.609 151.174 201.445 151.58 201.192 151.844C200.735 152.319 206.153 157.38 207.118 157.38C207.393 157.38 207.232 156.384 206.761 155.166V155.166ZM78.6041 115.778C80.5196 114.153 80.6631 111.877 78.8222 112.319C68.2605 114.853 65.5319 117.044 72.9372 117.044C76.3016 117.044 77.4005 116.799 78.6041 115.778V115.778ZM172.76 74.4824C173.474 74.1866 173.029 73.7327 170.964 72.6546C169.454 71.8657 167.899 71.2177 167.51 71.2147C166.21 71.2044 166.78 72.4355 168.643 73.6603C170.625 74.9633 171.281 75.0944 172.76 74.4824V74.4824Z" fill="white" stroke="white" stroke-width="1.22228"/>
</g>
<defs>
<clipPath id="clip0_244_658">
<rect width="300" height="250" fill="white"/>
</clipPath>
</defs>
</svg>
