<?xml version="1.0" encoding="utf-8"?>
<!-- Generator: Adobe Illustrator 16.0.3, SVG Export Plug-In . SVG Version: 6.00 Build 0)  -->
<!DOCTYPE svg PUBLIC "-//W3C//DTD SVG 1.1//EN" "http://www.w3.org/Graphics/SVG/1.1/DTD/svg11.dtd">
<svg version="1.1" id="Capa_1" xmlns="http://www.w3.org/2000/svg" xmlns:xlink="http://www.w3.org/1999/xlink" x="0px" y="0px"
	 width="328.689px" height="332.596px" viewBox="0 0 328.689 332.596" enable-background="new 0 0 328.689 332.596"
	 xml:space="preserve">
<path fill-rule="evenodd" clip-rule="evenodd" d="M179.568,212.281c0-4.348-0.113-8.699,0.036-13.04
	c0.113-3.311-1.22-4.894-4.563-4.712c-6.813,0.369-13.627,0.766-20.445,1.079c-3.604,0.166-4.946,2.084-4.953,5.529
	c-0.013,9.194-0.148,18.386-0.256,27.58c-0.026,2.11-0.047,4.226-0.213,6.33c-0.778,9.897-3.016,12.417-12.82,13.417
	c-6.039,0.618-12.145,0.891-18.214,0.813c-9.81-0.127-14.619-3.846-15.383-13.524c-0.858-10.828-0.32-21.77-0.344-32.663
	c-0.022-9.315,0.094-18.634-0.094-27.945c-0.02-0.928-1.658-2.489-2.685-2.614c-5.042-0.605-10.13-0.878-15.208-1.172
	c-4.086-0.234-5.511-2.499-3.225-5.875c2.213-3.271,4.646-6.48,7.438-9.267c21.188-21.147,42.453-42.215,63.792-63.215
	c2.899-2.854,6.235-5.305,9.546-7.7c4-2.892,5.643-2.704,9.354,0.986c6.509,6.47,12.868,13.095,19.357,19.582
	c17.448,17.456,34.936,34.874,52.404,52.311c1.14,1.14,2.304,2.271,3.335,3.509c4.038,4.837,2.218,9.981-4.064,10.8
	c-3.527,0.459-7.189,0.22-10.759-0.077c-2.998-0.249-3.969,0.674-3.796,3.719c1.116,19.462,2.2,38.927,3.009,58.401
	c0.138,3.353-0.778,6.852-1.765,10.113c-0.778,2.558-2.978,3.71-5.872,3.539c-8.029-0.468-16.063-0.785-24.1-1.14
	c-2.604-0.114-5.227-0.02-7.818-0.271c-6.238-0.608-9.072-3.338-9.734-9.621c-0.871-8.267-1.529-16.556-2.276-24.834
	C179.359,212.306,179.463,212.294,179.568,212.281z M100.206,161.477c0.704,0.131,2.341,0.483,3.997,0.744
	c7.516,1.18,8.986,2.59,9.543,10.287c1.542,21.299,3.008,42.605,4.379,63.918c0.187,2.896,1.294,3.95,4.107,3.885
	c4.594-0.106,9.2-0.157,13.789,0.081c3.596,0.184,4.498-1.504,4.417-4.708c-0.334-13.031-0.557-26.06-0.808-39.09
	c-0.169-8.674,1.349-10.417,9.995-12.139c11.965-2.382,23.753,0.11,35.581,1.221c3.04,0.285,4.569,2.513,5.343,5.457
	c3.462,13.119,3.742,26.473,3.089,39.89c-0.176,3.642,1.071,5.583,4.74,5.524c3.336-0.052,6.672-0.585,9.988-1.036
	c7.972-1.078,8.86-2.032,8.812-10.239c-0.116-18.621-0.324-37.244-0.527-55.862c-0.055-5.344,2.007-7.387,7.461-7.307
	c1.404,0.02,2.813-0.139,5.098-0.262c-1.723-2.096-2.787-3.57-4.032-4.873c-18.939-19.848-37.92-39.652-56.824-59.532
	c-1.998-2.103-3.292-1.755-5.176,0.118c-14.33,14.267-28.833,28.364-43.096,42.7C113.196,147.175,106.714,154.5,100.206,161.477z"/>
</svg>
