<svg width="28" height="20" viewBox="0 0 28 20" fill="none" xmlns="http://www.w3.org/2000/svg">
<path d="M14.517 3.06529V2.86059H14.7531C15.0389 2.86059 15.2706 2.65979 15.2706 2.4122C15.2706 2.16461 15.0389 1.9638 14.7531 1.9638H14.517V1.75919C14.517 1.5116 14.2853 1.31079 13.9996 1.31079C13.7138 1.31079 13.4821 1.5116 13.4821 1.75919V1.9638H13.246C12.9602 1.9638 12.7285 2.16461 12.7285 2.4122C12.7285 2.65979 12.9602 2.86059 13.246 2.86059H13.4821V3.06521C13.4821 3.3128 13.7138 3.51361 13.9996 3.51361C14.2853 3.51361 14.517 3.31288 14.517 3.06529Z" fill="#5A4BB2"/>
<path d="M4.73718 12.7759C5.0229 12.7759 5.25463 12.5751 5.25463 12.3275V11.6837C5.25463 11.4362 5.0229 11.2354 4.73718 11.2354C4.45146 11.2354 4.21973 11.4362 4.21973 11.6837V12.3275C4.21973 12.5751 4.45146 12.7759 4.73718 12.7759Z" fill="#5A4BB2"/>
<path d="M6.79187 12.7759C7.07759 12.7759 7.30932 12.5751 7.30932 12.3275V11.6837C7.30932 11.4362 7.07759 11.2354 6.79187 11.2354C6.50615 11.2354 6.27441 11.4362 6.27441 11.6837V12.3275C6.27441 12.5751 6.50606 12.7759 6.79187 12.7759Z" fill="#5A4BB2"/>
<path d="M4.73718 14.9911C5.0229 14.9911 5.25463 14.7903 5.25463 14.5427V13.899C5.25463 13.6514 5.0229 13.4506 4.73718 13.4506C4.45146 13.4506 4.21973 13.6514 4.21973 13.899V14.5427C4.21973 14.7903 4.45146 14.9911 4.73718 14.9911Z" fill="#5A4BB2"/>
<path d="M6.79187 14.9911C7.07759 14.9911 7.30932 14.7903 7.30932 14.5427V13.899C7.30932 13.6514 7.07759 13.4506 6.79187 13.4506C6.50615 13.4506 6.27441 13.6514 6.27441 13.899V14.5427C6.27441 14.7903 6.50606 14.9911 6.79187 14.9911Z" fill="#5A4BB2"/>
<path d="M4.73718 17.2063C5.0229 17.2063 5.25463 17.0055 5.25463 16.7579V16.1142C5.25463 15.8666 5.0229 15.6658 4.73718 15.6658C4.45146 15.6658 4.21973 15.8666 4.21973 16.1142V16.7579C4.21973 17.0056 4.45146 17.2063 4.73718 17.2063Z" fill="#5A4BB2"/>
<path d="M6.79187 17.2063C7.07759 17.2063 7.30932 17.0055 7.30932 16.7579V16.1142C7.30932 15.8666 7.07759 15.6658 6.79187 15.6658C6.50615 15.6658 6.27441 15.8666 6.27441 16.1142V16.7579C6.27441 17.0056 6.50606 17.2063 6.79187 17.2063Z" fill="#5A4BB2"/>
<path d="M21.2079 12.7759C21.4936 12.7759 21.7253 12.5751 21.7253 12.3275V11.6837C21.7253 11.4362 21.4936 11.2354 21.2079 11.2354C20.9222 11.2354 20.6904 11.4362 20.6904 11.6837V12.3275C20.6904 12.5751 20.9222 12.7759 21.2079 12.7759Z" fill="#5A4BB2"/>
<path d="M23.2635 12.7759C23.5493 12.7759 23.781 12.5751 23.781 12.3275V11.6837C23.781 11.4362 23.5493 11.2354 23.2635 11.2354C22.9778 11.2354 22.7461 11.4362 22.7461 11.6837V12.3275C22.7461 12.5751 22.9777 12.7759 23.2635 12.7759Z" fill="#5A4BB2"/>
<path d="M21.2079 14.9911C21.4936 14.9911 21.7253 14.7903 21.7253 14.5427V13.899C21.7253 13.6514 21.4936 13.4506 21.2079 13.4506C20.9222 13.4506 20.6904 13.6514 20.6904 13.899V14.5427C20.6904 14.7903 20.9222 14.9911 21.2079 14.9911Z" fill="#5A4BB2"/>
<path d="M23.2635 14.9911C23.5493 14.9911 23.781 14.7903 23.781 14.5427V13.899C23.781 13.6514 23.5493 13.4506 23.2635 13.4506C22.9778 13.4506 22.7461 13.6514 22.7461 13.899V14.5427C22.7461 14.7903 22.9777 14.9911 23.2635 14.9911Z" fill="#5A4BB2"/>
<path d="M21.2079 17.2063C21.4936 17.2063 21.7253 17.0055 21.7253 16.7579V16.1142C21.7253 15.8666 21.4936 15.6658 21.2079 15.6658C20.9222 15.6658 20.6904 15.8666 20.6904 16.1142V16.7579C20.6904 17.0056 20.9222 17.2063 21.2079 17.2063Z" fill="#5A4BB2"/>
<path d="M23.2635 17.2063C23.5493 17.2063 23.781 17.0055 23.781 16.7579V16.1142C23.781 15.8666 23.5493 15.6658 23.2635 15.6658C22.9778 15.6658 22.7461 15.8666 22.7461 16.1142V16.7579C22.7461 17.0056 22.9777 17.2063 23.2635 17.2063Z" fill="#5A4BB2"/>
<path d="M12.4551 9.46841V10.1122C12.4551 10.3598 12.6868 10.5606 12.9725 10.5606C13.2583 10.5606 13.49 10.3598 13.49 10.1122V9.46841C13.49 9.22083 13.2583 9.02002 12.9725 9.02002C12.6868 9.02002 12.4551 9.22083 12.4551 9.46841Z" fill="#5A4BB2"/>
<path d="M14.5098 9.46841V10.1122C14.5098 10.3598 14.7415 10.5606 15.0272 10.5606C15.3129 10.5606 15.5447 10.3598 15.5447 10.1122V9.46841C15.5447 9.22083 15.3129 9.02002 15.0272 9.02002C14.7415 9.02002 14.5098 9.22083 14.5098 9.46841Z" fill="#5A4BB2"/>
<path d="M12.9725 11.2354C12.6868 11.2354 12.4551 11.4362 12.4551 11.6837V12.3275C12.4551 12.5751 12.6868 12.7759 12.9725 12.7759C13.2583 12.7759 13.49 12.5751 13.49 12.3275V11.6837C13.49 11.4361 13.2583 11.2354 12.9725 11.2354Z" fill="#5A4BB2"/>
<path d="M15.0272 11.2354C14.7415 11.2354 14.5098 11.4362 14.5098 11.6837V12.3275C14.5098 12.5751 14.7415 12.7759 15.0272 12.7759C15.3129 12.7759 15.5447 12.5751 15.5447 12.3275V11.6837C15.5447 11.4361 15.3129 11.2354 15.0272 11.2354Z" fill="#5A4BB2"/>
<path d="M12.9725 13.4506C12.6868 13.4506 12.4551 13.6514 12.4551 13.899V14.5427C12.4551 14.7903 12.6868 14.9911 12.9725 14.9911C13.2583 14.9911 13.49 14.7903 13.49 14.5427V13.899C13.49 13.6513 13.2583 13.4506 12.9725 13.4506Z" fill="#5A4BB2"/>
<path d="M15.0272 13.4506C14.7415 13.4506 14.5098 13.6514 14.5098 13.899V14.5427C14.5098 14.7903 14.7415 14.9911 15.0272 14.9911C15.3129 14.9911 15.5447 14.7903 15.5447 14.5427V13.899C15.5447 13.6513 15.3129 13.4506 15.0272 13.4506Z" fill="#5A4BB2"/>
<path d="M27.4825 19.1032H26.3949V9.58408C26.3949 9.33641 26.1632 9.13568 25.8775 9.13568H19.1506V5.92644C19.1506 5.67885 18.9189 5.47804 18.6331 5.47804H14.5174V4.82436H16.2661C16.5519 4.82436 16.7836 4.62355 16.7836 4.37596V0.448395C16.7836 0.200806 16.5519 0 16.2661 0H11.7337C11.448 0 11.2162 0.200806 11.2162 0.448395V4.37596C11.2162 4.62355 11.448 4.82436 11.7337 4.82436H13.4824V5.47804H9.36668C9.08096 5.47804 8.84923 5.67885 8.84923 5.92644V9.13568H2.12233C1.83661 9.13568 1.60488 9.33641 1.60488 9.58408V19.1032H0.517453C0.231733 19.1032 0 19.304 0 19.5516C0 19.7992 0.231733 20 0.517453 20H27.4825C27.7683 20 28 19.7992 28 19.5516C28 19.304 27.7683 19.1032 27.4825 19.1032ZM18.1157 6.37484V19.1032H17.2484V17.1322C17.2484 16.8846 17.0167 16.6838 16.731 16.6838H11.269C10.9833 16.6838 10.7516 16.8846 10.7516 17.1322V19.1033H9.88431V6.37484H18.1157ZM16.2135 19.1032H11.7865V17.5806H16.2135V19.1032ZM25.36 19.1032H19.1506V10.0325H25.36V19.1032ZM8.8494 19.1032H2.63996V10.0325H8.8494V19.1032ZM12.2512 0.89679H15.7488V3.92757H12.2512V0.89679Z" fill="#5A4BB2"/>
</svg>
