<svg width="24" height="26" viewBox="0 0 24 26"  xmlns="http://www.w3.org/2000/svg">
<path clip-rule="evenodd" d="M14.1689 19.9258C14.1689 19.2709 14.1528 18.6156 14.174 17.9617C14.1901 17.463 14.0002 17.2246 13.524 17.252C12.5534 17.3076 11.5826 17.3674 10.6113 17.4145C10.0979 17.4395 9.90667 17.7284 9.90567 18.2473C9.90382 19.6321 9.88458 21.0166 9.8692 22.4013C9.86549 22.7191 9.8625 23.0378 9.83885 23.3547C9.72801 24.8454 9.40918 25.225 8.01246 25.3756C7.15212 25.4687 6.28224 25.5098 5.41762 25.498C4.02005 25.4789 3.33494 24.9188 3.2261 23.4611C3.10387 21.8302 3.18051 20.1821 3.17709 18.5415C3.17396 17.1384 3.19048 15.7348 3.1637 14.3324C3.16085 14.1927 2.9275 13.9575 2.78119 13.9387C2.06288 13.8476 1.33803 13.8065 0.614594 13.7622C0.0324858 13.7269 -0.170526 13.3858 0.155146 12.8773C0.470419 12.3846 0.817035 11.9013 1.21479 11.4815C4.23332 8.29642 7.26282 5.1232 10.3029 1.96023C10.7159 1.53036 11.1911 1.1612 11.6628 0.80047C12.2327 0.364884 12.4667 0.3932 12.9954 0.94898C13.9227 1.92348 14.8287 2.92132 15.7531 3.89838C18.2388 6.52757 20.7302 9.15103 23.2188 11.7774C23.3812 11.9491 23.547 12.1194 23.6939 12.3059C24.2692 13.0344 24.0099 13.8092 23.1149 13.9325C22.6125 14.0017 22.0908 13.9657 21.5822 13.9209C21.1551 13.8834 21.0167 14.0225 21.0414 14.4811C21.2004 17.4124 21.3548 20.3442 21.47 23.2773C21.4897 23.7824 21.3592 24.3094 21.2186 24.8005C21.1078 25.1858 20.7943 25.3593 20.382 25.3336C19.2382 25.2631 18.0936 25.2153 16.9487 25.1619C16.5777 25.1447 16.204 25.1588 15.8349 25.121C14.9462 25.0295 14.5424 24.6183 14.4481 23.6719C14.324 22.4268 14.2303 21.1783 14.1239 19.9315C14.1391 19.9295 14.1539 19.9277 14.1689 19.9258ZM2.86268 12.2738C2.96297 12.2935 3.19618 12.3465 3.4321 12.3858C4.50286 12.5636 4.71229 12.7759 4.79164 13.9353C5.01132 17.1433 5.22017 20.3523 5.41549 23.5624C5.44213 23.9986 5.59984 24.1574 6.00059 24.1476C6.65507 24.1316 7.31125 24.124 7.96502 24.1598C8.47732 24.1875 8.60583 23.9333 8.59429 23.4507C8.5467 21.488 8.51493 19.5256 8.47918 17.563C8.4551 16.2566 8.67136 15.9941 9.9031 15.7347C11.6077 15.3759 13.287 15.7513 14.9721 15.9186C15.4052 15.9615 15.623 16.2971 15.7333 16.7405C16.2265 18.7165 16.2664 20.7278 16.1734 22.7487C16.1483 23.2972 16.326 23.5896 16.8487 23.5807C17.3239 23.5728 17.7992 23.4926 18.2716 23.4246C19.4073 23.2623 19.5338 23.1186 19.527 21.8825C19.5104 19.0778 19.4808 16.2728 19.4519 13.4686C19.4441 12.6637 19.7378 12.356 20.5148 12.3681C20.7148 12.3711 20.9156 12.3471 21.2411 12.3286C20.9956 12.0129 20.8441 11.7909 20.6667 11.5947C17.9686 8.60519 15.2645 5.62235 12.5713 2.62807C12.2867 2.31132 12.1023 2.36373 11.8339 2.64584C9.79241 4.79471 7.72625 6.91797 5.69429 9.07722C4.71328 10.1197 3.78983 11.2229 2.86268 12.2738Z"/>
</svg>
