<svg xmlns="http://www.w3.org/2000/svg" xmlns:xlink="http://www.w3.org/1999/xlink" width="1080" zoomAndPan="magnify" viewBox="0 0 810 809.999993" height="1080" preserveAspectRatio="xMidYMid meet" version="1.0"><defs><clipPath id="id1"><path d="M 68.066406 87 L 594 87 L 594 745 L 68.066406 745 Z M 68.066406 87 " clip-rule="nonzero"/></clipPath><clipPath id="id2"><path d="M 265 21.4375 L 397 21.4375 L 397 153 L 265 153 Z M 265 21.4375 " clip-rule="nonzero"/></clipPath><clipPath id="id3"><path d="M 349 440 L 741.566406 440 L 741.566406 809.6875 L 349 809.6875 Z M 349 440 " clip-rule="nonzero"/></clipPath></defs><g clip-path="url(#id1)"><path fill="#455a64" d="M 133.777344 87.011719 L 298.042969 87.011719 C 298.042969 105.175781 312.746094 119.886719 330.898438 119.886719 C 349.050781 119.886719 363.75 105.175781 363.75 87.011719 L 528.019531 87.011719 C 564.335938 87.011719 593.726562 116.417969 593.726562 152.761719 L 593.726562 678.761719 C 593.726562 715.105469 564.335938 744.511719 528.019531 744.511719 L 133.777344 744.511719 C 97.457031 744.511719 68.070312 715.105469 68.070312 678.761719 L 68.070312 152.761719 C 68.070312 116.417969 97.457031 87.011719 133.777344 87.011719 " fill-opacity="1" fill-rule="nonzero"/></g><path fill="#ffffff" d="M 133.777344 695.199219 L 528.019531 695.199219 C 537.070312 695.199219 544.445312 687.820312 544.445312 678.761719 L 544.445312 152.761719 C 544.445312 143.703125 537.070312 136.324219 528.019531 136.324219 L 133.777344 136.324219 C 124.726562 136.324219 117.351562 143.703125 117.351562 152.761719 L 117.351562 678.761719 C 117.351562 687.820312 124.726562 695.199219 133.777344 695.199219 " fill-opacity="1" fill-rule="nonzero"/><path fill="#90a4ae" d="M 298.042969 87.011719 C 298.042969 105.175781 312.746094 119.886719 330.898438 119.886719 C 349.050781 119.886719 363.75 105.175781 363.75 87.011719 L 478.738281 87.011719 L 478.738281 152.761719 C 478.738281 170.925781 464.035156 185.636719 445.886719 185.636719 L 215.910156 185.636719 C 197.761719 185.636719 183.058594 170.925781 183.058594 152.761719 L 183.058594 87.011719 Z M 298.042969 87.011719 " fill-opacity="1" fill-rule="nonzero"/><g clip-path="url(#id2)"><path fill="#90a4ae" d="M 330.898438 21.261719 C 294.644531 21.261719 265.191406 50.734375 265.191406 87.011719 C 265.191406 123.289062 294.644531 152.761719 330.898438 152.761719 C 367.152344 152.761719 396.605469 123.289062 396.605469 87.011719 C 396.605469 50.734375 367.152344 21.261719 330.898438 21.261719 M 330.898438 119.886719 C 312.746094 119.886719 298.042969 105.175781 298.042969 87.011719 C 298.042969 68.847656 312.746094 54.136719 330.898438 54.136719 C 349.050781 54.136719 363.75 68.847656 363.75 87.011719 C 363.75 105.175781 349.050781 119.886719 330.898438 119.886719 " fill-opacity="1" fill-rule="nonzero"/></g><path fill="#bdbdbd" d="M 330.898438 399.324219 L 478.738281 399.324219 L 478.738281 432.199219 L 330.898438 432.199219 Z M 330.898438 399.324219 " fill-opacity="1" fill-rule="nonzero"/><path fill="#bdbdbd" d="M 330.898438 465.074219 L 478.738281 465.074219 L 478.738281 497.949219 L 330.898438 497.949219 Z M 330.898438 465.074219 " fill-opacity="1" fill-rule="nonzero"/><path fill="#bdbdbd" d="M 330.898438 333.574219 L 478.738281 333.574219 L 478.738281 366.449219 L 330.898438 366.449219 Z M 330.898438 333.574219 " fill-opacity="1" fill-rule="nonzero"/><path fill="#bdbdbd" d="M 330.898438 267.824219 L 478.738281 267.824219 L 478.738281 300.699219 L 330.898438 300.699219 Z M 330.898438 267.824219 " fill-opacity="1" fill-rule="nonzero"/><path fill="#bdbdbd" d="M 330.898438 596.574219 L 478.738281 596.574219 L 478.738281 629.449219 L 330.898438 629.449219 Z M 330.898438 596.574219 " fill-opacity="1" fill-rule="nonzero"/><g clip-path="url(#id3)"><path fill="#ffb74d" d="M 741.566406 629.449219 L 741.566406 810.261719 L 643.003906 810.261719 L 546.398438 744.511719 L 597.371094 664.050781 L 471.394531 614.046875 L 512.28125 510.917969 L 393.367188 563.878906 C 385.304688 567.742188 376.136719 567.644531 368.351562 564.554688 C 361.535156 561.675781 355.851562 556.402344 352.351562 549.183594 C 345.207031 533.78125 351.578125 515.457031 367.035156 508.15625 L 514.679688 442.917969 C 522.777344 439.414062 531.910156 439.152344 540.140625 442.421875 L 654.042969 487.644531 C 662.4375 490.980469 670.832031 494.316406 675.25 499.246094 Z M 741.566406 629.449219 " fill-opacity="1" fill-rule="nonzero"/></g><path fill="#e69329" d="M 570.203125 557.75 L 570.167969 557.683594 L 487.347656 600.257812 L 540.4375 628.332031 L 615.539062 618.207031 L 610.757812 563.402344 L 594.5625 545.109375 L 592.066406 546.339844 L 581.125 552.046875 L 580.664062 552.292969 Z M 570.203125 557.75 " fill-opacity="1" fill-rule="nonzero"/><path fill="#e57373" d="M 736.753906 487.59375 L 710.765625 427.433594 C 706.824219 418.261719 696.179688 414.035156 687.027344 418.011719 L 658.710938 430.242188 L 654.058594 487.644531 L 699.019531 523.609375 L 727.324219 511.363281 C 736.488281 507.382812 740.695312 496.765625 736.753906 487.59375 " fill-opacity="1" fill-rule="nonzero"/><path fill="#b0bec5" d="M 699.054688 523.609375 L 652.402344 543.792969 L 611.417969 506.070312 L 612.058594 450.410156 L 658.710938 430.226562 Z M 699.054688 523.609375 " fill-opacity="1" fill-rule="nonzero"/><path fill="#00acc1" d="M 349.460938 563.796875 L 612.089844 450.28125 L 652.402344 543.660156 L 389.769531 657.179688 L 355.503906 616.660156 Z M 349.460938 563.796875 " fill-opacity="1" fill-rule="nonzero"/><path fill="#ffc107" d="M 349.445312 563.894531 L 320.796875 603.675781 L 312.84375 635.105469 L 341.164062 650.867188 L 389.738281 657.277344 Z M 349.445312 563.894531 " fill-opacity="1" fill-rule="nonzero"/><path fill="#ffb74d" d="M 393.84375 580.121094 C 380.261719 596.753906 386.453125 618.371094 400.433594 631.242188 L 508.816406 714.777344 C 515.796875 721.253906 548.46875 755.246094 581.585938 755.425781 C 618.546875 755.640625 656.507812 740.269531 656.507812 740.269531 L 617.132812 614.246094 L 542.03125 624.371094 L 452.882812 577.226562 C 428.308594 562.464844 407.972656 563.386719 393.84375 580.121094 " fill-opacity="1" fill-rule="nonzero"/><path fill="#ffe0b2" d="M 405.3125 615.855469 C 396.738281 607.011719 396.949219 592.910156 405.789062 584.3125 C 414.625 575.746094 428.753906 575.945312 437.308594 584.804688 C 445.886719 593.632812 413.886719 624.699219 405.3125 615.855469 " fill-opacity="1" fill-rule="nonzero"/><path fill="#37474f" d="M 320.78125 603.660156 L 291.507812 644.308594 L 341.148438 650.867188 Z M 320.78125 603.660156 " fill-opacity="1" fill-rule="nonzero"/><path fill="#66bb6a" d="M 223.304688 358.789062 L 178.835938 314.292969 L 202.0625 291.050781 L 223.304688 312.304688 L 265.898438 269.664062 L 289.125 292.90625 Z M 223.304688 358.789062 " fill-opacity="1" fill-rule="nonzero"/><path fill="#e53935" d="M 182.605469 474.5 L 257.535156 399.515625 L 280.765625 422.761719 L 205.835938 497.746094 Z M 182.605469 474.5 " fill-opacity="1" fill-rule="nonzero"/><path fill="#e53935" d="M 182.617188 422.765625 L 205.847656 399.519531 L 280.78125 474.496094 L 257.550781 497.742188 Z M 182.617188 422.765625 " fill-opacity="1" fill-rule="nonzero"/></svg>