<svg width="1881" height="1351" viewBox="0 0 1881 1351" fill="none" xmlns="http://www.w3.org/2000/svg">
<path fill-rule="evenodd" clip-rule="evenodd" d="M1879.24 1350.66H1.56047C0.699092 1350.66 0 1349.96 0 1349.1C0 1348.24 0.699092 1347.54 1.56047 1347.54H1879.24C1880.1 1347.54 1880.8 1348.24 1880.8 1349.1C1880.8 1349.96 1880.1 1350.66 1879.24 1350.66Z" fill="black"/>
<path fill-rule="evenodd" clip-rule="evenodd" d="M1039.48 119.235L1039.57 88.0252H841.938C841.051 88.0252 840.165 88.1002 839.288 88.25L536.681 140.342L321.992 41.9102C319.392 48.5578 317.916 55.7672 317.916 63.3355L317.884 74.3586L647.955 225.693L317.31 277.741L317.22 309.347L349.412 304.279L630.394 672.238L477.006 584.414L476.934 584.374L316.705 492.634L316.605 528.534L450.615 605.266L403.301 753.398H315.971L315.881 784.607H414.699C421.487 784.607 427.495 780.219 429.561 773.75L478.313 621.123L681.924 737.706C681.98 737.737 682.042 737.762 682.095 737.793C682.386 737.956 682.682 738.093 682.979 738.237C683.15 738.318 683.313 738.414 683.484 738.486L907.63 835.388L871.443 933.405L683.949 840.975C676.702 837.408 667.923 839.951 663.722 846.855L622.535 914.476L471.282 980.721L315.587 890.485L315.484 926.501L462.475 1011.69C464.887 1013.09 467.587 1013.79 470.299 1013.79C472.427 1013.79 474.559 1013.36 476.559 1012.48L594.241 960.941L538.907 1051.8C538.903 1051.8 538.903 1051.8 538.903 1051.8C538.866 1051.87 538.838 1051.94 538.8 1052C538.354 1052.76 537.989 1053.56 537.68 1054.38C537.636 1054.49 537.571 1054.58 537.53 1054.69C537.49 1054.81 537.483 1054.92 537.449 1055.03C537.162 1055.89 536.931 1056.77 536.8 1057.67C536.794 1057.72 536.784 1057.76 536.778 1057.81C536.681 1058.5 536.631 1059.21 536.631 1059.91V1203.8H567.841V1082.01L911.148 1203.8H1004.49L575.553 1051.63L682.954 875.28L860.576 962.845L839.098 1021.02C836.872 1027.04 838.57 1033.82 843.373 1038.09C846.295 1040.68 849.996 1042.03 853.738 1042.03C856.157 1042.03 858.585 1041.46 860.832 1040.32L1037.14 950.317L1037.24 915.225L882.204 994.366L942.026 832.333C944.898 824.559 941.19 815.895 933.581 812.605L716.988 718.971L978.925 457.826H1038.52L1038.61 426.616H972.474C968.345 426.616 964.382 428.255 961.457 431.17L691.271 700.539L384.467 298.761L703.905 248.479C710.702 247.409 715.998 242.013 716.935 235.193C717.874 228.377 714.238 221.748 707.981 218.88L586.9 163.368L843.27 119.235H1039.48Z" fill="#EEF2F8"/>
<path fill-rule="evenodd" clip-rule="evenodd" d="M677.329 560.876C641.573 560.876 612.591 531.892 612.591 496.139C612.591 460.385 641.573 431.401 677.329 431.401C713.083 431.401 742.067 460.385 742.067 496.139C742.067 531.892 713.083 560.876 677.329 560.876ZM677.329 364.616C606.044 364.616 548.25 422.406 548.25 493.695C548.25 520.675 556.539 545.715 570.699 566.428C571.176 567.443 571.738 568.448 572.381 569.431L664.071 709.099C670.335 718.643 684.323 718.643 690.59 709.099L786.25 563.376C786.877 562.421 787.386 561.441 787.823 560.449C799.617 540.971 806.408 518.126 806.408 493.695C806.408 422.406 748.618 364.616 677.329 364.616Z" fill="#FF5613"/>
<path fill-rule="evenodd" clip-rule="evenodd" d="M614.149 496.138C614.149 461.302 642.491 432.961 677.327 432.961C712.163 432.961 740.504 461.302 740.504 496.138C740.504 530.974 712.163 559.316 677.327 559.316C642.491 559.316 614.149 530.974 614.149 496.138ZM743.625 496.138C743.625 459.583 713.885 429.84 677.327 429.84C640.768 429.84 611.029 459.583 611.029 496.138C611.029 532.694 640.768 562.437 677.327 562.437C713.885 562.437 743.625 532.694 743.625 496.138ZM677.327 748.529C584.132 748.529 521.526 731.842 521.526 716.256C521.526 702.483 570.462 687.871 646.155 684.653L662.764 709.954C665.995 714.876 671.438 717.816 677.324 717.816H677.327C683.216 717.816 688.659 714.879 691.892 709.954L708.492 684.662C784.182 687.88 833.127 702.486 833.127 716.256C833.127 731.842 770.521 748.529 677.327 748.529ZM573.683 568.576C573.09 567.667 572.56 566.722 571.986 565.548C557.476 544.323 549.808 519.48 549.808 493.695C549.808 423.38 607.012 366.176 677.327 366.176C747.642 366.176 804.848 423.38 804.848 493.695C804.848 516.996 798.497 539.801 786.394 559.818C785.948 560.829 785.474 561.713 784.946 562.521L689.283 708.241C686.63 712.283 682.161 714.695 677.327 714.695C672.492 714.695 668.026 712.283 665.374 708.241L573.683 568.576ZM836.248 716.256C836.248 697.246 776.723 684.815 710.462 681.666L787.559 564.231C788.18 563.279 788.732 562.25 789.156 561.257C801.465 540.93 807.969 517.567 807.969 493.695C807.969 421.66 749.361 363.055 677.327 363.055C605.292 363.055 546.687 421.66 546.687 493.695C546.687 520.11 554.543 545.565 569.286 567.093C569.798 568.179 570.397 569.256 571.074 570.289L644.192 681.663C577.934 684.809 518.405 697.246 518.405 716.256C518.405 738.411 599.21 751.65 677.327 751.65C755.444 751.65 836.248 738.411 836.248 716.256ZM793.52 669.451C792.68 669.267 791.847 669.803 791.663 670.649C791.482 671.492 792.018 672.319 792.861 672.5C819.526 678.236 854.974 689.007 854.974 716.256C854.974 743.508 819.526 754.278 792.861 760.011C792.018 760.192 791.482 761.022 791.663 761.865C791.822 762.598 792.468 763.098 793.186 763.098C793.295 763.098 793.407 763.088 793.52 763.064C821.237 757.102 858.095 745.767 858.095 716.256C858.095 686.75 821.237 675.412 793.52 669.451ZM561.796 760.011C535.13 754.278 499.68 743.508 499.68 716.256C499.68 689.007 535.13 678.236 561.796 672.5C562.635 672.319 563.172 671.492 562.991 670.649C562.81 669.803 561.989 669.267 561.137 669.451C533.417 675.412 496.559 686.75 496.559 716.256C496.559 745.767 533.417 757.102 561.137 763.064C561.249 763.088 561.359 763.098 561.468 763.098C562.189 763.098 562.835 762.598 562.991 761.865C563.172 761.022 562.635 760.192 561.796 760.011Z" fill="black"/>
<path fill-rule="evenodd" clip-rule="evenodd" d="M980.333 1344.83H368.859C338.416 1344.83 313.738 1320.15 313.738 1289.71V1200.92H1035.46V1289.71C1035.46 1320.15 1010.78 1344.83 980.333 1344.83Z" fill="black"/>
<path fill-rule="evenodd" clip-rule="evenodd" d="M674.599 1228.65C652.466 1228.65 634.461 1246.66 634.461 1268.79C634.461 1290.93 652.466 1308.93 674.599 1308.93C696.733 1308.93 714.741 1290.93 714.741 1268.79C714.741 1246.66 696.733 1228.65 674.599 1228.65ZM674.599 1312.05C650.746 1312.05 631.34 1292.65 631.34 1268.79C631.34 1244.94 650.746 1225.53 674.599 1225.53C698.456 1225.53 717.862 1244.94 717.862 1268.79C717.862 1292.65 698.456 1312.05 674.599 1312.05Z" fill="white"/>
<path fill-rule="evenodd" clip-rule="evenodd" d="M376.09 3.12094C344.471 3.12094 318.748 28.8438 318.748 60.4621L315.297 1285.93C315.297 1317.55 341.02 1343.27 372.638 1343.27H976.556C1008.17 1343.27 1033.9 1317.55 1033.9 1285.93L1037.35 60.4589C1037.35 28.8438 1011.63 3.12094 980.008 3.12094H376.09ZM976.556 1346.39H372.638C339.3 1346.39 312.176 1319.27 312.176 1285.93L315.628 60.4589C315.628 27.1241 342.752 0 376.09 0H980.008C1013.35 0 1040.47 27.1241 1040.47 60.4621L1037.02 1285.93C1037.02 1319.27 1009.89 1346.39 976.556 1346.39Z" fill="black"/>
</svg>
