<?xml version="1.0" encoding="utf-8"?>
<!-- Generator: Adobe Illustrator 16.0.3, SVG Export Plug-In . SVG Version: 6.00 Build 0)  -->
<!DOCTYPE svg PUBLIC "-//W3C//DTD SVG 1.1//EN" "http://www.w3.org/Graphics/SVG/1.1/DTD/svg11.dtd">
<svg version="1.1" id="Capa_1" xmlns="http://www.w3.org/2000/svg" xmlns:xlink="http://www.w3.org/1999/xlink" x="0px" y="0px"
	 width="328.689px" height="332.596px" viewBox="0 0 328.689 332.596" enable-background="new 0 0 328.689 332.596"
	 xml:space="preserve">
<g>
	<path fill="#1D1D1B" d="M210.809,107.247c-8.774-14.691-28.04-24.56-47.947-24.56c-16.837,0-31.111,6.896-40.19,19.417
		c-12.257,16.899-17.632,35.198-15.972,54.389c3.675,42.528,25.872,75.57,49.374,110.551c2.448,3.644,4.904,7.302,7.351,10.987
		l3.301,4.973l9.287-19.498c4.74-9.955,9.194-19.298,13.62-28.65c2.684-5.663,5.517-11.395,8.252-16.94
		c6.418-12.996,13.058-26.438,18.383-40.202C225.826,153.023,223.988,129.315,210.809,107.247z M203.118,177.139
		c-4.438,12.512-10.28,24.856-15.932,36.793c-1.185,2.499-2.365,5-3.537,7.499c-4.456,9.51-9.125,18.799-14.066,28.634
		c-1.347,2.681-2.706,5.386-4.074,8.123c-0.587-0.919-1.174-1.833-1.759-2.744c-3.643-5.689-7.088-11.064-10.434-16.625
		c-17.761-29.519-28.083-59.54-31.56-91.773c-3.491-32.439,18.789-47.825,40.809-51.406c1.689-0.276,3.439-0.416,5.198-0.416
		c16.521,0,33.217,12.253,38.013,27.895C210.925,139.905,210.058,157.574,203.118,177.139z"/>
	<path fill="#1D1D1B" d="M166.476,106.541l-0.425-0.004c-13.019,0-26.677,9.586-29.824,20.93
		c-4.299,15.485-0.023,25.084,14.755,33.131c4.592,2.5,9.255,3.769,13.863,3.769c6.435,0,12.274-2.523,16.887-7.294l1.72-1.757
		c7.111-7.239,15.96-16.25,10.948-30.318C190.6,114.336,179.116,106.748,166.476,106.541z M148.945,136.41
		c-0.175-10.683,6.456-17.717,16.885-17.917l0.32-0.003c8.616,0,16.004,6.739,16.131,14.715c0.064,3.959-1.341,7.524-4.063,10.311
		c-3.083,3.159-7.515,4.921-12.646,4.959C156.665,148.475,149.052,142.949,148.945,136.41z"/>
</g>
</svg>
