<svg width="32" height="33" viewBox="0 0 32 33" fill="none" xmlns="http://www.w3.org/2000/svg">
<g clip-path="url(#clip0_601_3691)" filter="url(#filter0_d_601_3691)">
<path fill-rule="evenodd" clip-rule="evenodd" d="M4.25712 9.3725C4.17521 6.93644 4.08967 4.50062 4.01387 2.06408C4.00037 1.6382 3.97778 1.20292 4.0545 0.787782C4.10681 0.503699 4.26037 0.13139 4.49077 0.016561C4.65289 -0.0637338 5.08799 0.16385 5.28685 0.357265C6.38926 1.4299 7.41224 2.57745 8.54853 3.61616C9.61396 4.59019 10.7818 5.46587 11.9142 6.37425C12.2279 6.62575 12.5509 6.56376 12.8165 6.28395C13.6198 5.43524 14.4098 4.57506 15.2186 3.73087C16.1933 2.71413 17.169 1.69763 18.168 0.701508C18.7538 0.117479 19.2687 0.0768436 20.009 0.400463C21.7717 1.17205 23.5397 1.93424 25.3176 2.67483C26.3328 3.09766 26.5887 3.48779 26.6634 4.54102C26.9319 8.31963 27.2326 12.0963 27.5297 15.8727C27.6773 17.7524 27.8489 19.6308 27.9951 21.5103C28.0153 21.7722 27.9693 22.0425 27.9241 22.3045C27.7579 23.2655 27.0767 23.639 26.1632 23.1625C24.9761 22.5435 23.8688 21.7896 22.6928 21.15C21.6847 20.6011 20.6424 20.1039 19.5888 19.6373C18.9947 19.3735 18.3681 19.4831 17.8973 19.9128C16.57 21.1248 15.2722 22.3654 13.9675 23.5992C13.6219 23.9267 13.3233 24.3033 12.9496 24.5976C12.2806 25.1237 11.8544 25.1401 11.1803 24.6105C10.0344 23.7122 8.92535 22.7712 7.80762 21.841C6.84409 21.04 5.89692 20.2213 4.92781 19.4262C4.32773 18.9336 4.06787 18.3312 4.09214 17.588C4.18235 14.8504 4.25829 12.1124 4.33954 9.37457C4.31203 9.37359 4.28477 9.37286 4.25712 9.3725ZM26.074 21.0235C26.1457 20.9885 26.2173 20.9535 26.289 20.9187C26.289 19.7339 26.3674 18.5437 26.2749 17.3654C25.9477 13.2004 25.5552 9.03997 25.2073 4.87623C25.1601 4.31063 24.8962 3.96321 24.3639 3.72892C23.0306 3.14147 21.7074 2.5334 20.3806 1.93326C19.7887 1.66566 19.6408 1.75596 19.6664 2.36683C19.8026 5.65282 19.9315 8.93917 20.0762 12.2249C20.1517 13.9298 20.2496 15.6341 20.3489 17.3374C20.3681 17.6695 20.3962 17.9819 20.805 18.1789C21.9425 18.7271 23.0619 19.311 24.1732 19.9061C24.8219 20.2535 25.4413 20.6496 26.074 21.0235ZM18.107 3.00028C17.9391 3.14977 17.8375 3.22335 17.7578 3.3139C16.7112 4.50563 15.6859 5.7142 14.6158 6.88702C14.1036 7.44859 13.5831 8.06252 12.7492 8.20859C11.9216 8.35368 11.8916 8.31963 11.9391 9.13649C12.1683 13.0619 12.4104 16.9868 12.651 20.9115C12.6799 21.3806 12.7303 21.8487 12.784 22.4719C13.1058 22.22 13.3131 22.0793 13.4936 21.9128C14.8701 20.6462 16.2583 19.3909 17.5997 18.0927C17.8454 17.8548 17.9751 17.4448 18.0142 17.1002C18.0622 16.6841 17.9142 16.2517 17.9237 15.8277C18.0136 11.7018 18.1202 7.57599 18.216 3.45032C18.2187 3.32769 18.158 3.20358 18.107 3.00028ZM10.9652 22.1556C11.0258 22.1279 11.0863 22.1001 11.1468 22.0729C11.1554 21.9056 11.1826 21.737 11.1706 21.5717C10.8423 17.0826 10.4538 12.5969 10.6598 8.08875C10.6746 7.76745 10.4809 7.35414 10.2361 7.12058C9.1246 6.06003 7.95066 5.05805 6.81969 4.01556C6.42678 3.65326 6.09201 3.23519 5.63108 2.73377C5.61213 3.04128 5.59175 3.17759 5.5972 3.31268C5.78412 7.91547 5.97662 12.518 6.15886 17.1207C6.17885 17.6298 6.35694 18.0407 6.75479 18.3946C7.83994 19.3596 8.90471 20.3448 9.98234 21.3175C10.3017 21.6056 10.6375 21.8765 10.9652 22.1556Z" fill="white"/>
</g>
<defs>
<filter id="filter0_d_601_3691" x="0" y="0" width="32" height="33" filterUnits="userSpaceOnUse" color-interpolation-filters="sRGB">
<feFlood flood-opacity="0" result="BackgroundImageFix"/>
<feColorMatrix in="SourceAlpha" type="matrix" values="0 0 0 0 0 0 0 0 0 0 0 0 0 0 0 0 0 0 127 0" result="hardAlpha"/>
<feOffset dy="4"/>
<feGaussianBlur stdDeviation="2"/>
<feComposite in2="hardAlpha" operator="out"/>
<feColorMatrix type="matrix" values="0 0 0 0 0 0 0 0 0 0 0 0 0 0 0 0 0 0 0.25 0"/>
<feBlend mode="normal" in2="BackgroundImageFix" result="effect1_dropShadow_601_3691"/>
<feBlend mode="normal" in="SourceGraphic" in2="effect1_dropShadow_601_3691" result="shape"/>
</filter>
<clipPath id="clip0_601_3691">
<rect width="24" height="25" fill="white" transform="translate(4)"/>
</clipPath>
</defs>
</svg>
