<svg width="24" height="26" viewBox="0 0 24 26"   xmlns="http://www.w3.org/2000/svg">
<g clip-path="url(#clip0_514_1418)">
<path fill-rule="evenodd" clip-rule="evenodd" d="M0.25712 9.8725C0.175214 7.43644 0.0896737 5.00062 0.0138688 2.56408C0.000369272 2.1382 -0.022216 1.70292 0.0544976 1.28778C0.106808 1.0037 0.260365 0.63139 0.490765 0.516561C0.652889 0.436266 1.08799 0.66385 1.28685 0.857265C2.38926 1.9299 3.41224 3.07745 4.54853 4.11616C5.61396 5.09019 6.78179 5.96587 7.9142 6.87425C8.22793 7.12575 8.55088 7.06376 8.81645 6.78395C9.61981 5.93524 10.4098 5.07506 11.2186 4.23087C12.1933 3.21413 13.169 2.19763 14.168 1.20151C14.7538 0.617479 15.2687 0.576844 16.009 0.900463C17.7717 1.67205 19.5397 2.43424 21.3176 3.17483C22.3328 3.59766 22.5887 3.98779 22.6634 5.04102C22.9319 8.81963 23.2326 12.5963 23.5297 16.3727C23.6773 18.2524 23.8489 20.1308 23.9951 22.0103C24.0153 22.2722 23.9693 22.5425 23.9241 22.8045C23.7579 23.7655 23.0767 24.139 22.1632 23.6625C20.9761 23.0435 19.8688 22.2896 18.6928 21.65C17.6847 21.1011 16.6424 20.6039 15.5888 20.1373C14.9947 19.8735 14.3681 19.9831 13.8973 20.4128C12.57 21.6248 11.2722 22.8654 9.96755 24.0992C9.62188 24.4267 9.32334 24.8033 8.94963 25.0976C8.28063 25.6237 7.85436 25.6401 7.18029 25.1105C6.03439 24.2122 4.92535 23.2712 3.80762 22.341C2.84409 21.54 1.89692 20.7213 0.927811 19.9262C0.327732 19.4336 0.0678664 18.8312 0.0921395 18.088C0.182353 15.3504 0.258288 12.6124 0.339545 9.87457C0.312026 9.87359 0.284768 9.87286 0.25712 9.8725ZM22.074 21.5235C22.1457 21.4885 22.2173 21.4535 22.289 21.4187C22.289 20.2339 22.3674 19.0437 22.2749 17.8654C21.9477 13.7004 21.5552 9.53997 21.2073 5.37623C21.1601 4.81063 20.8962 4.46321 20.3639 4.22892C19.0306 3.64147 17.7074 3.0334 16.3806 2.43326C15.7887 2.16566 15.6408 2.25596 15.6664 2.86683C15.8026 6.15282 15.9315 9.43917 16.0762 12.7249C16.1517 14.4298 16.2496 16.1341 16.3489 17.8374C16.3681 18.1695 16.3962 18.4819 16.805 18.6789C17.9425 19.2271 19.0619 19.811 20.1732 20.4061C20.8219 20.7535 21.4413 21.1496 22.074 21.5235ZM14.107 3.50028C13.9391 3.64977 13.8375 3.72335 13.7578 3.8139C12.7112 5.00563 11.6859 6.2142 10.6158 7.38702C10.1036 7.94859 9.58307 8.56252 8.74922 8.70859C7.92159 8.85368 7.89161 8.81963 7.93912 9.63649C8.16835 13.5619 8.41043 17.4868 8.65096 21.4115C8.6799 21.8806 8.73027 22.3487 8.784 22.9719C9.10579 22.72 9.31308 22.5793 9.49364 22.4128C10.8701 21.1462 12.2583 19.8909 13.5997 18.5927C13.8454 18.3548 13.9751 17.9448 14.0142 17.6002C14.0622 17.1841 13.9142 16.7517 13.9237 16.3277C14.0136 12.2018 14.1202 8.07599 14.216 3.95032C14.2187 3.82769 14.158 3.70358 14.107 3.50028ZM6.96521 22.6556C7.02582 22.6279 7.08631 22.6001 7.1468 22.5729C7.15537 22.4056 7.18262 22.237 7.17055 22.0717C6.84228 17.5826 6.45378 13.0969 6.65978 8.58875C6.67458 8.26745 6.48091 7.85414 6.2361 7.62058C5.1246 6.56003 3.95066 5.55805 2.81969 4.51556C2.42678 4.15326 2.09201 3.73519 1.63108 3.23377C1.61213 3.54128 1.59175 3.67759 1.5972 3.81268C1.78412 8.41547 1.97662 13.018 2.15886 17.6207C2.17885 18.1298 2.35694 18.5407 2.75479 18.8946C3.83994 19.8596 4.90471 20.8448 5.98234 21.8175C6.30165 22.1056 6.63745 22.3765 6.96521 22.6556Z"/>
</g>
<defs>
<clipPath id="clip0_514_1418">
<rect width="24" height="25" transform="translate(0 0.5)"/>
</clipPath>
</defs>
</svg>
