<svg width="24" height="26" viewBox="0 0 24 26" xmlns="http://www.w3.org/2000/svg">
<path d="M21.243 3.46845C18.7801 1.13187 14.7655 0.140423 11.0392 0.616261C3.38038 1.59422 -2.48599 8.71463 2.58708 14.226C3.16058 14.8488 3.83261 15.4034 4.61253 15.8633C5.11499 16.1593 5.16344 16.1157 4.95033 16.5578C4.7176 17.0405 4.29346 17.5126 3.98568 17.9727C2.7024 19.8909 1.30975 21.7802 0.0872553 23.7212C-0.0414439 23.9261 -0.0453084 24.2261 0.195445 24.3891C0.90983 24.8715 1.77104 25.0854 2.58782 25.4315C2.89501 25.5618 3.36998 25.5117 3.53434 25.2337C5.0175 22.7271 6.4439 20.2247 8.2601 17.8584C10.5896 18.8262 14.1162 18.1778 16.3212 17.4234C19.2997 16.4045 21.7466 14.5648 23.1373 12.2302C24.8149 9.09755 23.9731 6.05917 21.243 3.46845ZM13.4225 16.206C9.92784 16.511 6.16599 15.2011 4.12315 12.9114C3.15612 11.8271 2.61472 10.5367 2.71102 9.2003C2.81372 7.7826 3.8546 6.47559 4.90203 5.3711C7.72405 2.39722 12.8527 0.654139 17.0384 2.86182C20.2502 4.73345 22.3439 8.00561 21.208 11.1902C20.2333 13.9258 16.9149 15.9012 13.4225 16.206Z"/>
<path d="M12.048 2.72012C8.07214 3.84733 1.42793 8.6133 5.30644 12.2207C5.88648 12.7605 6.86183 11.9775 6.28506 11.4411C4.66101 9.93085 6.27421 7.70754 7.59479 6.4429C8.87346 5.21874 10.5364 4.31595 12.416 3.78318C13.2492 3.54703 12.8902 2.4816 12.048 2.72012Z"/>
<path d="M8.81661 13.2657C8.73353 13.2462 8.6515 13.2247 8.57065 13.1997C8.55297 13.1914 8.43854 13.1491 8.42219 13.1422C8.34922 13.1113 8.27729 13.0782 8.20789 13.0425C8.16761 13.0221 8.12868 13.0008 8.09034 12.9788C8.13551 13.0091 8.12555 13.0032 8.06195 12.9611C7.78137 12.7796 7.35366 12.7265 7.08318 12.9611C6.8509 13.1626 6.78328 13.5465 7.08318 13.7407C7.49514 14.0077 7.93697 14.2073 8.44834 14.3288C8.79491 14.411 9.21772 14.2299 9.29945 13.9437C9.38401 13.6474 9.18755 13.354 8.81661 13.2657Z"/>
</svg>
