<svg width="32" height="32" viewBox="0 0 32 32" fill="none" xmlns="http://www.w3.org/2000/svg">
<path d="M16.9996 29C16.866 29 16.7338 28.9733 16.6108 28.9215C16.4877 28.8696 16.3763 28.7935 16.2831 28.6979C16.1898 28.6022 16.1167 28.4889 16.0681 28.3645C16.0194 28.2401 15.9961 28.1073 15.9996 27.9738V16.5081C15.9996 16.3755 15.9469 16.2483 15.8532 16.1546C15.7594 16.0608 15.6322 16.0081 15.4996 16.0081H4.02523C3.8149 16.0106 3.60896 15.948 3.43563 15.8288C3.2623 15.7096 3.13008 15.5398 3.05711 15.3425C2.974 15.1072 2.98184 14.8494 3.07909 14.6196C3.17634 14.3899 3.35598 14.2047 3.58273 14.1006L27.5827 3.09125C27.7682 3.00629 27.9751 2.98007 28.1759 3.01608C28.3766 3.0521 28.5616 3.14864 28.7059 3.29276C28.8502 3.43688 28.947 3.62168 28.9833 3.82238C29.0196 4.02308 28.9937 4.23009 28.909 4.41563L17.909 28.4156C17.8293 28.5899 17.7013 28.7377 17.5401 28.8413C17.3788 28.9449 17.1912 29 16.9996 29Z" fill="#FF6600"/>
</svg>
