<svg width="30" height="30" viewBox="0 0 30 30" fill="none" xmlns="http://www.w3.org/2000/svg">
<path d="M26.4261 21.9141C25.4956 20.9766 23.2421 19.6084 22.1488 19.0571C20.7249 18.3399 20.6078 18.2813 19.4886 19.1127C18.7421 19.6676 18.2458 20.1633 17.3722 19.977C16.4986 19.7907 14.6001 18.7401 12.9378 17.0831C11.2755 15.426 10.164 13.4725 9.97709 12.6018C9.79018 11.7311 10.2941 11.2407 10.8437 10.4924C11.6183 9.43774 11.5597 9.26196 10.8976 7.83813C10.3814 6.73071 8.97338 4.49829 8.03237 3.57251C7.02573 2.57817 7.02573 2.75395 6.37709 3.02348C5.84903 3.24567 5.34242 3.51574 4.86362 3.83032C3.92612 4.45317 3.4058 4.97055 3.04194 5.74809C2.67807 6.52563 2.51459 8.34848 4.39369 11.7622C6.2728 15.1758 7.59116 16.9213 10.3199 19.6424C13.0486 22.3635 15.1468 23.8266 18.2142 25.5469C22.0087 27.6721 23.4642 27.2579 24.2441 26.8946C25.024 26.5313 25.5437 26.0157 26.1677 25.0782C26.4831 24.6002 26.7538 24.0941 26.9763 23.5665C27.2464 22.9202 27.4222 22.9202 26.4261 21.9141Z" stroke="#5A4BB2" stroke-miterlimit="10"/>
</svg>
