<?xml version="1.0" encoding="utf-8"?>
<!-- Generator: Adobe Illustrator 16.0.3, SVG Export Plug-In . SVG Version: 6.00 Build 0)  -->
<!DOCTYPE svg PUBLIC "-//W3C//DTD SVG 1.1//EN" "http://www.w3.org/Graphics/SVG/1.1/DTD/svg11.dtd">
<svg version="1.1" id="Capa_1" xmlns="http://www.w3.org/2000/svg" xmlns:xlink="http://www.w3.org/1999/xlink" x="0px" y="0px"
	 width="328.689px" height="332.596px" viewBox="0 0 328.689 332.596" enable-background="new 0 0 328.689 332.596"
	 xml:space="preserve">
<g>
	<path d="M247.518,90.926c-16.572-19.74-43.586-28.116-68.66-24.096c-51.535,8.262-91.009,68.417-56.873,114.978
		c3.859,5.262,8.381,9.947,13.629,13.833c3.381,2.5,3.707,2.132,2.273,5.867c-1.566,4.078-4.42,8.066-6.491,11.953
		c-8.635,16.206-18.006,32.167-26.232,48.565c-0.866,1.731-0.892,4.266,0.728,5.643c4.807,4.075,10.602,5.882,16.098,8.806
		c2.067,1.101,5.263,0.678,6.369-1.671c9.98-21.176,19.578-42.317,31.799-62.308c15.675,8.176,39.405,2.698,54.242-3.675
		c20.042-8.608,36.507-24.15,45.865-43.874C271.553,138.482,265.889,112.813,247.518,90.926z M194.895,198.536
		c-23.515,2.577-48.828-8.49-62.574-27.834c-6.507-9.16-10.15-20.062-9.502-31.352c0.691-11.977,7.695-23.019,14.743-32.35
		c18.989-25.124,53.499-39.85,81.664-21.199c21.612,15.812,35.7,43.456,28.057,70.36
		C240.724,179.272,218.395,195.961,194.895,198.536z"/>
	<path d="M185.646,84.604c-26.753,9.523-71.461,49.787-45.363,80.263c3.903,4.561,10.466-2.054,6.585-6.586
		c-10.928-12.759-0.073-31.542,8.813-42.226c8.604-10.342,19.794-17.969,32.441-22.47C193.729,91.59,191.313,82.589,185.646,84.604z
		"/>
	<path d="M163.907,173.696c-0.559-0.165-1.111-0.346-1.655-0.558c-0.119-0.07-0.889-0.427-0.999-0.485
		c-0.491-0.261-0.975-0.541-1.442-0.843c-0.271-0.172-0.533-0.352-0.791-0.538c0.304,0.256,0.237,0.206-0.191-0.149
		c-1.888-1.534-4.766-1.982-6.586,0c-1.563,1.702-2.018,4.945,0,6.586c2.772,2.256,5.745,3.942,9.186,4.968
		c2.332,0.695,5.177-0.835,5.727-3.253C167.725,176.921,166.403,174.442,163.907,173.696z"/>
</g>
</svg>
