<svg width="30" height="30" viewBox="0 0 30 30" fill="none" xmlns="http://www.w3.org/2000/svg">
<path d="M29.0241 27.0009V13.4445C29.0241 12.737 28.4179 12.1634 27.6698 12.1634H21.2382V8.47495C21.2382 8.12657 21.0386 7.80549 20.7172 7.63584L15.4949 4.88116C15.4662 4.86594 15.4364 4.85259 15.4065 4.84029V3.26828H18.2187C18.443 3.26828 18.625 3.09616 18.625 2.88391V0.942452C18.625 0.730202 18.443 0.558076 18.2187 0.558076H15.4065V0.384376C15.4065 0.172125 15.2247 0 15.0002 0C14.7758 0 14.5939 0.172125 14.5939 0.384376V4.84029C14.564 4.85266 14.5343 4.86601 14.5055 4.88116L9.28322 7.63592C8.96145 7.80549 8.76203 8.12665 8.76203 8.47502V12.1634H2.33026C1.58221 12.1634 0.975937 12.737 0.975937 13.4445V27.0008C0.400509 27.2471 0 27.7945 0 28.4306C0 29.2975 0.742816 30 1.65913 30H28.3409C29.2572 30 30 29.2975 30 28.4306C29.9999 27.7945 29.5995 27.2471 29.0241 27.0009ZM23.7889 16.6287C23.7889 16.2166 24.1422 15.8825 24.5782 15.8825H26.0534C26.4891 15.8825 26.8424 16.2166 26.8424 16.6287V18.0243C26.8424 18.4364 26.4891 18.7705 26.0534 18.7705H24.5783C24.1422 18.7705 23.789 18.4364 23.789 18.0243V16.6287H23.7889ZM23.7889 21.1126C23.7889 20.7004 24.1422 20.3663 24.5782 20.3663H26.0534C26.4891 20.3663 26.8424 20.7004 26.8424 21.1126V22.5079C26.8424 22.9201 26.4891 23.2542 26.0534 23.2542H24.5783C24.1422 23.2542 23.789 22.9201 23.789 22.5079V21.1126H23.7889ZM19.0487 16.6287C19.0487 16.2166 19.4018 15.8825 19.8375 15.8825H21.3129C21.7484 15.8825 22.1018 16.2166 22.1018 16.6287V18.0243C22.1018 18.4364 21.7484 18.7705 21.3129 18.7705H19.8375C19.4018 18.7705 19.0487 18.4364 19.0487 18.0243V16.6287ZM19.0487 21.1126C19.0487 20.7004 19.4018 20.3663 19.8375 20.3663H21.3129C21.7484 20.3663 22.1018 20.7004 22.1018 21.1126V22.5079C22.1018 22.9201 21.7484 23.2542 21.3129 23.2542H19.8375C19.4018 23.2542 19.0487 22.9201 19.0487 22.5079V21.1126ZM15 8.47795C16.2343 8.47795 17.2349 9.4243 17.2349 10.5918C17.2349 11.7592 16.2344 12.7055 15 12.7055C13.7657 12.7055 12.7652 11.7591 12.7652 10.5917C12.7652 9.42422 13.7657 8.47795 15 8.47795ZM12.7621 20.6128C12.7621 20.2006 13.1153 19.8665 13.5513 19.8665H16.4488C16.8846 19.8665 17.2377 20.2006 17.2377 20.6128V26.492C17.2377 26.6266 17.1997 26.7526 17.1337 26.8617H12.8666C12.8006 26.7526 12.7624 26.6266 12.7624 26.492L12.7621 20.6128ZM7.89805 16.6287C7.89805 16.2166 8.25122 15.8825 8.68694 15.8825H10.1623C10.598 15.8825 10.9511 16.2166 10.9511 16.6287V18.0243C10.9511 18.4364 10.598 18.7705 10.1623 18.7705H8.68694C8.25122 18.7705 7.89805 18.4364 7.89805 18.0243V16.6287ZM7.89805 21.1126C7.89805 20.7004 8.25122 20.3663 8.68694 20.3663H10.1623C10.598 20.3663 10.9511 20.7004 10.9511 21.1126V22.5079C10.9511 22.9201 10.598 23.2542 10.1623 23.2542H8.68694C8.25122 23.2542 7.89805 22.9201 7.89805 22.5079V21.1126ZM3.15736 16.6287C3.15736 16.2166 3.51054 15.8825 3.94649 15.8825H5.42165C5.85753 15.8825 6.21078 16.2166 6.21078 16.6287V18.0243C6.21078 18.4364 5.85753 18.7705 5.42165 18.7705H3.94657C3.51061 18.7705 3.15744 18.4364 3.15744 18.0243V16.6287H3.15736ZM3.15736 21.1126C3.15736 20.7004 3.51054 20.3663 3.94649 20.3663H5.42165C5.85753 20.3663 6.21078 20.7004 6.21078 21.1126V22.5079C6.21078 22.9201 5.85753 23.2542 5.42165 23.2542H3.94657C3.51061 23.2542 3.15744 22.9201 3.15744 22.5079V21.1126H3.15736Z" fill="#5A4BB2"/>
</svg>
