<svg width="360" height="220" viewBox="0 0 360 220" fill="none" xmlns="http://www.w3.org/2000/svg">
<path d="M50.2741 142.609C65.0603 142.609 72.5226 146.135 75.6463 151.636L62.2964 155.814C61.0377 152.07 56.9288 149.985 52.5625 149.985C49.8868 149.985 47.0199 150.687 44.8057 152.11C42.5805 153.54 40.987 155.722 40.987 158.645C40.987 161.678 42.2616 163.926 44.3453 165.396C46.4068 166.851 49.2215 167.521 52.2928 167.521C57.0655 167.521 61.0372 165.818 62.8607 163.175L76.0448 168.249C71.7862 172.846 64.1612 175.435 51.1552 175.435C44.029 175.435 37.4641 174.404 32.6996 171.991C27.9639 169.593 25.0332 165.853 25.0332 160.363C25.0332 154.769 27.6136 150.354 32.0425 147.32C36.4886 144.273 42.8152 142.609 50.2741 142.609Z" fill="#2F977E" stroke="black"/>
<path d="M76.8961 168.041C72.5909 173.143 64.6945 175.935 51.1552 175.935C36.834 175.935 24.5332 171.799 24.5332 160.363C24.5332 148.819 35.2241 142.109 50.2741 142.109C65.5624 142.109 73.2924 145.865 76.373 151.933L61.9616 156.443C60.9934 152.688 56.9942 150.485 52.5625 150.485C47.3658 150.485 41.487 153.22 41.487 158.645C41.487 164.391 46.276 167.021 52.2928 167.021C57.1847 167.021 61.0841 165.197 62.6607 162.562L76.8961 168.041Z" stroke="#2F977E" stroke-width="3.5682" stroke-miterlimit="10"/>
<path d="M78.1602 147.858L94.0417 145.365C94.0417 145.365 96.9663 156.713 99.2275 164.976C99.9205 167.523 102.728 168.703 107.77 168.185C113.067 167.644 115.591 166.197 114.897 163.65C112.634 155.381 109.348 144.021 109.348 144.021L126.416 141.241C126.416 141.241 128.852 155.714 131.123 164.008C132.977 170.802 123.72 174.944 111.214 176.219C96.8218 177.689 86.3806 175.011 84.573 168.406C82.2374 159.856 78.1602 147.858 78.1602 147.858Z" fill="#2F977E"/>
<path d="M78.1602 147.858L94.0417 145.365C94.0417 145.365 96.9663 156.713 99.2275 164.976C99.9205 167.523 102.728 168.703 107.77 168.185C113.067 167.644 115.591 166.197 114.897 163.65C112.634 155.381 109.348 144.021 109.348 144.021L126.416 141.241C126.416 141.241 128.852 155.714 131.123 164.008C132.977 170.802 123.72 174.944 111.214 176.219C96.8218 177.689 86.3806 175.011 84.573 168.406C82.2374 159.856 78.1602 147.858 78.1602 147.858Z" stroke="#2F977E" stroke-width="3.5682" stroke-miterlimit="10"/>
<path d="M177.665 141.303L175.819 149.519L153.077 149.571L152.984 153.654L173.276 154.135L173.189 161.545L153.077 161.061L152.902 165.465L178.195 166.485L176.259 175.773L139.097 174.323L136.02 142.432L177.665 141.303Z" fill="#2F977E"/>
<path d="M177.665 141.303L175.819 149.519L153.077 149.571L152.984 153.654L173.276 154.135L173.189 161.545L153.077 161.061L152.902 165.465L178.195 166.485L176.259 175.773L139.097 174.323L136.02 142.432L177.665 141.303Z" stroke="#2F977E" stroke-width="3" stroke-miterlimit="10"/>
<path d="M198.93 175.451L182.408 176.146L186.802 141.355L201.372 142.859L218.692 160.103L218.957 142.218L234.768 141.461L231.696 175.34L216.7 176.847L199.011 157.063L198.93 175.451Z" fill="#2F977E"/>
<path d="M198.93 175.451L182.408 176.146L186.802 141.355L201.372 142.859L218.692 160.103L218.957 142.218L234.768 141.461L231.696 175.34L216.7 176.847L199.011 157.063L198.93 175.451Z" stroke="#2F977E" stroke-width="2" stroke-miterlimit="10"/>
<path d="M237.934 142.699L285.11 140.286L284.845 149.357L271.323 149.839L272.988 174.591L256.117 173.679L254.535 150.055L240.129 151.129L237.934 142.699Z" fill="#2F977E"/>
<path d="M237.934 142.699L285.11 140.286L284.845 149.357L271.323 149.839L272.988 174.591L256.117 173.679L254.535 150.055L240.129 151.129L237.934 142.699Z" stroke="#2F977E" stroke-width="3" stroke-miterlimit="10"/>
<path d="M283.967 161.1C283.967 150.519 294.347 144.074 311.574 144.074C328.866 144.074 335.467 150.197 335.467 162.545C335.467 173.275 325.844 177.846 308.852 177.846C292.671 177.846 283.967 172.641 283.967 161.1ZM300.677 161.149C300.677 166.686 304.892 169.365 311.136 169.365C316.498 169.365 319.127 167.24 319.127 161.043C319.127 156.427 318.253 152.667 312.103 152.667C304.893 152.667 300.677 155.673 300.677 161.149Z" fill="#2F977E"/>
<path d="M283.967 161.1C283.967 150.519 294.347 144.074 311.574 144.074C328.866 144.074 335.467 150.197 335.467 162.545C335.467 173.275 325.844 177.846 308.852 177.846C292.671 177.846 283.967 172.641 283.967 161.1ZM300.677 161.149C300.677 166.686 304.892 169.365 311.136 169.365C316.498 169.365 319.127 167.24 319.127 161.043C319.127 156.427 318.253 152.667 312.103 152.667C304.893 152.667 300.677 155.673 300.677 161.149Z" stroke="#2F977E" stroke-width="3" stroke-miterlimit="10"/>
<path d="M43.418 66.7259L85.6167 57.791L112.075 83.4251L126.533 53.5993L170.95 52.4167L137.077 100.959L143.888 130.816L106.748 131.992L99.4772 104.485L43.418 66.7259Z" fill="#490D7A"/>
<path d="M166.615 94.5145C171.163 73.2495 194.788 61.9775 229.414 64.739C264.166 67.513 274.814 80.8775 269.509 105.7C264.895 127.258 243.581 134.905 209.436 132.178C176.918 129.581 161.657 117.718 166.615 94.5145ZM200.185 97.3058C197.808 108.428 205.116 114.494 217.672 115.496C228.451 116.35 234.64 112.508 237.313 100.05C239.297 90.7692 239.156 83.0758 226.786 82.0897C212.305 80.9345 202.539 86.2981 200.185 97.3058Z" fill="#490D7A"/>
</svg>
