<svg width="24" height="26" viewBox="0 0 24 26" xmlns="http://www.w3.org/2000/svg">
<g clip-path="url(#clip0_514_1426)">
<path  clip-rule="evenodd" d="M0 7.72741C0.00660237 5.45643 0.572971 3.35622 1.57811 1.38295C2.04358 0.468671 2.31844 0.358602 3.25569 0.629636C4.56281 1.0089 5.51542 1.98021 6.48181 2.90522C7.67741 4.05037 8.60303 5.42133 9.27088 6.9879C9.78098 8.18563 9.62496 8.79024 8.59887 9.53957C8.44056 9.65454 8.28368 9.77151 8.12565 9.88741C7.0021 10.7119 6.93995 10.9551 7.4934 12.2511C8.45247 14.4987 10.0827 16.0675 12.0067 17.3316C12.5422 17.6836 13.1057 17.9944 13.6744 18.2816C14.6043 18.7507 15.3729 18.5964 16.0604 17.7767C16.4419 17.3227 16.7496 16.7986 17.095 16.3091C17.8294 15.2696 18.7034 15.1355 19.5842 16.0281C21.1734 17.637 22.5836 19.4153 23.6839 21.447C24.2802 22.5483 24.0217 23.5119 23.0027 24.1648C21.1544 25.3481 19.1347 25.6501 17.0261 25.4366C14.0699 25.1378 11.289 24.2729 8.74742 22.5815C6.68576 21.2095 4.97345 19.4476 3.53313 17.3816C2.01301 15.2029 0.753675 12.8734 0.272994 10.1587C0.131617 9.35837 0.0882708 8.53868 0 7.72741ZM1.7901 7.41529C1.83359 7.42342 1.87694 7.4317 1.91957 7.43998C1.91957 7.58301 1.91153 7.7268 1.92158 7.86937C2.25356 12.7092 4.43995 16.4949 7.83271 19.5522C10.186 21.6728 12.9583 22.8256 15.9841 23.3559C17.8563 23.6845 19.6797 23.6775 21.4411 22.8257C22.0628 22.5253 22.1611 22.3038 21.7697 21.71C21.0439 20.6107 20.2894 19.53 19.4896 18.4923C18.6171 17.3617 18.6925 17.1754 17.7373 18.5636C16.373 20.5465 14.7874 20.9851 12.7954 19.8064C11.5297 19.057 10.2836 18.2386 9.13323 17.304C7.53087 16.0024 6.2467 14.3855 5.56121 12.3085C5.11655 10.961 5.38007 9.87729 6.39382 8.94921C6.62519 8.73735 6.87795 8.54956 7.12898 8.36299C7.69061 7.9474 7.74415 7.74903 7.42982 7.09413C6.49673 5.15397 5.05096 3.77059 3.28037 2.73797C2.87619 2.50204 2.62746 2.59616 2.54105 3.08856C2.28844 4.53019 2.0397 5.97274 1.7901 7.41529Z"/>
<path  clip-rule="evenodd" d="M12.3446 4.0684C12.0953 4.0684 11.847 4.06089 11.5987 4.06978C11.2039 4.08404 10.7804 3.99681 10.7793 3.53155C10.7793 3.26588 11.0804 2.87389 11.334 2.75539C12.4699 2.22436 13.6628 2.09528 14.863 2.49984C17.2877 3.31815 18.9944 5.06025 20.2381 7.36603C21.0134 8.80337 21.4083 10.3785 21.5687 12.0158C21.6122 12.4528 21.5966 12.9382 21.4539 13.3392C21.356 13.6174 20.9912 13.968 20.7533 13.9618C20.5006 13.955 20.1732 13.6112 20.033 13.3277C19.8827 13.0211 19.8743 12.6153 19.8659 12.2511C19.8023 9.41887 18.5117 7.2811 16.5093 5.58162C14.9666 4.27168 13.9391 3.93718 12.3446 4.0684Z"/>
<path  clip-rule="evenodd" d="M16.4287 11.8446C16.8102 9.78244 14.7824 7.58044 12.5458 7.65816C12.3172 7.66552 12.068 7.74509 11.8628 7.67472C11.6192 7.59071 11.2944 7.425 11.2248 7.2116C11.1527 6.99284 11.2701 6.59442 11.4368 6.41536C11.8365 5.98735 12.3694 5.90196 12.9306 6.00299C15.4138 6.4497 17.3338 8.5381 17.6638 11.2112C17.7366 11.8084 17.7396 12.4295 17.6708 13.0258C17.6447 13.2492 17.3219 13.4336 17.134 13.6361C16.9371 13.4225 16.644 13.2438 16.5628 12.9879C16.4376 12.593 16.4577 12.1454 16.4287 11.8446Z" />
<path  clip-rule="evenodd" d="M1.78906 7.41532C2.03866 5.97293 2.2874 4.53038 2.53987 3.08844C2.62642 2.59604 2.87501 2.50207 3.27919 2.73784C5.04977 3.77047 6.49555 5.15385 7.42864 7.09401C7.74297 7.7489 7.68943 7.94727 7.1278 8.36287C6.87676 8.54943 6.62401 8.73723 6.39264 8.94909C5.37889 9.87716 5.11551 10.9608 5.56002 12.3083C6.24538 14.3854 7.52968 16.0023 9.13205 17.3039C10.2824 18.2384 11.5284 19.0571 12.7942 19.8062C14.7863 20.985 16.3718 20.5464 17.7361 18.5634C18.6913 17.1753 18.6159 17.3614 19.4884 18.4921C20.288 19.5298 21.0427 20.6104 21.7686 21.7099C22.16 22.3038 22.0616 22.5252 21.4399 22.8256C19.6786 23.6772 17.8551 23.6844 15.9829 23.3557C12.9571 22.8255 10.1848 21.6727 7.83152 19.5521C4.43877 16.4947 2.25252 12.7089 1.92039 7.86924C1.91049 7.72652 1.91838 7.58288 1.91838 7.43985C1.8759 7.43173 1.83255 7.42329 1.78906 7.41532Z"/>
</g>
<defs>
<clipPath id="clip0_514_1426">
<rect width="24" height="25"  transform="translate(0 0.5)"/>
</clipPath>
</defs>
</svg>
