<svg width="186" height="97" viewBox="0 0 186 97" fill="none" xmlns="http://www.w3.org/2000/svg">
<path d="M0.413574 24.5288L3.53857 12.6025H6.49268L4.56396 24.5288H0.413574ZM5.51611 10.5029C4.97087 10.5029 4.53141 10.3483 4.19775 10.0391C3.8641 9.72982 3.69727 9.29036 3.69727 8.7207C3.69727 8.03711 3.91292 7.47152 4.34424 7.02393C4.78369 6.57633 5.3737 6.35254 6.11426 6.35254C6.81413 6.35254 7.30648 6.53158 7.59131 6.88965C7.87614 7.23958 8.01855 7.63428 8.01855 8.07373C8.01855 8.47249 7.93717 8.85905 7.77441 9.2334C7.61165 9.59961 7.34717 9.90479 6.98096 10.1489C6.61475 10.3849 6.12646 10.5029 5.51611 10.5029ZM12.9673 20L16.0679 5.30273H11.771L12.4424 2.15332H24.7715L24.1001 5.30273H19.791L16.6904 20H12.9673ZM29.0732 20.2441C28.292 20.2441 27.645 20.0854 27.1323 19.7681C26.6196 19.4507 26.2371 18.999 25.9849 18.4131C25.7326 17.819 25.6064 17.1232 25.6064 16.3257C25.6064 16.0246 25.6309 15.638 25.6797 15.166C25.7285 14.694 25.8018 14.2139 25.8994 13.7256L27.4497 6.35254H31.124L29.4517 14.3237C29.3947 14.6004 29.3459 14.8608 29.3052 15.105C29.2726 15.3491 29.2563 15.5729 29.2563 15.7764C29.2563 16.2891 29.3662 16.6675 29.5859 16.9116C29.8057 17.1558 30.1353 17.2778 30.5747 17.2778C31.1362 17.2778 31.6367 17.0418 32.0762 16.5698C32.5238 16.0897 32.9144 15.4508 33.248 14.6533C33.5817 13.8477 33.8503 12.9647 34.0537 12.0044L35.25 6.35254H38.9243L36.0312 20H33.2236L33.48 17.4731H33.3457C32.9958 18.0103 32.6092 18.4904 32.186 18.9136C31.771 19.3286 31.3071 19.6541 30.7944 19.8901C30.2817 20.1261 29.708 20.2441 29.0732 20.2441ZM47.8086 26.0059C47.418 26.0059 47.0314 25.9733 46.6489 25.9082C46.2583 25.8512 45.9368 25.7821 45.6846 25.7007V22.7466C45.945 22.8361 46.1851 22.9012 46.4048 22.9419C46.6245 22.9826 46.8524 23.0029 47.0884 23.0029C47.5848 23.0029 48.0202 22.8361 48.3945 22.5024C48.7689 22.1769 49.0334 21.652 49.188 20.9277L51.6782 9.14795H49.6885L50.0547 7.37793L52.2886 6.35254L52.5083 5.32715C52.6873 4.49707 52.9233 3.7972 53.2163 3.22754C53.5174 2.65788 53.8755 2.20215 54.2905 1.86035C54.7056 1.51042 55.1816 1.25814 55.7188 1.10352C56.264 0.948893 56.8703 0.871582 57.5376 0.871582C58.0991 0.871582 58.6159 0.924479 59.0879 1.03027C59.568 1.13607 60.0075 1.28255 60.4062 1.46973L59.4297 4.2041C59.1937 4.09831 58.9455 4.00879 58.6851 3.93555C58.4246 3.8623 58.1317 3.82568 57.8062 3.82568C57.3423 3.82568 56.9679 3.98844 56.6831 4.31396C56.3983 4.63949 56.207 5.06673 56.1094 5.5957L55.9629 6.35254H58.6362L58.0381 9.14795H55.3525L52.728 21.4771C52.5571 22.3071 52.2804 23.064 51.8979 23.7476C51.5236 24.4393 51.0028 24.9886 50.3354 25.3955C49.6763 25.8024 48.834 26.0059 47.8086 26.0059ZM65.2573 20.2441C64.2319 20.2441 63.3245 20.0326 62.5352 19.6094C61.7539 19.1862 61.1395 18.584 60.6919 17.8027C60.2524 17.0133 60.0327 16.0775 60.0327 14.9951C60.0327 14.0267 60.1263 13.103 60.3135 12.2241C60.5088 11.3371 60.7977 10.5233 61.1802 9.78271C61.5708 9.03402 62.055 8.38704 62.6328 7.8418C63.2188 7.28841 63.8983 6.86117 64.6714 6.56006C65.4445 6.25081 66.3153 6.09619 67.2837 6.09619C68.3416 6.09619 69.2572 6.31185 70.0303 6.74316C70.8034 7.16634 71.4015 7.78076 71.8247 8.58643C72.2479 9.39209 72.4595 10.3646 72.4595 11.5039C72.4595 12.4316 72.3659 13.3268 72.1787 14.1895C71.9997 15.0439 71.723 15.8415 71.3486 16.582C70.9743 17.3145 70.5023 17.9574 69.9326 18.5107C69.363 19.056 68.6875 19.4832 67.9062 19.7925C67.1331 20.0936 66.2502 20.2441 65.2573 20.2441ZM65.5625 17.2534C65.9694 17.2534 66.3397 17.1517 66.6733 16.9482C67.007 16.7367 67.304 16.4478 67.5645 16.0815C67.8249 15.7072 68.0405 15.2799 68.2114 14.7998C68.3905 14.3115 68.5247 13.7866 68.6143 13.2251C68.7119 12.6636 68.7607 12.0898 68.7607 11.5039C68.7607 11.04 68.7038 10.6291 68.5898 10.271C68.484 9.90479 68.3009 9.61995 68.0405 9.4165C67.7882 9.20492 67.4465 9.09912 67.0151 9.09912C66.5675 9.09912 66.1647 9.22526 65.8066 9.47754C65.4567 9.72168 65.1515 10.0513 64.8911 10.4663C64.6307 10.8813 64.415 11.3452 64.2441 11.8579C64.0732 12.3706 63.943 12.8996 63.8535 13.4448C63.7721 13.9819 63.7314 14.4987 63.7314 14.9951C63.7314 15.7357 63.882 16.2972 64.1831 16.6797C64.4842 17.0622 64.944 17.2534 65.5625 17.2534ZM75.2598 20L78.1528 6.35254H80.9604L80.7041 8.87939H80.8384C81.2046 8.3016 81.6034 7.80518 82.0347 7.39014C82.466 6.9751 82.9339 6.65771 83.4385 6.43799C83.943 6.21012 84.4924 6.09619 85.0864 6.09619C85.2817 6.09619 85.4893 6.1084 85.709 6.13281C85.9368 6.15723 86.12 6.18978 86.2583 6.23047L85.4526 9.77051C85.3224 9.72168 85.1475 9.67692 84.9277 9.63623C84.7161 9.59554 84.4842 9.5752 84.2319 9.5752C83.7762 9.5752 83.3408 9.66878 82.9258 9.85596C82.5107 10.035 82.1283 10.3035 81.7783 10.6616C81.4284 11.0197 81.1191 11.4714 80.8506 12.0166C80.5902 12.5537 80.3826 13.1803 80.228 13.8965L78.9341 20H75.2598ZM87.0322 20L89.9253 6.35254H92.7329L92.4766 8.87939H92.5864C92.9364 8.33415 93.3229 7.854 93.7461 7.43896C94.1693 7.02393 94.6372 6.6984 95.1499 6.4624C95.6707 6.21826 96.2485 6.09619 96.8833 6.09619C97.8192 6.09619 98.5435 6.3444 99.0562 6.84082C99.577 7.3291 99.9188 8.00863 100.082 8.87939H100.179C100.521 8.33415 100.908 7.854 101.339 7.43896C101.77 7.02393 102.25 6.6984 102.779 6.4624C103.316 6.21826 103.898 6.09619 104.525 6.09619C105.664 6.09619 106.515 6.4502 107.076 7.1582C107.646 7.86621 107.931 8.82243 107.931 10.0269C107.931 10.328 107.906 10.6657 107.857 11.04C107.809 11.4144 107.739 11.8091 107.65 12.2241L106.026 20H102.352L104.037 12.0288C104.102 11.7521 104.151 11.4917 104.183 11.2476C104.216 11.0034 104.232 10.7796 104.232 10.5762C104.232 10.0635 104.13 9.68506 103.927 9.44092C103.731 9.19678 103.434 9.07471 103.036 9.07471C102.612 9.07471 102.222 9.20898 101.864 9.47754C101.506 9.74609 101.18 10.1204 100.887 10.6006C100.594 11.0807 100.334 11.6382 100.106 12.2729C99.8862 12.9077 99.7031 13.5913 99.5566 14.3237L98.3848 20H94.7104L96.3828 12.0288C96.4479 11.7521 96.4967 11.4917 96.5293 11.2476C96.5618 11.0034 96.5781 10.7796 96.5781 10.5762C96.5781 10.0635 96.4764 9.68506 96.2729 9.44092C96.0776 9.19678 95.7806 9.07471 95.3818 9.07471C94.9668 9.07471 94.5802 9.21305 94.2222 9.48975C93.8641 9.76644 93.5386 10.1489 93.2456 10.6372C92.9526 11.1174 92.6922 11.6748 92.4644 12.3096C92.2446 12.9443 92.0575 13.6239 91.9028 14.3481L90.7065 20H87.0322ZM115.284 20.2441C114.503 20.2441 113.856 20.0854 113.343 19.7681C112.831 19.4507 112.448 18.999 112.196 18.4131C111.944 17.819 111.817 17.1232 111.817 16.3257C111.817 16.0246 111.842 15.638 111.891 15.166C111.939 14.694 112.013 14.2139 112.11 13.7256L113.661 6.35254H117.335L115.663 14.3237C115.606 14.6004 115.557 14.8608 115.516 15.105C115.484 15.3491 115.467 15.5729 115.467 15.7764C115.467 16.2891 115.577 16.6675 115.797 16.9116C116.017 17.1558 116.346 17.2778 116.786 17.2778C117.347 17.2778 117.848 17.0418 118.287 16.5698C118.735 16.0897 119.125 15.4508 119.459 14.6533C119.793 13.8477 120.061 12.9647 120.265 12.0044L121.461 6.35254H125.135L122.242 20H119.435L119.691 17.4731H119.557C119.207 18.0103 118.82 18.4904 118.397 18.9136C117.982 19.3286 117.518 19.6541 117.005 19.8901C116.493 20.1261 115.919 20.2441 115.284 20.2441ZM127.276 20L131.305 1.00586H134.979L130.951 20H127.276ZM140.453 20.2441C139.793 20.2441 139.171 20.0814 138.585 19.7559C137.999 19.4303 137.519 18.9054 137.145 18.1812C136.778 17.4569 136.595 16.4966 136.595 15.3003C136.595 14.4051 136.689 13.5181 136.876 12.6392C137.071 11.7603 137.348 10.9302 137.706 10.1489C138.072 9.35954 138.512 8.66374 139.024 8.06152C139.545 7.45117 140.131 6.97103 140.782 6.62109C141.441 6.27116 142.153 6.09619 142.918 6.09619C143.496 6.09619 144.001 6.18164 144.432 6.35254C144.863 6.5153 145.234 6.74723 145.543 7.04834C145.852 7.34945 146.104 7.69938 146.3 8.09814H146.397L147.093 6.35254H149.925L147.02 20H144.273L144.444 18.23H144.347C144.021 18.6287 143.667 18.9787 143.285 19.2798C142.902 19.5809 142.479 19.8169 142.015 19.9878C141.551 20.1587 141.03 20.2441 140.453 20.2441ZM141.893 17.2778C142.398 17.2778 142.866 17.0825 143.297 16.6919C143.728 16.2931 144.098 15.7764 144.408 15.1416C144.717 14.5068 144.937 13.8354 145.067 13.1274C145.132 12.8019 145.177 12.4764 145.201 12.1509C145.234 11.8172 145.25 11.4591 145.25 11.0767C145.25 10.4989 145.095 10.0228 144.786 9.64844C144.485 9.26595 144.07 9.07471 143.541 9.07471C143.183 9.07471 142.841 9.19271 142.516 9.42871C142.198 9.65658 141.905 9.97396 141.637 10.3809C141.368 10.7796 141.132 11.2394 140.929 11.7603C140.733 12.2729 140.583 12.8182 140.477 13.396C140.371 13.9738 140.318 14.5516 140.318 15.1294C140.318 15.8374 140.457 16.3745 140.733 16.7407C141.01 17.0988 141.397 17.2778 141.893 17.2778ZM152.066 20L154.959 6.35254H157.767L157.511 8.87939H157.645C158.011 8.3016 158.41 7.80518 158.841 7.39014C159.273 6.9751 159.741 6.65771 160.245 6.43799C160.75 6.21012 161.299 6.09619 161.893 6.09619C162.088 6.09619 162.296 6.1084 162.516 6.13281C162.743 6.15723 162.927 6.18978 163.065 6.23047L162.259 9.77051C162.129 9.72168 161.954 9.67692 161.734 9.63623C161.523 9.59554 161.291 9.5752 161.039 9.5752C160.583 9.5752 160.147 9.66878 159.732 9.85596C159.317 10.035 158.935 10.3035 158.585 10.6616C158.235 11.0197 157.926 11.4714 157.657 12.0166C157.397 12.5537 157.189 13.1803 157.035 13.8965L155.741 20H152.066ZM163.839 20L166.732 6.35254H170.406L167.513 20H163.839ZM169.161 4.65576C168.64 4.65576 168.201 4.54183 167.843 4.31396C167.493 4.0861 167.318 3.69954 167.318 3.1543C167.318 2.68229 167.403 2.2876 167.574 1.97021C167.753 1.65283 168.01 1.41276 168.343 1.25C168.677 1.08724 169.076 1.00586 169.54 1.00586C170.028 1.00586 170.451 1.11165 170.809 1.32324C171.175 1.53483 171.358 1.91732 171.358 2.4707C171.358 3.12174 171.179 3.65072 170.821 4.05762C170.463 4.45638 169.91 4.65576 169.161 4.65576ZM178.382 20.2441C177.357 20.2441 176.45 20.0326 175.66 19.6094C174.879 19.1862 174.264 18.584 173.817 17.8027C173.377 17.0133 173.158 16.0775 173.158 14.9951C173.158 14.0267 173.251 13.103 173.438 12.2241C173.634 11.3371 173.923 10.5233 174.305 9.78271C174.696 9.03402 175.18 8.38704 175.758 7.8418C176.344 7.28841 177.023 6.86117 177.796 6.56006C178.569 6.25081 179.44 6.09619 180.409 6.09619C181.467 6.09619 182.382 6.31185 183.155 6.74316C183.928 7.16634 184.527 7.78076 184.95 8.58643C185.373 9.39209 185.584 10.3646 185.584 11.5039C185.584 12.4316 185.491 13.3268 185.304 14.1895C185.125 15.0439 184.848 15.8415 184.474 16.582C184.099 17.3145 183.627 17.9574 183.058 18.5107C182.488 19.056 181.812 19.4832 181.031 19.7925C180.258 20.0936 179.375 20.2441 178.382 20.2441ZM178.688 17.2534C179.094 17.2534 179.465 17.1517 179.798 16.9482C180.132 16.7367 180.429 16.4478 180.689 16.0815C180.95 15.7072 181.166 15.2799 181.336 14.7998C181.515 14.3115 181.65 13.7866 181.739 13.2251C181.837 12.6636 181.886 12.0898 181.886 11.5039C181.886 11.04 181.829 10.6291 181.715 10.271C181.609 9.90479 181.426 9.61995 181.166 9.4165C180.913 9.20492 180.571 9.09912 180.14 9.09912C179.693 9.09912 179.29 9.22526 178.932 9.47754C178.582 9.72168 178.277 10.0513 178.016 10.4663C177.756 10.8813 177.54 11.3452 177.369 11.8579C177.198 12.3706 177.068 12.8996 176.979 13.4448C176.897 13.9819 176.856 14.4987 176.856 14.9951C176.856 15.7357 177.007 16.2972 177.308 16.6797C177.609 17.0622 178.069 17.2534 178.688 17.2534ZM48.0869 58L52.1152 39.0059H55.7896L55.0815 42.3018C55.0083 42.6761 54.9066 43.1034 54.7764 43.5835C54.6543 44.0555 54.5241 44.5234 54.3857 44.9873C54.2474 45.443 54.1213 45.8377 54.0073 46.1714H54.105C54.4386 45.7563 54.7967 45.3942 55.1792 45.085C55.5698 44.7676 55.993 44.5234 56.4487 44.3525C56.9045 44.1816 57.4009 44.0962 57.938 44.0962C58.7192 44.0962 59.3703 44.259 59.8911 44.5845C60.4201 44.9019 60.8148 45.3535 61.0752 45.9395C61.3356 46.5254 61.4658 47.2212 61.4658 48.0269C61.4658 48.328 61.4414 48.6657 61.3926 49.04C61.3438 49.4144 61.2746 49.8091 61.1851 50.2241L59.5615 58H55.8872L57.5596 50.0288C57.6247 49.7521 57.6735 49.4917 57.7061 49.2476C57.7386 49.0034 57.7549 48.7796 57.7549 48.5762C57.7549 48.0635 57.645 47.6851 57.4253 47.4409C57.2056 47.1968 56.876 47.0747 56.4365 47.0747C55.8831 47.0747 55.3826 47.3148 54.9351 47.7949C54.4875 48.2669 54.0968 48.9017 53.7632 49.6992C53.4377 50.4967 53.1691 51.3797 52.9575 52.3481L51.7612 58H48.0869ZM68.9536 58.2441C68.2944 58.2441 67.6719 58.0814 67.0859 57.7559C66.5 57.4303 66.0199 56.9054 65.6455 56.1812C65.2793 55.4569 65.0962 54.4966 65.0962 53.3003C65.0962 52.4051 65.1898 51.5181 65.377 50.6392C65.5723 49.7603 65.849 48.9302 66.207 48.1489C66.5732 47.3595 67.0127 46.6637 67.5254 46.0615C68.0462 45.4512 68.6322 44.971 69.2832 44.6211C69.9424 44.2712 70.6545 44.0962 71.4194 44.0962C71.9972 44.0962 72.5018 44.1816 72.9331 44.3525C73.3644 44.5153 73.7347 44.7472 74.0439 45.0483C74.3532 45.3494 74.6055 45.6994 74.8008 46.0981H74.8984L75.5942 44.3525H78.4263L75.521 58H72.7744L72.9453 56.23H72.8477C72.5221 56.6287 72.1681 56.9787 71.7856 57.2798C71.4032 57.5809 70.98 57.8169 70.5161 57.9878C70.0522 58.1587 69.5314 58.2441 68.9536 58.2441ZM70.394 55.2778C70.8986 55.2778 71.3665 55.0825 71.7979 54.6919C72.2292 54.2931 72.5994 53.7764 72.9087 53.1416C73.2179 52.5068 73.4377 51.8354 73.5679 51.1274C73.633 50.8019 73.6777 50.4764 73.7021 50.1509C73.7347 49.8172 73.751 49.4591 73.751 49.0767C73.751 48.4989 73.5964 48.0228 73.2871 47.6484C72.986 47.266 72.571 47.0747 72.042 47.0747C71.6839 47.0747 71.3421 47.1927 71.0166 47.4287C70.6992 47.6566 70.4062 47.974 70.1377 48.3809C69.8691 48.7796 69.6331 49.2394 69.4297 49.7603C69.2344 50.2729 69.0838 50.8182 68.978 51.396C68.8722 51.9738 68.8193 52.5516 68.8193 53.1294C68.8193 53.8374 68.9577 54.3745 69.2344 54.7407C69.5111 55.0988 69.8976 55.2778 70.394 55.2778ZM92.23 58.2441C91.3592 58.2441 90.5983 58.1831 89.9473 58.061C89.3044 57.939 88.7021 57.7355 88.1406 57.4507V54.4233C88.751 54.7733 89.3776 55.0459 90.0205 55.2412C90.6715 55.4284 91.3429 55.522 92.0347 55.522C92.4172 55.522 92.7752 55.4691 93.1089 55.3633C93.4507 55.2575 93.7274 55.0947 93.939 54.875C94.1506 54.6553 94.2563 54.3786 94.2563 54.0449C94.2563 53.8171 94.2035 53.6136 94.0977 53.4346C93.9919 53.2555 93.7884 53.0602 93.4873 52.8486C93.1943 52.6289 92.7671 52.3644 92.2056 52.0552C91.644 51.7378 91.1639 51.4123 90.7651 51.0786C90.3745 50.745 90.0734 50.3665 89.8618 49.9434C89.6584 49.5202 89.5566 49.0238 89.5566 48.4541C89.5566 47.5101 89.7642 46.7166 90.1792 46.0737C90.5942 45.4227 91.1883 44.9303 91.9614 44.5967C92.7427 44.263 93.6745 44.0962 94.7568 44.0962C95.5462 44.0962 96.3071 44.1857 97.0396 44.3647C97.772 44.5438 98.4881 44.8408 99.188 45.2559L97.9795 47.8804C97.4993 47.5874 96.9867 47.3433 96.4414 47.1479C95.9043 46.9526 95.3672 46.855 94.8301 46.855C94.4313 46.855 94.0732 46.9486 93.7559 47.1357C93.4385 47.3229 93.2798 47.6118 93.2798 48.0024C93.2798 48.214 93.3368 48.4093 93.4507 48.5884C93.5646 48.7593 93.7559 48.9342 94.0244 49.1133C94.3011 49.2923 94.6714 49.5039 95.1353 49.748C95.6886 50.0329 96.1769 50.3503 96.6001 50.7002C97.0314 51.042 97.3691 51.4408 97.6133 51.8965C97.8574 52.3441 97.9795 52.8771 97.9795 53.4956C97.9795 54.5373 97.7435 55.4121 97.2715 56.1201C96.7995 56.82 96.1322 57.349 95.2695 57.707C94.415 58.0651 93.4019 58.2441 92.23 58.2441ZM101.402 58L104.295 44.3525H107.97L105.077 58H101.402ZM106.725 42.6558C106.204 42.6558 105.764 42.5418 105.406 42.314C105.056 42.0861 104.881 41.6995 104.881 41.1543C104.881 40.6823 104.967 40.2876 105.138 39.9702C105.317 39.6528 105.573 39.4128 105.907 39.25C106.24 39.0872 106.639 39.0059 107.103 39.0059C107.591 39.0059 108.014 39.1117 108.373 39.3232C108.739 39.5348 108.922 39.9173 108.922 40.4707C108.922 41.1217 108.743 41.6507 108.385 42.0576C108.027 42.4564 107.473 42.6558 106.725 42.6558ZM114.579 58.2441C113.919 58.2441 113.297 58.0814 112.711 57.7559C112.125 57.4303 111.645 56.9054 111.271 56.1812C110.904 55.4487 110.721 54.4803 110.721 53.2759C110.721 52.3888 110.815 51.5059 111.002 50.627C111.197 49.748 111.474 48.918 111.832 48.1367C112.198 47.3473 112.638 46.6515 113.15 46.0493C113.671 45.439 114.257 44.9629 114.908 44.6211C115.567 44.2712 116.279 44.0962 117.044 44.0962C117.59 44.0962 118.049 44.1857 118.424 44.3647C118.806 44.5438 119.136 44.7839 119.413 45.085C119.689 45.3861 119.933 45.7238 120.145 46.0981H120.243C120.243 46.0493 120.255 45.8703 120.279 45.561C120.304 45.2518 120.34 44.8978 120.389 44.499C120.438 44.0921 120.499 43.7178 120.572 43.376L121.5 39.0059H125.174L121.146 58H118.351L118.57 56.23H118.473C118.147 56.6287 117.793 56.9787 117.411 57.2798C117.036 57.5809 116.617 57.8169 116.153 57.9878C115.689 58.1587 115.165 58.2441 114.579 58.2441ZM116.117 55.2778C116.499 55.2778 116.845 55.1761 117.154 54.9727C117.472 54.7611 117.748 54.4844 117.984 54.1426C118.229 53.7926 118.436 53.402 118.607 52.9707C118.786 52.5394 118.932 52.0999 119.046 51.6523C119.16 51.1966 119.242 50.7572 119.291 50.334C119.347 49.9108 119.376 49.5405 119.376 49.2231C119.376 48.5721 119.221 48.0513 118.912 47.6606C118.611 47.27 118.196 47.0747 117.667 47.0747C117.309 47.0747 116.967 47.1927 116.642 47.4287C116.324 47.6566 116.031 47.974 115.763 48.3809C115.494 48.7796 115.258 49.2394 115.055 49.7603C114.859 50.2729 114.709 50.8182 114.603 51.396C114.497 51.9738 114.444 52.5516 114.444 53.1294C114.444 53.8374 114.587 54.3745 114.872 54.7407C115.165 55.0988 115.58 55.2778 116.117 55.2778ZM132.064 58.2441C131.039 58.2441 130.131 58.0326 129.342 57.6094C128.561 57.1862 127.946 56.584 127.499 55.8027C127.059 55.0133 126.839 54.0775 126.839 52.9951C126.839 52.0267 126.933 51.103 127.12 50.2241C127.315 49.3371 127.604 48.5233 127.987 47.7827C128.377 47.034 128.862 46.387 129.439 45.8418C130.025 45.2884 130.705 44.8612 131.478 44.5601C132.251 44.2508 133.122 44.0962 134.09 44.0962C135.148 44.0962 136.064 44.3118 136.837 44.7432C137.61 45.1663 138.208 45.7808 138.631 46.5864C139.055 47.3921 139.266 48.3646 139.266 49.5039C139.266 50.4316 139.173 51.3268 138.985 52.1895C138.806 53.0439 138.53 53.8415 138.155 54.582C137.781 55.3145 137.309 55.9574 136.739 56.5107C136.17 57.056 135.494 57.4832 134.713 57.7925C133.94 58.0936 133.057 58.2441 132.064 58.2441ZM132.369 55.2534C132.776 55.2534 133.146 55.1517 133.48 54.9482C133.814 54.7367 134.111 54.4478 134.371 54.0815C134.632 53.7072 134.847 53.2799 135.018 52.7998C135.197 52.3115 135.331 51.7866 135.421 51.2251C135.519 50.6636 135.567 50.0898 135.567 49.5039C135.567 49.04 135.51 48.6291 135.396 48.271C135.291 47.9048 135.108 47.62 134.847 47.4165C134.595 47.2049 134.253 47.0991 133.822 47.0991C133.374 47.0991 132.971 47.2253 132.613 47.4775C132.263 47.7217 131.958 48.0513 131.698 48.4663C131.437 48.8813 131.222 49.3452 131.051 49.8579C130.88 50.3706 130.75 50.8996 130.66 51.4448C130.579 51.9819 130.538 52.4987 130.538 52.9951C130.538 53.7357 130.689 54.2972 130.99 54.6797C131.291 55.0622 131.751 55.2534 132.369 55.2534ZM45.7163 96.2441C44.6502 96.2441 43.7103 96.0529 42.8965 95.6704C42.0908 95.2798 41.4601 94.6938 41.0044 93.9126C40.5487 93.1313 40.3208 92.1507 40.3208 90.9707C40.3208 89.8314 40.4836 88.7327 40.8091 87.6748C41.1346 86.6087 41.6188 85.6566 42.2617 84.8184C42.9128 83.9801 43.7103 83.3169 44.6543 82.8286C45.6064 82.3403 46.7051 82.0962 47.9502 82.0962C49.4801 82.0962 50.6235 82.4461 51.3804 83.146C52.1453 83.8377 52.5278 84.7288 52.5278 85.8193C52.5278 86.5355 52.3651 87.1865 52.0396 87.7725C51.7222 88.3584 51.238 88.863 50.5869 89.2861C49.9359 89.7012 49.118 90.0226 48.1333 90.2505C47.1486 90.4702 45.993 90.5801 44.6665 90.5801H44.0439C44.0358 90.6777 44.0277 90.7632 44.0195 90.8364C44.0195 90.9097 44.0195 90.991 44.0195 91.0806C44.0195 91.813 44.2311 92.3949 44.6543 92.8262C45.0775 93.2575 45.6756 93.4731 46.4487 93.4731C47.1649 93.4731 47.8159 93.3918 48.4019 93.229C48.9878 93.0662 49.6795 92.7977 50.4771 92.4233V95.1943C49.7609 95.5443 49.0326 95.8088 48.292 95.9878C47.5514 96.1587 46.6929 96.2441 45.7163 96.2441ZM44.4468 88.1021H44.9961C45.9401 88.1021 46.7051 88.0003 47.291 87.7969C47.8851 87.5934 48.3164 87.3249 48.585 86.9912C48.8617 86.6576 49 86.2954 49 85.9048C49 85.5142 48.8861 85.2253 48.6582 85.0381C48.4385 84.8428 48.1252 84.7451 47.7183 84.7451C47.2625 84.7451 46.8109 84.8875 46.3633 85.1724C45.9157 85.4572 45.521 85.8519 45.1792 86.3564C44.8374 86.861 44.5933 87.4429 44.4468 88.1021ZM54.8643 96L57.7573 82.3525H60.5649L60.3086 84.8794H60.4185C60.7684 84.3341 61.1549 83.854 61.5781 83.439C62.0013 83.0239 62.4692 82.6984 62.9819 82.4624C63.5028 82.2183 64.0806 82.0962 64.7153 82.0962C65.4966 82.0962 66.1476 82.259 66.6685 82.5845C67.1974 82.9019 67.5921 83.3535 67.8525 83.9395C68.113 84.5254 68.2432 85.2212 68.2432 86.0269C68.2432 86.328 68.2188 86.6657 68.1699 87.04C68.1211 87.4144 68.0519 87.8091 67.9624 88.2241L66.3389 96H62.6646L64.3369 88.0288C64.402 87.7521 64.4508 87.4917 64.4834 87.2476C64.516 87.0034 64.5322 86.7796 64.5322 86.5762C64.5322 86.0635 64.4224 85.6851 64.2026 85.4409C63.9829 85.1968 63.6533 85.0747 63.2139 85.0747C62.6605 85.0747 62.16 85.3148 61.7124 85.7949C61.2648 86.2669 60.8742 86.9017 60.5405 87.6992C60.215 88.4967 59.9465 89.3797 59.7349 90.3481L58.5386 96H54.8643ZM73.7046 96L72.02 82.3525H75.6211L76.1704 89.5059C76.1867 89.7093 76.1989 89.9779 76.207 90.3115C76.2233 90.637 76.2355 90.9788 76.2437 91.3369C76.2518 91.695 76.2559 92.0246 76.2559 92.3257H76.3779C76.4756 92.049 76.5854 91.7397 76.7075 91.3979C76.8377 91.048 76.9679 90.7144 77.0981 90.397C77.2284 90.0715 77.3464 89.807 77.4521 89.6035L81.0776 82.3525H85.0205L77.6475 96H73.7046ZM85.2939 96L88.187 82.3525H91.8613L88.9683 96H85.2939ZM90.6162 80.6558C90.0954 80.6558 89.6559 80.5418 89.2979 80.314C88.9479 80.0861 88.7729 79.6995 88.7729 79.1543C88.7729 78.6823 88.8584 78.2876 89.0293 77.9702C89.2083 77.6528 89.4647 77.4128 89.7983 77.25C90.132 77.0872 90.5308 77.0059 90.9946 77.0059C91.4829 77.0059 91.9061 77.1117 92.2642 77.3232C92.6304 77.5348 92.8135 77.9173 92.8135 78.4707C92.8135 79.1217 92.6344 79.6507 92.2764 80.0576C91.9183 80.4564 91.3649 80.6558 90.6162 80.6558ZM98.4702 96.2441C97.811 96.2441 97.1885 96.0814 96.6025 95.7559C96.0166 95.4303 95.5365 94.9054 95.1621 94.1812C94.7959 93.4569 94.6128 92.4966 94.6128 91.3003C94.6128 90.4051 94.7064 89.5181 94.8936 88.6392C95.0889 87.7603 95.3656 86.9302 95.7236 86.1489C96.0898 85.3595 96.5293 84.6637 97.042 84.0615C97.5628 83.4512 98.1488 82.971 98.7998 82.6211C99.459 82.2712 100.171 82.0962 100.936 82.0962C101.514 82.0962 102.018 82.1816 102.45 82.3525C102.881 82.5153 103.251 82.7472 103.561 83.0483C103.87 83.3494 104.122 83.6994 104.317 84.0981H104.415L105.111 82.3525H107.943L105.038 96H102.291L102.462 94.23H102.364C102.039 94.6287 101.685 94.9787 101.302 95.2798C100.92 95.5809 100.497 95.8169 100.033 95.9878C99.5688 96.1587 99.048 96.2441 98.4702 96.2441ZM99.9106 93.2778C100.415 93.2778 100.883 93.0825 101.314 92.6919C101.746 92.2931 102.116 91.7764 102.425 91.1416C102.735 90.5068 102.954 89.8354 103.084 89.1274C103.15 88.8019 103.194 88.4764 103.219 88.1509C103.251 87.8172 103.268 87.4591 103.268 87.0767C103.268 86.4989 103.113 86.0228 102.804 85.6484C102.503 85.266 102.088 85.0747 101.559 85.0747C101.201 85.0747 100.859 85.1927 100.533 85.4287C100.216 85.6566 99.9229 85.974 99.6543 86.3809C99.3857 86.7796 99.1497 87.2394 98.9463 87.7603C98.751 88.2729 98.6004 88.8182 98.4946 89.396C98.3888 89.9738 98.3359 90.5516 98.3359 91.1294C98.3359 91.8374 98.4743 92.3745 98.751 92.7407C99.0277 93.0988 99.4142 93.2778 99.9106 93.2778ZM114.588 96.2441C113.929 96.2441 113.307 96.0814 112.721 95.7559C112.135 95.4303 111.655 94.9054 111.28 94.1812C110.914 93.4487 110.731 92.4803 110.731 91.2759C110.731 90.3888 110.825 89.5059 111.012 88.627C111.207 87.748 111.484 86.918 111.842 86.1367C112.208 85.3473 112.647 84.6515 113.16 84.0493C113.681 83.439 114.267 82.9629 114.918 82.6211C115.577 82.2712 116.289 82.0962 117.054 82.0962C117.599 82.0962 118.059 82.1857 118.434 82.3647C118.816 82.5438 119.146 82.7839 119.422 83.085C119.699 83.3861 119.943 83.7238 120.155 84.0981H120.252C120.252 84.0493 120.265 83.8703 120.289 83.561C120.313 83.2518 120.35 82.8978 120.399 82.499C120.448 82.0921 120.509 81.7178 120.582 81.376L121.51 77.0059H125.184L121.156 96H118.36L118.58 94.23H118.482C118.157 94.6287 117.803 94.9787 117.42 95.2798C117.046 95.5809 116.627 95.8169 116.163 95.9878C115.699 96.1587 115.174 96.2441 114.588 96.2441ZM116.126 93.2778C116.509 93.2778 116.855 93.1761 117.164 92.9727C117.481 92.7611 117.758 92.4844 117.994 92.1426C118.238 91.7926 118.446 91.402 118.617 90.9707C118.796 90.5394 118.942 90.0999 119.056 89.6523C119.17 89.1966 119.251 88.7572 119.3 88.334C119.357 87.9108 119.386 87.5405 119.386 87.2231C119.386 86.5721 119.231 86.0513 118.922 85.6606C118.621 85.27 118.206 85.0747 117.677 85.0747C117.319 85.0747 116.977 85.1927 116.651 85.4287C116.334 85.6566 116.041 85.974 115.772 86.3809C115.504 86.7796 115.268 87.2394 115.064 87.7603C114.869 88.2729 114.719 88.8182 114.613 89.396C114.507 89.9738 114.454 90.5516 114.454 91.1294C114.454 91.8374 114.597 92.3745 114.881 92.7407C115.174 93.0988 115.589 93.2778 116.126 93.2778ZM132.074 96.2441C131.048 96.2441 130.141 96.0326 129.352 95.6094C128.57 95.1862 127.956 94.584 127.508 93.8027C127.069 93.0133 126.849 92.0775 126.849 90.9951C126.849 90.0267 126.943 89.103 127.13 88.2241C127.325 87.3371 127.614 86.5233 127.997 85.7827C128.387 85.034 128.871 84.387 129.449 83.8418C130.035 83.2884 130.715 82.8612 131.488 82.5601C132.261 82.2508 133.132 82.0962 134.1 82.0962C135.158 82.0962 136.074 82.3118 136.847 82.7432C137.62 83.1663 138.218 83.7808 138.641 84.5864C139.064 85.3921 139.276 86.3646 139.276 87.5039C139.276 88.4316 139.182 89.3268 138.995 90.1895C138.816 91.0439 138.539 91.8415 138.165 92.582C137.791 93.3145 137.319 93.9574 136.749 94.5107C136.179 95.056 135.504 95.4832 134.723 95.7925C133.95 96.0936 133.067 96.2441 132.074 96.2441ZM132.379 93.2534C132.786 93.2534 133.156 93.1517 133.49 92.9482C133.823 92.7367 134.12 92.4478 134.381 92.0815C134.641 91.7072 134.857 91.2799 135.028 90.7998C135.207 90.3115 135.341 89.7866 135.431 89.2251C135.528 88.6636 135.577 88.0898 135.577 87.5039C135.577 87.04 135.52 86.6291 135.406 86.271C135.3 85.9048 135.117 85.62 134.857 85.4165C134.605 85.2049 134.263 85.0991 133.832 85.0991C133.384 85.0991 132.981 85.2253 132.623 85.4775C132.273 85.7217 131.968 86.0513 131.708 86.4663C131.447 86.8813 131.231 87.3452 131.061 87.8579C130.89 88.3706 130.759 88.8996 130.67 89.4448C130.589 89.9819 130.548 90.4987 130.548 90.9951C130.548 91.7357 130.698 92.2972 131 92.6797C131.301 93.0622 131.76 93.2534 132.379 93.2534ZM143.346 90.0796L145.372 78.1533H149.522L146.495 90.0796H143.346ZM143.822 96.3296C143.13 96.3296 142.642 96.1506 142.357 95.7925C142.072 95.4344 141.93 95.0356 141.93 94.5962C141.93 93.994 142.117 93.4406 142.491 92.936C142.866 92.4315 143.508 92.1792 144.42 92.1792C144.973 92.1792 145.417 92.3338 145.75 92.6431C146.084 92.9523 146.251 93.3877 146.251 93.9492C146.251 94.641 146.031 95.2106 145.592 95.6582C145.152 96.1058 144.562 96.3296 143.822 96.3296Z" fill="white"/>
</svg>
