<svg width="180" height="97" viewBox="0 0 180 97" fill="none" xmlns="http://www.w3.org/2000/svg">
<path d="M0.367676 24.541L3.57812 12.1265H5.73877L3.66357 24.541H0.367676ZM5.15283 10.0269C4.68896 10.0269 4.31868 9.89665 4.04199 9.63623C3.77344 9.37581 3.63916 9.00553 3.63916 8.52539C3.63916 7.92318 3.8182 7.41455 4.17627 6.99951C4.54248 6.57633 5.05924 6.36475 5.72656 6.36475C6.25553 6.36475 6.64209 6.50716 6.88623 6.79199C7.13851 7.07682 7.26465 7.43083 7.26465 7.854C7.26465 8.20394 7.19141 8.54574 7.04492 8.87939C6.90658 9.21305 6.68278 9.48975 6.37354 9.70947C6.06429 9.92106 5.65739 10.0269 5.15283 10.0269ZM12.5186 20L15.7656 4.64355H11.127L11.6519 2.15332H23.8345L23.3218 4.64355H18.6709L15.4238 20H12.5186ZM27.8799 20.2441C27.1556 20.2441 26.5371 20.1017 26.0244 19.8169C25.5199 19.5321 25.1333 19.1211 24.8647 18.584C24.6043 18.0387 24.4741 17.3877 24.4741 16.6309C24.4741 16.2972 24.4985 15.931 24.5474 15.5322C24.6043 15.1253 24.6735 14.7062 24.7549 14.2749L26.415 6.48682H29.2715L27.5259 14.6899C27.4689 15.0073 27.4201 15.2962 27.3794 15.5566C27.3468 15.8089 27.3306 16.0409 27.3306 16.2524C27.3306 16.7977 27.4567 17.2127 27.709 17.4976C27.9694 17.7743 28.3722 17.9126 28.9175 17.9126C29.5034 17.9126 30.0731 17.6929 30.6265 17.2534C31.188 16.8058 31.6966 16.1589 32.1523 15.3125C32.6081 14.4661 32.9621 13.4448 33.2144 12.2485L34.4351 6.48682H37.2671L34.4106 20H32.1646L32.4575 17.4365H32.3354C32.0099 17.9167 31.6315 18.3724 31.2002 18.8037C30.7689 19.2269 30.2806 19.5728 29.7354 19.8413C29.1901 20.1099 28.5716 20.2441 27.8799 20.2441ZM45.9683 26.0059C45.6183 26.0059 45.2806 25.9774 44.9551 25.9204C44.6214 25.8634 44.3407 25.7983 44.1128 25.7251V23.3813C44.3569 23.4709 44.5929 23.536 44.8208 23.5767C45.0405 23.6255 45.2725 23.6499 45.5166 23.6499C46.07 23.6499 46.5216 23.4465 46.8716 23.0396C47.2297 22.6408 47.4982 22.0304 47.6772 21.2085L50.3262 8.65967H48.1655L48.4341 7.34131L50.79 6.4502L51.0464 5.29053C51.2254 4.46045 51.4533 3.76465 51.73 3.20312C52.0148 2.63346 52.3485 2.17773 52.731 1.83594C53.1216 1.49414 53.5692 1.25 54.0737 1.10352C54.5864 0.948893 55.1642 0.871582 55.8071 0.871582C56.2954 0.871582 56.7633 0.92041 57.2109 1.01807C57.6667 1.11572 58.0614 1.24186 58.395 1.39648L57.6382 3.54492C57.4022 3.44727 57.1499 3.36182 56.8813 3.28857C56.6128 3.21533 56.3158 3.17871 55.9902 3.17871C55.4124 3.17871 54.9526 3.35775 54.6108 3.71582C54.269 4.07389 54.0168 4.64762 53.854 5.43701L53.6343 6.48682H56.4053L55.9658 8.65967H53.1704L50.436 21.5991C50.2489 22.4618 49.9762 23.2227 49.6182 23.8818C49.2682 24.5492 48.7962 25.07 48.2021 25.4443C47.6081 25.8187 46.8634 26.0059 45.9683 26.0059ZM62.9409 20.2197C61.9155 20.2197 61.0203 20.0081 60.2554 19.585C59.4904 19.1618 58.8963 18.5636 58.4731 17.7905C58.0581 17.0093 57.8506 16.0856 57.8506 15.0195C57.8506 14.1162 57.9442 13.2373 58.1313 12.3828C58.3267 11.5283 58.6115 10.7308 58.9858 9.99023C59.3602 9.24967 59.8281 8.6027 60.3896 8.04932C60.9512 7.48779 61.6022 7.05241 62.3428 6.74316C63.0833 6.42578 63.9134 6.26709 64.833 6.26709C65.8828 6.26709 66.7861 6.47868 67.543 6.90186C68.2998 7.32503 68.8817 7.93132 69.2886 8.7207C69.6955 9.51009 69.8989 10.4541 69.8989 11.5527C69.8989 12.4316 69.8053 13.2902 69.6182 14.1284C69.4391 14.9666 69.1665 15.756 68.8003 16.4966C68.4341 17.229 67.9702 17.876 67.4087 18.4375C66.8553 18.9909 66.2043 19.4263 65.4556 19.7437C64.715 20.061 63.8768 20.2197 62.9409 20.2197ZM63.1484 17.876C63.6042 17.876 64.0273 17.7743 64.418 17.5708C64.8167 17.3592 65.1748 17.0622 65.4922 16.6797C65.8096 16.2891 66.0781 15.8293 66.2979 15.3003C66.5257 14.7632 66.7007 14.1691 66.8228 13.5181C66.9448 12.867 67.0059 12.1712 67.0059 11.4307C67.0059 10.9342 66.9326 10.4744 66.7861 10.0513C66.6396 9.61995 66.3955 9.27409 66.0537 9.01367C65.7201 8.74512 65.2725 8.61084 64.7109 8.61084C64.2064 8.61084 63.7425 8.73291 63.3193 8.97705C62.9043 9.21305 62.534 9.54264 62.2085 9.96582C61.8911 10.389 61.6226 10.8773 61.4028 11.4307C61.1831 11.9759 61.0163 12.5618 60.9023 13.1885C60.7884 13.807 60.7314 14.4336 60.7314 15.0684C60.7314 15.9717 60.9349 16.6675 61.3418 17.1558C61.7568 17.6359 62.359 17.876 63.1484 17.876ZM72.8823 20L75.751 6.48682H77.9849L77.6919 9.03809H77.8262C78.1761 8.51725 78.5545 8.04525 78.9614 7.62207C79.3765 7.19889 79.8363 6.86117 80.3408 6.60889C80.8454 6.35661 81.4069 6.23047 82.0254 6.23047C82.2451 6.23047 82.473 6.24674 82.709 6.2793C82.9531 6.30371 83.1647 6.34033 83.3438 6.38916L82.7212 9.07471C82.5422 9.02588 82.3468 8.98519 82.1353 8.95264C81.9237 8.92008 81.6999 8.90381 81.4639 8.90381C80.9268 8.90381 80.4222 9.02995 79.9502 9.28223C79.4782 9.53451 79.0509 9.88444 78.6685 10.332C78.286 10.7796 77.9564 11.3045 77.6797 11.9067C77.403 12.5008 77.1873 13.1478 77.0327 13.8477L75.7388 20H72.8823ZM84.3374 20L87.2061 6.48682H89.4399L89.147 9.03809H89.269C89.5864 8.55794 89.9526 8.10628 90.3677 7.68311C90.7909 7.25179 91.2669 6.90186 91.7959 6.6333C92.333 6.36475 92.9352 6.23047 93.6025 6.23047C94.5465 6.23047 95.2668 6.49089 95.7632 7.01172C96.2677 7.53255 96.5811 8.24463 96.7031 9.14795H96.8008C97.1344 8.62712 97.521 8.14697 97.9604 7.70752C98.408 7.26807 98.9085 6.91406 99.4619 6.64551C100.023 6.36882 100.634 6.23047 101.293 6.23047C102.383 6.23047 103.209 6.54785 103.771 7.18262C104.333 7.81738 104.613 8.70443 104.613 9.84375C104.613 10.1855 104.589 10.5355 104.54 10.8936C104.499 11.2516 104.434 11.6219 104.345 12.0044L102.66 20H99.8037L101.549 11.7969C101.614 11.4795 101.663 11.1947 101.696 10.9424C101.736 10.682 101.757 10.4378 101.757 10.21C101.757 9.68099 101.631 9.27816 101.378 9.00146C101.134 8.71663 100.76 8.57422 100.255 8.57422C99.8322 8.57422 99.4131 8.70036 98.998 8.95264C98.5911 9.20492 98.2046 9.57113 97.8384 10.0513C97.4722 10.5314 97.1466 11.1133 96.8618 11.7969C96.577 12.4723 96.3451 13.2373 96.166 14.0918L94.9209 20H92.0767L93.7979 11.8213C93.8711 11.4958 93.924 11.2028 93.9565 10.9424C93.9891 10.682 94.0054 10.4541 94.0054 10.2588C94.0054 9.71354 93.8874 9.2985 93.6514 9.01367C93.4235 8.7207 93.0573 8.57422 92.5527 8.57422C92.1296 8.57422 91.7104 8.70036 91.2954 8.95264C90.8804 9.20492 90.4897 9.5752 90.1235 10.0635C89.7573 10.5518 89.4277 11.1458 89.1348 11.8457C88.8418 12.5374 88.6017 13.3309 88.4146 14.2261L87.1938 20H84.3374ZM111.991 20.2441C111.267 20.2441 110.648 20.1017 110.136 19.8169C109.631 19.5321 109.245 19.1211 108.976 18.584C108.716 18.0387 108.585 17.3877 108.585 16.6309C108.585 16.2972 108.61 15.931 108.659 15.5322C108.716 15.1253 108.785 14.7062 108.866 14.2749L110.526 6.48682H113.383L111.637 14.6899C111.58 15.0073 111.531 15.2962 111.491 15.5566C111.458 15.8089 111.442 16.0409 111.442 16.2524C111.442 16.7977 111.568 17.2127 111.82 17.4976C112.081 17.7743 112.484 17.9126 113.029 17.9126C113.615 17.9126 114.184 17.6929 114.738 17.2534C115.299 16.8058 115.808 16.1589 116.264 15.3125C116.719 14.4661 117.073 13.4448 117.326 12.2485L118.546 6.48682H121.378L118.522 20H116.276L116.569 17.4365H116.447C116.121 17.9167 115.743 18.3724 115.312 18.8037C114.88 19.2269 114.392 19.5728 113.847 19.8413C113.301 20.1099 112.683 20.2441 111.991 20.2441ZM123.812 20L127.853 1.00586H130.697L126.669 20H123.812ZM136.269 20.2441C135.577 20.2441 134.946 20.0773 134.376 19.7437C133.815 19.4019 133.367 18.881 133.034 18.1812C132.7 17.4731 132.533 16.5739 132.533 15.4834C132.533 14.5394 132.631 13.6198 132.826 12.7246C133.03 11.8294 133.314 10.9912 133.681 10.21C134.055 9.42871 134.507 8.74105 135.036 8.14697C135.565 7.54476 136.163 7.07682 136.83 6.74316C137.497 6.40137 138.218 6.23047 138.991 6.23047C139.577 6.23047 140.089 6.33219 140.529 6.53564C140.968 6.73096 141.339 6.99544 141.64 7.3291C141.941 7.66276 142.185 8.03304 142.372 8.43994H142.482L143.214 6.48682H145.412L142.543 20H140.358L140.626 17.8149H140.529C140.179 18.2625 139.788 18.6694 139.357 19.0356C138.934 19.4019 138.466 19.6948 137.953 19.9146C137.44 20.1343 136.879 20.2441 136.269 20.2441ZM137.318 17.9126C137.888 17.9126 138.433 17.701 138.954 17.2778C139.475 16.8465 139.935 16.2769 140.333 15.5688C140.74 14.8608 141.042 14.0837 141.237 13.2373C141.334 12.8304 141.4 12.4438 141.432 12.0776C141.473 11.7114 141.493 11.3452 141.493 10.979C141.493 10.271 141.306 9.6932 140.932 9.24561C140.557 8.79801 140.045 8.57422 139.394 8.57422C138.946 8.57422 138.519 8.70036 138.112 8.95264C137.713 9.20492 137.351 9.55485 137.025 10.0024C136.7 10.4419 136.415 10.9505 136.171 11.5283C135.935 12.1061 135.752 12.7287 135.622 13.396C135.5 14.0552 135.438 14.7266 135.438 15.4102C135.438 16.2321 135.601 16.8547 135.927 17.2778C136.26 17.701 136.724 17.9126 137.318 17.9126ZM147.711 20L150.58 6.48682H152.814L152.521 9.03809H152.655C153.005 8.51725 153.384 8.04525 153.791 7.62207C154.206 7.19889 154.665 6.86117 155.17 6.60889C155.674 6.35661 156.236 6.23047 156.854 6.23047C157.074 6.23047 157.302 6.24674 157.538 6.2793C157.782 6.30371 157.994 6.34033 158.173 6.38916L157.55 9.07471C157.371 9.02588 157.176 8.98519 156.964 8.95264C156.753 8.92008 156.529 8.90381 156.293 8.90381C155.756 8.90381 155.251 9.02995 154.779 9.28223C154.307 9.53451 153.88 9.88444 153.498 10.332C153.115 10.7796 152.785 11.3045 152.509 11.9067C152.232 12.5008 152.016 13.1478 151.862 13.8477L150.568 20H147.711ZM159.167 20L162.035 6.48682H164.892L162.023 20H159.167ZM164.098 4.46045C163.675 4.46045 163.321 4.35872 163.036 4.15527C162.751 3.94368 162.609 3.6141 162.609 3.1665C162.609 2.79215 162.678 2.46663 162.816 2.18994C162.963 1.91325 163.17 1.70166 163.439 1.55518C163.716 1.40055 164.045 1.32324 164.428 1.32324C164.851 1.32324 165.197 1.42497 165.465 1.62842C165.734 1.82373 165.868 2.14111 165.868 2.58057C165.868 3.15023 165.709 3.60596 165.392 3.94775C165.075 4.28955 164.643 4.46045 164.098 4.46045ZM172.965 20.2197C171.94 20.2197 171.045 20.0081 170.28 19.585C169.515 19.1618 168.921 18.5636 168.498 17.7905C168.083 17.0093 167.875 16.0856 167.875 15.0195C167.875 14.1162 167.969 13.2373 168.156 12.3828C168.351 11.5283 168.636 10.7308 169.01 9.99023C169.385 9.24967 169.853 8.6027 170.414 8.04932C170.976 7.48779 171.627 7.05241 172.367 6.74316C173.108 6.42578 173.938 6.26709 174.857 6.26709C175.907 6.26709 176.811 6.47868 177.567 6.90186C178.324 7.32503 178.906 7.93132 179.313 8.7207C179.72 9.51009 179.923 10.4541 179.923 11.5527C179.923 12.4316 179.83 13.2902 179.643 14.1284C179.464 14.9666 179.191 15.756 178.825 16.4966C178.458 17.229 177.995 17.876 177.433 18.4375C176.88 18.9909 176.229 19.4263 175.48 19.7437C174.739 20.061 173.901 20.2197 172.965 20.2197ZM173.173 17.876C173.629 17.876 174.052 17.7743 174.442 17.5708C174.841 17.3592 175.199 17.0622 175.517 16.6797C175.834 16.2891 176.103 15.8293 176.322 15.3003C176.55 14.7632 176.725 14.1691 176.847 13.5181C176.969 12.867 177.03 12.1712 177.03 11.4307C177.03 10.9342 176.957 10.4744 176.811 10.0513C176.664 9.61995 176.42 9.27409 176.078 9.01367C175.744 8.74512 175.297 8.61084 174.735 8.61084C174.231 8.61084 173.767 8.73291 173.344 8.97705C172.929 9.21305 172.558 9.54264 172.233 9.96582C171.916 10.389 171.647 10.8773 171.427 11.4307C171.208 11.9759 171.041 12.5618 170.927 13.1885C170.813 13.807 170.756 14.4336 170.756 15.0684C170.756 15.9717 170.959 16.6675 171.366 17.1558C171.781 17.6359 172.383 17.876 173.173 17.876ZM46.3564 58L50.3848 39.0059H53.229L52.3379 43.1196C52.2728 43.4777 52.1833 43.8683 52.0693 44.2915C51.9635 44.7147 51.8496 45.1338 51.7275 45.5488C51.6136 45.9639 51.5037 46.3464 51.3979 46.6963H51.5078C51.8333 46.2731 52.1995 45.8743 52.6064 45.5C53.0215 45.1257 53.4854 44.8245 53.998 44.5967C54.5189 44.3607 55.0967 44.2427 55.7314 44.2427C56.472 44.2427 57.0986 44.3892 57.6113 44.6821C58.124 44.967 58.5146 45.382 58.7832 45.9272C59.0518 46.4644 59.186 47.1235 59.186 47.9048C59.186 48.214 59.1616 48.5477 59.1128 48.9058C59.064 49.2557 58.9989 49.6219 58.9175 50.0044L57.2207 58H54.3643L56.0977 49.7969C56.1709 49.4795 56.2238 49.1947 56.2563 48.9424C56.2889 48.6901 56.3052 48.4622 56.3052 48.2588C56.3052 47.7054 56.175 47.2863 55.9146 47.0015C55.6541 46.7166 55.2513 46.5742 54.7061 46.5742C54.1283 46.5742 53.5586 46.798 52.9971 47.2456C52.4355 47.6851 51.931 48.328 51.4834 49.1743C51.0358 50.0125 50.6859 51.0298 50.4336 52.2261L49.2129 58H46.3564ZM66.686 58.2441C65.9943 58.2441 65.3636 58.0773 64.7939 57.7437C64.2324 57.4019 63.7848 56.881 63.4512 56.1812C63.1175 55.4731 62.9507 54.5739 62.9507 53.4834C62.9507 52.5394 63.0483 51.6198 63.2437 50.7246C63.4471 49.8294 63.7319 48.9912 64.0981 48.21C64.4725 47.4287 64.9242 46.741 65.4531 46.147C65.9821 45.5448 66.5802 45.0768 67.2476 44.7432C67.9149 44.4014 68.6351 44.2305 69.4082 44.2305C69.9941 44.2305 70.5068 44.3322 70.9463 44.5356C71.3857 44.731 71.756 44.9954 72.0571 45.3291C72.3582 45.6628 72.6024 46.033 72.7896 46.4399H72.8994L73.6318 44.4868H75.8291L72.9604 58H70.7754L71.0439 55.8149H70.9463C70.5964 56.2625 70.2057 56.6694 69.7744 57.0356C69.3512 57.4019 68.8833 57.6948 68.3706 57.9146C67.8579 58.1343 67.2964 58.2441 66.686 58.2441ZM67.7358 55.9126C68.3055 55.9126 68.8507 55.701 69.3716 55.2778C69.8924 54.8465 70.3522 54.2769 70.751 53.5688C71.1579 52.8608 71.459 52.0837 71.6543 51.2373C71.752 50.8304 71.8171 50.4438 71.8496 50.0776C71.8903 49.7114 71.9106 49.3452 71.9106 48.979C71.9106 48.271 71.7235 47.6932 71.3491 47.2456C70.9748 46.798 70.4621 46.5742 69.811 46.5742C69.3634 46.5742 68.9362 46.7004 68.5293 46.9526C68.1305 47.2049 67.7684 47.5549 67.4429 48.0024C67.1174 48.4419 66.8325 48.9505 66.5884 49.5283C66.3524 50.1061 66.1693 50.7287 66.0391 51.396C65.917 52.0552 65.856 52.7266 65.856 53.4102C65.856 54.2321 66.0187 54.8547 66.3442 55.2778C66.6779 55.701 67.1418 55.9126 67.7358 55.9126ZM89.4253 58.2441C88.5789 58.2441 87.8384 58.1709 87.2036 58.0244C86.577 57.8861 86.0114 57.6826 85.5068 57.4141V54.9604C86.0277 55.2697 86.6136 55.5301 87.2646 55.7417C87.9238 55.9451 88.5993 56.0469 89.291 56.0469C89.8281 56.0469 90.2961 55.9736 90.6948 55.8271C91.0936 55.6807 91.4028 55.4731 91.6226 55.2046C91.8504 54.9279 91.9644 54.5942 91.9644 54.2036C91.9644 53.9188 91.8993 53.6665 91.769 53.4468C91.6388 53.2271 91.415 53.0033 91.0977 52.7754C90.7803 52.5475 90.3408 52.2749 89.7793 51.9575C89.1852 51.6239 88.6807 51.2861 88.2656 50.9443C87.8587 50.5944 87.5454 50.2078 87.3257 49.7847C87.1141 49.3615 87.0083 48.8651 87.0083 48.2954C87.0083 47.4409 87.2036 46.7126 87.5942 46.1104C87.993 45.5 88.5545 45.0361 89.2788 44.7188C90.0112 44.3932 90.8739 44.2305 91.8667 44.2305C92.6642 44.2305 93.417 44.3241 94.125 44.5112C94.833 44.6903 95.4881 44.9425 96.0903 45.2681L95.1504 47.3921C94.7028 47.1398 94.2064 46.9242 93.6611 46.7451C93.1159 46.5579 92.5299 46.4644 91.9033 46.4644C91.3255 46.4644 90.8413 46.5986 90.4507 46.8672C90.0682 47.1357 89.877 47.5182 89.877 48.0146C89.877 48.2751 89.938 48.5111 90.0601 48.7227C90.1903 48.9261 90.4059 49.1336 90.707 49.3452C91.0081 49.5568 91.4191 49.8009 91.9399 50.0776C92.5015 50.3869 93.002 50.7124 93.4414 51.0542C93.8809 51.396 94.2267 51.7907 94.479 52.2383C94.7313 52.6777 94.8574 53.2108 94.8574 53.8374C94.8574 54.7896 94.6336 55.5952 94.186 56.2544C93.7466 56.9054 93.12 57.4019 92.3062 57.7437C91.4924 58.0773 90.5321 58.2441 89.4253 58.2441ZM98.4268 58L101.295 44.4868H104.152L101.283 58H98.4268ZM103.358 42.4604C102.935 42.4604 102.581 42.3587 102.296 42.1553C102.012 41.9437 101.869 41.6141 101.869 41.1665C101.869 40.7922 101.938 40.4666 102.077 40.1899C102.223 39.9132 102.431 39.7017 102.699 39.5552C102.976 39.4006 103.306 39.3232 103.688 39.3232C104.111 39.3232 104.457 39.425 104.726 39.6284C104.994 39.8237 105.128 40.1411 105.128 40.5806C105.128 41.1502 104.97 41.606 104.652 41.9478C104.335 42.2896 103.904 42.4604 103.358 42.4604ZM110.883 58.2441C110.183 58.2441 109.548 58.0773 108.979 57.7437C108.417 57.41 107.969 56.8932 107.636 56.1934C107.302 55.4854 107.135 54.578 107.135 53.4712C107.135 52.5435 107.229 51.6361 107.416 50.749C107.611 49.8538 107.892 49.0156 108.258 48.2344C108.625 47.445 109.072 46.7533 109.601 46.1592C110.13 45.557 110.728 45.089 111.396 44.7554C112.071 44.4136 112.803 44.2427 113.593 44.2427C114.179 44.2427 114.679 44.3444 115.094 44.5479C115.509 44.7513 115.859 45.0199 116.144 45.3535C116.429 45.6872 116.669 46.0493 116.864 46.4399H116.974C116.999 46.2284 117.027 45.9598 117.06 45.6343C117.1 45.3006 117.149 44.9425 117.206 44.5601C117.263 44.1694 117.332 43.791 117.414 43.4248L118.354 39.0059H121.198L117.169 58H114.936L115.204 55.8149H115.119C114.761 56.2707 114.37 56.6816 113.947 57.0479C113.532 57.4141 113.072 57.707 112.567 57.9268C112.063 58.1383 111.501 58.2441 110.883 58.2441ZM111.994 55.9126C112.376 55.9126 112.742 55.8149 113.092 55.6196C113.45 55.4243 113.78 55.1558 114.081 54.814C114.39 54.464 114.671 54.0653 114.923 53.6177C115.176 53.1619 115.391 52.6777 115.57 52.165C115.749 51.6523 115.888 51.1315 115.985 50.6025C116.083 50.0736 116.132 49.5609 116.132 49.0645C116.132 48.3076 115.949 47.7054 115.583 47.2578C115.224 46.8021 114.687 46.5742 113.971 46.5742C113.507 46.5742 113.076 46.7044 112.677 46.9648C112.278 47.2253 111.916 47.5793 111.591 48.0269C111.265 48.4744 110.985 48.9912 110.749 49.5771C110.521 50.1549 110.346 50.7734 110.224 51.4326C110.102 52.0918 110.041 52.751 110.041 53.4102C110.041 54.2321 110.203 54.8547 110.529 55.2778C110.862 55.701 111.351 55.9126 111.994 55.9126ZM128.124 58.2197C127.099 58.2197 126.203 58.0081 125.438 57.585C124.674 57.1618 124.079 56.5636 123.656 55.7905C123.241 55.0093 123.034 54.0856 123.034 53.0195C123.034 52.1162 123.127 51.2373 123.314 50.3828C123.51 49.5283 123.795 48.7308 124.169 47.9902C124.543 47.2497 125.011 46.6027 125.573 46.0493C126.134 45.4878 126.785 45.0524 127.526 44.7432C128.266 44.4258 129.097 44.2671 130.016 44.2671C131.066 44.2671 131.969 44.4787 132.726 44.9019C133.483 45.325 134.065 45.9313 134.472 46.7207C134.879 47.5101 135.082 48.4541 135.082 49.5527C135.082 50.4316 134.988 51.2902 134.801 52.1284C134.622 52.9666 134.35 53.756 133.983 54.4966C133.617 55.229 133.153 55.876 132.592 56.4375C132.038 56.9909 131.387 57.4263 130.639 57.7437C129.898 58.061 129.06 58.2197 128.124 58.2197ZM128.332 55.876C128.787 55.876 129.21 55.7743 129.601 55.5708C130 55.3592 130.358 55.0622 130.675 54.6797C130.993 54.2891 131.261 53.8293 131.481 53.3003C131.709 52.7632 131.884 52.1691 132.006 51.5181C132.128 50.867 132.189 50.1712 132.189 49.4307C132.189 48.9342 132.116 48.4744 131.969 48.0513C131.823 47.62 131.579 47.2741 131.237 47.0137C130.903 46.7451 130.456 46.6108 129.894 46.6108C129.389 46.6108 128.926 46.7329 128.502 46.9771C128.087 47.2131 127.717 47.5426 127.392 47.9658C127.074 48.389 126.806 48.8773 126.586 49.4307C126.366 49.9759 126.199 50.5618 126.085 51.1885C125.972 51.807 125.915 52.4336 125.915 53.0684C125.915 53.9717 126.118 54.6675 126.525 55.1558C126.94 55.6359 127.542 55.876 128.332 55.876ZM44.1812 96.2441C43.1476 96.2441 42.2443 96.0488 41.4712 95.6582C40.7062 95.2594 40.1121 94.6776 39.689 93.9126C39.2739 93.1395 39.0664 92.1955 39.0664 91.0806C39.0664 89.9738 39.2251 88.8955 39.5425 87.8457C39.8599 86.7878 40.3278 85.8356 40.9463 84.9893C41.5648 84.1429 42.3175 83.4715 43.2046 82.9751C44.0916 82.4787 45.1007 82.2305 46.2319 82.2305C47.6154 82.2305 48.653 82.5438 49.3447 83.1704C50.0446 83.7889 50.3945 84.6108 50.3945 85.6362C50.3945 86.3361 50.2358 86.9749 49.9185 87.5527C49.6011 88.1305 49.1169 88.631 48.4658 89.0542C47.8229 89.4692 47.005 89.7907 46.0122 90.0186C45.0275 90.2464 43.8678 90.3604 42.5332 90.3604H41.9839C41.9757 90.4824 41.9676 90.6086 41.9595 90.7388C41.9513 90.8608 41.9473 90.9829 41.9473 91.105C41.9473 92.0083 42.1833 92.7204 42.6553 93.2412C43.1273 93.7539 43.8149 94.0103 44.7183 94.0103C45.4019 94.0103 46.0326 93.9248 46.6104 93.7539C47.1882 93.583 47.8351 93.3267 48.5513 92.9849V95.2432C47.8921 95.5605 47.2248 95.8088 46.5493 95.9878C45.8739 96.1587 45.0845 96.2441 44.1812 96.2441ZM42.3379 88.2852H42.7529C43.7458 88.2852 44.6084 88.1916 45.3408 88.0044C46.0732 87.8091 46.6388 87.5243 47.0376 87.1499C47.4364 86.7674 47.6357 86.3035 47.6357 85.7583C47.6357 85.3351 47.5015 85.0055 47.2329 84.7695C46.9725 84.5254 46.5819 84.4033 46.061 84.4033C45.5483 84.4033 45.0438 84.562 44.5474 84.8794C44.0509 85.1886 43.6074 85.6362 43.2168 86.2222C42.8262 86.8 42.5332 87.4876 42.3379 88.2852ZM52.8896 96L55.7705 82.4502H58.0776L57.7847 85.0015H57.8579C58.1834 84.5213 58.5618 84.0697 58.9932 83.6465C59.4245 83.2152 59.9128 82.8652 60.458 82.5967C61.0114 82.3281 61.6299 82.1938 62.3135 82.1938C63.0622 82.1938 63.6969 82.3403 64.2178 82.6333C64.7386 82.9263 65.1333 83.3454 65.4019 83.8906C65.6704 84.4359 65.8047 85.0869 65.8047 85.8438C65.8047 86.1774 65.7762 86.5355 65.7192 86.918C65.6704 87.2923 65.6053 87.6585 65.5239 88.0166L63.8271 96H60.9097L62.6431 87.7847C62.7163 87.4673 62.7692 87.1825 62.8018 86.9302C62.8424 86.6779 62.8628 86.4419 62.8628 86.2222C62.8628 85.6851 62.7285 85.2822 62.46 85.0137C62.1995 84.7451 61.8089 84.6108 61.2881 84.6108C60.7184 84.6108 60.1569 84.8306 59.6035 85.27C59.0501 85.7095 58.5496 86.3483 58.1021 87.1865C57.6545 88.0247 57.3005 89.0379 57.04 90.2261L55.8193 96H52.8896ZM71.2417 96L69.5938 82.4868H72.4258L73.1094 89.9087C73.1419 90.2261 73.1704 90.6045 73.1948 91.0439C73.2192 91.4834 73.2396 91.9147 73.2559 92.3379C73.2803 92.7529 73.2925 93.0947 73.2925 93.3633H73.3901C73.5285 93.0296 73.6872 92.6512 73.8662 92.228C74.0534 91.7967 74.2406 91.3776 74.4277 90.9707C74.6149 90.5557 74.7817 90.2057 74.9282 89.9209L78.7979 82.4868H81.8618L74.5254 96H71.2417ZM82.3672 96L85.2358 82.4868H88.0923L85.2236 96H82.3672ZM87.2988 80.4604C86.8757 80.4604 86.5216 80.3587 86.2368 80.1553C85.952 79.9437 85.8096 79.6141 85.8096 79.1665C85.8096 78.7922 85.8787 78.4666 86.0171 78.1899C86.1636 77.9132 86.3711 77.7017 86.6396 77.5552C86.9163 77.4006 87.2459 77.3232 87.6284 77.3232C88.0516 77.3232 88.3975 77.425 88.666 77.6284C88.9346 77.8237 89.0688 78.1411 89.0688 78.5806C89.0688 79.1502 88.9102 79.606 88.5928 79.9478C88.2754 80.2896 87.8441 80.4604 87.2988 80.4604ZM94.811 96.2441C94.1193 96.2441 93.4886 96.0773 92.9189 95.7437C92.3574 95.4019 91.9098 94.881 91.5762 94.1812C91.2425 93.4731 91.0757 92.5739 91.0757 91.4834C91.0757 90.5394 91.1733 89.6198 91.3687 88.7246C91.5721 87.8294 91.8569 86.9912 92.2231 86.21C92.5975 85.4287 93.0492 84.741 93.5781 84.147C94.1071 83.5448 94.7052 83.0768 95.3726 82.7432C96.0399 82.4014 96.7601 82.2305 97.5332 82.2305C98.1191 82.2305 98.6318 82.3322 99.0713 82.5356C99.5107 82.731 99.881 82.9954 100.182 83.3291C100.483 83.6628 100.727 84.033 100.915 84.4399H101.024L101.757 82.4868H103.954L101.085 96H98.9004L99.1689 93.8149H99.0713C98.7214 94.2625 98.3307 94.6694 97.8994 95.0356C97.4762 95.4019 97.0083 95.6948 96.4956 95.9146C95.9829 96.1343 95.4214 96.2441 94.811 96.2441ZM95.8608 93.9126C96.4305 93.9126 96.9757 93.701 97.4966 93.2778C98.0174 92.8465 98.4772 92.2769 98.876 91.5688C99.2829 90.8608 99.584 90.0837 99.7793 89.2373C99.877 88.8304 99.9421 88.4438 99.9746 88.0776C100.015 87.7114 100.036 87.3452 100.036 86.979C100.036 86.271 99.8485 85.6932 99.4741 85.2456C99.0998 84.798 98.5871 84.5742 97.936 84.5742C97.4884 84.5742 97.0612 84.7004 96.6543 84.9526C96.2555 85.2049 95.8934 85.5549 95.5679 86.0024C95.2424 86.4419 94.9575 86.9505 94.7134 87.5283C94.4774 88.1061 94.2943 88.7287 94.1641 89.396C94.042 90.0552 93.981 90.7266 93.981 91.4102C93.981 92.2321 94.1437 92.8547 94.4692 93.2778C94.8029 93.701 95.2668 93.9126 95.8608 93.9126ZM110.575 96.2441C109.875 96.2441 109.241 96.0773 108.671 95.7437C108.109 95.41 107.662 94.8932 107.328 94.1934C106.994 93.4854 106.828 92.578 106.828 91.4712C106.828 90.5435 106.921 89.6361 107.108 88.749C107.304 87.8538 107.584 87.0156 107.951 86.2344C108.317 85.445 108.764 84.7533 109.293 84.1592C109.822 83.557 110.421 83.089 111.088 82.7554C111.763 82.4136 112.496 82.2427 113.285 82.2427C113.871 82.2427 114.372 82.3444 114.787 82.5479C115.202 82.7513 115.552 83.0199 115.836 83.3535C116.121 83.6872 116.361 84.0493 116.557 84.4399H116.667C116.691 84.2284 116.719 83.9598 116.752 83.6343C116.793 83.3006 116.841 82.9425 116.898 82.5601C116.955 82.1694 117.025 81.791 117.106 81.4248L118.046 77.0059H120.89L116.862 96H114.628L114.896 93.8149H114.811C114.453 94.2707 114.062 94.6816 113.639 95.0479C113.224 95.4141 112.764 95.707 112.26 95.9268C111.755 96.1383 111.194 96.2441 110.575 96.2441ZM111.686 93.9126C112.069 93.9126 112.435 93.8149 112.785 93.6196C113.143 93.4243 113.472 93.1558 113.773 92.814C114.083 92.464 114.363 92.0653 114.616 91.6177C114.868 91.1619 115.084 90.6777 115.263 90.165C115.442 89.6523 115.58 89.1315 115.678 88.6025C115.775 88.0736 115.824 87.5609 115.824 87.0645C115.824 86.3076 115.641 85.7054 115.275 85.2578C114.917 84.8021 114.38 84.5742 113.664 84.5742C113.2 84.5742 112.768 84.7044 112.37 84.9648C111.971 85.2253 111.609 85.5793 111.283 86.0269C110.958 86.4744 110.677 86.9912 110.441 87.5771C110.213 88.1549 110.038 88.7734 109.916 89.4326C109.794 90.0918 109.733 90.751 109.733 91.4102C109.733 92.2321 109.896 92.8547 110.221 93.2778C110.555 93.701 111.043 93.9126 111.686 93.9126ZM126.461 96.2441C125.77 96.2441 125.139 96.0773 124.569 95.7437C124.008 95.4019 123.56 94.881 123.227 94.1812C122.893 93.4731 122.726 92.5739 122.726 91.4834C122.726 90.5394 122.824 89.6198 123.019 88.7246C123.222 87.8294 123.507 86.9912 123.874 86.21C124.248 85.4287 124.7 84.741 125.229 84.147C125.757 83.5448 126.356 83.0768 127.023 82.7432C127.69 82.4014 128.41 82.2305 129.184 82.2305C129.77 82.2305 130.282 82.3322 130.722 82.5356C131.161 82.731 131.531 82.9954 131.833 83.3291C132.134 83.6628 132.378 84.033 132.565 84.4399H132.675L133.407 82.4868H135.604L132.736 96H130.551L130.819 93.8149H130.722C130.372 94.2625 129.981 94.6694 129.55 95.0356C129.127 95.4019 128.659 95.6948 128.146 95.9146C127.633 96.1343 127.072 96.2441 126.461 96.2441ZM127.511 93.9126C128.081 93.9126 128.626 93.701 129.147 93.2778C129.668 92.8465 130.128 92.2769 130.526 91.5688C130.933 90.8608 131.234 90.0837 131.43 89.2373C131.527 88.8304 131.592 88.4438 131.625 88.0776C131.666 87.7114 131.686 87.3452 131.686 86.979C131.686 86.271 131.499 85.6932 131.125 85.2456C130.75 84.798 130.237 84.5742 129.586 84.5742C129.139 84.5742 128.712 84.7004 128.305 84.9526C127.906 85.2049 127.544 85.5549 127.218 86.0024C126.893 86.4419 126.608 86.9505 126.364 87.5283C126.128 88.1061 125.945 88.7287 125.814 89.396C125.692 90.0552 125.631 90.7266 125.631 91.4102C125.631 92.2321 125.794 92.8547 126.12 93.2778C126.453 93.701 126.917 93.9126 127.511 93.9126ZM139.149 90.5557L141.322 78.1533H144.63L141.542 90.5557H139.149ZM139.308 96.3296C138.763 96.3296 138.364 96.1872 138.112 95.9023C137.868 95.6094 137.746 95.2513 137.746 94.8281C137.746 94.2829 137.908 93.7865 138.234 93.3389C138.559 92.8913 139.105 92.6675 139.87 92.6675C140.325 92.6675 140.688 92.8018 140.956 93.0703C141.233 93.3307 141.371 93.701 141.371 94.1812C141.371 94.759 141.192 95.2635 140.834 95.6948C140.476 96.118 139.967 96.3296 139.308 96.3296Z" fill="black"/>
</svg>
