<?xml version="1.0" encoding="utf-8"?>
<!-- Generator: Adobe Illustrator 16.0.3, SVG Export Plug-In . SVG Version: 6.00 Build 0)  -->
<!DOCTYPE svg PUBLIC "-//W3C//DTD SVG 1.1//EN" "http://www.w3.org/Graphics/SVG/1.1/DTD/svg11.dtd">
<svg version="1.1" id="Capa_1" xmlns="http://www.w3.org/2000/svg" xmlns:xlink="http://www.w3.org/1999/xlink" x="0px" y="0px"
	 width="328.689px" height="332.596px" viewBox="0 0 328.689 332.596" enable-background="new 0 0 328.689 332.596"
	 xml:space="preserve">
<g>
	<path fill-rule="evenodd" clip-rule="evenodd" d="M211.653,147.365c0.002,13.596-0.154,27.195,0.133,40.787
		c0.057,2.737,1.193,5.888,2.844,8.084c11.637,15.496,13.175,35.979,3.564,51.761c-10.194,16.744-28.06,24.916-47.536,21.743
		c-18.3-2.979-32.996-17.318-36.664-36.53c-2.541-13.32,0.715-25.475,8.671-36.554c1.886-2.631,3.187-6.327,3.216-9.547
		c0.26-26.484,0.088-52.972,0.186-79.458c0.062-16.822,11.89-30.705,27.507-32.611c18.073-2.206,33.018,7.532,37.133,24.753
		c1.128,4.716,0.852,9.808,0.907,14.728C211.73,125.468,211.651,136.417,211.653,147.365z M197.013,151.284
		c0-14.475,0.119-28.951-0.039-43.425c-0.125-11.319-8.382-18.941-19.451-18.32c-10.02,0.563-16.808,8.287-16.828,19.401
		c-0.048,28.42,0.085,56.841-0.175,85.259c-0.029,2.951-1.51,6.54-3.524,8.715c-11.98,12.927-12.097,31.942,0.122,43.874
		c12.12,11.831,31.376,11.816,43.514-0.029c12.205-11.908,12.056-31.023,0.063-43.87c-2.018-2.162-3.433-5.746-3.508-8.713
		C196.83,179.885,197.023,165.583,197.013,151.284z"/>
	<path fill-rule="evenodd" clip-rule="evenodd" d="M167.422,181.696c0.004-7.065,0.135-14.135-0.052-21.193
		c-0.092-3.687,1.374-4.86,4.972-4.998c17.952-0.685,17.947-0.765,17.947,16.877c-0.002,9.186,0.167,18.375-0.075,27.554
		c-0.116,4.332,1.124,7.613,3.977,10.969c10.729,12.635,6.652,29.138-8.204,34.354c-8.545,3.003-18.3,0.281-23.941-6.685
		c-5.995-7.406-7.294-16.934-0.756-24.302c6.217-7.004,6.348-14.401,6.14-22.509C167.341,188.41,167.416,185.053,167.422,181.696z"
		/>
</g>
</svg>
